<?xml version="1.0" encoding="utf-8"?>
<!-- Generator: Adobe Illustrator 27.0.0, SVG Export Plug-In . SVG Version: 6.00 Build 0)  -->
<svg version="1.1" id="fl-legend-discrete-color-0-svg-screenshot-container"
	 xmlns="http://www.w3.org/2000/svg" xmlns:xlink="http://www.w3.org/1999/xlink" x="0px" y="0px" viewBox="0 0 800 514.1"
	 style="enable-background:new 0 0 800 514.1;" xml:space="preserve">
<style type="text/css">
	.st0{fill:none;stroke:#DDDDDD;}
	.st1{display:none;fill:none;stroke:#FF0000;}
	.st2{clip-path:url(#SVGID_00000061454661635085223850000014289250350300604862_);}
	.st3{clip-path:url(#SVGID_00000006679700881674330460000005903928209849757082_);}
	
		.st4{opacity:0.7;clip-path:url(#SVGID_00000134963856931676925550000012506329028697368227_);fill:none;stroke:#DDDDDD;stroke-width:5.6;enable-background:new    ;}
	.st5{clip-path:url(#SVGID_00000147185853558795388730000008305558452670585258_);}
	
		.st6{opacity:0.7;clip-path:url(#SVGID_00000026885339021132776400000002798357604351688104_);fill:none;stroke:#DDDDDD;stroke-width:5.6;enable-background:new    ;}
	.st7{clip-path:url(#SVGID_00000104685207693938781070000017903182241155680145_);}
	
		.st8{opacity:0.7;clip-path:url(#SVGID_00000104690132182193347140000005758516330865886086_);fill:none;stroke:#DDDDDD;stroke-width:5.6;enable-background:new    ;}
	.st9{clip-path:url(#SVGID_00000034784374157474292420000001814799978699973802_);}
	
		.st10{opacity:0.7;clip-path:url(#SVGID_00000137134359765621161280000012236600928382566538_);fill:none;stroke:#DDDDDD;stroke-width:5.6;enable-background:new    ;}
	.st11{clip-path:url(#SVGID_00000156546171711934557380000015505896958551036083_);}
	
		.st12{opacity:0.7;clip-path:url(#SVGID_00000078742093427729093540000017840844282538862490_);fill:none;stroke:#DDDDDD;stroke-width:5.6;enable-background:new    ;}
	.st13{clip-path:url(#SVGID_00000178174983461953139540000007139793888164960401_);}
	
		.st14{opacity:0.7;clip-path:url(#SVGID_00000012441782507007087900000017155986632561704887_);fill:none;stroke:#DDDDDD;stroke-width:5.6;enable-background:new    ;}
	.st15{clip-path:url(#SVGID_00000075848433058455267820000008744111043827620231_);}
	
		.st16{opacity:0.7;clip-path:url(#SVGID_00000049198309237726203170000014018344384975879338_);fill:none;stroke:#DDDDDD;stroke-width:5.6;enable-background:new    ;}
	.st17{clip-path:url(#SVGID_00000018929256805386865640000000474976717811998381_);}
	
		.st18{opacity:0.7;clip-path:url(#SVGID_00000011001862089610208090000007191214939810401197_);fill:none;stroke:#DDDDDD;stroke-width:5.6;enable-background:new    ;}
	.st19{clip-path:url(#SVGID_00000147920873967477943310000007663238700103254698_);}
	
		.st20{opacity:0.7;clip-path:url(#SVGID_00000183215714993561014010000015295414635363024303_);fill:none;stroke:#DDDDDD;stroke-width:5.6;enable-background:new    ;}
	.st21{clip-path:url(#SVGID_00000083083036280821616810000007227166002354948229_);}
	
		.st22{opacity:0.7;clip-path:url(#SVGID_00000073692502604001897370000001050476893941521306_);fill:none;stroke:#DDDDDD;stroke-width:5.6;enable-background:new    ;}
	.st23{clip-path:url(#SVGID_00000112601641852921292610000002832439583336771503_);}
	
		.st24{opacity:0.7;clip-path:url(#SVGID_00000048470907362286300570000015578711003504601508_);fill:none;stroke:#DDDDDD;stroke-width:5.6;enable-background:new    ;}
	.st25{clip-path:url(#SVGID_00000005983233103280796080000010501336300748211079_);}
	
		.st26{opacity:0.7;clip-path:url(#SVGID_00000063615148902439759350000002875551827471514022_);fill:none;stroke:#DDDDDD;stroke-width:5.6;enable-background:new    ;}
	.st27{fill:none;stroke:#DDDDDD;stroke-linecap:square;}
	.st28{font-family:'HelveticaNeue';}
	.st29{font-size:12.6085px;}
	.st30{fill:none;stroke:#DDDDDD;stroke-width:5;stroke-miterlimit:10;}
	.st31{fill:#FFDB78;stroke:#FFDB78;stroke-width:1.4665;stroke-miterlimit:5.866;stroke-opacity:0;}
	.st32{fill:#D1A347;stroke:#D1A347;stroke-width:1.4665;stroke-miterlimit:5.866;stroke-opacity:0;}
	.st33{fill:#FFDB78;}
	.st34{font-size:13px;}
	.st35{fill:#D1A347;}
	.st36{font-size:11px;}
	.st37{fill:#FFFFFF;}
</style>
<line class="st0" x1="396.2" y1="83.1" x2="396.2" y2="68.2"/>
<rect x="10.5" y="56.5" class="st1" width="775" height="508"/>
<g>
	<defs>
		<polygon id="SVGID_1_" points="13.5,57.5 14.5,57.5 13.5,58.5 		"/>
	</defs>
	<defs>
		<polygon id="SVGID_00000088851340478613757540000007914162160858075794_" points="11.5,55.5 10.5,55.5 11.5,54.5 		"/>
	</defs>
	<clipPath id="SVGID_00000123400502011013568780000003788426940308416406_">
		<use xlink:href="#SVGID_1_"  style="overflow:visible;"/>
	</clipPath>
	
		<clipPath id="SVGID_00000006705314865429854170000007667539622661371028_" style="clip-path:url(#SVGID_00000123400502011013568780000003788426940308416406_);">
		<use xlink:href="#SVGID_00000088851340478613757540000007914162160858075794_"  style="overflow:visible;"/>
	</clipPath>
</g>
<g>
	<g>
		<defs>
			<polygon id="SVGID_00000170991784753847152440000012371907718402770605_" points="13.5,43.5 14.5,43.5 13.5,44.5 			"/>
		</defs>
		<defs>
			<polygon id="SVGID_00000069369469527244921040000008437191454234632859_" points="11.5,41.5 10.5,41.5 11.5,40.5 			"/>
		</defs>
		<clipPath id="SVGID_00000132089812012914965070000007642695143188572821_">
			<use xlink:href="#SVGID_00000170991784753847152440000012371907718402770605_"  style="overflow:visible;"/>
		</clipPath>
		
			<clipPath id="SVGID_00000124842913716272411020000006218582766607471547_" style="clip-path:url(#SVGID_00000132089812012914965070000007642695143188572821_);">
			<use xlink:href="#SVGID_00000069369469527244921040000008437191454234632859_"  style="overflow:visible;"/>
		</clipPath>
		
			<path marker-end="url(#arrowhead-line-University-of-California-Berkeley-facet-)" style="opacity:0.7;clip-path:url(#SVGID_00000124842913716272411020000006218582766607471547_);fill:none;stroke:#DDDDDD;stroke-width:5.6;enable-background:new    ;" d="
			M410.1,81.6h358.1"/>
	</g>
	<g>
		<defs>
			<polygon id="SVGID_00000044142913192630072210000012532145849782846601_" points="13.5,43.5 14.5,43.5 13.5,44.5 			"/>
		</defs>
		<defs>
			<polygon id="SVGID_00000075149216912727656610000007478445336792758152_" points="11.5,41.5 10.5,41.5 11.5,40.5 			"/>
		</defs>
		<clipPath id="SVGID_00000067938368593838112780000015429953316962752943_">
			<use xlink:href="#SVGID_00000044142913192630072210000012532145849782846601_"  style="overflow:visible;"/>
		</clipPath>
		
			<clipPath id="SVGID_00000178924361352117914670000017937884902877957811_" style="clip-path:url(#SVGID_00000067938368593838112780000015429953316962752943_);">
			<use xlink:href="#SVGID_00000075149216912727656610000007478445336792758152_"  style="overflow:visible;"/>
		</clipPath>
		
			<path marker-end="url(#arrowhead-line-The-University-of-Texas-at-Austin-facet-)" style="opacity:0.7;clip-path:url(#SVGID_00000178924361352117914670000017937884902877957811_);fill:none;stroke:#DDDDDD;stroke-width:5.6;enable-background:new    ;" d="
			M504.9,118.2h242.2"/>
	</g>
	<g>
		<defs>
			<polygon id="SVGID_00000137106573020073965880000001030126833070151822_" points="13.5,43.5 14.5,43.5 13.5,44.5 			"/>
		</defs>
		<defs>
			<polygon id="SVGID_00000035512362276537653000000008629281271818907565_" points="11.5,41.5 10.5,41.5 11.5,40.5 			"/>
		</defs>
		<clipPath id="SVGID_00000123398670492389471560000004577308966172114062_">
			<use xlink:href="#SVGID_00000137106573020073965880000001030126833070151822_"  style="overflow:visible;"/>
		</clipPath>
		
			<clipPath id="SVGID_00000043438209515277141230000016286965415155154085_" style="clip-path:url(#SVGID_00000123398670492389471560000004577308966172114062_);">
			<use xlink:href="#SVGID_00000035512362276537653000000008629281271818907565_"  style="overflow:visible;"/>
		</clipPath>
		
			<path marker-end="url(#arrowhead-line-University-of-Colorado-Boulder-facet-)" style="opacity:0.7;clip-path:url(#SVGID_00000043438209515277141230000016286965415155154085_);fill:none;stroke:#DDDDDD;stroke-width:5.6;enable-background:new    ;" d="
			M346.9,154.9h210.6"/>
	</g>
	<g>
		<defs>
			<polygon id="SVGID_00000172438834950292065860000014810152060060171444_" points="13.5,43.5 14.5,43.5 13.5,44.5 			"/>
		</defs>
		<defs>
			<polygon id="SVGID_00000049193670971025222520000006812725316735337660_" points="11.5,41.5 10.5,41.5 11.5,40.5 			"/>
		</defs>
		<clipPath id="SVGID_00000012433811654907347810000017531895758823848328_">
			<use xlink:href="#SVGID_00000172438834950292065860000014810152060060171444_"  style="overflow:visible;"/>
		</clipPath>
		
			<clipPath id="SVGID_00000125569244486296342030000008843221174118558378_" style="clip-path:url(#SVGID_00000012433811654907347810000017531895758823848328_);">
			<use xlink:href="#SVGID_00000049193670971025222520000006812725316735337660_"  style="overflow:visible;"/>
		</clipPath>
		
			<path marker-end="url(#arrowhead-line-University-of-Arizona-facet-)" style="opacity:0.7;clip-path:url(#SVGID_00000125569244486296342030000008843221174118558378_);fill:none;stroke:#DDDDDD;stroke-width:5.6;enable-background:new    ;" d="
			M494.4,191.6h179"/>
	</g>
	<g>
		<defs>
			<polygon id="SVGID_00000061455340301900534230000001097159100359174304_" points="13.5,43.5 14.5,43.5 13.5,44.5 			"/>
		</defs>
		<defs>
			<polygon id="SVGID_00000023995165264397551190000010274060868111432580_" points="11.5,41.5 10.5,41.5 11.5,40.5 			"/>
		</defs>
		<clipPath id="SVGID_00000160905604341930584440000010824247630708869520_">
			<use xlink:href="#SVGID_00000061455340301900534230000001097159100359174304_"  style="overflow:visible;"/>
		</clipPath>
		
			<clipPath id="SVGID_00000013162123473840828810000001723995581452458132_" style="clip-path:url(#SVGID_00000160905604341930584440000010824247630708869520_);">
			<use xlink:href="#SVGID_00000023995165264397551190000010274060868111432580_"  style="overflow:visible;"/>
		</clipPath>
		
			<path marker-end="url(#arrowhead-line-University-of-Nevada-Reno-facet-)" style="opacity:0.7;clip-path:url(#SVGID_00000013162123473840828810000001723995581452458132_);fill:none;stroke:#DDDDDD;stroke-width:5.6;enable-background:new    ;" d="
			M462.8,228.2h179"/>
	</g>
	<g>
		<defs>
			<polygon id="SVGID_00000121238574283702545820000012245026816613619891_" points="13.5,43.5 14.5,43.5 13.5,44.5 			"/>
		</defs>
		<defs>
			<polygon id="SVGID_00000159450559194843306030000005461509840705017505_" points="11.5,41.5 10.5,41.5 11.5,40.5 			"/>
		</defs>
		<clipPath id="SVGID_00000078757397938038610010000012471107613544894367_">
			<use xlink:href="#SVGID_00000121238574283702545820000012245026816613619891_"  style="overflow:visible;"/>
		</clipPath>
		
			<clipPath id="SVGID_00000000927870565248357910000014120243215143061123_" style="clip-path:url(#SVGID_00000078757397938038610010000012471107613544894367_);">
			<use xlink:href="#SVGID_00000159450559194843306030000005461509840705017505_"  style="overflow:visible;"/>
		</clipPath>
		
			<path marker-end="url(#arrowhead-line-University-at-Buffalo-facet-)" style="opacity:0.7;clip-path:url(#SVGID_00000000927870565248357910000014120243215143061123_);fill:none;stroke:#DDDDDD;stroke-width:5.6;enable-background:new    ;" d="
			M304.8,264.9h168.5"/>
	</g>
	<g>
		<defs>
			<polygon id="SVGID_00000037690823684012552400000010436215892889766834_" points="13.5,43.5 14.5,43.5 13.5,44.5 			"/>
		</defs>
		<defs>
			<polygon id="SVGID_00000016765618275777840790000012830267057303174294_" points="11.5,41.5 10.5,41.5 11.5,40.5 			"/>
		</defs>
		<clipPath id="SVGID_00000043431901979362599920000012143667835496299151_">
			<use xlink:href="#SVGID_00000037690823684012552400000010436215892889766834_"  style="overflow:visible;"/>
		</clipPath>
		
			<clipPath id="SVGID_00000114038015555801025290000001880846731744437666_" style="clip-path:url(#SVGID_00000043431901979362599920000012143667835496299151_);">
			<use xlink:href="#SVGID_00000016765618275777840790000012830267057303174294_"  style="overflow:visible;"/>
		</clipPath>
		
			<path marker-end="url(#arrowhead-line-University-of-Rhode-Island-facet-)" style="opacity:0.7;clip-path:url(#SVGID_00000114038015555801025290000001880846731744437666_);fill:none;stroke:#DDDDDD;stroke-width:5.6;enable-background:new    ;" d="
			M315.3,301.6h168.5"/>
	</g>
	<g>
		<defs>
			<polygon id="SVGID_00000059282628462784340230000016712192261083785388_" points="13.5,43.5 14.5,43.5 13.5,44.5 			"/>
		</defs>
		<defs>
			<polygon id="SVGID_00000048499682179556516410000005418021332157017241_" points="11.5,41.5 10.5,41.5 11.5,40.5 			"/>
		</defs>
		<clipPath id="SVGID_00000027586883991475022560000012177865815051188370_">
			<use xlink:href="#SVGID_00000059282628462784340230000016712192261083785388_"  style="overflow:visible;"/>
		</clipPath>
		
			<clipPath id="SVGID_00000052104011595979205840000013945000734280859560_" style="clip-path:url(#SVGID_00000027586883991475022560000012177865815051188370_);">
			<use xlink:href="#SVGID_00000048499682179556516410000005418021332157017241_"  style="overflow:visible;"/>
		</clipPath>
		
			<path marker-end="url(#arrowhead-line-Rutgers-University-New-Brunswick-facet-)" style="opacity:0.7;clip-path:url(#SVGID_00000052104011595979205840000013945000734280859560_);fill:none;stroke:#DDDDDD;stroke-width:5.6;enable-background:new    ;" d="
			M346.9,338.2h147.4"/>
	</g>
	<g>
		<defs>
			<polygon id="SVGID_00000172427477321243770480000003619043194440631229_" points="13.5,43.5 14.5,43.5 13.5,44.5 			"/>
		</defs>
		<defs>
			<polygon id="SVGID_00000119803887241210215170000000580822727322330245_" points="11.5,41.5 10.5,41.5 11.5,40.5 			"/>
		</defs>
		<clipPath id="SVGID_00000008119933453493535680000012091364795902493620_">
			<use xlink:href="#SVGID_00000172427477321243770480000003619043194440631229_"  style="overflow:visible;"/>
		</clipPath>
		
			<clipPath id="SVGID_00000049942978881519583680000015720521194346141618_" style="clip-path:url(#SVGID_00000008119933453493535680000012091364795902493620_);">
			<use xlink:href="#SVGID_00000119803887241210215170000000580822727322330245_"  style="overflow:visible;"/>
		</clipPath>
		
			<path marker-end="url(#arrowhead-line-University-of-Florida-facet-)" style="opacity:0.7;clip-path:url(#SVGID_00000049942978881519583680000015720521194346141618_);fill:none;stroke:#DDDDDD;stroke-width:5.6;enable-background:new    ;" d="
			M441.7,374.9H547"/>
	</g>
	<g>
		<defs>
			<polygon id="SVGID_00000015352278760241667110000014476049791310299066_" points="13.5,43.5 14.5,43.5 13.5,44.5 			"/>
		</defs>
		<defs>
			<polygon id="SVGID_00000126325272240046754630000011274526001083098024_" points="11.5,41.5 10.5,41.5 11.5,40.5 			"/>
		</defs>
		<clipPath id="SVGID_00000106132397413451512280000003410569618302157981_">
			<use xlink:href="#SVGID_00000015352278760241667110000014476049791310299066_"  style="overflow:visible;"/>
		</clipPath>
		
			<clipPath id="SVGID_00000142137482737051077750000012289807092253365158_" style="clip-path:url(#SVGID_00000106132397413451512280000003410569618302157981_);">
			<use xlink:href="#SVGID_00000126325272240046754630000011274526001083098024_"  style="overflow:visible;"/>
		</clipPath>
		
			<path marker-end="url(#arrowhead-line-University-of-Nebraska-Lincoln-facet-)" style="opacity:0.7;clip-path:url(#SVGID_00000142137482737051077750000012289807092253365158_);fill:none;stroke:#DDDDDD;stroke-width:5.6;enable-background:new    ;" d="
			M294.3,411.5h105.3"/>
	</g>
	<g>
		<defs>
			<polygon id="SVGID_00000106127418379421149810000015084739553926478752_" points="13.5,43.5 14.5,43.5 13.5,44.5 			"/>
		</defs>
		<defs>
			<polygon id="SVGID_00000123425121718712161000000017679086158870600096_" points="11.5,41.5 10.5,41.5 11.5,40.5 			"/>
		</defs>
		<clipPath id="SVGID_00000088117229047752199340000005554147568946636967_">
			<use xlink:href="#SVGID_00000106127418379421149810000015084739553926478752_"  style="overflow:visible;"/>
		</clipPath>
		
			<clipPath id="SVGID_00000157298773510330379860000008426958598002486405_" style="clip-path:url(#SVGID_00000088117229047752199340000005554147568946636967_);">
			<use xlink:href="#SVGID_00000123425121718712161000000017679086158870600096_"  style="overflow:visible;"/>
		</clipPath>
		
			<path marker-end="url(#arrowhead-line-University-of-Massachusetts-Amherst-facet-)" style="opacity:0.7;clip-path:url(#SVGID_00000157298773510330379860000008426958598002486405_);fill:none;stroke:#DDDDDD;stroke-width:5.6;enable-background:new    ;" d="
			M304.8,448.2h105.3"/>
	</g>
	<g>
		<defs>
			<polygon id="SVGID_00000074416915704733196660000015668671568815718060_" points="13.5,43.5 14.5,43.5 13.5,44.5 			"/>
		</defs>
		<defs>
			<polygon id="SVGID_00000144307005811012323240000010349767938130660020_" points="11.5,41.5 10.5,41.5 11.5,40.5 			"/>
		</defs>
		<clipPath id="SVGID_00000033335882304583542410000005655141563557083271_">
			<use xlink:href="#SVGID_00000074416915704733196660000015668671568815718060_"  style="overflow:visible;"/>
		</clipPath>
		
			<clipPath id="SVGID_00000150063454015216809170000000844674778189709960_" style="clip-path:url(#SVGID_00000033335882304583542410000005655141563557083271_);">
			<use xlink:href="#SVGID_00000144307005811012323240000010349767938130660020_"  style="overflow:visible;"/>
		</clipPath>
		
			<path marker-end="url(#arrowhead-line-University-of-Kansas-facet-)" style="opacity:0.7;clip-path:url(#SVGID_00000150063454015216809170000000844674778189709960_);fill:none;stroke:#DDDDDD;stroke-width:5.6;enable-background:new    ;" d="
			M294.3,484.9h115.8"/>
	</g>
</g>
<g id="axes-highlights">
	<g>
		<g transform="translate(0, 14)">
		</g>
	</g>
</g>
<g>
	<defs>
		<rect id="SVGID_00000073702725729979466100000012252770031209580935_" x="243" y="68.3" width="510.7" height="426.7"/>
	</defs>
	<clipPath id="SVGID_00000170237485421358887100000017451670224873961349_">
		<use xlink:href="#SVGID_00000073702725729979466100000012252770031209580935_"  style="overflow:visible;"/>
	</clipPath>
</g>
<line class="st27" x1="243" y1="495" x2="243" y2="68.3"/>
<line class="st0" x1="243" y1="477.2" x2="236.2" y2="477.2"/>
<text transform="matrix(1 0 0 1 111.7354 481.2357)" class="st28 st29">University of Kansas</text>
<line class="st0" x1="243" y1="441.6" x2="236.2" y2="441.6"/>
<text transform="matrix(1 0 0 1 21.4234 445.6771)" class="st28 st29">University of Massachusetts-Amherst</text>
<line class="st0" x1="243" y1="406.1" x2="236.2" y2="406.1"/>
<text transform="matrix(1 0 0 1 57.399 410.1185)" class="st28 st29">University of Nebraska-Lincoln</text>
<line class="st0" x1="243" y1="370.5" x2="236.2" y2="370.5"/>
<text transform="matrix(1 0 0 1 115.1427 374.5599)" class="st28 st29">University of Florida</text>
<line class="st0" x1="243" y1="335" x2="236.2" y2="335"/>
<text transform="matrix(1 0 0 1 35.6969 339.0013)" class="st28 st29">Rutgers University-New Brunswick</text>
<line class="st0" x1="243" y1="299.4" x2="236.2" y2="299.4"/>
<text transform="matrix(1 0 0 1 80.4796 303.4427)" class="st28 st29">University of Rhode Island</text>
<line class="st0" x1="243" y1="263.9" x2="236.2" y2="263.9"/>
<text transform="matrix(1 0 0 1 114.671 267.8846)" class="st28 st29">University at Buffalo</text>
<line class="st0" x1="243" y1="228.3" x2="236.2" y2="228.3"/>
<text transform="matrix(1 0 0 1 77.0904 232.326)" class="st28 st29">University of Nevada-Reno</text>
<line class="st0" x1="243" y1="192.7" x2="236.2" y2="192.7"/>
<text transform="matrix(1 0 0 1 111.7354 196.7674)" class="st28 st29">University of Arizona</text>
<line class="st0" x1="243" y1="157.2" x2="236.2" y2="157.2"/>
<text transform="matrix(1 0 0 1 57.3868 161.2088)" class="st28 st29">University of Colorado Boulder</text>
<line class="st0" x1="243" y1="121.6" x2="236.2" y2="121.6"/>
<text transform="matrix(1 0 0 1 46.0675 125.6502)" class="st28 st29">The University of Texas at Austin</text>
<line class="st0" x1="243" y1="86.1" x2="236.2" y2="86.1"/>
<text transform="matrix(1 0 0 1 49.2599 90.0916)" class="st28 st29">University of California-Berkeley</text>
<g>
	<defs>
		<rect id="SVGID_00000028311433537205933700000006459938439923892662_" x="243" y="68.3" width="510.7" height="426.7"/>
	</defs>
	<clipPath id="SVGID_00000182510878510181909060000003574361675742660240_">
		<use xlink:href="#SVGID_00000028311433537205933700000006459938439923892662_"  style="overflow:visible;"/>
	</clipPath>
</g>
<line class="st30" x1="396.2" y1="86.1" x2="743.7" y2="86.1"/>
<line class="st30" x1="486.4" y1="121.6" x2="723.1" y2="121.6"/>
<line class="st30" x1="334.9" y1="157.2" x2="540.3" y2="157.2"/>
<line class="st30" x1="477.9" y1="192.7" x2="651.6" y2="192.7"/>
<line class="st30" x1="447.5" y1="228.3" x2="620.9" y2="228.3"/>
<line class="st30" x1="294.3" y1="264" x2="458.9" y2="264"/>
<line class="st30" x1="303.4" y1="299.7" x2="467.7" y2="299.7"/>
<line class="st30" x1="334.9" y1="335" x2="477.9" y2="335"/>
<line class="st30" x1="425.4" y1="370.5" x2="530.5" y2="370.5"/>
<line class="st30" x1="282.9" y1="406.1" x2="386" y2="406.1"/>
<line class="st30" x1="293.7" y1="441.4" x2="396.2" y2="441.4"/>
<line class="st30" x1="283.6" y1="477.2" x2="396.2" y2="477.2"/>
<line class="st0" x1="743.5" y1="83.5" x2="743.5" y2="68.5"/>
<path id="dot-0" vector-effect="non-scaling-stroke" class="st31" d="M402.1,86.1c0,3.2-2.6,5.8-5.8,5.8c-3.2,0-5.8-2.6-5.8-5.8
	s2.6-5.8,5.8-5.8C399.4,80.2,402.1,82.8,402.1,86.1"/>
<path id="dot-1" vector-effect="non-scaling-stroke" class="st32" d="M749.3,86.1c0,3.2-2.6,5.8-5.8,5.8s-5.8-2.6-5.8-5.8
	s2.6-5.8,5.8-5.8S749.3,82.8,749.3,86.1"/>
<path id="dot-2" vector-effect="non-scaling-stroke" class="st31" d="M494,121.6c0,3.2-2.6,5.8-5.8,5.8c-3.2,0-5.8-2.6-5.8-5.8
	s2.6-5.8,5.8-5.8C491.4,115.8,494,118.4,494,121.6"/>
<path id="dot-3" vector-effect="non-scaling-stroke" class="st32" d="M728.9,121.6c0,3.2-2.6,5.8-5.8,5.8s-5.8-2.6-5.8-5.8
	s2.6-5.8,5.8-5.8S728.9,118.4,728.9,121.6"/>
<path id="dot-4" vector-effect="non-scaling-stroke" class="st31" d="M340.8,157.2c0,3.2-2.6,5.8-5.8,5.8c-3.2,0-5.8-2.6-5.8-5.8
	s2.6-5.8,5.8-5.8C338.2,151.3,340.8,153.9,340.8,157.2"/>
<path id="dot-5" vector-effect="non-scaling-stroke" class="st32" d="M545.1,157.2c0,3.2-2.6,5.8-5.8,5.8c-3.2,0-5.8-2.6-5.8-5.8
	s2.6-5.8,5.8-5.8C542.4,151.3,545.1,153.9,545.1,157.2"/>
<path id="dot-6" vector-effect="non-scaling-stroke" class="st31" d="M483.8,192.7c0,3.2-2.6,5.8-5.8,5.8c-3.2,0-5.8-2.6-5.8-5.8
	s2.6-5.8,5.8-5.8C481.2,186.9,483.8,189.5,483.8,192.7"/>
<path id="dot-7" vector-effect="non-scaling-stroke" class="st32" d="M657.4,192.7c0,3.2-2.6,5.8-5.8,5.8c-3.2,0-5.8-2.6-5.8-5.8
	s2.6-5.8,5.8-5.8C654.8,186.9,657.4,189.5,657.4,192.7"/>
<path id="dot-8" vector-effect="non-scaling-stroke" class="st31" d="M453.1,228.3c0,3.2-2.6,5.8-5.8,5.8c-3.2,0-5.8-2.6-5.8-5.8
	s2.6-5.8,5.8-5.8C450.5,222.5,453.1,225.1,453.1,228.3"/>
<path id="dot-9" vector-effect="non-scaling-stroke" class="st32" d="M626.8,228.3c0,3.2-2.6,5.8-5.8,5.8c-3.2,0-5.8-2.6-5.8-5.8
	s2.6-5.8,5.8-5.8C624.2,222.5,626.8,225.1,626.8,228.3"/>
<path id="dot-10" vector-effect="non-scaling-stroke" class="st31" d="M299.9,263.9c0,3.2-2.6,5.8-5.8,5.8c-3.2,0-5.8-2.6-5.8-5.8
	c0-3.2,2.6-5.8,5.8-5.8C297.3,258,299.9,260.6,299.9,263.9"/>
<path id="dot-11" vector-effect="non-scaling-stroke" class="st32" d="M463.3,263.9c0,3.2-2.6,5.8-5.8,5.8c-3.2,0-5.8-2.6-5.8-5.8
	c0-3.2,2.6-5.8,5.8-5.8C460.7,258,463.3,260.6,463.3,263.9"/>
<path id="dot-12" vector-effect="non-scaling-stroke" class="st31" d="M310.1,299.4c0,3.2-2.6,5.8-5.8,5.8c-3.2,0-5.8-2.6-5.8-5.8
	c0-3.2,2.6-5.8,5.8-5.8C307.5,293.6,310.1,296.2,310.1,299.4"/>
<path id="dot-13" vector-effect="non-scaling-stroke" class="st32" d="M473.6,299.4c0,3.2-2.6,5.8-5.8,5.8c-3.2,0-5.8-2.6-5.8-5.8
	c0-3.2,2.6-5.8,5.8-5.8C470.9,293.6,473.6,296.2,473.6,299.4"/>
<path id="dot-14" vector-effect="non-scaling-stroke" class="st31" d="M340.8,335c0,3.2-2.6,5.8-5.8,5.8c-3.2,0-5.8-2.6-5.8-5.8
	c0-3.2,2.6-5.8,5.8-5.8C338.2,329.1,340.8,331.7,340.8,335"/>
<path id="dot-15" vector-effect="non-scaling-stroke" class="st32" d="M483.8,335c0,3.2-2.6,5.8-5.8,5.8c-3.2,0-5.8-2.6-5.8-5.8
	c0-3.2,2.6-5.8,5.8-5.8C481.2,329.1,483.8,331.7,483.8,335"/>
<path id="dot-16" vector-effect="non-scaling-stroke" class="st31" d="M432.7,370.5c0,3.2-2.6,5.8-5.8,5.8c-3.2,0-5.8-2.6-5.8-5.8
	c0-3.2,2.6-5.8,5.8-5.8C430.1,364.7,432.7,367.3,432.7,370.5"/>
<path id="dot-17" vector-effect="non-scaling-stroke" class="st32" d="M534.8,370.5c0,3.2-2.6,5.8-5.8,5.8s-5.8-2.6-5.8-5.8
	c0-3.2,2.6-5.8,5.8-5.8S534.8,367.3,534.8,370.5"/>
<path id="dot-18" vector-effect="non-scaling-stroke" class="st31" d="M289.7,406.1c0,3.2-2.6,5.8-5.8,5.8c-3.2,0-5.8-2.6-5.8-5.8
	c0-3.2,2.6-5.8,5.8-5.8C287.1,400.2,289.7,402.9,289.7,406.1"/>
<path id="dot-19" vector-effect="non-scaling-stroke" class="st32" d="M391.8,406.1c0,3.2-2.6,5.8-5.8,5.8c-3.2,0-5.8-2.6-5.8-5.8
	c0-3.2,2.6-5.8,5.8-5.8C389.2,400.2,391.8,402.9,391.8,406.1"/>
<path id="dot-20" vector-effect="non-scaling-stroke" class="st31" d="M299.9,441.6c0,3.2-2.6,5.8-5.8,5.8c-3.2,0-5.8-2.6-5.8-5.8
	c0-3.2,2.6-5.8,5.8-5.8C297.3,435.8,299.9,438.4,299.9,441.6"/>
<path id="dot-21" vector-effect="non-scaling-stroke" class="st32" d="M402.1,441.6c0,3.2-2.6,5.8-5.8,5.8c-3.2,0-5.8-2.6-5.8-5.8
	c0-3.2,2.6-5.8,5.8-5.8C399.4,435.8,402.1,438.4,402.1,441.6"/>
<path id="dot-22" vector-effect="non-scaling-stroke" class="st31" d="M289.7,477.2c0,3.2-2.6,5.8-5.8,5.8c-3.2,0-5.8-2.6-5.8-5.8
	c0-3.2,2.6-5.8,5.8-5.8C287.1,471.4,289.7,474,289.7,477.2"/>
<path id="dot-23" vector-effect="non-scaling-stroke" class="st32" d="M402.1,477.2c0,3.2-2.6,5.8-5.8,5.8c-3.2,0-5.8-2.6-5.8-5.8
	c0-3.2,2.6-5.8,5.8-5.8C399.4,471.4,402.1,474,402.1,477.2"/>
<path class="st30" d="M493.7,249.5"/>
<path class="st30" d="M278.3,249.5"/>
<text transform="matrix(1 0 0 1 284.7113 45.8127)"><tspan x="0" y="0" class="st33 st28 st34">Percent of freshmen</tspan><tspan x="17.1" y="15.6" class="st33 st28 st34">who are Hispanic</tspan></text>
<text transform="matrix(1 0 0 1 644.9395 30.2125)"><tspan x="0" y="0" class="st35 st28 st34">Percent of public</tspan><tspan x="-29.9" y="15.6" class="st35 st28 st34">high school graduates</tspan><tspan x="-41.9" y="31.2" class="st35 st28 st34">who are Hispanic/Latino</tspan></text>
<text transform="matrix(1 0 0 1 361.145 90.5746)" class="st33 st28 st36">20%</text>
<text transform="matrix(1 0 0 1 299.8596 161.1762)" class="st33 st28 st36">14%</text>
<text transform="matrix(1 0 0 1 453.073 125.65)" class="st33 st28 st36">29%</text>
<text transform="matrix(1 0 0 1 442.8588 196.7671)" class="st33 st28 st36">28%</text>
<text transform="matrix(1 0 0 1 412.2158 232.3256)" class="st33 st28 st36">25%</text>
<text transform="matrix(1 0 0 1 259.0027 267.8898)" class="st33 st28 st36">10%</text>
<text transform="matrix(1 0 0 1 269.217 303.4435)" class="st33 st28 st36">11%</text>
<text transform="matrix(1 0 0 1 299.8596 338.8112)" class="st33 st28 st36">14%</text>
<text transform="matrix(1 0 0 1 391.7874 374.5274)" class="st33 st28 st36">23%</text>
<text transform="matrix(1 0 0 1 254.9041 409.9278)" class="st33 st28 st36">9%</text>
<text transform="matrix(1 0 0 1 259.0029 444.8798)" class="st33 st28 st36">10%</text>
<text transform="matrix(1 0 0 1 254.9045 481.045)" class="st33 st28 st36">9%</text>
<text transform="matrix(1 0 0 1 755.3451 90.5745)" class="st35 st28 st36">54%</text>
<text transform="matrix(1 0 0 1 551.0602 161.1321)" class="st35 st28 st36">34%</text>
<text transform="matrix(1 0 0 1 734.9169 125.6498)" class="st35 st28 st36">52%</text>
<text transform="matrix(1 0 0 1 663.4169 196.723)" class="st35 st28 st36">45%</text>
<text transform="matrix(1 0 0 1 632.7738 232.2816)" class="st35 st28 st36">42%</text>
<text transform="matrix(1 0 0 1 469.3468 267.8457)" class="st35 st28 st36">26%</text>
<text transform="matrix(1 0 0 1 479.5605 303.3994)" class="st35 st28 st36">27%</text>
<text transform="matrix(1 0 0 1 489.7749 338.7672)" class="st35 st28 st36">28%</text>
<text transform="matrix(1 0 0 1 540.8459 374.4833)" class="st35 st28 st36">33%</text>
<text transform="matrix(1 0 0 1 397.8472 409.8838)" class="st35 st28 st36">19%</text>
<text transform="matrix(1 0 0 1 408.0607 444.8357)" class="st35 st28 st36">20%</text>
<text transform="matrix(1 0 0 1 408.061 481.0009)" class="st35 st28 st36">20%</text>
<rect x="10.5" y="139.9" class="st37" width="774.4" height="352.1"/>
</svg>
