<?xml version="1.0" encoding="utf-8"?>
<!-- Generator: Adobe Illustrator 27.0.0, SVG Export Plug-In . SVG Version: 6.00 Build 0)  -->
<svg version="1.1" id="fl-legend-discrete-color-0-svg-screenshot-container"
	 xmlns="http://www.w3.org/2000/svg" xmlns:xlink="http://www.w3.org/1999/xlink" x="0px" y="0px" viewBox="0 0 800 515.8"
	 style="enable-background:new 0 0 800 515.8;" xml:space="preserve">
<style type="text/css">
	.st0{clip-path:url(#SVGID_00000051354932332349766980000009642027108907854232_);}
	.st1{clip-path:url(#SVGID_00000150789982284267292580000017144934381128138400_);}
	.st2{opacity:0.7;fill:none;stroke:#BCBCBC;stroke-width:5.6;enable-background:new    ;}
	.st3{clip-path:url(#SVGID_00000132804637725365071300000008461635126786167981_);}
	.st4{clip-path:url(#SVGID_00000138546362272780882320000009458142617853826966_);}
	.st5{clip-path:url(#SVGID_00000033363728020792116310000009093585720268344474_);}
	.st6{clip-path:url(#SVGID_00000083085852739071337800000016462654701951338419_);}
	.st7{clip-path:url(#SVGID_00000014592207496564887880000001299464888440127167_);}
	.st8{clip-path:url(#SVGID_00000145760429007098710700000014941845939465831567_);}
	.st9{clip-path:url(#SVGID_00000086670113006767443480000004832044164793118893_);}
	.st10{clip-path:url(#SVGID_00000124119538457955105010000016084932084132663440_);}
	.st11{clip-path:url(#SVGID_00000065780155512667357150000001251941011222053515_);}
	.st12{clip-path:url(#SVGID_00000049943411676285576850000017123406228785069724_);}
	.st13{clip-path:url(#SVGID_00000003077934129012494690000016283885916511259790_);}
	.st14{clip-path:url(#SVGID_00000111193100225119610640000009462353500678593964_);}
	.st15{clip-path:url(#SVGID_00000008143957551730943990000008970628136816456348_);}
	.st16{clip-path:url(#SVGID_00000122710171645484016640000006286997281330811043_);}
	.st17{clip-path:url(#SVGID_00000149342091866324848640000000924250522730657923_);}
	.st18{clip-path:url(#SVGID_00000157301972533326612940000006726898109533767102_);}
	.st19{clip-path:url(#SVGID_00000117667861851236373560000002858330896398358410_);}
	.st20{clip-path:url(#SVGID_00000155869218687705234930000008444735817394057911_);}
	.st21{clip-path:url(#SVGID_00000043432859101869254230000005140126568508606395_);}
	.st22{clip-path:url(#SVGID_00000137837889488337331030000015124659000510900887_);}
	.st23{clip-path:url(#SVGID_00000139270473697231008150000014686823296809691302_);}
	.st24{clip-path:url(#SVGID_00000131353480337717060030000002662246678251926426_);}
	.st25{clip-path:url(#SVGID_00000104665374602991675320000016990464545401809082_);}
	.st26{clip-path:url(#SVGID_00000091709435259403997770000012964860373882304939_);}
	.st27{clip-path:url(#SVGID_00000116945068895688252430000016112366210743896508_);}
	.st28{clip-path:url(#SVGID_00000080905226772195804710000002040022631651536315_);}
	.st29{fill:none;stroke:#DDDDDD;stroke-linecap:square;}
	.st30{fill:none;stroke:#DDDDDD;}
	.st31{fill:none;stroke:#DDDDDD;stroke-width:5;stroke-miterlimit:10;}
	.st32{fill:#19ADEE;}
	.st33{fill:#0082B3;}
	.st34{font-family:'HelveticaNeue';}
	.st35{font-size:12px;}
	.st36{font-size:11px;}
	.st37{font-size:13px;}
</style>
<g>
	<g>
		<g>
			<g>
				<g>
					<defs>
						<polygon id="SVGID_1_" points="20,34.2 21,34.2 20,35.2 						"/>
					</defs>
					<clipPath id="SVGID_00000029742248852900760330000008662216704492142990_">
						<use xlink:href="#SVGID_1_"  style="overflow:visible;"/>
					</clipPath>
				</g>
				<g>
					<defs>
						<polygon id="SVGID_00000157293399026113543630000014245825631203790987_" points="20,34.2 21,34.2 20,35.2 						"/>
					</defs>
					<defs>
						<polygon id="SVGID_00000148632886541247029350000007040951124793083025_" points="18,32.2 17,32.2 18,31.2 						"/>
					</defs>
					<clipPath id="SVGID_00000112602011926121108180000017892419703599220381_">
						<use xlink:href="#SVGID_00000157293399026113543630000014245825631203790987_"  style="overflow:visible;"/>
					</clipPath>
					
						<clipPath id="SVGID_00000111192027357845378390000015684810914310828711_" style="clip-path:url(#SVGID_00000112602011926121108180000017892419703599220381_);">
						<use xlink:href="#SVGID_00000148632886541247029350000007040951124793083025_"  style="overflow:visible;"/>
					</clipPath>
					<g style="clip-path:url(#SVGID_00000111192027357845378390000015684810914310828711_);">
						<path marker-end="url(#arrowhead-line-University-of-Mississippi-facet-)" class="st2" d="M375.6,69.5H765"/>
					</g>
				</g>
			</g>
		</g>
	</g>
	<g>
		<g>
			<g>
				<g>
					<defs>
						<polygon id="SVGID_00000041983308441030515130000000461507837521021830_" points="20,34.2 21,34.2 20,35.2 						"/>
					</defs>
					<clipPath id="SVGID_00000137130623467316302160000016255855324096643238_">
						<use xlink:href="#SVGID_00000041983308441030515130000000461507837521021830_"  style="overflow:visible;"/>
					</clipPath>
				</g>
				<g>
					<defs>
						<polygon id="SVGID_00000043433403503557731260000004292998558526176405_" points="20,34.2 21,34.2 20,35.2 						"/>
					</defs>
					<defs>
						<polygon id="SVGID_00000170970535921296841980000007543198649931157148_" points="18,32.2 17,32.2 18,31.2 						"/>
					</defs>
					<clipPath id="SVGID_00000005225373943857992820000012636647351871631493_">
						<use xlink:href="#SVGID_00000043433403503557731260000004292998558526176405_"  style="overflow:visible;"/>
					</clipPath>
					
						<clipPath id="SVGID_00000178188611563467005050000015083067555807119007_" style="clip-path:url(#SVGID_00000005225373943857992820000012636647351871631493_);">
						<use xlink:href="#SVGID_00000170970535921296841980000007543198649931157148_"  style="overflow:visible;"/>
					</clipPath>
					<g style="clip-path:url(#SVGID_00000178188611563467005050000015083067555807119007_);">
						<path marker-end="url(#arrowhead-line-University-of-Georgia-facet-)" class="st2" d="M356.1,100.6h292"/>
					</g>
				</g>
			</g>
		</g>
	</g>
	<g>
		<g>
			<g>
				<g>
					<defs>
						<polygon id="SVGID_00000034070563322423007740000012379202078152527279_" points="20,34.2 21,34.2 20,35.2 						"/>
					</defs>
					<clipPath id="SVGID_00000036939869157900707410000007827172104281689749_">
						<use xlink:href="#SVGID_00000034070563322423007740000012379202078152527279_"  style="overflow:visible;"/>
					</clipPath>
				</g>
				<g>
					<defs>
						<polygon id="SVGID_00000049209090349626115770000003629208941571091879_" points="20,34.2 21,34.2 20,35.2 						"/>
					</defs>
					<defs>
						<polygon id="SVGID_00000105417502300438510580000016165607331616510653_" points="18,32.2 17,32.2 18,31.2 						"/>
					</defs>
					<clipPath id="SVGID_00000169537797979773969490000016185964911769784194_">
						<use xlink:href="#SVGID_00000049209090349626115770000003629208941571091879_"  style="overflow:visible;"/>
					</clipPath>
					
						<clipPath id="SVGID_00000163792820795219363240000002409372918163166863_" style="clip-path:url(#SVGID_00000169537797979773969490000016185964911769784194_);">
						<use xlink:href="#SVGID_00000105417502300438510580000016165607331616510653_"  style="overflow:visible;"/>
					</clipPath>
					<g style="clip-path:url(#SVGID_00000163792820795219363240000002409372918163166863_);">
						<path marker-end="url(#arrowhead-line-University-of-South-Carolina-Columbia-facet-)" class="st2" d="M375.6,131.7h262.8"/>
					</g>
				</g>
			</g>
		</g>
	</g>
	<g>
		<g>
			<g>
				<g>
					<defs>
						<polygon id="SVGID_00000132780106475328260030000007923077126377009825_" points="20,34.2 21,34.2 20,35.2 						"/>
					</defs>
					<clipPath id="SVGID_00000152264574962524834830000017580192003449229214_">
						<use xlink:href="#SVGID_00000132780106475328260030000007923077126377009825_"  style="overflow:visible;"/>
					</clipPath>
				</g>
				<g>
					<defs>
						<polygon id="SVGID_00000021086543857092520490000009136630478221749895_" points="20,34.2 21,34.2 20,35.2 						"/>
					</defs>
					<defs>
						<polygon id="SVGID_00000074425957077577558360000011250977608045700265_" points="18,32.2 17,32.2 18,31.2 						"/>
					</defs>
					<clipPath id="SVGID_00000016048078935409253370000004993776667891126960_">
						<use xlink:href="#SVGID_00000021086543857092520490000009136630478221749895_"  style="overflow:visible;"/>
					</clipPath>
					
						<clipPath id="SVGID_00000114071455618312439380000017136666134573519263_" style="clip-path:url(#SVGID_00000016048078935409253370000004993776667891126960_);">
						<use xlink:href="#SVGID_00000074425957077577558360000011250977608045700265_"  style="overflow:visible;"/>
					</clipPath>
					<g style="clip-path:url(#SVGID_00000114071455618312439380000017136666134573519263_);">
						
							<path marker-end="url(#arrowhead-line-Louisiana-State-University-and-Agricultural-&amp;-Mechanical-College-facet-)" class="st2" d="
							M482.7,162.8h233.6"/>
					</g>
				</g>
			</g>
		</g>
	</g>
	<g>
		<g>
			<g>
				<g>
					<defs>
						<polygon id="SVGID_00000088109747966504223860000013058677905589730462_" points="20,34.2 21,34.2 20,35.2 						"/>
					</defs>
					<clipPath id="SVGID_00000014594260161568805240000013385986165057683088_">
						<use xlink:href="#SVGID_00000088109747966504223860000013058677905589730462_"  style="overflow:visible;"/>
					</clipPath>
				</g>
				<g>
					<defs>
						<polygon id="SVGID_00000123424911239053070460000005004605622004527505_" points="20,34.2 21,34.2 20,35.2 						"/>
					</defs>
					<defs>
						<polygon id="SVGID_00000047054345654432659370000015357444219259639441_" points="18,32.2 17,32.2 18,31.2 						"/>
					</defs>
					<clipPath id="SVGID_00000044891681485262014690000005905196223249295802_">
						<use xlink:href="#SVGID_00000123424911239053070460000005004605622004527505_"  style="overflow:visible;"/>
					</clipPath>
					
						<clipPath id="SVGID_00000163032558830821025190000005349101370393753763_" style="clip-path:url(#SVGID_00000044891681485262014690000005905196223249295802_);">
						<use xlink:href="#SVGID_00000047054345654432659370000015357444219259639441_"  style="overflow:visible;"/>
					</clipPath>
					<g style="clip-path:url(#SVGID_00000163032558830821025190000005349101370393753763_);">
						<path marker-end="url(#arrowhead-line-University-of-Delaware-facet-)" class="st2" d="M365.9,193.9h233.6"/>
					</g>
				</g>
			</g>
		</g>
	</g>
	<g>
		<g>
			<g>
				<g>
					<defs>
						<polygon id="SVGID_00000076569189640081874700000016333703770443939227_" points="20,34.2 21,34.2 20,35.2 						"/>
					</defs>
					<clipPath id="SVGID_00000107557781699011597670000008282045625185369004_">
						<use xlink:href="#SVGID_00000076569189640081874700000016333703770443939227_"  style="overflow:visible;"/>
					</clipPath>
				</g>
				<g>
					<defs>
						<polygon id="SVGID_00000172431438256100491310000010818962261360334501_" points="20,34.2 21,34.2 20,35.2 						"/>
					</defs>
					<defs>
						<polygon id="SVGID_00000085969713214507557590000000382839913580890301_" points="18,32.2 17,32.2 18,31.2 						"/>
					</defs>
					<clipPath id="SVGID_00000134238362846161611500000000838748627008407742_">
						<use xlink:href="#SVGID_00000172431438256100491310000010818962261360334501_"  style="overflow:visible;"/>
					</clipPath>
					
						<clipPath id="SVGID_00000123412623699096354840000004557967371894003586_" style="clip-path:url(#SVGID_00000134238362846161611500000000838748627008407742_);">
						<use xlink:href="#SVGID_00000085969713214507557590000000382839913580890301_"  style="overflow:visible;"/>
					</clipPath>
					<g style="clip-path:url(#SVGID_00000123412623699096354840000004557967371894003586_);">
						<path marker-end="url(#arrowhead-line-University-of-Maryland-College-Park-facet-)" class="st2" d="M395.1,225H619"/>
					</g>
				</g>
			</g>
		</g>
	</g>
	<g>
		<g>
			<g>
				<g>
					<defs>
						<polygon id="SVGID_00000100359019762735852040000015892179799314828729_" points="20,34.2 21,34.2 20,35.2 						"/>
					</defs>
					<clipPath id="SVGID_00000070114036151805799130000001133688506473027466_">
						<use xlink:href="#SVGID_00000100359019762735852040000015892179799314828729_"  style="overflow:visible;"/>
					</clipPath>
				</g>
				<g>
					<defs>
						<polygon id="SVGID_00000015352791209099517610000006926674134633462713_" points="20,34.2 21,34.2 20,35.2 						"/>
					</defs>
					<defs>
						<polygon id="SVGID_00000124160373079282933000000000494251017454044606_" points="18,32.2 17,32.2 18,31.2 						"/>
					</defs>
					<clipPath id="SVGID_00000132803345273909701600000013050694357783944099_">
						<use xlink:href="#SVGID_00000015352791209099517610000006926674134633462713_"  style="overflow:visible;"/>
					</clipPath>
					
						<clipPath id="SVGID_00000125593890323834088370000012376151662552400258_" style="clip-path:url(#SVGID_00000132803345273909701600000013050694357783944099_);">
						<use xlink:href="#SVGID_00000124160373079282933000000000494251017454044606_"  style="overflow:visible;"/>
					</clipPath>
					<g style="clip-path:url(#SVGID_00000125593890323834088370000012376151662552400258_);">
						<path marker-end="url(#arrowhead-line-The-University-of-Alabama-facet-)" class="st2" d="M404.8,256.1h194.7"/>
					</g>
				</g>
			</g>
		</g>
	</g>
	<g>
		<g>
			<g>
				<g>
					<defs>
						<polygon id="SVGID_00000021799925846737614700000006692918119585975955_" points="20,34.2 21,34.2 20,35.2 						"/>
					</defs>
					<clipPath id="SVGID_00000085220440904818688640000000426435330976887938_">
						<use xlink:href="#SVGID_00000021799925846737614700000006692918119585975955_"  style="overflow:visible;"/>
					</clipPath>
				</g>
				<g>
					<defs>
						<polygon id="SVGID_00000183222327214447034640000006180755224104416184_" points="20,34.2 21,34.2 20,35.2 						"/>
					</defs>
					<defs>
						<polygon id="SVGID_00000021113706726529792840000011520939674581539760_" points="18,32.2 17,32.2 18,31.2 						"/>
					</defs>
					<clipPath id="SVGID_00000099624586914416295620000016534341401837649318_">
						<use xlink:href="#SVGID_00000183222327214447034640000006180755224104416184_"  style="overflow:visible;"/>
					</clipPath>
					
						<clipPath id="SVGID_00000067216236093883797760000011367328646715015552_" style="clip-path:url(#SVGID_00000099624586914416295620000016534341401837649318_);">
						<use xlink:href="#SVGID_00000021113706726529792840000011520939674581539760_"  style="overflow:visible;"/>
					</clipPath>
					<g style="clip-path:url(#SVGID_00000067216236093883797760000011367328646715015552_);">
						<path marker-end="url(#arrowhead-line-The-University-of-Tennessee-Knoxville-facet-)" class="st2" d="M336.7,287.2h194.7"/>
					</g>
				</g>
			</g>
		</g>
	</g>
	<g>
		<g>
			<g>
				<g>
					<defs>
						<polygon id="SVGID_00000141453593596006731960000012752448963650703272_" points="20,34.2 21,34.2 20,35.2 						"/>
					</defs>
					<clipPath id="SVGID_00000109721016633362787330000007107740840259010221_">
						<use xlink:href="#SVGID_00000141453593596006731960000012752448963650703272_"  style="overflow:visible;"/>
					</clipPath>
				</g>
				<g>
					<defs>
						<polygon id="SVGID_00000031886762149718661810000010810447750983102361_" points="20,34.2 21,34.2 20,35.2 						"/>
					</defs>
					<defs>
						<polygon id="SVGID_00000161615556201591679350000011316939040885970326_" points="18,32.2 17,32.2 18,31.2 						"/>
					</defs>
					<clipPath id="SVGID_00000091708461845398717950000004887880832304357267_">
						<use xlink:href="#SVGID_00000031886762149718661810000010810447750983102361_"  style="overflow:visible;"/>
					</clipPath>
					
						<clipPath id="SVGID_00000019663911079795490290000002282604872542260909_" style="clip-path:url(#SVGID_00000091708461845398717950000004887880832304357267_);">
						<use xlink:href="#SVGID_00000161615556201591679350000011316939040885970326_"  style="overflow:visible;"/>
					</clipPath>
					<g style="clip-path:url(#SVGID_00000019663911079795490290000002282604872542260909_);">
						<path marker-end="url(#arrowhead-line-University-of-Florida-facet-)" class="st2" d="M346.4,318.3h155.8"/>
					</g>
				</g>
			</g>
		</g>
	</g>
	<g>
		<g>
			<g>
				<g>
					<defs>
						<polygon id="SVGID_00000147926141323461872190000015407625000861097096_" points="20,34.2 21,34.2 20,35.2 						"/>
					</defs>
					<clipPath id="SVGID_00000060751054584778871530000005322310464845201586_">
						<use xlink:href="#SVGID_00000147926141323461872190000015407625000861097096_"  style="overflow:visible;"/>
					</clipPath>
				</g>
				<g>
					<defs>
						<polygon id="SVGID_00000004520287258466602960000011052207386614992001_" points="20,34.2 21,34.2 20,35.2 						"/>
					</defs>
					<defs>
						<polygon id="SVGID_00000170272806287205901620000007629314676953523085_" points="18,32.2 17,32.2 18,31.2 						"/>
					</defs>
					<clipPath id="SVGID_00000010296181606286542390000001043300055586574781_">
						<use xlink:href="#SVGID_00000004520287258466602960000011052207386614992001_"  style="overflow:visible;"/>
					</clipPath>
					
						<clipPath id="SVGID_00000049917907057049568620000004596504159062398120_" style="clip-path:url(#SVGID_00000010296181606286542390000001043300055586574781_);">
						<use xlink:href="#SVGID_00000170272806287205901620000007629314676953523085_"  style="overflow:visible;"/>
					</clipPath>
					<g style="clip-path:url(#SVGID_00000049917907057049568620000004596504159062398120_);">
						<path marker-end="url(#arrowhead-line-University-of-Arkansas-facet-)" class="st2" d="M326.9,349.4h165.5"/>
					</g>
				</g>
			</g>
		</g>
	</g>
	<g>
		<g>
			<g>
				<g>
					<defs>
						<polygon id="SVGID_00000133496086613400008930000009534259335876083098_" points="20,34.2 21,34.2 20,35.2 						"/>
					</defs>
					<clipPath id="SVGID_00000168801787945906740670000003983152272674422181_">
						<use xlink:href="#SVGID_00000133496086613400008930000009534259335876083098_"  style="overflow:visible;"/>
					</clipPath>
				</g>
				<g>
					<defs>
						<polygon id="SVGID_00000054261823080847553320000017597769513665865403_" points="20,34.2 21,34.2 20,35.2 						"/>
					</defs>
					<defs>
						<polygon id="SVGID_00000034806750022449154560000001965248227064916875_" points="18,32.2 17,32.2 18,31.2 						"/>
					</defs>
					<clipPath id="SVGID_00000097461437328362155950000017225282681678046375_">
						<use xlink:href="#SVGID_00000054261823080847553320000017597769513665865403_"  style="overflow:visible;"/>
					</clipPath>
					
						<clipPath id="SVGID_00000062169983436786693920000016141135143941651602_" style="clip-path:url(#SVGID_00000097461437328362155950000017225282681678046375_);">
						<use xlink:href="#SVGID_00000034806750022449154560000001965248227064916875_"  style="overflow:visible;"/>
					</clipPath>
					<g style="clip-path:url(#SVGID_00000062169983436786693920000016141135143941651602_);">
						<path marker-end="url(#arrowhead-line-University-of-North-Carolina-at-Chapel-Hill-facet-)" class="st2" d="M385.3,380.5H541
							"/>
					</g>
				</g>
			</g>
		</g>
	</g>
	<g>
		<g>
			<g>
				<g>
					<defs>
						<polygon id="SVGID_00000103966124570111337650000006137991426135476890_" points="20,34.2 21,34.2 20,35.2 						"/>
					</defs>
					<clipPath id="SVGID_00000011714059915538873970000015958730893243066303_">
						<use xlink:href="#SVGID_00000103966124570111337650000006137991426135476890_"  style="overflow:visible;"/>
					</clipPath>
				</g>
				<g>
					<defs>
						<polygon id="SVGID_00000055673828428981977920000014336537075406172545_" points="20,34.2 21,34.2 20,35.2 						"/>
					</defs>
					<defs>
						<polygon id="SVGID_00000162349789282820649620000005756994485273556358_" points="18,32.2 17,32.2 18,31.2 						"/>
					</defs>
					<clipPath id="SVGID_00000081615105021037416890000018399675898981759920_">
						<use xlink:href="#SVGID_00000055673828428981977920000014336537075406172545_"  style="overflow:visible;"/>
					</clipPath>
					
						<clipPath id="SVGID_00000182528519767790988540000015288974347090026911_" style="clip-path:url(#SVGID_00000081615105021037416890000018399675898981759920_);">
						<use xlink:href="#SVGID_00000162349789282820649620000005756994485273556358_"  style="overflow:visible;"/>
					</clipPath>
					<g style="clip-path:url(#SVGID_00000182528519767790988540000015288974347090026911_);">
						<path marker-end="url(#arrowhead-line-University-of-Virginia-Main-Campus-facet-)" class="st2" d="M356.1,411.6h155.8"/>
					</g>
				</g>
			</g>
		</g>
	</g>
	<g>
		<g>
			<g>
				<g>
					<defs>
						<polygon id="SVGID_00000013894280904616813880000004452592755978061964_" points="20,34.2 21,34.2 20,35.2 						"/>
					</defs>
					<clipPath id="SVGID_00000068677078884827078930000015869602575999471759_">
						<use xlink:href="#SVGID_00000013894280904616813880000004452592755978061964_"  style="overflow:visible;"/>
					</clipPath>
				</g>
				<g>
					<defs>
						<polygon id="SVGID_00000178921143605840448410000007101746662310736810_" points="20,34.2 21,34.2 20,35.2 						"/>
					</defs>
					<defs>
						<polygon id="SVGID_00000039106043527931747270000016731812378996724414_" points="18,32.2 17,32.2 18,31.2 						"/>
					</defs>
					<clipPath id="SVGID_00000145747163826632628010000002332728454439349671_">
						<use xlink:href="#SVGID_00000178921143605840448410000007101746662310736810_"  style="overflow:visible;"/>
					</clipPath>
					
						<clipPath id="SVGID_00000177466220522153430710000012121553599222943676_" style="clip-path:url(#SVGID_00000145747163826632628010000002332728454439349671_);">
						<use xlink:href="#SVGID_00000039106043527931747270000016731812378996724414_"  style="overflow:visible;"/>
					</clipPath>
					<g style="clip-path:url(#SVGID_00000177466220522153430710000012121553599222943676_);">
						<path marker-end="url(#arrowhead-line-University-of-Michigan-Ann-Arbor-facet-)" class="st2" d="M336.7,442.8h126.5"/>
					</g>
				</g>
			</g>
		</g>
	</g>
	<g>
		<g>
			<g>
				<g>
					<defs>
						<polygon id="SVGID_00000055667866250418963090000001586414183911402661_" points="20,34.2 21,34.2 20,35.2 						"/>
					</defs>
					<clipPath id="SVGID_00000107552167200383905910000012908232579052246956_">
						<use xlink:href="#SVGID_00000055667866250418963090000001586414183911402661_"  style="overflow:visible;"/>
					</clipPath>
				</g>
				<g>
					<defs>
						<polygon id="SVGID_00000083794622065980605120000010782575036545754026_" points="20,34.2 21,34.2 20,35.2 						"/>
					</defs>
					<defs>
						<polygon id="SVGID_00000127762649189310882630000003087563113090061973_" points="18,32.2 17,32.2 18,31.2 						"/>
					</defs>
					<clipPath id="SVGID_00000168819621921787043490000014226552403938745757_">
						<use xlink:href="#SVGID_00000083794622065980605120000010782575036545754026_"  style="overflow:visible;"/>
					</clipPath>
					
						<clipPath id="SVGID_00000132789273655038938440000003274024447072555650_" style="clip-path:url(#SVGID_00000168819621921787043490000014226552403938745757_);">
						<use xlink:href="#SVGID_00000127762649189310882630000003087563113090061973_"  style="overflow:visible;"/>
					</clipPath>
					<g style="clip-path:url(#SVGID_00000132789273655038938440000003274024447072555650_);">
						<path marker-end="url(#arrowhead-line-University-of-Missouri-Columbia-facet-)" class="st2" d="M346.4,473.9h97.3"/>
					</g>
				</g>
			</g>
		</g>
	</g>
</g>
<line class="st29" x1="286.1" y1="476.7" x2="286.1" y2="60.9"/>
<line class="st30" x1="286.1" y1="461.9" x2="279.4" y2="461.9"/>
<line class="st30" x1="286.1" y1="432.2" x2="279.4" y2="432.2"/>
<line class="st30" x1="286.1" y1="402.5" x2="279.4" y2="402.5"/>
<line class="st30" x1="286.1" y1="372.8" x2="279.4" y2="372.8"/>
<line class="st30" x1="286.1" y1="343.1" x2="279.4" y2="343.1"/>
<line class="st30" x1="286.1" y1="313.4" x2="279.4" y2="313.4"/>
<line class="st30" x1="286.1" y1="283.6" x2="279.4" y2="283.6"/>
<line class="st30" x1="286.1" y1="253.9" x2="279.4" y2="253.9"/>
<line class="st30" x1="286.1" y1="224.2" x2="279.4" y2="224.2"/>
<line class="st30" x1="286.1" y1="194.6" x2="279.4" y2="194.6"/>
<line class="st30" x1="286.1" y1="164.9" x2="279.4" y2="164.9"/>
<line class="st30" x1="286.1" y1="135.1" x2="279.4" y2="135.1"/>
<line class="st30" x1="286.1" y1="105.4" x2="279.4" y2="105.4"/>
<line class="st30" x1="286.1" y1="75.7" x2="279.4" y2="75.7"/>
<line class="st31" x1="360.4" y1="75.7" x2="732.2" y2="75.7"/>
<line class="st31" x1="344.7" y1="105.4" x2="619.8" y2="105.4"/>
<line class="st31" x1="358.7" y1="135.1" x2="611.4" y2="135.1"/>
<line class="st31" x1="461" y1="164.9" x2="685.7" y2="164.9"/>
<line class="st31" x1="352.5" y1="194.6" x2="573" y2="194.6"/>
<line class="st31" x1="377.3" y1="224.2" x2="592.8" y2="224.2"/>
<line class="st31" x1="386.6" y1="253.9" x2="574.2" y2="253.9"/>
<line class="st31" x1="324.3" y1="284.1" x2="508.3" y2="284.1"/>
<line class="st31" x1="330.8" y1="313.4" x2="481.2" y2="313.4"/>
<line class="st31" x1="314" y1="343.1" x2="472" y2="343.1"/>
<line class="st31" x1="369.7" y1="372.8" x2="518.4" y2="372.8"/>
<line class="st31" x1="342.9" y1="402.5" x2="490.5" y2="402.5"/>
<line class="st31" x1="323.4" y1="432.2" x2="444.1" y2="432.2"/>
<line class="st31" x1="330.8" y1="461.9" x2="425.5" y2="461.9"/>
<line class="st30" x1="360.4" y1="74.8" x2="360.4" y2="59.8"/>
<line class="st30" x1="732.2" y1="73.4" x2="732.2" y2="58.4"/>
<path id="dot-0" vector-effect="non-scaling-stroke" class="st32" d="M366.1,75.7c0,3.1-2.5,5.7-5.7,5.7s-5.7-2.6-5.7-5.7
	s2.5-5.7,5.7-5.7S366.1,72.6,366.1,75.7"/>
<path id="dot-1" vector-effect="non-scaling-stroke" class="st33" d="M737.9,75.7c0,3.1-2.5,5.7-5.7,5.7s-5.7-2.6-5.7-5.7
	s2.5-5.7,5.7-5.7S737.9,72.6,737.9,75.7"/>
<path id="dot-2" vector-effect="non-scaling-stroke" class="st32" d="M347.5,105.4c0,3.1-2.5,5.7-5.7,5.7s-5.7-2.6-5.7-5.7
	s2.5-5.7,5.7-5.7S347.5,102.3,347.5,105.4"/>
<path id="dot-3" vector-effect="non-scaling-stroke" class="st33" d="M626.4,105.4c0,3.1-2.5,5.7-5.7,5.7s-5.7-2.6-5.7-5.7
	s2.5-5.7,5.7-5.7S626.4,102.3,626.4,105.4"/>
<path id="dot-4" vector-effect="non-scaling-stroke" class="st32" d="M366.1,135.1c0,3.1-2.5,5.7-5.7,5.7s-5.7-2.6-5.7-5.7
	s2.5-5.7,5.7-5.7S366.1,132,366.1,135.1"/>
<path id="dot-5" vector-effect="non-scaling-stroke" class="st33" d="M617.1,135.1c0,3.1-2.5,5.7-5.7,5.7s-5.7-2.6-5.7-5.7
	s2.5-5.7,5.7-5.7S617.1,132,617.1,135.1"/>
<path id="dot-6" vector-effect="non-scaling-stroke" class="st32" d="M468.4,164.9c0,3.1-2.5,5.7-5.7,5.7s-5.7-2.6-5.7-5.7
	s2.5-5.7,5.7-5.7S468.4,161.7,468.4,164.9"/>
<path id="dot-7" vector-effect="non-scaling-stroke" class="st33" d="M691.4,164.9c0,3.1-2.5,5.7-5.7,5.7s-5.7-2.6-5.7-5.7
	s2.5-5.7,5.7-5.7S691.4,161.7,691.4,164.9"/>
<path id="dot-8" vector-effect="non-scaling-stroke" class="st32" d="M356.8,194.6c0,3.1-2.5,5.7-5.7,5.7s-5.7-2.6-5.7-5.7
	s2.5-5.7,5.7-5.7S356.8,191.4,356.8,194.6"/>
<path id="dot-9" vector-effect="non-scaling-stroke" class="st33" d="M579.9,194.6c0,3.1-2.5,5.7-5.7,5.7s-5.7-2.6-5.7-5.7
	s2.5-5.7,5.7-5.7S579.9,191.4,579.9,194.6"/>
<path id="dot-10" vector-effect="non-scaling-stroke" class="st32" d="M384.7,224.2c0,3.1-2.5,5.7-5.7,5.7s-5.7-2.6-5.7-5.7
	s2.5-5.7,5.7-5.7S384.7,221.1,384.7,224.2"/>
<path id="dot-11" vector-effect="non-scaling-stroke" class="st33" d="M598.5,224.2c0,3.1-2.5,5.7-5.7,5.7s-5.7-2.6-5.7-5.7
	s2.5-5.7,5.7-5.7S598.5,221.1,598.5,224.2"/>
<path id="dot-12" vector-effect="non-scaling-stroke" class="st32" d="M394,253.9c0,3.1-2.5,5.7-5.7,5.7s-5.7-2.5-5.7-5.7
	s2.5-5.7,5.7-5.7S394,250.8,394,253.9"/>
<path id="dot-13" vector-effect="non-scaling-stroke" class="st33" d="M579.9,253.9c0,3.1-2.5,5.7-5.7,5.7s-5.7-2.5-5.7-5.7
	s2.5-5.7,5.7-5.7S579.9,250.8,579.9,253.9"/>
<path id="dot-14" vector-effect="non-scaling-stroke" class="st32" d="M328.9,283.6c0,3.1-2.5,5.7-5.7,5.7s-5.7-2.5-5.7-5.7
	s2.5-5.7,5.7-5.7S328.9,280.5,328.9,283.6"/>
<path id="dot-15" vector-effect="non-scaling-stroke" class="st33" d="M514.8,283.6c0,3.1-2.5,5.7-5.7,5.7s-5.7-2.5-5.7-5.7
	s2.5-5.7,5.7-5.7S514.8,280.5,514.8,283.6"/>
<path id="dot-16" vector-effect="non-scaling-stroke" class="st32" d="M338.2,313.4c0,3.1-2.5,5.7-5.7,5.7s-5.7-2.5-5.7-5.7
	s2.5-5.7,5.7-5.7S338.2,310.2,338.2,313.4"/>
<path id="dot-17" vector-effect="non-scaling-stroke" class="st33" d="M487,313.4c0,3.1-2.5,5.7-5.7,5.7s-5.7-2.5-5.7-5.7
	s2.5-5.7,5.7-5.7S487,310.2,487,313.4"/>
<path id="dot-18" vector-effect="non-scaling-stroke" class="st32" d="M319.6,343.1c0,3.1-2.5,5.7-5.7,5.7s-5.7-2.5-5.7-5.7
	s2.5-5.7,5.7-5.7S319.6,339.9,319.6,343.1"/>
<path id="dot-19" vector-effect="non-scaling-stroke" class="st33" d="M477.6,343.1c0,3.1-2.5,5.7-5.7,5.7s-5.7-2.5-5.7-5.7
	s2.5-5.7,5.7-5.7S477.6,339.9,477.6,343.1"/>
<path id="dot-20" vector-effect="non-scaling-stroke" class="st32" d="M375.4,372.8c0,3.1-2.5,5.7-5.7,5.7s-5.7-2.5-5.7-5.7
	s2.5-5.7,5.7-5.7S375.4,369.6,375.4,372.8"/>
<path id="dot-21" vector-effect="non-scaling-stroke" class="st33" d="M524.1,372.8c0,3.1-2.5,5.7-5.7,5.7s-5.7-2.5-5.7-5.7
	s2.5-5.7,5.7-5.7S524.1,369.6,524.1,372.8"/>
<path id="dot-22" vector-effect="non-scaling-stroke" class="st32" d="M347.5,402.5c0,3.1-2.5,5.7-5.7,5.7s-5.7-2.5-5.7-5.7
	s2.5-5.7,5.7-5.7S347.5,399.3,347.5,402.5"/>
<path id="dot-23" vector-effect="non-scaling-stroke" class="st33" d="M496.2,402.5c0,3.1-2.5,5.7-5.7,5.7s-5.7-2.5-5.7-5.7
	s2.5-5.7,5.7-5.7S496.2,399.3,496.2,402.5"/>
<path id="dot-24" vector-effect="non-scaling-stroke" class="st32" d="M328.9,432.2c0,3.1-2.5,5.7-5.7,5.7s-5.7-2.5-5.7-5.7
	s2.5-5.7,5.7-5.7S328.9,429,328.9,432.2"/>
<path id="dot-25" vector-effect="non-scaling-stroke" class="st33" d="M449.8,432.2c0,3.1-2.5,5.7-5.7,5.7s-5.7-2.5-5.7-5.7
	s2.5-5.7,5.7-5.7S449.8,429,449.8,432.2"/>
<path id="dot-26" vector-effect="non-scaling-stroke" class="st32" d="M338.2,461.9c0,3.1-2.5,5.7-5.7,5.7s-5.7-2.5-5.7-5.7
	s2.5-5.7,5.7-5.7S338.2,458.7,338.2,461.9"/>
<path id="dot-27" vector-effect="non-scaling-stroke" class="st33" d="M431.2,461.9c0,3.1-2.5,5.7-5.7,5.7s-5.7-2.5-5.7-5.7
	s2.5-5.7,5.7-5.7S431.2,458.7,431.2,461.9"/>
<text transform="matrix(1 0 0 1 358.71 38.9999)" class="st32 st34 st35">Pe</text>
<text transform="matrix(1 0 0 1 372.93 38.9999)" class="st32 st34 st35">r</text>
<text transform="matrix(1 0 0 1 376.71 38.9999)" class="st32 st34 st35">cent of f</text>
<text transform="matrix(1 0 0 1 420.71 38.9999)" class="st32 st34 st35">r</text>
<text transform="matrix(1 0 0 1 424.49 38.9999)" class="st32 st34 st35">eshmen</text>
<text transform="matrix(1 0 0 1 358.71 53.9999)" class="st32 st34 st35">who a</text>
<text transform="matrix(1 0 0 1 391.15 53.9999)" class="st32 st34 st35">r</text>
<text transform="matrix(1 0 0 1 394.93 53.9999)" class="st32 st34 st35">e Black</text>
<text transform="matrix(1 0 0 1 612.6899 24)" class="st33 st34 st35">Pe</text>
<text transform="matrix(1 0 0 1 626.9099 24)" class="st33 st34 st35">r</text>
<text transform="matrix(1 0 0 1 630.6899 24)" class="st33 st34 st35">cent of state public</text>
<text transform="matrix(1 0 0 1 612.6899 39)" class="st33 st34 st35">high school graduates</text>
<text transform="matrix(1 0 0 1 612.6899 54)" class="st33 st34 st35">who a</text>
<text transform="matrix(1 0 0 1 645.13 54)" class="st33 st34 st35">r</text>
<text transform="matrix(1 0 0 1 648.9099 54)" class="st33 st34 st35">e Black</text>
<text transform="matrix(1 0 0 1 332.626 79.71)" class="st32 st34 st36">8%</text>
<text transform="matrix(1 0 0 1 332.6259 139.11)" class="st32 st34 st36">8%</text>
<text transform="matrix(1 0 0 1 314.036 109.41)" class="st32 st34 st36">6%</text>
<text transform="matrix(1 0 0 1 428.7604 168.45)" class="st32 st34 st36">19%</text>
<text transform="matrix(1 0 0 1 323.3361 197.55)" class="st32 st34 st36">7%</text>
<text transform="matrix(1 0 0 1 345.1003 227.22)" class="st32 st34 st36">10%</text>
<text transform="matrix(1 0 0 1 354.4003 257.87)" class="st32 st34 st36">11%</text>
<text transform="matrix(1 0 0 1 295.4459 286.62)" class="st32 st34 st36">4%</text>
<text transform="matrix(1 0 0 1 304.746 316.33)" class="st32 st34 st36">5%</text>
<text transform="matrix(1 0 0 1 289.1558 346.75)" class="st32 st34 st36">3%</text>
<text transform="matrix(1 0 0 1 341.926 375.73)" class="st32 st34 st36">9%</text>
<text transform="matrix(1 0 0 1 314.036 406.43)" class="st32 st34 st36">6%</text>
<text transform="matrix(1 0 0 1 295.4459 435.86)" class="st32 st34 st36">4%</text>
<text transform="matrix(1 0 0 1 304.746 465.56)" class="st32 st34 st36">5%</text>
<text transform="matrix(1 0 0 1 743.6021 79.71)" class="st33 st34 st36">48%</text>
<text transform="matrix(1 0 0 1 632.0414 109.41)" class="st33 st34 st36">36%</text>
<text transform="matrix(1 0 0 1 697.1223 168.45)" class="st33 st34 st36">43%</text>
<text transform="matrix(1 0 0 1 622.7507 139.11)" class="st33 st34 st36">35%</text>
<text transform="matrix(1 0 0 1 585.5709 198.52)" class="st33 st34 st36">31%</text>
<text transform="matrix(1 0 0 1 604.1604 228.22)" class="st33 st34 st36">33%</text>
<text transform="matrix(1 0 0 1 585.5709 257.95)" class="st33 st34 st36">31%</text>
<text transform="matrix(1 0 0 1 520.5667 287.62)" class="st33 st34 st36">24%</text>
<text transform="matrix(1 0 0 1 492.6865 317.33)" class="st33 st34 st36">21%</text>
<text transform="matrix(1 0 0 1 483.386 346.06)" class="st33 st34 st36">20%</text>
<text transform="matrix(1 0 0 1 529.866 375.76)" class="st33 st34 st36">25%</text>
<text transform="matrix(1 0 0 1 501.9761 406.43)" class="st33 st34 st36">22%</text>
<text transform="matrix(1 0 0 1 454.8127 436.86)" class="st33 st34 st36">17%</text>
<text transform="matrix(1 0 0 1 436.2228 465.56)" class="st33 st34 st36">15%</text>
<text transform="matrix(1 0 0 1 86.83 465.84)" class="st34 st37">University of Missouri-Columbia</text>
<text transform="matrix(1 0 0 1 79.85 436.14)" class="st34 st37">University of Michigan-Ann Arbor</text>
<text transform="matrix(1 0 0 1 68.64 406.43)" class="st34 st37">University of </text>
<text transform="matrix(1 0 0 1 144.47 406.43)" class="st34 st37">V</text>
<text transform="matrix(1 0 0 1 152.18 406.43)" class="st34 st37">i</text>
<text transform="matrix(1 0 0 1 155.06 406.43)" class="st34 st37">r</text>
<text transform="matrix(1 0 0 1 159.03 406.43)" class="st34 st37">ginia-Main Campus</text>
<text transform="matrix(1 0 0 1 31.48 376.73)" class="st34 st37">University of North Ca</text>
<text transform="matrix(1 0 0 1 159.79 376.73)" class="st34 st37">r</text>
<text transform="matrix(1 0 0 1 163.88 376.73)" class="st34 st37">olina at Chapel Hill</text>
<text transform="matrix(1 0 0 1 142.94 347.03)" class="st34 st37">University of Arkansas</text>
<text transform="matrix(1 0 0 1 156.91 317.33)" class="st34 st37">University of Florida</text>
<text transform="matrix(1 0 0 1 78.2498 287.62)" class="st34 st37">University of Tennessee-Knoxville </text>
<text transform="matrix(1 0 0 1 145.7753 257.92)" class="st34 st37">University of Alabama</text>
<text transform="matrix(1 0 0 1 63.5 228.22)" class="st34 st37">University of Maryland-College Park</text>
<text transform="matrix(1 0 0 1 142.72 198.52)" class="st34 st37">University of Delawa</text>
<text transform="matrix(1 0 0 1 261.38 198.52)" class="st34 st37">r</text>
<text transform="matrix(1 0 0 1 265.48 198.52)" class="st34 st37">e</text>
<text transform="matrix(1 0 0 1 96.45 159.94)" class="st34 st37">Louisiana State University and</text>
<text transform="matrix(1 0 0 1 76.65 175.17)" class="st34 st37">Agricultural &amp; Mechanical College</text>
<text transform="matrix(1 0 0 1 49.99 139.11)" class="st34 st37">University of South Ca</text>
<text transform="matrix(1 0 0 1 180.24 139.11)" class="st34 st37">r</text>
<text transform="matrix(1 0 0 1 184.33 139.11)" class="st34 st37">olina-Columbia</text>
<text transform="matrix(1 0 0 1 151.02 109.41)" class="st34 st37">University of Geo</text>
<text transform="matrix(1 0 0 1 251.16 109.41)" class="st34 st37">r</text>
<text transform="matrix(1 0 0 1 255.12 109.41)" class="st34 st37">gia</text>
<text transform="matrix(1 0 0 1 132.34 79.71)" class="st34 st37">University of Mississippi</text>
</svg>
