<svg xmlns='http://www.w3.org/2000/svg' version='1.1' width='796px' height='575px'><svg xmlns="http://www.w3.org/2000/svg" id="graphic" style="position: absolute;" font-family="Source Sans Pro" width="775" height="522" x="10.5" y="42.5"><g class="facets"><g class="facet" transform="translate(0,14)" opacity="1"><g class="fl-chart"><rect class="fl-chart-debug-rectangle" x="0" y="0" style="stroke-width: 1px; fill: none; display: none; stroke: red;" width="775" height="508"/><clipPath class="fl-data-clip-path" id="fl-chart-layout-1-clip-path"><rect x="278.74436645507814" y="6.75" width="486.70969199890345" height="435.4873217474063"/></clipPath><clipPath class="fl-grid-clip-path" id="fl-chart-layout-1-grid-clip-path"><rect x="277.74436645507814" y="5.75" width="488.70969199890345" height="437.4873217474063"/></clipPath><g class="fl-chart-background"><rect class="fl-chart-fill" x="278.74436645507814" y="6.75" width="486.70969199890345" height="435.4873217474063" fill="none"/><image class="fl-chart-image" x="278.74436645507814" y="6.75" width="486.70969199890345" height="435.4873217474063" preserveAspectRatio="none"/><rect class="fl-chart-interaction" x="278.74436645507814" y="6.75" width="486.70969199890345" height="435.4873217474063" style="opacity: 0;"/></g><g class="fl-data-background" clip-path="url(#fl-chart-layout-1-clip-path)"/><g class="fl-gridlines" clip-path="url(#fl-chart-layout-1-grid-clip-path)" style="pointer-events: none;"><g class="fl-gridlines-vertical"><line x1="278.74436645507814" x2="278.74436645507814" y1="442.2373217474063" y2="6.75" style="shape-rendering: crispedges; opacity: 1; stroke: rgb(238, 238, 238); stroke-width: 1;"/><line x1="327.4153356549685" x2="327.4153356549685" y1="442.2373217474063" y2="6.75" style="shape-rendering: crispedges; opacity: 1; stroke: rgb(238, 238, 238); stroke-width: 1;"/><line x1="376.08630485485884" x2="376.08630485485884" y1="442.2373217474063" y2="6.75" style="shape-rendering: crispedges; opacity: 1; stroke: rgb(238, 238, 238); stroke-width: 1;"/><line x1="424.75727405474913" x2="424.75727405474913" y1="442.2373217474063" y2="6.75" style="shape-rendering: crispedges; opacity: 1; stroke: rgb(238, 238, 238); stroke-width: 1;"/><line x1="473.42824325463954" x2="473.42824325463954" y1="442.2373217474063" y2="6.75" style="shape-rendering: crispedges; opacity: 1; stroke: rgb(238, 238, 238); stroke-width: 1;"/><line x1="522.0992124545298" x2="522.0992124545298" y1="442.2373217474063" y2="6.75" style="shape-rendering: crispedges; opacity: 1; stroke: rgb(238, 238, 238); stroke-width: 1;"/><line x1="570.7701816544202" x2="570.7701816544202" y1="442.2373217474063" y2="6.75" style="shape-rendering: crispedges; opacity: 1; stroke: rgb(238, 238, 238); stroke-width: 1;"/><line x1="619.4411508543105" x2="619.4411508543105" y1="442.2373217474063" y2="6.75" style="shape-rendering: crispedges; opacity: 1; stroke: rgb(238, 238, 238); stroke-width: 1;"/><line x1="668.1121200542009" x2="668.1121200542009" y1="442.2373217474063" y2="6.75" style="shape-rendering: crispedges; opacity: 1; stroke: rgb(238, 238, 238); stroke-width: 1;"/><line x1="716.7830892540912" x2="716.7830892540912" y1="442.2373217474063" y2="6.75" style="shape-rendering: crispedges; opacity: 1; stroke: rgb(238, 238, 238); stroke-width: 1;"/><line x1="765.4540584539816" x2="765.4540584539816" y1="442.2373217474063" y2="6.75" style="shape-rendering: crispedges; opacity: 1; stroke: rgb(238, 238, 238); stroke-width: 1;"/></g><g class="fl-gridlines-horizontal"/></g><g class="fl-axes"><g class="fl-x-axes"><g class="fl-axis fl-x-axis fl-bottom-axis"><g class="fl-axis-line"/><g class="fl-axis-ticks"><g transform="translate(278.7443542480469, 442.2373352050781)" style="opacity: 1;"><line y2="7" style="stroke: rgb(238, 238, 238); stroke-width: 1;"/><text text-anchor="end" transform="translate(0,10.5) rotate(-45,0,0) translate(0,8.316)" style="user-select: none; cursor: default; fill: rgb(170, 170, 170); font-size: 12.6px; font-weight: normal;"><tspan x="0" dy="0">0</tspan></text></g><g transform="translate(765.4540405273438, 442.2373352050781)" style="opacity: 1;"><line y2="7" style="stroke: rgb(238, 238, 238); stroke-width: 1;"/><text text-anchor="end" transform="translate(0,10.5) rotate(-45,0,0) translate(0,8.316)" style="user-select: none; cursor: default; fill: rgb(170, 170, 170); font-size: 12.6px; font-weight: normal;"><tspan x="0" dy="0">50</tspan></text></g><g transform="translate(668.1121215820312, 442.2373352050781)" style="opacity: 1;"><line y2="7" style="stroke: rgb(238, 238, 238); stroke-width: 1;"/><text text-anchor="end" transform="translate(0,10.5) rotate(-45,0,0) translate(0,8.316)" style="user-select: none; cursor: default; fill: rgb(170, 170, 170); font-size: 12.6px; font-weight: normal;"><tspan x="0" dy="0">40</tspan></text></g><g transform="translate(570.7702026367188, 442.2373352050781)" style="opacity: 1;"><line y2="7" style="stroke: rgb(238, 238, 238); stroke-width: 1;"/><text text-anchor="end" transform="translate(0,10.5) rotate(-45,0,0) translate(0,8.316)" style="user-select: none; cursor: default; fill: rgb(170, 170, 170); font-size: 12.6px; font-weight: normal;"><tspan x="0" dy="0">30</tspan></text></g><g transform="translate(473.4282531738281, 442.2373352050781)" style="opacity: 1;"><line y2="7" style="stroke: rgb(238, 238, 238); stroke-width: 1;"/><text text-anchor="end" transform="translate(0,10.5) rotate(-45,0,0) translate(0,8.316)" style="user-select: none; cursor: default; fill: rgb(170, 170, 170); font-size: 12.6px; font-weight: normal;"><tspan x="0" dy="0">20</tspan></text></g><g transform="translate(376.0863037109375, 442.2373352050781)" style="opacity: 1;"><line y2="7" style="stroke: rgb(238, 238, 238); stroke-width: 1;"/><text text-anchor="end" transform="translate(0,10.5) rotate(-45,0,0) translate(0,8.316)" style="user-select: none; cursor: default; fill: rgb(170, 170, 170); font-size: 12.6px; font-weight: normal;"><tspan x="0" dy="0">10</tspan></text></g><g transform="translate(327.41534423828125, 442.2373352050781)" style="opacity: 1;"><line y2="7" style="stroke: rgb(238, 238, 238); stroke-width: 1;"/><text text-anchor="end" transform="translate(0,10.5) rotate(-45,0,0) translate(0,8.316)" style="user-select: none; cursor: default; fill: rgb(170, 170, 170); font-size: 12.6px; font-weight: normal;"><tspan x="0" dy="0">5</tspan></text></g><g transform="translate(716.7830810546875, 442.2373352050781)" style="opacity: 1;"><line y2="7" style="stroke: rgb(238, 238, 238); stroke-width: 1;"/><text text-anchor="end" transform="translate(0,10.5) rotate(-45,0,0) translate(0,8.316)" style="user-select: none; cursor: default; fill: rgb(170, 170, 170); font-size: 12.6px; font-weight: normal;"><tspan x="0" dy="0">45</tspan></text></g><g transform="translate(619.441162109375, 442.2373352050781)" style="opacity: 1;"><line y2="7" style="stroke: rgb(238, 238, 238); stroke-width: 1;"/><text text-anchor="end" transform="translate(0,10.5) rotate(-45,0,0) translate(0,8.316)" style="user-select: none; cursor: default; fill: rgb(170, 170, 170); font-size: 12.6px; font-weight: normal;"><tspan x="0" dy="0">35</tspan></text></g><g transform="translate(522.0991821289062, 442.2373352050781)" style="opacity: 1;"><line y2="7" style="stroke: rgb(238, 238, 238); stroke-width: 1;"/><text text-anchor="end" transform="translate(0,10.5) rotate(-45,0,0) translate(0,8.316)" style="user-select: none; cursor: default; fill: rgb(170, 170, 170); font-size: 12.6px; font-weight: normal;"><tspan x="0" dy="0">25</tspan></text></g><g transform="translate(424.75726318359375, 442.2373352050781)" style="opacity: 1;"><line y2="7" style="stroke: rgb(238, 238, 238); stroke-width: 1;"/><text text-anchor="end" transform="translate(0,10.5) rotate(-45,0,0) translate(0,8.316)" style="user-select: none; cursor: default; fill: rgb(170, 170, 170); font-size: 12.6px; font-weight: normal;"><tspan x="0" dy="0">15</tspan></text></g></g><g class="fl-axis-title"><text text-anchor="middle" style="font-size: 15.4px; fill: rgb(170, 170, 170); font-weight: normal; user-select: none; cursor: default;" x="522.0992124545298" y="480.59999999999997" dy="15.400000000000002">Gap</text></g></g><g class="fl-axis fl-x-axis fl-top-axis"><g class="fl-axis-line"/><g class="fl-axis-ticks"/><g class="fl-axis-title"/></g></g><g class="fl-y-axes"><g class="fl-axis fl-y-axis fl-left-axis"><g class="fl-axis-line"><line x1="278.74436645507814" x2="278.74436645507814" y1="442.2373217474063" y2="6.75" style="shape-rendering: crispedges; stroke-linecap: square; stroke-width: 1; opacity: 1; stroke: rgb(238, 238, 238);"/></g><g class="fl-axis-ticks"><g transform="translate(278.7443542480469, 426.6842041015625)" style="opacity: 1;"><line x2="-7" style="stroke: rgb(238, 238, 238); stroke-width: 1;"/><text text-anchor="end" transform="translate(-10.5,4.158)" style="user-select: none; cursor: default; fill: rgb(0, 0, 0); font-size: 12.6px; font-weight: normal;"><tspan x="0" dy="0">University of Missouri-Columbia</tspan></text></g><g transform="translate(278.7443542480469, 395.5779724121094)" style="opacity: 1;"><line x2="-7" style="stroke: rgb(238, 238, 238); stroke-width: 1;"/><text text-anchor="end" transform="translate(-10.5,4.158)" style="user-select: none; cursor: default; fill: rgb(0, 0, 0); font-size: 12.6px; font-weight: normal;"><tspan x="0" dy="0">University of Michigan-Ann Arbor</tspan></text></g><g transform="translate(278.7443542480469, 364.47174072265625)" style="opacity: 1;"><line x2="-7" style="stroke: rgb(238, 238, 238); stroke-width: 1;"/><text text-anchor="end" transform="translate(-10.5,4.158)" style="user-select: none; cursor: default; fill: rgb(0, 0, 0); font-size: 12.6px; font-weight: normal;"><tspan x="0" dy="0">University of Virginia-Main Campus</tspan></text></g><g transform="translate(278.7443542480469, 333.365478515625)" style="opacity: 1;"><line x2="-7" style="stroke: rgb(238, 238, 238); stroke-width: 1;"/><text text-anchor="end" transform="translate(-10.5,4.158)" style="user-select: none; cursor: default; fill: rgb(0, 0, 0); font-size: 12.6px; font-weight: normal;"><tspan x="0" dy="0">University of North Carolina at Chapel Hill</tspan></text></g><g transform="translate(278.7443542480469, 302.2592468261719)" style="opacity: 1;"><line x2="-7" style="stroke: rgb(238, 238, 238); stroke-width: 1;"/><text text-anchor="end" transform="translate(-10.5,4.158)" style="user-select: none; cursor: default; fill: rgb(0, 0, 0); font-size: 12.6px; font-weight: normal;"><tspan x="0" dy="0">University of Arkansas</tspan></text></g><g transform="translate(278.7443542480469, 271.15301513671875)" style="opacity: 1;"><line x2="-7" style="stroke: rgb(238, 238, 238); stroke-width: 1;"/><text text-anchor="end" transform="translate(-10.5,4.158)" style="user-select: none; cursor: default; fill: rgb(0, 0, 0); font-size: 12.6px; font-weight: normal;"><tspan x="0" dy="0">University of Florida</tspan></text></g><g transform="translate(278.7443542480469, 240.04678344726562)" style="opacity: 1;"><line x2="-7" style="stroke: rgb(238, 238, 238); stroke-width: 1;"/><text text-anchor="end" transform="translate(-10.5,4.158)" style="user-select: none; cursor: default; fill: rgb(0, 0, 0); font-size: 12.6px; font-weight: normal;"><tspan x="0" dy="0">The University of Tennessee-Knoxville</tspan></text></g><g transform="translate(278.7443542480469, 208.94053649902344)" style="opacity: 1;"><line x2="-7" style="stroke: rgb(238, 238, 238); stroke-width: 1;"/><text text-anchor="end" transform="translate(-10.5,4.158)" style="user-select: none; cursor: default; fill: rgb(0, 0, 0); font-size: 12.6px; font-weight: normal;"><tspan x="0" dy="0">The University of Alabama</tspan></text></g><g transform="translate(278.7443542480469, 177.8343048095703)" style="opacity: 1;"><line x2="-7" style="stroke: rgb(238, 238, 238); stroke-width: 1;"/><text text-anchor="end" transform="translate(-10.5,4.158)" style="user-select: none; cursor: default; fill: rgb(0, 0, 0); font-size: 12.6px; font-weight: normal;"><tspan x="0" dy="0">University of Maryland-College Park</tspan></text></g><g transform="translate(278.7443542480469, 146.7280731201172)" style="opacity: 1;"><line x2="-7" style="stroke: rgb(238, 238, 238); stroke-width: 1;"/><text text-anchor="end" transform="translate(-10.5,4.158)" style="user-select: none; cursor: default; fill: rgb(0, 0, 0); font-size: 12.6px; font-weight: normal;"><tspan x="0" dy="0">University of Delaware</tspan></text></g><g transform="translate(278.7443542480469, 115.62183380126953)" style="opacity: 1;"><line x2="-7" style="stroke: rgb(238, 238, 238); stroke-width: 1;"/><text text-anchor="end" transform="translate(-10.5, -4.0920000076293945)" style="user-select: none; cursor: default; fill: rgb(0, 0, 0); font-size: 12.6px; font-weight: normal;"><tspan x="0" dy="0">Louisiana State University and Agricultural &amp;</tspan><tspan x="0" dy="1.1em">Mechanical College</tspan></text></g><g transform="translate(278.7443542480469, 84.51559448242188)" style="opacity: 1;"><line x2="-7" style="stroke: rgb(238, 238, 238); stroke-width: 1;"/><text text-anchor="end" transform="translate(-10.5,4.158)" style="user-select: none; cursor: default; fill: rgb(0, 0, 0); font-size: 12.6px; font-weight: normal;"><tspan x="0" dy="0">University of South Carolina-Columbia</tspan></text></g><g transform="translate(278.7443542480469, 53.40935516357422)" style="opacity: 1;"><line x2="-7" style="stroke: rgb(238, 238, 238); stroke-width: 1;"/><text text-anchor="end" transform="translate(-10.5,4.158)" style="user-select: none; cursor: default; fill: rgb(0, 0, 0); font-size: 12.6px; font-weight: normal;"><tspan x="0" dy="0">University of Georgia</tspan></text></g><g transform="translate(278.7443542480469, 22.303117752075195)" style="opacity: 1;"><line x2="-7" style="stroke: rgb(238, 238, 238); stroke-width: 1;"/><text text-anchor="end" transform="translate(-10.5,4.158)" style="user-select: none; cursor: default; fill: rgb(0, 0, 0); font-size: 12.6px; font-weight: normal;"><tspan x="0" dy="0">University of Mississippi</tspan></text></g></g><g class="fl-axis-title"><text text-anchor="middle" style="font-size: 15.4px; fill: rgb(170, 170, 170); font-weight: normal; user-select: none; cursor: default;" transform="translate(22.3179931640625, 224.49366760253903) rotate(-90)">State</text></g></g><g class="fl-axis fl-y-axis fl-right-axis"><g class="fl-axis-line"/><g class="fl-axis-ticks"/><g class="fl-axis-title"/></g></g></g><g class="fl-data-foreground" clip-path="url(#fl-chart-layout-1-clip-path)"/></g><text class="facet-title" y="0" font-size="1.25rem" font-weight="bold" dominant-baseline="middle" x="278.74436645507814" clip-path="url(#facet-clip-0-5)" fill="rgb(136, 136, 136)" opacity="0"/></g></g><g class="fits"/><g class="violins"/><g class="lines"><path class="line" d="M356.6179171749027,36.303118633835936L745.9856707740254,36.303118633835936" fill="none" stroke="#bcbcbc" stroke-width="5.6000000000000005" opacity="0.7" stroke-dashoffset="0" clip-path="url(#facet-clip-0-5)" marker-end="url(#arrowhead-line-University-of-Mississippi-facet-)"/><path class="line" d="M337.14952949494653,67.40935590150781L629.1753446942886,67.40935590150781" fill="none" stroke="#bcbcbc" stroke-width="5.6000000000000005" opacity="0.7" stroke-dashoffset="0" clip-path="url(#facet-clip-0-5)" marker-end="url(#arrowhead-line-University-of-Georgia-facet-)"/><path class="line" d="M356.6179171749027,98.5155931691797L619.4411508543105,98.5155931691797" fill="none" stroke="#bcbcbc" stroke-width="5.6000000000000005" opacity="0.7" stroke-dashoffset="0" clip-path="url(#facet-clip-0-5)" marker-end="url(#arrowhead-line-University-of-South-Carolina-Columbia-facet-)"/><path class="line" d="M463.69404941466144,129.62183043685158L697.314701574135,129.62183043685158" fill="none" stroke="#bcbcbc" stroke-width="5.6000000000000005" opacity="0.7" stroke-dashoffset="0" clip-path="url(#facet-clip-0-5)" marker-end="url(#arrowhead-line-Louisiana-State-University-and-Agricultural-&amp;-Mechanical-College-facet-)"/><path class="line" d="M346.88372333492464,160.72806770452345L580.5043754943983,160.72806770452345" fill="none" stroke="#bcbcbc" stroke-width="5.6000000000000005" opacity="0.7" stroke-dashoffset="0" clip-path="url(#facet-clip-0-5)" marker-end="url(#arrowhead-line-University-of-Delaware-facet-)"/><path class="line" d="M376.08630485485884,191.83430497219533L599.9727631743544,191.83430497219533" fill="none" stroke="#bcbcbc" stroke-width="5.6000000000000005" opacity="0.7" stroke-dashoffset="0" clip-path="url(#facet-clip-0-5)" marker-end="url(#arrowhead-line-University-of-Maryland-College-Park-facet-)"/><path class="line" d="M385.82049869483694,222.94054223986723L580.5043754943983,222.94054223986723" fill="none" stroke="#bcbcbc" stroke-width="5.6000000000000005" opacity="0.7" stroke-dashoffset="0" clip-path="url(#facet-clip-0-5)" marker-end="url(#arrowhead-line-The-University-of-Alabama-facet-)"/><path class="line" d="M317.68114181499044,254.0467795075391L512.3650186145518,254.0467795075391" fill="none" stroke="#bcbcbc" stroke-width="5.6000000000000005" opacity="0.7" stroke-dashoffset="0" clip-path="url(#facet-clip-0-5)" marker-end="url(#arrowhead-line-The-University-of-Tennessee-Knoxville-facet-)"/><path class="line" d="M327.4153356549685,285.153016775211L483.1624370946176,285.153016775211" fill="none" stroke="#bcbcbc" stroke-width="5.6000000000000005" opacity="0.7" stroke-dashoffset="0" clip-path="url(#facet-clip-0-5)" marker-end="url(#arrowhead-line-University-of-Florida-facet-)"/><path class="line" d="M307.9469479750123,316.25925404288284L473.42824325463954,316.25925404288284" fill="none" stroke="#bcbcbc" stroke-width="5.6000000000000005" opacity="0.7" stroke-dashoffset="0" clip-path="url(#facet-clip-0-5)" marker-end="url(#arrowhead-line-University-of-Arkansas-facet-)"/><path class="line" d="M366.35211101488073,347.3654913105547L522.0992124545298,347.3654913105547" fill="none" stroke="#bcbcbc" stroke-width="5.6000000000000005" opacity="0.7" stroke-dashoffset="0" clip-path="url(#facet-clip-0-5)" marker-end="url(#arrowhead-line-University-of-North-Carolina-at-Chapel-Hill-facet-)"/><path class="line" d="M337.14952949494653,378.4717285782266L492.8966309345957,378.4717285782266" fill="none" stroke="#bcbcbc" stroke-width="5.6000000000000005" opacity="0.7" stroke-dashoffset="0" clip-path="url(#facet-clip-0-5)" marker-end="url(#arrowhead-line-University-of-Virginia-Main-Campus-facet-)"/><path class="line" d="M317.68114181499044,409.5779658458985L444.2256617347053,409.5779658458985" fill="none" stroke="#bcbcbc" stroke-width="5.6000000000000005" opacity="0.7" stroke-dashoffset="0" clip-path="url(#facet-clip-0-5)" marker-end="url(#arrowhead-line-University-of-Michigan-Ann-Arbor-facet-)"/><path class="line" d="M327.4153356549685,440.6842031135704L424.75727405474913,440.6842031135704" fill="none" stroke="#bcbcbc" stroke-width="5.6000000000000005" opacity="0.7" stroke-dashoffset="0" clip-path="url(#facet-clip-0-5)" marker-end="url(#arrowhead-line-University-of-Missouri-Columbia-facet-)"/></g><g class="data-points"><path class="data-point" d="M4.1073621666150775,0A4.1073621666150775,4.1073621666150775,0,1,1,-4.1073621666150775,0A4.1073621666150775,4.1073621666150775,0,1,1,4.1073621666150775,0" vector-effect="non-scaling-stroke" stroke="#99def8" fill="#99def8" fill-opacity="1" stroke-opacity="0" stroke-width="1" transform="translate(356.617919921875, 36.30311965942383) scale(1.4516243934631348,1.4516243934631348)" tabindex="0" id="dot-0"/><path class="data-point" d="M4.1073621666150775,0A4.1073621666150775,4.1073621666150775,0,1,1,-4.1073621666150775,0A4.1073621666150775,4.1073621666150775,0,1,1,4.1073621666150775,0" vector-effect="non-scaling-stroke" stroke="#0082b3" fill="#0082b3" fill-opacity="1" stroke-opacity="0" stroke-width="1" transform="translate(745.9856707740254,36.303118633835936) scale(1.4516244058246877)" tabindex="0" id="dot-1"/><path class="data-point" d="M4.1073621666150775,0A4.1073621666150775,4.1073621666150775,0,1,1,-4.1073621666150775,0A4.1073621666150775,4.1073621666150775,0,1,1,4.1073621666150775,0" vector-effect="non-scaling-stroke" stroke="#99def8" fill="#99def8" fill-opacity="1" stroke-opacity="0" stroke-width="1" transform="translate(337.1495361328125, 67.40935516357422) scale(1.4516243934631348,1.4516243934631348)" tabindex="0" id="dot-2"/><path class="data-point" d="M4.1073621666150775,0A4.1073621666150775,4.1073621666150775,0,1,1,-4.1073621666150775,0A4.1073621666150775,4.1073621666150775,0,1,1,4.1073621666150775,0" vector-effect="non-scaling-stroke" stroke="#0082b3" fill="#0082b3" fill-opacity="1" stroke-opacity="0" stroke-width="1" transform="translate(629.1753446942886,67.40935590150781) scale(1.4516244058246877)" tabindex="0" id="dot-3"/><path class="data-point" d="M4.1073621666150775,0A4.1073621666150775,4.1073621666150775,0,1,1,-4.1073621666150775,0A4.1073621666150775,4.1073621666150775,0,1,1,4.1073621666150775,0" vector-effect="non-scaling-stroke" stroke="#99def8" fill="#99def8" fill-opacity="1" stroke-opacity="0" stroke-width="1" transform="translate(356.617919921875, 98.51559448242188) scale(1.4516243934631348,1.4516243934631348)" tabindex="0" id="dot-4"/><path class="data-point" d="M4.1073621666150775,0A4.1073621666150775,4.1073621666150775,0,1,1,-4.1073621666150775,0A4.1073621666150775,4.1073621666150775,0,1,1,4.1073621666150775,0" vector-effect="non-scaling-stroke" stroke="#0082b3" fill="#0082b3" fill-opacity="1" stroke-opacity="0" stroke-width="1" transform="translate(619.4411508543105,98.5155931691797) scale(1.4516244058246877)" tabindex="0" id="dot-5"/><path class="data-point" d="M4.1073621666150775,0A4.1073621666150775,4.1073621666150775,0,1,1,-4.1073621666150775,0A4.1073621666150775,4.1073621666150775,0,1,1,4.1073621666150775,0" vector-effect="non-scaling-stroke" stroke="#99def8" fill="#99def8" fill-opacity="1" stroke-opacity="0" stroke-width="1" transform="translate(463.6940612792969, 129.621826171875) scale(1.4516243934631348,1.4516243934631348)" tabindex="0" id="dot-6"/><path class="data-point" d="M4.1073621666150775,0A4.1073621666150775,4.1073621666150775,0,1,1,-4.1073621666150775,0A4.1073621666150775,4.1073621666150775,0,1,1,4.1073621666150775,0" vector-effect="non-scaling-stroke" stroke="#0082b3" fill="#0082b3" fill-opacity="1" stroke-opacity="0" stroke-width="1" transform="translate(697.314701574135,129.62183043685158) scale(1.4516244058246877)" tabindex="0" id="dot-7"/><path class="data-point" d="M4.1073621666150775,0A4.1073621666150775,4.1073621666150775,0,1,1,-4.1073621666150775,0A4.1073621666150775,4.1073621666150775,0,1,1,4.1073621666150775,0" vector-effect="non-scaling-stroke" stroke="#99def8" fill="#99def8" fill-opacity="1" stroke-opacity="0" stroke-width="1" transform="translate(346.88372802734375, 160.7280731201172) scale(1.4516243934631348,1.4516243934631348)" tabindex="0" id="dot-8"/><path class="data-point" d="M4.1073621666150775,0A4.1073621666150775,4.1073621666150775,0,1,1,-4.1073621666150775,0A4.1073621666150775,4.1073621666150775,0,1,1,4.1073621666150775,0" vector-effect="non-scaling-stroke" stroke="#0082b3" fill="#0082b3" fill-opacity="1" stroke-opacity="0" stroke-width="1" transform="translate(580.5043754943983,160.72806770452345) scale(1.4516244058246877)" tabindex="0" id="dot-9"/><path class="data-point" d="M4.1073621666150775,0A4.1073621666150775,4.1073621666150775,0,1,1,-4.1073621666150775,0A4.1073621666150775,4.1073621666150775,0,1,1,4.1073621666150775,0" vector-effect="non-scaling-stroke" stroke="#99def8" fill="#99def8" fill-opacity="1" stroke-opacity="0" stroke-width="1" transform="translate(376.0863037109375, 191.8343048095703) scale(1.4516243934631348,1.4516243934631348)" tabindex="0" id="dot-10"/><path class="data-point" d="M4.1073621666150775,0A4.1073621666150775,4.1073621666150775,0,1,1,-4.1073621666150775,0A4.1073621666150775,4.1073621666150775,0,1,1,4.1073621666150775,0" vector-effect="non-scaling-stroke" stroke="#0082b3" fill="#0082b3" fill-opacity="1" stroke-opacity="0" stroke-width="1" transform="translate(599.9727631743544,191.83430497219533) scale(1.4516244058246877)" tabindex="0" id="dot-11"/><path class="data-point" d="M4.1073621666150775,0A4.1073621666150775,4.1073621666150775,0,1,1,-4.1073621666150775,0A4.1073621666150775,4.1073621666150775,0,1,1,4.1073621666150775,0" vector-effect="non-scaling-stroke" stroke="#99def8" fill="#99def8" fill-opacity="1" stroke-opacity="0" stroke-width="1" transform="translate(385.82049560546875, 222.94053649902344) scale(1.4516243934631348,1.4516243934631348)" tabindex="0" id="dot-12"/><path class="data-point" d="M4.1073621666150775,0A4.1073621666150775,4.1073621666150775,0,1,1,-4.1073621666150775,0A4.1073621666150775,4.1073621666150775,0,1,1,4.1073621666150775,0" vector-effect="non-scaling-stroke" stroke="#0082b3" fill="#0082b3" fill-opacity="1" stroke-opacity="0" stroke-width="1" transform="translate(580.5043754943983,222.94054223986723) scale(1.4516244058246877)" tabindex="0" id="dot-13"/><path class="data-point" d="M4.1073621666150775,0A4.1073621666150775,4.1073621666150775,0,1,1,-4.1073621666150775,0A4.1073621666150775,4.1073621666150775,0,1,1,4.1073621666150775,0" vector-effect="non-scaling-stroke" stroke="#99def8" fill="#99def8" fill-opacity="1" stroke-opacity="0" stroke-width="1" transform="translate(317.68115234375, 254.04678344726562) scale(1.4516243934631348,1.4516243934631348)" tabindex="0" id="dot-14"/><path class="data-point" d="M4.1073621666150775,0A4.1073621666150775,4.1073621666150775,0,1,1,-4.1073621666150775,0A4.1073621666150775,4.1073621666150775,0,1,1,4.1073621666150775,0" vector-effect="non-scaling-stroke" stroke="#0082b3" fill="#0082b3" fill-opacity="1" stroke-opacity="0" stroke-width="1" transform="translate(512.3650186145518,254.0467795075391) scale(1.4516244058246877)" tabindex="0" id="dot-15"/><path class="data-point" d="M4.1073621666150775,0A4.1073621666150775,4.1073621666150775,0,1,1,-4.1073621666150775,0A4.1073621666150775,4.1073621666150775,0,1,1,4.1073621666150775,0" vector-effect="non-scaling-stroke" stroke="#99def8" fill="#99def8" fill-opacity="1" stroke-opacity="0" stroke-width="1" transform="translate(327.41534423828125, 285.15301513671875) scale(1.4516243934631348,1.4516243934631348)" tabindex="0" id="dot-16"/><path class="data-point" d="M4.1073621666150775,0A4.1073621666150775,4.1073621666150775,0,1,1,-4.1073621666150775,0A4.1073621666150775,4.1073621666150775,0,1,1,4.1073621666150775,0" vector-effect="non-scaling-stroke" stroke="#0082b3" fill="#0082b3" fill-opacity="1" stroke-opacity="0" stroke-width="1" transform="translate(483.1624370946176,285.153016775211) scale(1.4516244058246877)" tabindex="0" id="dot-17"/><path class="data-point" d="M4.1073621666150775,0A4.1073621666150775,4.1073621666150775,0,1,1,-4.1073621666150775,0A4.1073621666150775,4.1073621666150775,0,1,1,4.1073621666150775,0" vector-effect="non-scaling-stroke" stroke="#99def8" fill="#99def8" fill-opacity="1" stroke-opacity="0" stroke-width="1" transform="translate(307.94696044921875, 316.2592468261719) scale(1.4516243934631348,1.4516243934631348)" tabindex="0" id="dot-18"/><path class="data-point" d="M4.1073621666150775,0A4.1073621666150775,4.1073621666150775,0,1,1,-4.1073621666150775,0A4.1073621666150775,4.1073621666150775,0,1,1,4.1073621666150775,0" vector-effect="non-scaling-stroke" stroke="#0082b3" fill="#0082b3" fill-opacity="1" stroke-opacity="0" stroke-width="1" transform="translate(473.42824325463954,316.25925404288284) scale(1.4516244058246877)" tabindex="0" id="dot-19"/><path class="data-point" d="M4.1073621666150775,0A4.1073621666150775,4.1073621666150775,0,1,1,-4.1073621666150775,0A4.1073621666150775,4.1073621666150775,0,1,1,4.1073621666150775,0" vector-effect="non-scaling-stroke" stroke="#99def8" fill="#99def8" fill-opacity="1" stroke-opacity="0" stroke-width="1" transform="translate(366.35211181640625, 347.365478515625) scale(1.4516243934631348,1.4516243934631348)" tabindex="0" id="dot-20"/><path class="data-point" d="M4.1073621666150775,0A4.1073621666150775,4.1073621666150775,0,1,1,-4.1073621666150775,0A4.1073621666150775,4.1073621666150775,0,1,1,4.1073621666150775,0" vector-effect="non-scaling-stroke" stroke="#0082b3" fill="#0082b3" fill-opacity="1" stroke-opacity="0" stroke-width="1" transform="translate(522.0992124545298,347.3654913105547) scale(1.4516244058246877)" tabindex="0" id="dot-21"/><path class="data-point" d="M4.1073621666150775,0A4.1073621666150775,4.1073621666150775,0,1,1,-4.1073621666150775,0A4.1073621666150775,4.1073621666150775,0,1,1,4.1073621666150775,0" vector-effect="non-scaling-stroke" stroke="#99def8" fill="#99def8" fill-opacity="1" stroke-opacity="0" stroke-width="1" transform="translate(337.1495361328125, 378.47174072265625) scale(1.4516243934631348,1.4516243934631348)" tabindex="0" id="dot-22"/><path class="data-point" d="M4.1073621666150775,0A4.1073621666150775,4.1073621666150775,0,1,1,-4.1073621666150775,0A4.1073621666150775,4.1073621666150775,0,1,1,4.1073621666150775,0" vector-effect="non-scaling-stroke" stroke="#0082b3" fill="#0082b3" fill-opacity="1" stroke-opacity="0" stroke-width="1" transform="translate(492.8966309345957,378.4717285782266) scale(1.4516244058246877)" tabindex="0" id="dot-23"/><path class="data-point" d="M4.1073621666150775,0A4.1073621666150775,4.1073621666150775,0,1,1,-4.1073621666150775,0A4.1073621666150775,4.1073621666150775,0,1,1,4.1073621666150775,0" vector-effect="non-scaling-stroke" stroke="#99def8" fill="#99def8" fill-opacity="1" stroke-opacity="0" stroke-width="1" transform="translate(317.68115234375, 409.5779724121094) scale(1.4516243934631348,1.4516243934631348)" tabindex="0" id="dot-24"/><path class="data-point" d="M4.1073621666150775,0A4.1073621666150775,4.1073621666150775,0,1,1,-4.1073621666150775,0A4.1073621666150775,4.1073621666150775,0,1,1,4.1073621666150775,0" vector-effect="non-scaling-stroke" stroke="#0082b3" fill="#0082b3" fill-opacity="1" stroke-opacity="0" stroke-width="1" transform="translate(444.2256617347053,409.5779658458985) scale(1.4516244058246877)" tabindex="0" id="dot-25"/><path class="data-point" d="M4.1073621666150775,0A4.1073621666150775,4.1073621666150775,0,1,1,-4.1073621666150775,0A4.1073621666150775,4.1073621666150775,0,1,1,4.1073621666150775,0" vector-effect="non-scaling-stroke" stroke="#99def8" fill="#99def8" fill-opacity="1" stroke-opacity="0" stroke-width="1" transform="translate(327.41534423828125, 440.6842041015625) scale(1.4516243934631348,1.4516243934631348)" tabindex="0" id="dot-26"/><path class="data-point" d="M4.1073621666150775,0A4.1073621666150775,4.1073621666150775,0,1,1,-4.1073621666150775,0A4.1073621666150775,4.1073621666150775,0,1,1,4.1073621666150775,0" vector-effect="non-scaling-stroke" stroke="#0082b3" fill="#0082b3" fill-opacity="1" stroke-opacity="0" stroke-width="1" transform="translate(424.75727405474913,440.6842031135704) scale(1.4516244058246877)" tabindex="0" id="dot-27"/></g><g id="axes-highlights"><g class="axis-highlights-facet" opacity="1"><defs><pattern class="fl-pattern-auto" width="4" height="4" patternUnits="userSpaceOnUse" id="fl-pattern-diagonal-x"><path stroke-width="1" shape-rendering="auto" stroke-linecap="square" d="M 0 4 l 4 -4 M -1 1 l 2 -2 M 3 5 l 2 -2" style="stroke: currentcolor;"/></pattern><pattern class="fl-pattern-auto" width="4" height="4" patternUnits="userSpaceOnUse" id="fl-pattern-dots-x"><path stroke-width="1" shape-rendering="auto" stroke-linecap="square" d="M 1 2 A 1.2 1.2 0 1 1 1 2.1 Z" style="fill: currentcolor;"/></pattern><pattern class="fl-pattern-auto" width="4" height="4" patternUnits="userSpaceOnUse" id="fl-pattern-grid-x"><path stroke-width="1" shape-rendering="auto" stroke-linecap="square" d="M 2 0 l 0 4 M 0 2 l 4 0" style="stroke: currentcolor;"/></pattern><pattern class="fl-pattern-auto" width="4" height="4" patternUnits="userSpaceOnUse" id="fl-pattern-diagonal-y"><path stroke-width="1" shape-rendering="auto" stroke-linecap="square" d="M 0 4 l 4 -4 M -1 1 l 2 -2 M 3 5 l 2 -2" style="stroke: currentcolor;"/></pattern><pattern class="fl-pattern-auto" width="4" height="4" patternUnits="userSpaceOnUse" id="fl-pattern-grid-y"><path stroke-width="1" shape-rendering="auto" stroke-linecap="square" d="M 2 0 l 0 4 M 0 2 l 4 0" style="stroke: currentcolor;"/></pattern><pattern class="fl-pattern-auto" width="4" height="4" patternUnits="userSpaceOnUse" id="fl-pattern-dots-y"><path stroke-width="1" shape-rendering="auto" stroke-linecap="square" d="M 1 2 A 1.2 1.2 0 1 1 1 2.1 Z" style="fill: currentcolor;"/></pattern></defs><g class="axis-highlights" transform="translate(0, 14)" style="opacity: 1;"/></g></g></svg><svg xmlns="http://www.w3.org/2000/svg" id="overlay" fill="currentColor" style="position: absolute;" width="775" height="522" x="10.5" y="42.5"><g class="data-labels"/><g class="boxes"/></svg><svg xmlns="http://www.w3.org/2000/svg" id="fl-layout-svg-screenshot-container" class="flourish-screenshot-svg-container" style="left: 0px; top: 0px; width: 796px; height: 575px; position: absolute;" x="0" y="0"><text x="10.5px" y="10.5px" font-family="&quot;Source Sans Pro&quot;" font-size="22.4px" font-weight="700" fill="rgb(51, 51, 51)" style="dominant-baseline: text-before-edge;"><tspan dy="0" dx="0" x="10.5" opacity="1"/></text><text x="10.5px" y="10.5px" font-family="&quot;Source Sans Pro&quot;" font-size="22.4px" font-weight="400" fill="rgb(51, 51, 51)" style="dominant-baseline: text-before-edge;"><tspan dy="0" dx="0" x="10.5" opacity="1"/></text><text x="10.5px" y="10.5px" font-family="&quot;Source Sans Pro&quot;" font-size="16.8px" font-weight="400" fill="rgb(51, 51, 51)" style="dominant-baseline: text-before-edge;"><tspan dy="0" dx="0" x="10.5" opacity="1"/></text><text x="10.5px" y="564.5px" font-family="&quot;Source Sans Pro&quot;" font-size="14px" font-weight="400" fill="rgb(51, 51, 51)" style="dominant-baseline: text-before-edge;"><tspan dy="0" dx="0" x="10.5" opacity="1"/></text></svg><svg xmlns="http://www.w3.org/2000/svg" id="fl-legend-discrete-color-0-svg-screenshot-container" class="flourish-screenshot-svg-container" style="left: 0px; top: 0px; width: 796px; height: 575px; position: absolute;" x="0" y="0"><text x="0px" y="0px" font-family="&quot;Source Sans Pro&quot;" font-size="14px" font-weight="700" fill="rgb(51, 51, 51)" style="dominant-baseline: text-before-edge;"><tspan dy="0" dx="0" x="0" opacity="1"/></text><text x="0px" y="0px" font-family="&quot;Source Sans Pro&quot;" font-size="14px" font-weight="700" fill="rgb(51, 51, 51)" style="dominant-baseline: text-before-edge;"><tspan dy="0" dx="0" x="0" opacity="1"/></text><circle cx="17.5px" cy="19.5px" r="7px" opacity="1" fill="rgb(153, 222, 248)"/><circle cx="136.625px" cy="19.5px" r="7px" opacity="1" fill="rgb(0, 130, 179)"/><text x="24.5px" y="10.5px" font-family="&quot;Source Sans Pro&quot;" font-size="14px" font-weight="400" fill="rgb(51, 51, 51)" style="dominant-baseline: text-before-edge;"><tspan dy="0" dx="2.8" x="24.5" opacity="1">College Enrolled</tspan></text><text x="143.625px" y="10.5px" font-family="&quot;Source Sans Pro&quot;" font-size="14px" font-weight="400" fill="rgb(51, 51, 51)" style="dominant-baseline: text-before-edge;"><tspan dy="0" dx="2.8" x="143.625" opacity="1">High-school graduates</tspan></text></svg><svg xmlns="http://www.w3.org/2000/svg" class="flourish-panel-close" viewBox="0 0 40 40" style="width: 1.25rem; height: 1.25rem; position: absolute; right: 1rem; top: 1rem; cursor: pointer; opacity: 0;" x="-31.5" y="14"><path stroke="#333333" stroke-width="0.5rem" stroke-linecap="round" d="M 10,10 L 30,30 M 30,10 L 10,30" style="stroke: rgb(51, 51, 51);"/></svg></svg>