<?xml version="1.0" encoding="UTF-8"?>
<svg id="fl-legend-discrete-color-0-svg-screenshot-container" xmlns="http://www.w3.org/2000/svg" xmlns:xlink="http://www.w3.org/1999/xlink" viewBox="0 0 720 1254.18">
  <defs>
    <style>
      .cls-1, .cls-2, .cls-3, .cls-4, .cls-5, .cls-6, .cls-7, .cls-8, .cls-9, .cls-10, .cls-11, .cls-12, .cls-13, .cls-14, .cls-15, .cls-16, .cls-17, .cls-18, .cls-19 {
        fill: none;
      }

      .cls-2 {
        clip-path: url(#clippath-8);
      }

      .cls-3 {
        clip-path: url(#clippath-6);
      }

      .cls-4 {
        clip-path: url(#clippath-4);
      }

      .cls-5 {
        clip-path: url(#clippath-2);
      }

      .cls-20, .cls-21, .cls-22, .cls-23 {
        fill: #0082b3;
      }

      .cls-24 {
        fill: #fff;
      }

      .cls-25, .cls-26, .cls-27, .cls-28 {
        fill: #99def8;
      }

      .cls-29 {
        letter-spacing: -.11em;
      }

      .cls-29, .cls-21, .cls-26, .cls-22, .cls-23, .cls-30, .cls-31, .cls-32, .cls-27, .cls-28, .cls-33, .cls-34, .cls-18, .cls-35 {
        isolation: isolate;
      }

      .cls-29, .cls-21, .cls-26, .cls-22, .cls-23, .cls-30, .cls-31, .cls-32, .cls-27, .cls-28, .cls-33, .cls-34, .cls-35 {
        font-family: HelveticaNeue, 'Helvetica Neue';
      }

      .cls-29, .cls-31, .cls-32, .cls-33, .cls-35 {
        font-size: 19.94px;
      }

      .cls-21, .cls-23 {
        font-size: 13.98px;
      }

      .cls-6 {
        stroke-miterlimit: 10;
        stroke-width: 5px;
      }

      .cls-6, .cls-16 {
        stroke: #ddd;
      }

      .cls-36 {
        clip-path: url(#clippath-1);
      }

      .cls-37 {
        clip-path: url(#clippath-3);
      }

      .cls-38 {
        clip-path: url(#clippath-7);
      }

      .cls-39 {
        clip-path: url(#clippath-5);
      }

      .cls-40 {
        clip-path: url(#clippath-9);
      }

      .cls-7 {
        clip-path: url(#clippath-14);
      }

      .cls-8 {
        clip-path: url(#clippath-12);
      }

      .cls-9 {
        clip-path: url(#clippath-18);
      }

      .cls-10 {
        clip-path: url(#clippath-16);
      }

      .cls-11 {
        clip-path: url(#clippath-10);
      }

      .cls-12 {
        clip-path: url(#clippath-22);
      }

      .cls-13 {
        clip-path: url(#clippath-24);
      }

      .cls-14 {
        clip-path: url(#clippath-20);
      }

      .cls-15 {
        clip-path: url(#clippath-26);
      }

      .cls-26, .cls-22 {
        font-size: 16.87px;
      }

      .cls-23 {
        letter-spacing: -.02em;
      }

      .cls-41 {
        clip-path: url(#clippath-21);
      }

      .cls-42 {
        clip-path: url(#clippath-23);
      }

      .cls-43 {
        clip-path: url(#clippath-25);
      }

      .cls-44 {
        clip-path: url(#clippath-27);
      }

      .cls-45 {
        clip-path: url(#clippath-13);
      }

      .cls-46 {
        clip-path: url(#clippath-15);
      }

      .cls-47 {
        clip-path: url(#clippath-17);
      }

      .cls-48 {
        clip-path: url(#clippath-19);
      }

      .cls-49 {
        clip-path: url(#clippath-11);
      }

      .cls-30 {
        letter-spacing: -.03em;
      }

      .cls-30, .cls-34 {
        font-size: 19.86px;
      }

      .cls-31 {
        letter-spacing: -.03em;
      }

      .cls-32 {
        letter-spacing: -.02em;
      }

      .cls-27 {
        letter-spacing: -.02em;
      }

      .cls-27, .cls-28 {
        font-size: 14.33px;
      }

      .cls-33 {
        letter-spacing: -.02em;
      }

      .cls-17 {
        stroke: #eee;
      }

      .cls-18 {
        opacity: .7;
        stroke: #bcbcbc;
        stroke-width: 5.6px;
      }

      .cls-19 {
        clip-path: url(#clippath);
      }
    </style>
    <clipPath id="clippath">
      <polygon class="cls-1" points="-20.02 34.18 -19.02 34.18 -20.02 35.18 -20.02 34.18"/>
    </clipPath>
    <clipPath id="clippath-1">
      <polygon class="cls-19" points="-22.02 32.18 -23.02 32.18 -22.02 31.18 -22.02 32.18"/>
    </clipPath>
    <clipPath id="clippath-2">
      <polygon class="cls-1" points="-20.02 34.18 -19.02 34.18 -20.02 35.18 -20.02 34.18"/>
    </clipPath>
    <clipPath id="clippath-3">
      <polygon class="cls-5" points="-22.02 32.18 -23.02 32.18 -22.02 31.18 -22.02 32.18"/>
    </clipPath>
    <clipPath id="clippath-4">
      <polygon class="cls-1" points="-20.02 34.18 -19.02 34.18 -20.02 35.18 -20.02 34.18"/>
    </clipPath>
    <clipPath id="clippath-5">
      <polygon class="cls-4" points="-22.02 32.18 -23.02 32.18 -22.02 31.18 -22.02 32.18"/>
    </clipPath>
    <clipPath id="clippath-6">
      <polygon class="cls-1" points="-20.02 34.18 -19.02 34.18 -20.02 35.18 -20.02 34.18"/>
    </clipPath>
    <clipPath id="clippath-7">
      <polygon class="cls-3" points="-22.02 32.18 -23.02 32.18 -22.02 31.18 -22.02 32.18"/>
    </clipPath>
    <clipPath id="clippath-8">
      <polygon class="cls-1" points="-20.02 34.18 -19.02 34.18 -20.02 35.18 -20.02 34.18"/>
    </clipPath>
    <clipPath id="clippath-9">
      <polygon class="cls-2" points="-22.02 32.18 -23.02 32.18 -22.02 31.18 -22.02 32.18"/>
    </clipPath>
    <clipPath id="clippath-10">
      <polygon class="cls-1" points="-20.02 34.18 -19.02 34.18 -20.02 35.18 -20.02 34.18"/>
    </clipPath>
    <clipPath id="clippath-11">
      <polygon class="cls-11" points="-22.02 32.18 -23.02 32.18 -22.02 31.18 -22.02 32.18"/>
    </clipPath>
    <clipPath id="clippath-12">
      <polygon class="cls-1" points="-20.02 34.18 -19.02 34.18 -20.02 35.18 -20.02 34.18"/>
    </clipPath>
    <clipPath id="clippath-13">
      <polygon class="cls-8" points="-22.02 32.18 -23.02 32.18 -22.02 31.18 -22.02 32.18"/>
    </clipPath>
    <clipPath id="clippath-14">
      <polygon class="cls-1" points="-20.02 34.18 -19.02 34.18 -20.02 35.18 -20.02 34.18"/>
    </clipPath>
    <clipPath id="clippath-15">
      <polygon class="cls-7" points="-22.02 32.18 -23.02 32.18 -22.02 31.18 -22.02 32.18"/>
    </clipPath>
    <clipPath id="clippath-16">
      <polygon class="cls-1" points="-20.02 34.18 -19.02 34.18 -20.02 35.18 -20.02 34.18"/>
    </clipPath>
    <clipPath id="clippath-17">
      <polygon class="cls-10" points="-22.02 32.18 -23.02 32.18 -22.02 31.18 -22.02 32.18"/>
    </clipPath>
    <clipPath id="clippath-18">
      <polygon class="cls-1" points="-20.02 34.18 -19.02 34.18 -20.02 35.18 -20.02 34.18"/>
    </clipPath>
    <clipPath id="clippath-19">
      <polygon class="cls-9" points="-22.02 32.18 -23.02 32.18 -22.02 31.18 -22.02 32.18"/>
    </clipPath>
    <clipPath id="clippath-20">
      <polygon class="cls-1" points="-20.02 34.18 -19.02 34.18 -20.02 35.18 -20.02 34.18"/>
    </clipPath>
    <clipPath id="clippath-21">
      <polygon class="cls-14" points="-22.02 32.18 -23.02 32.18 -22.02 31.18 -22.02 32.18"/>
    </clipPath>
    <clipPath id="clippath-22">
      <polygon class="cls-1" points="-20.02 34.18 -19.02 34.18 -20.02 35.18 -20.02 34.18"/>
    </clipPath>
    <clipPath id="clippath-23">
      <polygon class="cls-12" points="-22.02 32.18 -23.02 32.18 -22.02 31.18 -22.02 32.18"/>
    </clipPath>
    <clipPath id="clippath-24">
      <polygon class="cls-1" points="-20.02 34.18 -19.02 34.18 -20.02 35.18 -20.02 34.18"/>
    </clipPath>
    <clipPath id="clippath-25">
      <polygon class="cls-13" points="-22.02 32.18 -23.02 32.18 -22.02 31.18 -22.02 32.18"/>
    </clipPath>
    <clipPath id="clippath-26">
      <polygon class="cls-1" points="-20.02 34.18 -19.02 34.18 -20.02 35.18 -20.02 34.18"/>
    </clipPath>
    <clipPath id="clippath-27">
      <polygon class="cls-15" points="-22.02 32.18 -23.02 32.18 -22.02 31.18 -22.02 32.18"/>
    </clipPath>
  </defs>
  <g>
    <g class="cls-36">
      <path class="cls-18" d="M335.6,69.49h389.37" marker-end="url(#arrowhead-line-University-of-Mississippi-facet-)"/>
    </g>
    <g class="cls-37">
      <path class="cls-18" d="M316.13,100.59h292.03" marker-end="url(#arrowhead-line-University-of-Georgia-facet-)"/>
    </g>
    <g class="cls-39">
      <path class="cls-18" d="M335.6,131.7h262.82" marker-end="url(#arrowhead-line-University-of-South-Carolina-Columbia-facet-)"/>
    </g>
    <g class="cls-38">
      <path class="cls-18" d="M442.68,162.8h233.62" marker-end="url(#arrowhead-line-Louisiana-State-University-and-Agricultural-&amp;-Mechanical-College-facet-)"/>
    </g>
    <g class="cls-40">
      <path class="cls-18" d="M325.87,193.91h233.62" marker-end="url(#arrowhead-line-University-of-Delaware-facet-)"/>
    </g>
    <g class="cls-49">
      <path class="cls-18" d="M355.07,225.02h223.89" marker-end="url(#arrowhead-line-University-of-Maryland-College-Park-facet-)"/>
    </g>
    <g class="cls-45">
      <path class="cls-18" d="M364.8,256.12h194.68" marker-end="url(#arrowhead-line-The-University-of-Alabama-facet-)"/>
    </g>
    <g class="cls-46">
      <path class="cls-18" d="M296.66,287.23h194.68" marker-end="url(#arrowhead-line-The-University-of-Tennessee-Knoxville-facet-)"/>
    </g>
    <g class="cls-47">
      <path class="cls-18" d="M306.4,318.34h155.75" marker-end="url(#arrowhead-line-University-of-Florida-facet-)"/>
    </g>
    <g class="cls-48">
      <path class="cls-18" d="M286.93,349.44h165.48" marker-end="url(#arrowhead-line-University-of-Arkansas-facet-)"/>
    </g>
    <g class="cls-41">
      <path class="cls-18" d="M345.33,380.55h155.75" marker-end="url(#arrowhead-line-University-of-North-Carolina-at-Chapel-Hill-facet-)"/>
    </g>
    <g class="cls-42">
      <path class="cls-18" d="M316.13,411.65h155.75" marker-end="url(#arrowhead-line-University-of-Virginia-Main-Campus-facet-)"/>
    </g>
    <g class="cls-43">
      <path class="cls-18" d="M296.66,442.76h126.54" marker-end="url(#arrowhead-line-University-of-Michigan-Ann-Arbor-facet-)"/>
    </g>
    <g class="cls-44">
      <path class="cls-18" d="M306.4,473.87h97.34" marker-end="url(#arrowhead-line-University-of-Missouri-Columbia-facet-)"/>
    </g>
  </g>
  <line class="cls-17" x1="724.74" y1="510.71" x2="719.99" y2="515.75"/>
  <line class="cls-6" x1="85.31" y1="1195.25" x2="221.88" y2="1195.25"/>
  <path id="dot-26" class="cls-25" d="M95.98,1195.25c0,4.82-3.68,8.73-8.21,8.73s-8.21-3.91-8.21-8.73,3.68-8.73,8.21-8.73,8.21,3.91,8.21,8.73" vector-effect="non-scaling-stroke"/>
  <path id="dot-27" class="cls-20" d="M230.11,1195.25c0,4.82-3.68,8.73-8.21,8.73s-8.21-3.91-8.21-8.73,3.68-8.73,8.21-8.73,8.21,3.91,8.21,8.73" vector-effect="non-scaling-stroke"/>
  <text class="cls-26" transform="translate(47.34 1200.91) scale(.94 1)"><tspan x="0" y="0">5%</tspan></text>
  <text class="cls-22" transform="translate(238.62 1200.91) scale(.94 1)"><tspan x="0" y="0">15%</tspan></text>
  <text class="cls-35" transform="translate(47.34 1162.49) scale(.94 1)"><tspan x="0" y="0">University of Missouri-Columbia</tspan></text>
  <line class="cls-6" x1="87.43" y1="1112.86" x2="261.52" y2="1112.86"/>
  <path id="dot-24" class="cls-25" d="M95.38,1112.86c0,4.82-3.68,8.73-8.21,8.73s-8.21-3.91-8.21-8.73,3.68-8.73,8.21-8.73,8.21,3.91,8.21,8.73" vector-effect="non-scaling-stroke"/>
  <path id="dot-25" class="cls-20" d="M269.74,1112.86c0,4.82-3.68,8.73-8.21,8.73s-8.21-3.91-8.21-8.73,3.68-8.73,8.21-8.73,8.21,3.91,8.21,8.73" vector-effect="non-scaling-stroke"/>
  <text class="cls-26" transform="translate(47.34 1118.52) scale(.94 1)"><tspan x="0" y="0">4%</tspan></text>
  <text class="cls-22" transform="translate(277.22 1120.06) scale(.94 1)"><tspan x="0" y="0">17%</tspan></text>
  <text class="cls-35" transform="translate(47.34 1080.11) scale(.94 1)"><tspan x="0" y="0">University of Michigan-Ann Arbor</tspan></text>
  <line class="cls-6" x1="88.64" y1="1031.58" x2="301.73" y2="1031.58"/>
  <path id="dot-22" class="cls-25" d="M95.35,1031.58c0,4.82-3.68,8.73-8.21,8.73s-8.21-3.91-8.21-8.73,3.68-8.73,8.21-8.73,8.21,3.91,8.21,8.73" vector-effect="non-scaling-stroke"/>
  <path id="dot-23" class="cls-20" d="M309.94,1031.58c0,4.82-3.68,8.73-8.21,8.73s-8.21-3.91-8.21-8.73,3.68-8.73,8.21-8.73,8.21,3.91,8.21,8.73" vector-effect="non-scaling-stroke"/>
  <text class="cls-26" transform="translate(47.34 1037.67) scale(.94 1)"><tspan x="0" y="0">6%</tspan></text>
  <text class="cls-22" transform="translate(317.46 1037.67) scale(.94 1)"><tspan x="0" y="0">22%</tspan></text>
  <text class="cls-35" transform="translate(47.34 998.9) scale(.94 1)"><tspan x="0" y="0">University of </tspan></text>
  <text class="cls-32" transform="translate(156.76 998.9) scale(.94 1)"><tspan x="0" y="0">V</tspan></text>
  <text class="cls-35" transform="translate(167.89 998.9) scale(.94 1)"><tspan x="0" y="0">i</tspan></text>
  <text class="cls-31" transform="translate(172.04 998.9) scale(.94 1)"><tspan x="0" y="0">r</tspan></text>
  <text class="cls-35" transform="translate(177.77 998.9) scale(.94 1)"><tspan x="0" y="0">ginia-Main Campus</tspan></text>
  <line class="cls-6" x1="86.26" y1="951.86" x2="300.84" y2="951.86"/>
  <path id="dot-20" class="cls-25" d="M94.47,951.86c0,4.82-3.68,8.73-8.21,8.73s-8.21-3.91-8.21-8.73,3.68-8.73,8.21-8.73,8.21,3.91,8.21,8.73" vector-effect="non-scaling-stroke"/>
  <path id="dot-21" class="cls-20" d="M309.06,951.86c0,4.82-3.68,8.73-8.21,8.73s-8.21-3.91-8.21-8.73,3.68-8.73,8.21-8.73,8.21,3.91,8.21,8.73" vector-effect="non-scaling-stroke"/>
  <text class="cls-26" transform="translate(47.34 956.41) scale(.94 1)"><tspan x="0" y="0">9%</tspan></text>
  <text class="cls-22" transform="translate(317.03 956.46) scale(.94 1)"><tspan x="0" y="0">25%</tspan></text>
  <text class="cls-35" transform="translate(47.34 918) scale(.94 1)"><tspan x="0" y="0">University of North Ca</tspan></text>
  <text class="cls-33" transform="translate(232.49 918) scale(.94 1)"><tspan x="0" y="0">r</tspan></text>
  <text class="cls-35" transform="translate(238.39 918) scale(.94 1)"><tspan x="0" y="0">olina at Chapel Hill</tspan></text>
  <line class="cls-6" x1="83.75" y1="869.9" x2="311.75" y2="869.9"/>
  <path id="dot-18" class="cls-25" d="M91.96,869.9c0,4.82-3.68,8.73-8.21,8.73s-8.21-3.91-8.21-8.73,3.68-8.73,8.21-8.73,8.21,3.91,8.21,8.73" vector-effect="non-scaling-stroke"/>
  <path id="dot-19" class="cls-20" d="M319.96,869.9c0,4.82-3.68,8.73-8.21,8.73s-8.21-3.91-8.21-8.73,3.68-8.73,8.21-8.73,8.21,3.91,8.21,8.73" vector-effect="non-scaling-stroke"/>
  <text class="cls-26" transform="translate(47.34 875.56) scale(.94 1)"><tspan x="0" y="0">3%</tspan></text>
  <text class="cls-22" transform="translate(328.92 874.5) scale(.94 1)"><tspan x="0" y="0">20%</tspan></text>
  <text class="cls-35" transform="translate(47.34 836.09) scale(.94 1)"><tspan x="0" y="0">University of Arkansas</tspan></text>
  <line class="cls-6" x1="85.31" y1="787.56" x2="302.35" y2="787.56"/>
  <path id="dot-16" class="cls-25" d="M95.98,787.56c0,4.82-3.68,8.73-8.21,8.73s-8.21-3.91-8.21-8.73,3.68-8.73,8.21-8.73,8.21,3.91,8.21,8.73" vector-effect="non-scaling-stroke"/>
  <path id="dot-17" class="cls-20" d="M310.58,787.56c0,4.82-3.68,8.73-8.21,8.73s-8.21-3.91-8.21-8.73,3.68-8.73,8.21-8.73,8.21,3.91,8.21,8.73" vector-effect="non-scaling-stroke"/>
  <text class="cls-26" transform="translate(47.34 792.11) scale(.94 1)"><tspan x="0" y="0">5%</tspan></text>
  <text class="cls-22" transform="translate(317.22 793.65) scale(.94 1)"><tspan x="0" y="0">21%</tspan></text>
  <text class="cls-35" transform="translate(47.34 753.7) scale(.94 1)"><tspan x="0" y="0">University of Florida</tspan></text>
  <line class="cls-6" x1="88.67" y1="705.8" x2="354.17" y2="705.8"/>
  <path id="dot-14" class="cls-25" d="M95.38,705.17c0,4.82-3.68,8.73-8.21,8.73s-8.21-3.91-8.21-8.73,3.68-8.73,8.21-8.73,8.21,3.91,8.21,8.73" vector-effect="non-scaling-stroke"/>
  <path id="dot-15" class="cls-20" d="M363.62,705.17c0,4.82-3.68,8.73-8.21,8.73s-8.21-3.91-8.21-8.73,3.68-8.73,8.21-8.73,8.21,3.91,8.21,8.73" vector-effect="non-scaling-stroke"/>
  <text class="cls-26" transform="translate(47.34 709.73) scale(.94 1)"><tspan x="0" y="0">4%</tspan></text>
  <text class="cls-22" transform="translate(370.26 711.26) scale(.94 1)"><tspan x="0" y="0">24%</tspan></text>
  <text class="cls-35" transform="translate(47.34 671.31) scale(.94 1)"><tspan x="0" y="0">The University of </tspan></text>
  <text class="cls-29" transform="translate(193.24 671.31) scale(.94 1)"><tspan x="0" y="0">T</tspan></text>
  <text class="cls-35" transform="translate(201.92 671.31) scale(.94 1)"><tspan x="0" y="0">ennessee-Knoxville</tspan></text>
  <line class="cls-6" x1="93.33" y1="622.74" x2="364.02" y2="622.74"/>
  <path id="dot-12" class="cls-25" d="M104.01,622.74c0,4.82-3.68,8.73-8.21,8.73s-8.21-3.91-8.21-8.73,3.68-8.73,8.21-8.73,8.21,3.91,8.21,8.73" vector-effect="non-scaling-stroke"/>
  <path id="dot-13" class="cls-20" d="M372.25,622.74c0,4.82-3.68,8.73-8.21,8.73s-8.21-3.91-8.21-8.73,3.68-8.73,8.21-8.73,8.21,3.91,8.21,8.73" vector-effect="non-scaling-stroke"/>
  <text class="cls-26" transform="translate(47.34 628.75) scale(.94 1)"><tspan x="0" y="0">11%</tspan></text>
  <text class="cls-22" transform="translate(379.31 628.87) scale(.94 1)"><tspan x="0" y="0">31%</tspan></text>
  <text class="cls-35" transform="translate(47.34 590.06) scale(.94 1)"><tspan x="0" y="0">The University of Alabama</tspan></text>
  <line class="cls-6" x1="90.31" y1="541.53" x2="401.25" y2="541.53"/>
  <path id="dot-10" class="cls-25" d="M100.99,541.53c0,4.82-3.68,8.73-8.21,8.73s-8.21-3.91-8.21-8.73,3.68-8.73,8.21-8.73,8.21,3.91,8.21,8.73" vector-effect="non-scaling-stroke"/>
  <path id="dot-11" class="cls-20" d="M409.48,541.53c0,4.82-3.68,8.73-8.21,8.73s-8.21-3.91-8.21-8.73,3.68-8.73,8.21-8.73,8.21,3.91,8.21,8.73" vector-effect="non-scaling-stroke"/>
  <text class="cls-26" transform="translate(47.34 546.08) scale(.94 1)"><tspan x="0" y="0">10%</tspan></text>
  <text class="cls-22" transform="translate(416.98 547.62) scale(.94 1)"><tspan x="0" y="0">33%</tspan></text>
  <text class="cls-35" transform="translate(47.34 507.67) scale(.94 1)"><tspan x="0" y="0">University of Maryland-College Park</tspan></text>
  <line class="cls-6" x1="88.64" y1="459.14" x2="406.91" y2="459.14"/>
  <path id="dot-8" class="cls-25" d="M94.93,459.14c0,4.82-3.68,8.73-8.21,8.73s-8.21-3.91-8.21-8.73,3.68-8.73,8.21-8.73,8.21,3.91,8.21,8.73" vector-effect="non-scaling-stroke"/>
  <path id="dot-9" class="cls-20" d="M416.82,459.14c0,4.82-3.68,8.73-8.21,8.73s-8.21-3.91-8.21-8.73,3.68-8.73,8.21-8.73,8.21,3.91,8.21,8.73" vector-effect="non-scaling-stroke"/>
  <text class="cls-26" transform="translate(47.34 463.74) scale(.94 1)"><tspan x="0" y="0">7%</tspan></text>
  <text class="cls-22" transform="translate(423.88 465.23) scale(.94 1)"><tspan x="0" y="0">31%</tspan></text>
  <text class="cls-35" transform="translate(47.34 425.33) scale(.94 1)"><tspan x="0" y="0">University of Delawa</tspan></text>
  <text class="cls-33" transform="translate(218.56 425.33) scale(.94 1)"><tspan x="0" y="0">r</tspan></text>
  <text class="cls-35" transform="translate(224.48 425.33) scale(.94 1)"><tspan x="0" y="0">e</tspan></text>
  <line class="cls-6" x1="91.45" y1="377.37" x2="415.81" y2="377.37"/>
  <path id="dot-6" class="cls-25" d="M102.15,377.37c0,4.82-3.68,8.73-8.21,8.73s-8.21-3.91-8.21-8.73,3.68-8.73,8.21-8.73,8.21,3.91,8.21,8.73" vector-effect="non-scaling-stroke"/>
  <path id="dot-7" class="cls-20" d="M424.02,377.37c0,4.82-3.68,8.73-8.21,8.73s-8.21-3.91-8.21-8.73,3.68-8.73,8.21-8.73,8.21,3.91,8.21,8.73" vector-effect="non-scaling-stroke"/>
  <text class="cls-26" transform="translate(47.34 382.89) scale(.94 1)"><tspan x="0" y="0">19%</tspan></text>
  <text class="cls-22" transform="translate(433.44 382.89) scale(.94 1)"><tspan x="0" y="0">43%</tspan></text>
  <text class="cls-35" transform="translate(47.34 344.48) scale(.94 1)"><tspan x="0" y="0">Louisiana State University and Agricultural &amp; Mechanical College</tspan></text>
  <line class="cls-6" x1="82.79" y1="295.95" x2="447.38" y2="295.95"/>
  <path id="dot-4" class="cls-25" d="M93.47,295.95c0,4.82-3.68,8.73-8.21,8.73s-8.21-3.91-8.21-8.73,3.68-8.73,8.21-8.73,8.21,3.91,8.21,8.73" vector-effect="non-scaling-stroke"/>
  <path id="dot-5" class="cls-20" d="M455.61,295.95c0,4.82-3.68,8.73-8.21,8.73s-8.21-3.91-8.21-8.73,3.68-8.73,8.21-8.73,8.21,3.91,8.21,8.73" vector-effect="non-scaling-stroke"/>
  <text class="cls-26" transform="translate(47.34 302.04) scale(.94 1)"><tspan x="0" y="0">8%</tspan></text>
  <text class="cls-22" transform="translate(463.24 302.04) scale(.94 1)"><tspan x="0" y="0">35%</tspan></text>
  <text class="cls-35" transform="translate(47.34 263.27) scale(.94 1)"><tspan x="0" y="0">University of South Ca</tspan></text>
  <text class="cls-33" transform="translate(235.28 263.27) scale(.94 1)"><tspan x="0" y="0">r</tspan></text>
  <text class="cls-35" transform="translate(241.19 263.27) scale(.94 1)"><tspan x="0" y="0">olina-Columbia</tspan></text>
  <line class="cls-6" x1="91.28" y1="214.74" x2="488.18" y2="214.74"/>
  <path id="dot-2" class="cls-25" d="M95.35,214.74c0,4.82-3.68,8.73-8.21,8.73s-8.21-3.91-8.21-8.73,3.68-8.73,8.21-8.73,8.21,3.91,8.21,8.73" vector-effect="non-scaling-stroke"/>
  <path id="dot-3" class="cls-20" d="M497.71,214.74c0,4.82-3.68,8.73-8.21,8.73s-8.21-3.91-8.21-8.73,3.68-8.73,8.21-8.73,8.21,3.91,8.21,8.73" vector-effect="non-scaling-stroke"/>
  <text class="cls-26" transform="translate(47.34 220.83) scale(.94 1)"><tspan x="0" y="0">6%</tspan></text>
  <text class="cls-22" transform="translate(507.25 220.83) scale(.94 1)"><tspan x="0" y="0">36%</tspan></text>
  <text class="cls-34" transform="translate(47.34 182.1) scale(.94 1)"><tspan x="0" y="0">University of Geo</tspan></text>
  <text class="cls-30" transform="translate(191.84 182.1) scale(.94 1)"><tspan x="0" y="0">r</tspan></text>
  <text class="cls-34" transform="translate(197.55 182.1) scale(.94 1)"><tspan x="0" y="0">gia</tspan></text>
  <line class="cls-17" x1="247.24" y1="79.95" x2="240.53" y2="79.95"/>
  <line class="cls-16" x1="621.18" y1="137.2" x2="621.28" y2="114.24"/>
  <line class="cls-16" x1="84.64" y1="134.63" x2="84.73" y2="111.67"/>
  <text class="cls-28" transform="translate(84.82 90.15) rotate(.23) scale(.94 1)"><tspan x="0" y="0">Pe</tspan></text>
  <text class="cls-27" transform="translate(100.79 90.22) rotate(.23) scale(.94 1)"><tspan x="0" y="0">r</tspan></text>
  <text class="cls-28" transform="translate(105.03 90.23) rotate(.23) scale(.94 1)"><tspan x="0" y="0">cent of f</tspan></text>
  <text class="cls-27" transform="translate(154.44 90.43) rotate(.23) scale(.94 1)"><tspan x="0" y="0">r</tspan></text>
  <text class="cls-28" transform="translate(158.69 90.44) rotate(.23) scale(.94 1)"><tspan x="0" y="0">eshmen</tspan></text>
  <text class="cls-28" transform="translate(84.75 108.06) rotate(.23) scale(.94 1)"><tspan x="0" y="0">who a</tspan></text>
  <text class="cls-27" transform="translate(121.18 108.2) rotate(.23) scale(.94 1)"><tspan x="0" y="0">r</tspan></text>
  <text class="cls-28" transform="translate(125.42 108.22) rotate(.23) scale(.94 1)"><tspan x="0" y="0">e Black</tspan></text>
  <text class="cls-21" transform="translate(491.87 90.21) rotate(.23) scale(.94 1)"><tspan x="0" y="0">Pe</tspan></text>
  <text class="cls-23" transform="translate(507.45 90.27) rotate(.23) scale(.94 1)"><tspan x="0" y="0">r</tspan></text>
  <text class="cls-21" transform="translate(511.59 90.29) rotate(.23) scale(.94 1)"><tspan x="0" y="0">cent of state public</tspan></text>
  <text class="cls-21" transform="translate(491.8 107.68) rotate(.23) scale(.94 1)"><tspan x="0" y="0">high school graduates</tspan></text>
  <text class="cls-21" transform="translate(491.73 125.15) rotate(.23) scale(.94 1)"><tspan x="0" y="0">who a</tspan></text>
  <text class="cls-23" transform="translate(527.27 125.29) rotate(.23) scale(.94 1)"><tspan x="0" y="0">r</tspan></text>
  <text class="cls-21" transform="translate(531.41 125.3) rotate(.23) scale(.94 1)"><tspan x="0" y="0">e Black</tspan></text>
  <line class="cls-6" x1="85.05" y1="133.2" x2="621.53" y2="135.31"/>
  <path id="dot-0" class="cls-25" d="M93.26,133.23c-.02,4.82-3.71,8.71-8.24,8.69s-8.19-3.94-8.18-8.76,3.71-8.71,8.24-8.69,8.19,3.94,8.18,8.76" vector-effect="non-scaling-stroke"/>
  <path id="dot-1" class="cls-20" d="M629.74,135.34c-.02,4.82-3.71,8.71-8.24,8.69s-8.19-3.94-8.18-8.76,3.71-8.71,8.24-8.69,8.19,3.94,8.18,8.76" vector-effect="non-scaling-stroke"/>
  <text class="cls-26" transform="translate(47.24 139.14) rotate(.23) scale(.94 1)"><tspan x="0" y="0">8%</tspan></text>
  <text class="cls-22" transform="translate(639.03 141.47) rotate(.23) scale(.94 1)"><tspan x="0" y="0">48%</tspan></text>
  <text class="cls-34" transform="translate(47.34 62.17) scale(.94 1)"><tspan x="0" y="0">University of Mississippi</tspan></text>
  <rect class="cls-24" x="21.22" y="158.09" width="677.65" height="1075.76"/>
</svg>