<?xml version="1.0" encoding="utf-8"?>
<!-- Generator: Adobe Illustrator 27.0.0, SVG Export Plug-In . SVG Version: 6.00 Build 0)  -->
<svg version="1.1" id="fl-legend-discrete-color-0-svg-screenshot-container"
	 xmlns="http://www.w3.org/2000/svg" xmlns:xlink="http://www.w3.org/1999/xlink" x="0px" y="0px" viewBox="0 0 720 1254.2"
	 style="enable-background:new 0 0 720 1254.2;" xml:space="preserve">
<style type="text/css">
	.st0{clip-path:url(#SVGID_00000032612580556867239170000002498778929212259260_);}
	.st1{clip-path:url(#SVGID_00000008853243739504894010000001106588737663820442_);}
	.st2{opacity:0.7;fill:none;stroke:#BCBCBC;stroke-width:5.6;enable-background:new    ;}
	.st3{clip-path:url(#SVGID_00000095319511633613363320000015946743909162448257_);}
	.st4{clip-path:url(#SVGID_00000056404637400189709720000000291202682863547792_);}
	.st5{clip-path:url(#SVGID_00000170998064849935867610000006101671164501930902_);}
	.st6{clip-path:url(#SVGID_00000085219821982104758730000002266646991800100743_);}
	.st7{clip-path:url(#SVGID_00000070807580946446334890000006575972136712105136_);}
	.st8{clip-path:url(#SVGID_00000151528642202207049700000011304557240856021941_);}
	.st9{clip-path:url(#SVGID_00000026881844740004477660000002132882441346609048_);}
	.st10{clip-path:url(#SVGID_00000082365492458728031570000007873891003514646147_);}
	.st11{clip-path:url(#SVGID_00000016796207961672168800000005530700933062676117_);}
	.st12{clip-path:url(#SVGID_00000034065139684188341880000004437867077640956583_);}
	.st13{clip-path:url(#SVGID_00000171716834646857846630000009120017291627602104_);}
	.st14{clip-path:url(#SVGID_00000016790716072148202020000016874028926187301798_);}
	.st15{clip-path:url(#SVGID_00000017500899795904350500000016880331177478604693_);}
	.st16{clip-path:url(#SVGID_00000136411653874909103770000004608339489763898288_);}
	.st17{clip-path:url(#SVGID_00000176001894990965554050000014283635273883252138_);}
	.st18{clip-path:url(#SVGID_00000085961208952791310160000009199026225041791629_);}
	.st19{clip-path:url(#SVGID_00000166647006879236740000000009953549381201871031_);}
	.st20{clip-path:url(#SVGID_00000096767780543353488700000015702065383011703218_);}
	.st21{clip-path:url(#SVGID_00000057864992383908923890000008523365307693105075_);}
	.st22{clip-path:url(#SVGID_00000065075327116384361810000014697153726165374624_);}
	.st23{clip-path:url(#SVGID_00000164474672055436762690000014010149066171988392_);}
	.st24{clip-path:url(#SVGID_00000024721999836098561210000015409908814147475379_);}
	.st25{clip-path:url(#SVGID_00000109743338274119987590000012664740663921030584_);}
	.st26{clip-path:url(#SVGID_00000130620766634270926490000017312635715140851337_);}
	.st27{clip-path:url(#SVGID_00000079454513810770507010000016066443472718759356_);}
	.st28{clip-path:url(#SVGID_00000134951752119111761390000014218347045152784805_);}
	.st29{fill:none;stroke:#EEEEEE;}
	.st30{fill:none;stroke:#DDDDDD;stroke-width:5;stroke-miterlimit:10;}
	.st31{fill:#99DEF8;}
	.st32{fill:#0082B3;}
	.st33{font-family:'HelveticaNeue';}
	.st34{font-size:16.87px;}
	.st35{font-size:19.94px;}
	.st36{font-size:19.86px;}
	.st37{fill:none;stroke:#DDDDDD;}
	.st38{font-size:14.33px;}
	.st39{font-size:13.98px;}
</style>
<g>
	<g>
		<defs>
			<polygon id="SVGID_1_" points="-20,34.2 -19,34.2 -20,35.2 			"/>
		</defs>
		<defs>
			<polygon id="SVGID_00000093177264446941897040000012570679792671980930_" points="-22,32.2 -23,32.2 -22,31.2 			"/>
		</defs>
		<clipPath id="SVGID_00000050637584287391933370000016942235769975713170_">
			<use xlink:href="#SVGID_1_"  style="overflow:visible;"/>
		</clipPath>
		
			<clipPath id="SVGID_00000143584572896692491720000006700680067663142800_" style="clip-path:url(#SVGID_00000050637584287391933370000016942235769975713170_);">
			<use xlink:href="#SVGID_00000093177264446941897040000012570679792671980930_"  style="overflow:visible;"/>
		</clipPath>
		<g style="clip-path:url(#SVGID_00000143584572896692491720000006700680067663142800_);">
			<path marker-end="url(#arrowhead-line-University-of-Mississippi-facet-)" class="st2" d="M335.6,69.5H725"/>
		</g>
	</g>
	<g>
		<defs>
			<polygon id="SVGID_00000021805406870965957010000009596771914296473489_" points="-20,34.2 -19,34.2 -20,35.2 			"/>
		</defs>
		<defs>
			<polygon id="SVGID_00000015319800704054964840000000896110338837857456_" points="-22,32.2 -23,32.2 -22,31.2 			"/>
		</defs>
		<clipPath id="SVGID_00000172424257389794076030000011652383827382353332_">
			<use xlink:href="#SVGID_00000021805406870965957010000009596771914296473489_"  style="overflow:visible;"/>
		</clipPath>
		
			<clipPath id="SVGID_00000111887309748197425740000001995020280817271197_" style="clip-path:url(#SVGID_00000172424257389794076030000011652383827382353332_);">
			<use xlink:href="#SVGID_00000015319800704054964840000000896110338837857456_"  style="overflow:visible;"/>
		</clipPath>
		<g style="clip-path:url(#SVGID_00000111887309748197425740000001995020280817271197_);">
			<path marker-end="url(#arrowhead-line-University-of-Georgia-facet-)" class="st2" d="M316.1,100.6h292"/>
		</g>
	</g>
	<g>
		<defs>
			<polygon id="SVGID_00000097484392188358204240000001560751890809688457_" points="-20,34.2 -19,34.2 -20,35.2 			"/>
		</defs>
		<defs>
			<polygon id="SVGID_00000040532414189788444810000002733709956629402784_" points="-22,32.2 -23,32.2 -22,31.2 			"/>
		</defs>
		<clipPath id="SVGID_00000092414090354558824510000011609130681947208071_">
			<use xlink:href="#SVGID_00000097484392188358204240000001560751890809688457_"  style="overflow:visible;"/>
		</clipPath>
		
			<clipPath id="SVGID_00000006665755130737937550000010132813961874806200_" style="clip-path:url(#SVGID_00000092414090354558824510000011609130681947208071_);">
			<use xlink:href="#SVGID_00000040532414189788444810000002733709956629402784_"  style="overflow:visible;"/>
		</clipPath>
		<g style="clip-path:url(#SVGID_00000006665755130737937550000010132813961874806200_);">
			<path marker-end="url(#arrowhead-line-University-of-South-Carolina-Columbia-facet-)" class="st2" d="M335.6,131.7h262.8"/>
		</g>
	</g>
	<g>
		<defs>
			<polygon id="SVGID_00000133516364064197479440000016466120781839622297_" points="-20,34.2 -19,34.2 -20,35.2 			"/>
		</defs>
		<defs>
			<polygon id="SVGID_00000142884464562880700210000001329029107675465882_" points="-22,32.2 -23,32.2 -22,31.2 			"/>
		</defs>
		<clipPath id="SVGID_00000124859183507375282220000010842325004141973141_">
			<use xlink:href="#SVGID_00000133516364064197479440000016466120781839622297_"  style="overflow:visible;"/>
		</clipPath>
		
			<clipPath id="SVGID_00000172422453242407988290000008427844210009651101_" style="clip-path:url(#SVGID_00000124859183507375282220000010842325004141973141_);">
			<use xlink:href="#SVGID_00000142884464562880700210000001329029107675465882_"  style="overflow:visible;"/>
		</clipPath>
		<g style="clip-path:url(#SVGID_00000172422453242407988290000008427844210009651101_);">
			
				<path marker-end="url(#arrowhead-line-Louisiana-State-University-and-Agricultural-&amp;-Mechanical-College-facet-)" class="st2" d="
				M442.7,162.8h233.6"/>
		</g>
	</g>
	<g>
		<defs>
			<polygon id="SVGID_00000027569278679043024450000003857720850091266708_" points="-20,34.2 -19,34.2 -20,35.2 			"/>
		</defs>
		<defs>
			<polygon id="SVGID_00000029745213404136288690000009397048271801550490_" points="-22,32.2 -23,32.2 -22,31.2 			"/>
		</defs>
		<clipPath id="SVGID_00000096755092812447554460000013502741580169033633_">
			<use xlink:href="#SVGID_00000027569278679043024450000003857720850091266708_"  style="overflow:visible;"/>
		</clipPath>
		
			<clipPath id="SVGID_00000082364188805753775550000008006493897773977255_" style="clip-path:url(#SVGID_00000096755092812447554460000013502741580169033633_);">
			<use xlink:href="#SVGID_00000029745213404136288690000009397048271801550490_"  style="overflow:visible;"/>
		</clipPath>
		<g style="clip-path:url(#SVGID_00000082364188805753775550000008006493897773977255_);">
			<path marker-end="url(#arrowhead-line-University-of-Delaware-facet-)" class="st2" d="M325.9,193.9h233.6"/>
		</g>
	</g>
	<g>
		<defs>
			<polygon id="SVGID_00000134962046036791722880000000543475049640536730_" points="-20,34.2 -19,34.2 -20,35.2 			"/>
		</defs>
		<defs>
			<polygon id="SVGID_00000096756190273944226890000016650933895629400252_" points="-22,32.2 -23,32.2 -22,31.2 			"/>
		</defs>
		<clipPath id="SVGID_00000108305721474238546190000009677276451069950396_">
			<use xlink:href="#SVGID_00000134962046036791722880000000543475049640536730_"  style="overflow:visible;"/>
		</clipPath>
		
			<clipPath id="SVGID_00000124122530236061618970000007376128576179361665_" style="clip-path:url(#SVGID_00000108305721474238546190000009677276451069950396_);">
			<use xlink:href="#SVGID_00000096756190273944226890000016650933895629400252_"  style="overflow:visible;"/>
		</clipPath>
		<g style="clip-path:url(#SVGID_00000124122530236061618970000007376128576179361665_);">
			<path marker-end="url(#arrowhead-line-University-of-Maryland-College-Park-facet-)" class="st2" d="M355.1,225H579"/>
		</g>
	</g>
	<g>
		<defs>
			<polygon id="SVGID_00000061468307117819167110000005174341166638115205_" points="-20,34.2 -19,34.2 -20,35.2 			"/>
		</defs>
		<defs>
			<polygon id="SVGID_00000100383630562323735580000016028415767762083493_" points="-22,32.2 -23,32.2 -22,31.2 			"/>
		</defs>
		<clipPath id="SVGID_00000160878085769223941850000017976616843097112711_">
			<use xlink:href="#SVGID_00000061468307117819167110000005174341166638115205_"  style="overflow:visible;"/>
		</clipPath>
		
			<clipPath id="SVGID_00000007398974682366504600000001864767268298224520_" style="clip-path:url(#SVGID_00000160878085769223941850000017976616843097112711_);">
			<use xlink:href="#SVGID_00000100383630562323735580000016028415767762083493_"  style="overflow:visible;"/>
		</clipPath>
		<g style="clip-path:url(#SVGID_00000007398974682366504600000001864767268298224520_);">
			<path marker-end="url(#arrowhead-line-The-University-of-Alabama-facet-)" class="st2" d="M364.8,256.1h194.7"/>
		</g>
	</g>
	<g>
		<defs>
			<polygon id="SVGID_00000006696379929552817960000006243086049062091176_" points="-20,34.2 -19,34.2 -20,35.2 			"/>
		</defs>
		<defs>
			<polygon id="SVGID_00000049907595629287106790000004284254376597193609_" points="-22,32.2 -23,32.2 -22,31.2 			"/>
		</defs>
		<clipPath id="SVGID_00000103244239299403566400000004074729012711066260_">
			<use xlink:href="#SVGID_00000006696379929552817960000006243086049062091176_"  style="overflow:visible;"/>
		</clipPath>
		
			<clipPath id="SVGID_00000035500993565400336870000007063108370361826724_" style="clip-path:url(#SVGID_00000103244239299403566400000004074729012711066260_);">
			<use xlink:href="#SVGID_00000049907595629287106790000004284254376597193609_"  style="overflow:visible;"/>
		</clipPath>
		<g style="clip-path:url(#SVGID_00000035500993565400336870000007063108370361826724_);">
			<path marker-end="url(#arrowhead-line-The-University-of-Tennessee-Knoxville-facet-)" class="st2" d="M296.7,287.2h194.7"/>
		</g>
	</g>
	<g>
		<defs>
			<polygon id="SVGID_00000046301123145866089770000004366271141528786561_" points="-20,34.2 -19,34.2 -20,35.2 			"/>
		</defs>
		<defs>
			<polygon id="SVGID_00000158030272692385071980000010194260590824732332_" points="-22,32.2 -23,32.2 -22,31.2 			"/>
		</defs>
		<clipPath id="SVGID_00000062907687354607856770000017219327716526915712_">
			<use xlink:href="#SVGID_00000046301123145866089770000004366271141528786561_"  style="overflow:visible;"/>
		</clipPath>
		
			<clipPath id="SVGID_00000091009718741208122580000014072978242878231947_" style="clip-path:url(#SVGID_00000062907687354607856770000017219327716526915712_);">
			<use xlink:href="#SVGID_00000158030272692385071980000010194260590824732332_"  style="overflow:visible;"/>
		</clipPath>
		<g style="clip-path:url(#SVGID_00000091009718741208122580000014072978242878231947_);">
			<path marker-end="url(#arrowhead-line-University-of-Florida-facet-)" class="st2" d="M306.4,318.3h155.8"/>
		</g>
	</g>
	<g>
		<defs>
			<polygon id="SVGID_00000106121402698315456930000001814526409448836779_" points="-20,34.2 -19,34.2 -20,35.2 			"/>
		</defs>
		<defs>
			<polygon id="SVGID_00000159430537326334572710000000427337851080885901_" points="-22,32.2 -23,32.2 -22,31.2 			"/>
		</defs>
		<clipPath id="SVGID_00000035506062608715724700000000168187245600414083_">
			<use xlink:href="#SVGID_00000106121402698315456930000001814526409448836779_"  style="overflow:visible;"/>
		</clipPath>
		
			<clipPath id="SVGID_00000095311372516621186710000004841576002186416777_" style="clip-path:url(#SVGID_00000035506062608715724700000000168187245600414083_);">
			<use xlink:href="#SVGID_00000159430537326334572710000000427337851080885901_"  style="overflow:visible;"/>
		</clipPath>
		<g style="clip-path:url(#SVGID_00000095311372516621186710000004841576002186416777_);">
			<path marker-end="url(#arrowhead-line-University-of-Arkansas-facet-)" class="st2" d="M286.9,349.4h165.5"/>
		</g>
	</g>
	<g>
		<defs>
			<polygon id="SVGID_00000030471412785469991610000009928107129509139379_" points="-20,34.2 -19,34.2 -20,35.2 			"/>
		</defs>
		<defs>
			<polygon id="SVGID_00000047766038357411347510000012563222431147345814_" points="-22,32.2 -23,32.2 -22,31.2 			"/>
		</defs>
		<clipPath id="SVGID_00000054955293590914564180000000374583967431923890_">
			<use xlink:href="#SVGID_00000030471412785469991610000009928107129509139379_"  style="overflow:visible;"/>
		</clipPath>
		
			<clipPath id="SVGID_00000150077048482636942230000005496138504833110676_" style="clip-path:url(#SVGID_00000054955293590914564180000000374583967431923890_);">
			<use xlink:href="#SVGID_00000047766038357411347510000012563222431147345814_"  style="overflow:visible;"/>
		</clipPath>
		<g style="clip-path:url(#SVGID_00000150077048482636942230000005496138504833110676_);">
			<path marker-end="url(#arrowhead-line-University-of-North-Carolina-at-Chapel-Hill-facet-)" class="st2" d="M345.3,380.5h155.8"
				/>
		</g>
	</g>
	<g>
		<defs>
			<polygon id="SVGID_00000061465035881669254610000008363061024600719233_" points="-20,34.2 -19,34.2 -20,35.2 			"/>
		</defs>
		<defs>
			<polygon id="SVGID_00000124130820942443291150000007499274679503561097_" points="-22,32.2 -23,32.2 -22,31.2 			"/>
		</defs>
		<clipPath id="SVGID_00000098181788053386795230000004342374514942744754_">
			<use xlink:href="#SVGID_00000061465035881669254610000008363061024600719233_"  style="overflow:visible;"/>
		</clipPath>
		
			<clipPath id="SVGID_00000056398554800898488880000010966447623103457932_" style="clip-path:url(#SVGID_00000098181788053386795230000004342374514942744754_);">
			<use xlink:href="#SVGID_00000124130820942443291150000007499274679503561097_"  style="overflow:visible;"/>
		</clipPath>
		<g style="clip-path:url(#SVGID_00000056398554800898488880000010966447623103457932_);">
			<path marker-end="url(#arrowhead-line-University-of-Virginia-Main-Campus-facet-)" class="st2" d="M316.1,411.6h155.8"/>
		</g>
	</g>
	<g>
		<defs>
			<polygon id="SVGID_00000163760212999070223160000002490900253513802642_" points="-20,34.2 -19,34.2 -20,35.2 			"/>
		</defs>
		<defs>
			<polygon id="SVGID_00000178921437221304727300000004097856437525458364_" points="-22,32.2 -23,32.2 -22,31.2 			"/>
		</defs>
		<clipPath id="SVGID_00000060753097249458794000000017573505792091299216_">
			<use xlink:href="#SVGID_00000163760212999070223160000002490900253513802642_"  style="overflow:visible;"/>
		</clipPath>
		
			<clipPath id="SVGID_00000067210638793994052820000007725986542826080407_" style="clip-path:url(#SVGID_00000060753097249458794000000017573505792091299216_);">
			<use xlink:href="#SVGID_00000178921437221304727300000004097856437525458364_"  style="overflow:visible;"/>
		</clipPath>
		<g style="clip-path:url(#SVGID_00000067210638793994052820000007725986542826080407_);">
			<path marker-end="url(#arrowhead-line-University-of-Michigan-Ann-Arbor-facet-)" class="st2" d="M296.7,442.8h126.5"/>
		</g>
	</g>
	<g>
		<defs>
			<polygon id="SVGID_00000147178880521012417140000018144518826655312820_" points="-20,34.2 -19,34.2 -20,35.2 			"/>
		</defs>
		<defs>
			<polygon id="SVGID_00000122000543542665321040000008111903605216068024_" points="-22,32.2 -23,32.2 -22,31.2 			"/>
		</defs>
		<clipPath id="SVGID_00000115494362035416214200000017260926545390291852_">
			<use xlink:href="#SVGID_00000147178880521012417140000018144518826655312820_"  style="overflow:visible;"/>
		</clipPath>
		
			<clipPath id="SVGID_00000103954692462941262390000009747923687830138301_" style="clip-path:url(#SVGID_00000115494362035416214200000017260926545390291852_);">
			<use xlink:href="#SVGID_00000122000543542665321040000008111903605216068024_"  style="overflow:visible;"/>
		</clipPath>
		<g style="clip-path:url(#SVGID_00000103954692462941262390000009747923687830138301_);">
			<path marker-end="url(#arrowhead-line-University-of-Missouri-Columbia-facet-)" class="st2" d="M306.4,473.9h97.3"/>
		</g>
	</g>
</g>
<line class="st29" x1="724.7" y1="510.7" x2="720" y2="515.8"/>
<line class="st30" x1="85.3" y1="1195.2" x2="221.9" y2="1195.2"/>
<path id="dot-26" vector-effect="non-scaling-stroke" class="st31" d="M96,1195.2c0,4.8-3.7,8.7-8.2,8.7s-8.2-3.9-8.2-8.7
	s3.7-8.7,8.2-8.7S96,1190.4,96,1195.2"/>
<path id="dot-27" vector-effect="non-scaling-stroke" class="st32" d="M230.1,1195.2c0,4.8-3.7,8.7-8.2,8.7s-8.2-3.9-8.2-8.7
	s3.7-8.7,8.2-8.7S230.1,1190.4,230.1,1195.2"/>
<text transform="matrix(0.94 0 0 1 47.3398 1200.9102)" class="st31 st33 st34">5%</text>
<text transform="matrix(0.94 0 0 1 238.6201 1200.9102)" class="st32 st33 st34">15%</text>
<text transform="matrix(0.94 0 0 1 47.3398 1162.4902)" class="st33 st35">University of Missouri-Columbia</text>
<line class="st30" x1="87.4" y1="1112.9" x2="261.5" y2="1112.9"/>
<path id="dot-24" vector-effect="non-scaling-stroke" class="st31" d="M95.4,1112.9c0,4.8-3.7,8.7-8.2,8.7s-8.2-3.9-8.2-8.7
	s3.7-8.7,8.2-8.7S95.4,1108,95.4,1112.9"/>
<path id="dot-25" vector-effect="non-scaling-stroke" class="st32" d="M269.7,1112.9c0,4.8-3.7,8.7-8.2,8.7s-8.2-3.9-8.2-8.7
	s3.7-8.7,8.2-8.7S269.7,1108,269.7,1112.9"/>
<text transform="matrix(0.94 0 0 1 47.3398 1118.5195)" class="st31 st33 st34">4%</text>
<text transform="matrix(0.94 0 0 1 277.2202 1120.0605)" class="st32 st33 st34">17%</text>
<text transform="matrix(0.94 0 0 1 47.3398 1080.1104)" class="st33 st35">University of Michigan-Ann Arbor</text>
<line class="st30" x1="88.6" y1="1031.6" x2="301.7" y2="1031.6"/>
<path id="dot-22" vector-effect="non-scaling-stroke" class="st31" d="M95.3,1031.6c0,4.8-3.7,8.7-8.2,8.7s-8.2-3.9-8.2-8.7
	s3.7-8.7,8.2-8.7S95.3,1026.8,95.3,1031.6"/>
<path id="dot-23" vector-effect="non-scaling-stroke" class="st32" d="M309.9,1031.6c0,4.8-3.7,8.7-8.2,8.7s-8.2-3.9-8.2-8.7
	s3.7-8.7,8.2-8.7S309.9,1026.8,309.9,1031.6"/>
<text transform="matrix(0.94 0 0 1 47.3398 1037.6699)" class="st31 st33 st34">6%</text>
<text transform="matrix(0.94 0 0 1 317.46 1037.6699)" class="st32 st33 st34">22%</text>
<text transform="matrix(0.94 0 0 1 47.3398 998.9004)" class="st33 st35">University of</text>
<text transform="matrix(0.94 0 0 1 156.7603 998.9004)" class="st33 st35">V</text>
<text transform="matrix(0.94 0 0 1 167.8901 998.9004)" class="st33 st35">i</text>
<text transform="matrix(0.94 0 0 1 172.04 998.9004)" class="st33 st35">r</text>
<text transform="matrix(0.94 0 0 1 177.77 998.9004)" class="st33 st35">ginia-Main Campus</text>
<line class="st30" x1="86.3" y1="951.9" x2="300.8" y2="951.9"/>
<path id="dot-20" vector-effect="non-scaling-stroke" class="st31" d="M94.5,951.9c0,4.8-3.7,8.7-8.2,8.7s-8.2-3.9-8.2-8.7
	s3.7-8.7,8.2-8.7S94.5,947,94.5,951.9"/>
<path id="dot-21" vector-effect="non-scaling-stroke" class="st32" d="M309.1,951.9c0,4.8-3.7,8.7-8.2,8.7s-8.2-3.9-8.2-8.7
	s3.7-8.7,8.2-8.7S309.1,947,309.1,951.9"/>
<text transform="matrix(0.94 0 0 1 47.3398 956.4102)" class="st31 st33 st34">9%</text>
<text transform="matrix(0.94 0 0 1 317.0303 956.46)" class="st32 st33 st34">25%</text>
<text transform="matrix(0.94 0 0 1 47.3398 918)" class="st33 st35">University of North Ca</text>
<text transform="matrix(0.94 0 0 1 232.4902 918)" class="st33 st35">r</text>
<text transform="matrix(0.94 0 0 1 238.3901 918)" class="st33 st35">olina at Chapel Hill</text>
<line class="st30" x1="83.8" y1="869.9" x2="311.8" y2="869.9"/>
<path id="dot-18" vector-effect="non-scaling-stroke" class="st31" d="M92,869.9c0,4.8-3.7,8.7-8.2,8.7s-8.2-3.9-8.2-8.7
	s3.7-8.7,8.2-8.7S92,865.1,92,869.9"/>
<path id="dot-19" vector-effect="non-scaling-stroke" class="st32" d="M320,869.9c0,4.8-3.7,8.7-8.2,8.7s-8.2-3.9-8.2-8.7
	s3.7-8.7,8.2-8.7S320,865.1,320,869.9"/>
<text transform="matrix(0.94 0 0 1 47.3398 875.5596)" class="st31 st33 st34">3%</text>
<text transform="matrix(0.94 0 0 1 328.9199 874.5)" class="st32 st33 st34">20%</text>
<text transform="matrix(0.94 0 0 1 47.3398 836.0898)" class="st33 st35">University of Arkansas</text>
<line class="st30" x1="85.3" y1="787.6" x2="302.4" y2="787.6"/>
<path id="dot-16" vector-effect="non-scaling-stroke" class="st31" d="M96,787.6c0,4.8-3.7,8.7-8.2,8.7s-8.2-3.9-8.2-8.7
	s3.7-8.7,8.2-8.7S96,782.7,96,787.6"/>
<path id="dot-17" vector-effect="non-scaling-stroke" class="st32" d="M310.6,787.6c0,4.8-3.7,8.7-8.2,8.7s-8.2-3.9-8.2-8.7
	s3.7-8.7,8.2-8.7S310.6,782.7,310.6,787.6"/>
<text transform="matrix(0.94 0 0 1 47.3398 792.1104)" class="st31 st33 st34">5%</text>
<text transform="matrix(0.94 0 0 1 317.2202 793.6504)" class="st32 st33 st34">21%</text>
<text transform="matrix(0.94 0 0 1 47.3398 753.7002)" class="st33 st35">University of Florida</text>
<line class="st30" x1="88.7" y1="705.8" x2="354.2" y2="705.8"/>
<path id="dot-14" vector-effect="non-scaling-stroke" class="st31" d="M95.4,705.2c0,4.8-3.7,8.7-8.2,8.7S79,710,79,705.2
	s3.7-8.7,8.2-8.7S95.4,700.3,95.4,705.2"/>
<path id="dot-15" vector-effect="non-scaling-stroke" class="st32" d="M363.6,705.2c0,4.8-3.7,8.7-8.2,8.7s-8.2-3.9-8.2-8.7
	s3.7-8.7,8.2-8.7S363.6,700.3,363.6,705.2"/>
<text transform="matrix(0.94 0 0 1 47.3398 709.7305)" class="st31 st33 st34">4%</text>
<text transform="matrix(0.94 0 0 1 370.2603 711.2598)" class="st32 st33 st34">24%</text>
<text transform="matrix(0.94 0 0 1 47.3398 671.3096)" class="st33 st35">University of Tennessee-Knoxville</text>
<line class="st30" x1="93.3" y1="622.7" x2="364" y2="622.7"/>
<path id="dot-12" vector-effect="non-scaling-stroke" class="st31" d="M104,622.7c0,4.8-3.7,8.7-8.2,8.7s-8.2-3.9-8.2-8.7
	s3.7-8.7,8.2-8.7S104,617.9,104,622.7"/>
<path id="dot-13" vector-effect="non-scaling-stroke" class="st32" d="M372.2,622.7c0,4.8-3.7,8.7-8.2,8.7s-8.2-3.9-8.2-8.7
	s3.7-8.7,8.2-8.7S372.2,617.9,372.2,622.7"/>
<text transform="matrix(0.94 0 0 1 47.3398 628.75)" class="st31 st33 st34">11%</text>
<text transform="matrix(0.94 0 0 1 379.3101 628.8701)" class="st32 st33 st34">31%</text>
<text transform="matrix(0.94 0 0 1 47.3398 590.0596)" class="st33 st35">University of Alabama</text>
<line class="st30" x1="90.3" y1="541.5" x2="401.2" y2="541.5"/>
<path id="dot-10" vector-effect="non-scaling-stroke" class="st31" d="M101,541.5c0,4.8-3.7,8.7-8.2,8.7s-8.2-3.9-8.2-8.7
	s3.7-8.7,8.2-8.7S101,536.7,101,541.5"/>
<path id="dot-11" vector-effect="non-scaling-stroke" class="st32" d="M409.5,541.5c0,4.8-3.7,8.7-8.2,8.7s-8.2-3.9-8.2-8.7
	s3.7-8.7,8.2-8.7S409.5,536.7,409.5,541.5"/>
<text transform="matrix(0.94 0 0 1 47.3398 546.0801)" class="st31 st33 st34">10%</text>
<text transform="matrix(0.94 0 0 1 416.98 547.6201)" class="st32 st33 st34">33%</text>
<text transform="matrix(0.94 0 0 1 47.3398 507.6699)" class="st33 st35">University of Maryland-College Park</text>
<line class="st30" x1="88.6" y1="459.1" x2="406.9" y2="459.1"/>
<path id="dot-8" vector-effect="non-scaling-stroke" class="st31" d="M94.9,459.1c0,4.8-3.7,8.7-8.2,8.7s-8.2-3.9-8.2-8.7
	s3.7-8.7,8.2-8.7S94.9,454.3,94.9,459.1"/>
<path id="dot-9" vector-effect="non-scaling-stroke" class="st32" d="M416.8,459.1c0,4.8-3.7,8.7-8.2,8.7s-8.2-3.9-8.2-8.7
	s3.7-8.7,8.2-8.7S416.8,454.3,416.8,459.1"/>
<text transform="matrix(0.94 0 0 1 47.3398 463.7402)" class="st31 st33 st34">7%</text>
<text transform="matrix(0.94 0 0 1 423.8799 465.23)" class="st32 st33 st34">31%</text>
<text transform="matrix(0.94 0 0 1 47.3398 425.3301)" class="st33 st35">University of Delawa</text>
<text transform="matrix(0.94 0 0 1 218.5601 425.3301)" class="st33 st35">r</text>
<text transform="matrix(0.94 0 0 1 224.48 425.3301)" class="st33 st35">e</text>
<line class="st30" x1="91.4" y1="377.4" x2="415.8" y2="377.4"/>
<path id="dot-6" vector-effect="non-scaling-stroke" class="st31" d="M102.2,377.4c0,4.8-3.7,8.7-8.2,8.7s-8.2-3.9-8.2-8.7
	s3.7-8.7,8.2-8.7S102.2,372.5,102.2,377.4"/>
<path id="dot-7" vector-effect="non-scaling-stroke" class="st32" d="M424,377.4c0,4.8-3.7,8.7-8.2,8.7s-8.2-3.9-8.2-8.7
	s3.7-8.7,8.2-8.7S424,372.5,424,377.4"/>
<text transform="matrix(0.94 0 0 1 47.3398 382.8901)" class="st31 st33 st34">19%</text>
<text transform="matrix(0.94 0 0 1 433.4399 382.8901)" class="st32 st33 st34">43%</text>
<text transform="matrix(0.94 0 0 1 47.3398 344.48)" class="st33 st35">Louisiana State University and Agricultural &amp; Mechanical College</text>
<line class="st30" x1="82.8" y1="296" x2="447.4" y2="296"/>
<path id="dot-4" vector-effect="non-scaling-stroke" class="st31" d="M93.5,296c0,4.8-3.7,8.7-8.2,8.7s-8.2-3.9-8.2-8.7
	s3.7-8.7,8.2-8.7S93.5,291.1,93.5,296"/>
<path id="dot-5" vector-effect="non-scaling-stroke" class="st32" d="M455.6,296c0,4.8-3.7,8.7-8.2,8.7s-8.2-3.9-8.2-8.7
	s3.7-8.7,8.2-8.7S455.6,291.1,455.6,296"/>
<text transform="matrix(0.94 0 0 1 47.3398 302.04)" class="st31 st33 st34">8%</text>
<text transform="matrix(0.94 0 0 1 463.2402 302.04)" class="st32 st33 st34">35%</text>
<text transform="matrix(0.94 0 0 1 47.3398 263.27)" class="st33 st35">University of South Ca</text>
<text transform="matrix(0.94 0 0 1 235.2803 263.27)" class="st33 st35">r</text>
<text transform="matrix(0.94 0 0 1 241.1899 263.27)" class="st33 st35">olina-Columbia</text>
<line class="st30" x1="91.3" y1="214.7" x2="488.2" y2="214.7"/>
<path id="dot-2" vector-effect="non-scaling-stroke" class="st31" d="M95.3,214.7c0,4.8-3.7,8.7-8.2,8.7s-8.2-3.9-8.2-8.7
	s3.7-8.7,8.2-8.7S95.3,209.9,95.3,214.7"/>
<path id="dot-3" vector-effect="non-scaling-stroke" class="st32" d="M497.7,214.7c0,4.8-3.7,8.7-8.2,8.7s-8.2-3.9-8.2-8.7
	s3.7-8.7,8.2-8.7S497.7,209.9,497.7,214.7"/>
<text transform="matrix(0.94 0 0 1 47.3398 220.8301)" class="st31 st33 st34">6%</text>
<text transform="matrix(0.94 0 0 1 507.25 220.8301)" class="st32 st33 st34">36%</text>
<text transform="matrix(0.94 0 0 1 47.3398 182.1001)" class="st33 st36">University of Geo</text>
<text transform="matrix(0.94 0 0 1 191.8398 182.1001)" class="st33 st36">r</text>
<text transform="matrix(0.94 0 0 1 197.5503 182.1001)" class="st33 st36">gia</text>
<line class="st29" x1="247.2" y1="79.9" x2="240.5" y2="79.9"/>
<line class="st37" x1="621.2" y1="137.2" x2="621.3" y2="114.2"/>
<line class="st37" x1="84.6" y1="134.6" x2="84.7" y2="111.7"/>
<text transform="matrix(0.94 3.773392e-03 -4.014247e-03 1 84.82 90.1498)" class="st31 st33 st38">Pe</text>
<text transform="matrix(0.94 3.773392e-03 -4.014247e-03 1 100.79 90.2198)" class="st31 st33 st38">r</text>
<text transform="matrix(0.94 3.773392e-03 -4.014247e-03 1 105.0303 90.2299)" class="st31 st33 st38">cent of f</text>
<text transform="matrix(0.94 3.773392e-03 -4.014247e-03 1 154.44 90.4303)" class="st31 st33 st38">r</text>
<text transform="matrix(0.94 3.773392e-03 -4.014247e-03 1 158.69 90.44)" class="st31 st33 st38">eshmen</text>
<text transform="matrix(0.94 3.773392e-03 -4.014247e-03 1 84.75 108.0598)" class="st31 st33 st38">who a</text>
<text transform="matrix(0.94 3.773392e-03 -4.014247e-03 1 121.1799 108.2002)" class="st31 st33 st38">r</text>
<text transform="matrix(0.94 3.773392e-03 -4.014247e-03 1 125.4201 108.2202)" class="st31 st33 st38">e Black</text>
<text transform="matrix(0.94 3.773392e-03 -4.014247e-03 1 491.8699 90.2101)" class="st32 st33 st39">Pe</text>
<text transform="matrix(0.94 3.773392e-03 -4.014247e-03 1 507.4503 90.2702)" class="st32 st33 st39">r</text>
<text transform="matrix(0.94 3.773392e-03 -4.014247e-03 1 511.5904 90.2902)" class="st32 st33 st39">cent of state public</text>
<text transform="matrix(0.94 3.773392e-03 -4.014247e-03 1 491.8003 107.6801)" class="st32 st33 st39">high school graduates</text>
<text transform="matrix(0.94 3.773392e-03 -4.014247e-03 1 491.7301 125.1497)" class="st32 st33 st39">who a</text>
<text transform="matrix(0.94 3.773392e-03 -4.014247e-03 1 527.2704 125.29)" class="st32 st33 st39">r</text>
<text transform="matrix(0.94 3.773392e-03 -4.014247e-03 1 531.41 125.3002)" class="st32 st33 st39">e Black</text>
<line class="st30" x1="85.1" y1="133.2" x2="621.5" y2="135.3"/>
<path id="dot-0" vector-effect="non-scaling-stroke" class="st31" d="M93.3,133.2c0,4.8-3.7,8.7-8.2,8.7s-8.2-3.9-8.2-8.8
	s3.7-8.7,8.2-8.7S93.3,128.4,93.3,133.2"/>
<path id="dot-1" vector-effect="non-scaling-stroke" class="st32" d="M629.7,135.3c0,4.8-3.7,8.7-8.2,8.7s-8.2-3.9-8.2-8.8
	s3.7-8.7,8.2-8.7S629.8,130.5,629.7,135.3"/>
<text transform="matrix(0.94 3.773392e-03 -4.014247e-03 1 47.2402 139.14)" class="st31 st33 st34">8%</text>
<text transform="matrix(0.94 3.773392e-03 -4.014247e-03 1 639.03 141.4702)" class="st32 st33 st34">48%</text>
<text transform="matrix(0.94 0 0 1 47.3398 62.1699)" class="st33 st36">University of Mississippi</text>
</svg>
