<?xml version="1.0" encoding="utf-8"?>
<!-- Generator: Adobe Illustrator 27.0.0, SVG Export Plug-In . SVG Version: 6.00 Build 0)  -->
<svg version="1.1" id="graphic" xmlns="http://www.w3.org/2000/svg" xmlns:xlink="http://www.w3.org/1999/xlink" x="0px" y="0px"
	 viewBox="0 0 800 657" style="enable-background:new 0 0 800 657;" xml:space="preserve">
<style type="text/css">
	.st0{fill:none;}
	.st1{fill:none;stroke:#EEEEEE;stroke-linecap:square;}
	.st2{fill:none;stroke:#EEEEEE;}
	.st3{fill:#4A4A4A;}
	.st4{font-family:'HelveticaNeue';}
	.st5{font-size:12.39px;}
	.st6{opacity:0.5;fill:none;stroke:#EEEEEE;enable-background:new    ;}
	.st7{opacity:0.5;fill:#4A4A4A;enable-background:new    ;}
	.st8{opacity:0.5;}
	.st9{opacity:0.9;fill:#73A9AD;enable-background:new    ;}
	.st10{opacity:0.5;fill:#73A9AD;enable-background:new    ;}
	.st11{opacity:0.8;fill:#DDDDDD;enable-background:new    ;}
	.st12{opacity:0.5;fill:#DDDDDD;enable-background:new    ;}
	.st13{font-size:13.35px;}
</style>
<rect x="262" y="62.4" class="st0" width="474.8" height="515.9"/>
<line class="st1" x1="262" y1="578.2" x2="736.8" y2="578.2"/>
<line class="st2" x1="262.4" y1="578.3" x2="262.4" y2="584.5"/>
<text transform="matrix(1 0 0 1 258.56 595.91)" class="st3 st4 st5">0</text>
<line class="st2" x1="737.2" y1="578.3" x2="737.2" y2="584.5"/>
<text transform="matrix(1 0 0 1 725.62 595.91)" class="st3 st4 st5">100</text>
<line class="st2" x1="689.7" y1="578.3" x2="689.7" y2="584.5"/>
<text transform="matrix(1 0 0 1 681.99 595.91)" class="st3 st4 st5">90</text>
<line class="st2" x1="642.2" y1="578.3" x2="642.2" y2="584.5"/>
<text transform="matrix(1 0 0 1 634.52 595.91)" class="st3 st4 st5">80</text>
<line class="st2" x1="594.7" y1="578.3" x2="594.7" y2="584.5"/>
<text transform="matrix(1 0 0 1 587.04 595.91)" class="st3 st4 st5">70</text>
<line class="st2" x1="547.2" y1="578.3" x2="547.2" y2="584.5"/>
<text transform="matrix(1 0 0 1 539.5701 595.91)" class="st3 st4 st5">60</text>
<line class="st2" x1="499.8" y1="578.3" x2="499.8" y2="584.5"/>
<text transform="matrix(1 0 0 1 492.09 595.91)" class="st3 st4 st5">50</text>
<line class="st2" x1="452.3" y1="578.3" x2="452.3" y2="584.5"/>
<text transform="matrix(1 0 0 1 444.62 595.91)" class="st3 st4 st5">40</text>
<line class="st2" x1="404.8" y1="578.3" x2="404.8" y2="584.5"/>
<text transform="matrix(1 0 0 1 397.14 595.91)" class="st3 st4 st5">30</text>
<line class="st2" x1="357.4" y1="578.3" x2="357.4" y2="584.5"/>
<text transform="matrix(1 0 0 1 349.66 595.91)" class="st3 st4 st5">20</text>
<line class="st2" x1="309.9" y1="578.3" x2="309.9" y2="584.5"/>
<text transform="matrix(1 0 0 1 302.19 595.91)" class="st3 st4 st5">10</text>
<line class="st1" x1="262" y1="578.2" x2="262" y2="62.4"/>
<line class="st2" x1="262.4" y1="79.6" x2="256.1" y2="79.6"/>
<text transform="matrix(1 0 0 1 71.06 83.75)" class="st3 st4 st5">University of Michigan-Ann Arbor</text>
<line class="st2" x1="262.4" y1="114" x2="256.1" y2="114"/>
<text transform="matrix(1 0 0 1 58.1 118.14)" class="st3 st4 st5">University of </text>
<text transform="matrix(1 0 0 1 130.4 118.14)" class="st3 st4 st5">V</text>
<text transform="matrix(1 0 0 1 137.75 118.14)" class="st3 st4 st5">i</text>
<text transform="matrix(1 0 0 1 140.5 118.14)" class="st3 st4 st5">r</text>
<text transform="matrix(1 0 0 1 144.28 118.14)" class="st3 st4 st5">ginia-Main Campus</text>
<line class="st2" x1="262.4" y1="148.4" x2="256.1" y2="148.4"/>
<text transform="matrix(1 0 0 1 75.24 152.53)" class="st3 st4 st5">University of Califo</text>
<text transform="matrix(1 0 0 1 179.43 152.53)" class="st3 st4 st5">r</text>
<text transform="matrix(1 0 0 1 183.78 152.53)" class="st3 st4 st5">nia-Berkeley</text>
<line class="st2" x1="262.4" y1="182.8" x2="256.1" y2="182.8"/>
<text transform="matrix(1 0 0 1 142.61 186.92)" class="st3 st4 st5">University of Florida</text>
<line class="st2" x1="262.4" y1="217.2" x2="256.1" y2="217.2"/>
<text transform="matrix(1 0 0 1 99.84 212.48)" class="st3 st4 st5">University of North Ca</text>
<text transform="matrix(1 0 0 1 222.17 212.48)" class="st3 st4 st5">r</text>
<text transform="matrix(1 0 0 1 226.08 212.48)" class="st3 st4 st5">olina</text>
<text transform="matrix(1 0 0 1 178.33 227.35)" class="st3 st4 st5">at Chapel Hill</text>
<line class="st6" x1="262.4" y1="251.6" x2="256.1" y2="251.6"/>
<text transform="matrix(1 0 0 1 72.47 255.7)" class="st7 st4 st5">University of Wisconsin-Madison</text>
<line class="st2" x1="262.4" y1="286" x2="256.1" y2="286"/>
<text transform="matrix(1 0 0 1 53.71 290.09)" class="st3 st4 st5">University of Maryland-College Park</text>
<line class="st6" x1="262.4" y1="320.4" x2="256.1" y2="320.4"/>
<text transform="matrix(1 0 0 1 54.4 324.48)" class="st7 st4 st5">Ohio State University-Main Campus</text>
<line class="st2" x1="262.4" y1="354.8" x2="256.1" y2="354.8"/>
<text transform="matrix(1 0 0 1 97.5413 358.87)" class="st3 st4 st5">University of Texas at Austin</text>
<line class="st2" x1="262.4" y1="389.1" x2="256.1" y2="389.1"/>
<text transform="matrix(1 0 0 1 136.35 393.26)" class="st3 st4 st5">University of Geo</text>
<text transform="matrix(1 0 0 1 231.82 393.26)" class="st3 st4 st5">r</text>
<text transform="matrix(1 0 0 1 235.6 393.26)" class="st3 st4 st5">gia</text>
<line class="st6" x1="262.4" y1="423.5" x2="256.1" y2="423.5"/>
<g class="st8">
	<path class="st3" d="M93.6,410c0.9,0,1.6,0.2,2,0.7s0.7,1.1,0.7,1.9s-0.2,1.5-0.7,1.9s-1.1,0.7-2,0.7h-2.7v3.6h-1.2V410H93.6
		L93.6,410z M93.2,414.2c0.7,0,1.2-0.1,1.5-0.4s0.5-0.7,0.5-1.2s-0.2-0.9-0.5-1.2s-0.8-0.4-1.5-0.4h-2.3v3.2H93.2z"/>
	<path class="st3" d="M102.1,418.4c-0.5,0.4-1.1,0.5-1.8,0.5c-0.5,0-1-0.1-1.3-0.2s-0.7-0.4-0.9-0.7c-0.3-0.3-0.4-0.6-0.6-1.1
		c-0.1-0.4-0.2-0.9-0.2-1.4s0.1-0.9,0.2-1.3c0.2-0.4,0.4-0.8,0.6-1c0.3-0.3,0.6-0.5,0.9-0.7s0.8-0.2,1.2-0.2c0.6,0,1,0.1,1.4,0.4
		c0.4,0.2,0.7,0.5,0.9,0.9c0.2,0.4,0.4,0.8,0.5,1.2c0.1,0.4,0.1,0.8,0.1,1.2h-4.8c0,0.3,0,0.5,0.1,0.8c0.1,0.2,0.2,0.5,0.4,0.7
		s0.4,0.4,0.6,0.5c0.3,0.1,0.6,0.2,0.9,0.2c0.4,0,0.8-0.1,1.1-0.3s0.5-0.5,0.6-0.9h1C102.8,417.5,102.5,418.1,102.1,418.4
		L102.1,418.4z M101.8,414.3c-0.1-0.2-0.2-0.4-0.4-0.6s-0.3-0.3-0.6-0.4s-0.5-0.1-0.7-0.1s-0.5,0-0.7,0.1s-0.4,0.2-0.6,0.4
		c-0.2,0.2-0.3,0.4-0.4,0.6s-0.1,0.5-0.2,0.7h3.7C102,414.8,101.9,414.5,101.8,414.3L101.8,414.3z"/>
	<path class="st3" d="M105.2,412.4v1l0,0c0.4-0.8,1.1-1.2,2.1-1.2c0.4,0,0.8,0.1,1.1,0.2c0.3,0.1,0.5,0.3,0.7,0.5s0.3,0.5,0.4,0.7
		s0.1,0.6,0.1,1v4.2h-1.1v-4.3c0-0.4-0.1-0.7-0.3-0.9c-0.2-0.2-0.6-0.4-0.9-0.4s-0.6,0-0.8,0.1s-0.4,0.2-0.6,0.4
		c-0.2,0.2-0.3,0.4-0.3,0.6c-0.1,0.2-0.1,0.5-0.1,0.8v3.6h-1.1v-6.4L105.2,412.4L105.2,412.4z"/>
	<path class="st3" d="M112.1,412.4v1l0,0c0.4-0.8,1.1-1.2,2.1-1.2c0.4,0,0.8,0.1,1.1,0.2c0.3,0.1,0.5,0.3,0.7,0.5s0.3,0.5,0.4,0.7
		s0.1,0.6,0.1,1v4.2h-1.1v-4.3c0-0.4-0.1-0.7-0.3-0.9c-0.2-0.2-0.6-0.4-0.9-0.4s-0.6,0-0.8,0.1s-0.4,0.2-0.6,0.4
		c-0.2,0.2-0.3,0.4-0.3,0.6c-0.1,0.2-0.1,0.5-0.1,0.8v3.6h-1.1v-6.4L112.1,412.4L112.1,412.4z"/>
	<path class="st3" d="M118.8,417.4c0.1,0.2,0.2,0.3,0.4,0.4c0.2,0.1,0.3,0.2,0.6,0.2s0.4,0.1,0.6,0.1s0.3,0,0.5,0s0.3-0.1,0.5-0.1
		s0.3-0.2,0.4-0.3s0.2-0.3,0.2-0.5c0-0.3-0.1-0.5-0.3-0.6c-0.2-0.1-0.5-0.2-0.8-0.3s-0.7-0.2-1-0.2c-0.4-0.1-0.7-0.2-1-0.3
		c-0.3-0.1-0.6-0.3-0.8-0.5s-0.3-0.5-0.3-1c0-0.3,0.1-0.6,0.2-0.8s0.3-0.4,0.6-0.6c0.2-0.1,0.5-0.2,0.8-0.3c0.3-0.1,0.6-0.1,0.8-0.1
		c0.4,0,0.7,0,1,0.1s0.6,0.2,0.8,0.3c0.2,0.1,0.4,0.4,0.6,0.6s0.2,0.6,0.2,1h-1.1c0-0.2-0.1-0.4-0.2-0.5s-0.2-0.2-0.3-0.3
		s-0.3-0.1-0.5-0.2s-0.3-0.1-0.5-0.1s-0.3,0-0.5,0s-0.3,0.1-0.4,0.1c-0.1,0.1-0.2,0.1-0.3,0.2c-0.1,0.1-0.1,0.2-0.1,0.4
		c0,0.2,0.1,0.3,0.2,0.5c0.1,0.1,0.3,0.2,0.5,0.3s0.4,0.1,0.7,0.2c0.2,0,0.5,0.1,0.7,0.2c0.3,0.1,0.5,0.1,0.8,0.2s0.5,0.2,0.7,0.3
		c0.2,0.1,0.3,0.3,0.5,0.5c0.1,0.2,0.2,0.5,0.2,0.8c0,0.4-0.1,0.7-0.2,1c-0.2,0.3-0.4,0.5-0.6,0.6s-0.6,0.3-0.9,0.3
		c-0.3,0.1-0.7,0.1-1,0.1c-0.4,0-0.7,0-1-0.1s-0.6-0.2-0.9-0.4s-0.4-0.4-0.6-0.7c-0.2-0.3-0.2-0.6-0.2-1h1.1
		C118.6,417,118.7,417.2,118.8,417.4L118.8,417.4z"/>
	<path class="st3" d="M126.7,419.7c-0.1,0.3-0.2,0.6-0.4,0.8c-0.1,0.2-0.2,0.4-0.4,0.5c-0.1,0.1-0.3,0.2-0.5,0.3
		c-0.2,0.1-0.4,0.1-0.6,0.1c-0.1,0-0.2,0-0.4,0s-0.2,0-0.4-0.1v-1c0.1,0,0.2,0.1,0.3,0.1s0.2,0,0.3,0c0.2,0,0.4,0,0.5-0.1
		s0.2-0.2,0.3-0.4l0.4-1.1l-2.5-6.4h1.2l1.9,5.2l0,0l1.8-5.2h1.1L126.7,419.7L126.7,419.7z"/>
	<path class="st3" d="M131.5,410v8.9h-1.1V410H131.5z"/>
	<path class="st3" d="M134.9,418.8l-2.4-6.4h1.2l1.8,5.3l0,0l1.8-5.3h1.1l-2.3,6.4H134.9z"/>
	<path class="st3" d="M145,418.8c-0.2,0.1-0.4,0.2-0.8,0.2c-0.3,0-0.5-0.1-0.6-0.2c-0.2-0.1-0.2-0.4-0.2-0.8c-0.3,0.4-0.6,0.6-1,0.8
		c-0.4,0.1-0.8,0.2-1.2,0.2c-0.3,0-0.6,0-0.8-0.1c-0.3-0.1-0.5-0.2-0.7-0.3s-0.3-0.3-0.4-0.5c-0.1-0.2-0.2-0.5-0.2-0.8
		c0-0.4,0.1-0.7,0.2-0.9c0.1-0.2,0.3-0.4,0.5-0.6s0.4-0.2,0.7-0.3s0.5-0.1,0.8-0.2s0.6-0.1,0.8-0.1c0.3,0,0.5-0.1,0.7-0.1
		s0.4-0.1,0.5-0.2s0.2-0.2,0.2-0.5c0-0.2,0-0.4-0.1-0.6c-0.1-0.1-0.2-0.2-0.3-0.3s-0.3-0.1-0.5-0.1s-0.3,0-0.5,0
		c-0.4,0-0.8,0.1-1.1,0.2c-0.3,0.2-0.5,0.5-0.5,1h-1.1c0-0.4,0.1-0.7,0.2-1s0.4-0.5,0.6-0.7s0.5-0.3,0.9-0.4c0.3-0.1,0.7-0.1,1-0.1
		s0.6,0,0.9,0.1c0.3,0,0.5,0.1,0.8,0.2s0.4,0.3,0.6,0.5s0.2,0.5,0.2,0.9v3.3c0,0.2,0,0.4,0,0.5s0.1,0.2,0.3,0.2c0.1,0,0.2,0,0.3,0
		L145,418.8L145,418.8z M143.3,415.5c-0.1,0.1-0.3,0.2-0.5,0.2s-0.4,0.1-0.7,0.1c-0.2,0-0.5,0.1-0.7,0.1s-0.4,0.1-0.6,0.2
		s-0.3,0.2-0.5,0.4c-0.1,0.1-0.2,0.4-0.2,0.6s0,0.3,0.1,0.4s0.2,0.2,0.3,0.3s0.2,0.1,0.4,0.2s0.3,0,0.5,0c0.4,0,0.6,0,0.9-0.1
		c0.2-0.1,0.4-0.2,0.6-0.4c0.2-0.1,0.3-0.3,0.4-0.5c0.1-0.2,0.1-0.3,0.1-0.5L143.3,415.5L143.3,415.5z"/>
	<path class="st3" d="M147,412.4v1l0,0c0.4-0.8,1.1-1.2,2.1-1.2c0.4,0,0.8,0.1,1.1,0.2s0.5,0.3,0.7,0.5s0.3,0.5,0.4,0.7
		s0.1,0.6,0.1,1v4.2h-1.1v-4.3c0-0.4-0.1-0.7-0.4-0.9c-0.2-0.2-0.6-0.4-0.9-0.4c-0.3,0-0.6,0-0.8,0.1s-0.4,0.2-0.6,0.4
		c-0.2,0.2-0.3,0.4-0.4,0.6c-0.1,0.2-0.1,0.5-0.1,0.8v3.6H146v-6.4L147,412.4L147,412.4z"/>
	<path class="st3" d="M152.9,411.3V410h1.1v1.3H152.9z M154,412.4v6.4h-1.1v-6.4H154z"/>
	<path class="st3" d="M161.3,418.8c-0.2,0.1-0.4,0.2-0.8,0.2c-0.3,0-0.5-0.1-0.6-0.2c-0.2-0.1-0.2-0.4-0.2-0.8
		c-0.3,0.4-0.6,0.6-1,0.8c-0.4,0.1-0.8,0.2-1.2,0.2c-0.3,0-0.6,0-0.8-0.1c-0.3-0.1-0.5-0.2-0.7-0.3s-0.3-0.3-0.4-0.5
		c-0.1-0.2-0.2-0.5-0.2-0.8c0-0.4,0.1-0.7,0.2-0.9c0.1-0.2,0.3-0.4,0.5-0.6s0.4-0.2,0.7-0.3s0.5-0.1,0.8-0.2s0.6-0.1,0.8-0.1
		c0.3,0,0.5-0.1,0.7-0.1s0.4-0.1,0.5-0.2s0.2-0.2,0.2-0.5c0-0.2,0-0.4-0.1-0.6c-0.1-0.1-0.2-0.2-0.3-0.3s-0.3-0.1-0.5-0.1
		s-0.3,0-0.5,0c-0.4,0-0.8,0.1-1.1,0.2c-0.3,0.2-0.5,0.5-0.5,1h-1.1c0-0.4,0.1-0.7,0.2-1s0.4-0.5,0.6-0.7s0.5-0.3,0.9-0.4
		c0.3-0.1,0.7-0.1,1-0.1s0.6,0,0.9,0.1c0.3,0,0.5,0.1,0.8,0.2s0.4,0.3,0.6,0.5s0.2,0.5,0.2,0.9v3.3c0,0.2,0,0.4,0,0.5
		s0.1,0.2,0.3,0.2c0.1,0,0.2,0,0.3,0L161.3,418.8L161.3,418.8z M159.6,415.5c-0.1,0.1-0.3,0.2-0.5,0.2s-0.4,0.1-0.7,0.1
		c-0.2,0-0.5,0.1-0.7,0.1s-0.4,0.1-0.6,0.2s-0.3,0.2-0.5,0.4c-0.1,0.1-0.2,0.4-0.2,0.6s0,0.3,0.1,0.4s0.2,0.2,0.3,0.3
		s0.2,0.1,0.4,0.2s0.3,0,0.5,0c0.4,0,0.6,0,0.9-0.1c0.2-0.1,0.4-0.2,0.6-0.4c0.2-0.1,0.3-0.3,0.4-0.5c0.1-0.2,0.1-0.3,0.1-0.5
		L159.6,415.5L159.6,415.5z"/>
	<path class="st3" d="M170.3,411.2c-0.4-0.3-0.9-0.4-1.5-0.4c-0.2,0-0.5,0-0.7,0.1c-0.2,0-0.4,0.1-0.6,0.2s-0.3,0.3-0.4,0.5
		c-0.1,0.2-0.2,0.4-0.2,0.7c0,0.3,0.1,0.5,0.2,0.7s0.4,0.3,0.6,0.4s0.6,0.2,0.9,0.3s0.7,0.1,1,0.2c0.4,0.1,0.7,0.2,1,0.3
		s0.6,0.3,0.9,0.5s0.5,0.4,0.6,0.7s0.2,0.6,0.2,1.1s-0.1,0.9-0.3,1.2c-0.2,0.3-0.5,0.6-0.8,0.8c-0.3,0.2-0.7,0.4-1.1,0.5
		s-0.8,0.1-1.2,0.1c-0.5,0-1-0.1-1.4-0.2s-0.8-0.3-1.2-0.6c-0.3-0.2-0.6-0.6-0.8-1s-0.3-0.9-0.3-1.4h1.1c0,0.4,0.1,0.7,0.2,1
		s0.3,0.5,0.6,0.7s0.5,0.3,0.8,0.4s0.6,0.1,1,0.1c0.3,0,0.5,0,0.8-0.1s0.5-0.1,0.7-0.2s0.4-0.3,0.5-0.5s0.2-0.5,0.2-0.8
		s-0.1-0.5-0.2-0.7s-0.4-0.3-0.6-0.5s-0.6-0.2-0.9-0.3s-0.7-0.1-1-0.2c-0.4-0.1-0.7-0.2-1-0.3s-0.6-0.2-0.9-0.4s-0.5-0.4-0.6-0.7
		s-0.2-0.6-0.2-1c0-0.5,0.1-0.8,0.3-1.2s0.4-0.6,0.7-0.8s0.6-0.4,1-0.5s0.8-0.2,1.2-0.2s0.9,0,1.3,0.2c0.4,0.1,0.7,0.3,1,0.5
		s0.5,0.5,0.7,0.9s0.3,0.8,0.3,1.3H171C170.9,411.9,170.7,411.5,170.3,411.2L170.3,411.2z"/>
	<path class="st3" d="M176.5,412.4v0.9h-1.3v4c0,0.1,0,0.2,0,0.3s0.1,0.1,0.1,0.2s0.1,0.1,0.2,0.1c0.1,0,0.2,0,0.4,0h0.5v0.9h-0.8
		c-0.3,0-0.5,0-0.7-0.1s-0.4-0.1-0.5-0.2s-0.2-0.2-0.3-0.4c-0.1-0.2-0.1-0.4-0.1-0.7v-4.1h-1.1v-0.9h1.1v-1.9h1.1v1.9L176.5,412.4
		L176.5,412.4z"/>
	<path class="st3" d="M183.3,418.8c-0.2,0.1-0.4,0.2-0.8,0.2c-0.3,0-0.5-0.1-0.6-0.2c-0.2-0.1-0.2-0.4-0.2-0.8
		c-0.3,0.4-0.6,0.6-1,0.8c-0.4,0.1-0.8,0.2-1.2,0.2c-0.3,0-0.6,0-0.8-0.1c-0.3-0.1-0.5-0.2-0.7-0.3s-0.3-0.3-0.4-0.5
		c-0.1-0.2-0.2-0.5-0.2-0.8c0-0.4,0.1-0.7,0.2-0.9c0.1-0.2,0.3-0.4,0.5-0.6s0.4-0.2,0.7-0.3s0.5-0.1,0.8-0.2s0.6-0.1,0.8-0.1
		c0.3,0,0.5-0.1,0.7-0.1s0.4-0.1,0.5-0.2s0.2-0.2,0.2-0.5c0-0.2,0-0.4-0.1-0.6c-0.1-0.1-0.2-0.2-0.3-0.3s-0.3-0.1-0.5-0.1
		s-0.3,0-0.5,0c-0.4,0-0.8,0.1-1.1,0.2c-0.3,0.2-0.5,0.5-0.5,1h-1.1c0-0.4,0.1-0.7,0.2-1s0.4-0.5,0.6-0.7s0.5-0.3,0.9-0.4
		c0.3-0.1,0.7-0.1,1-0.1s0.6,0,0.9,0.1c0.3,0,0.5,0.1,0.8,0.2s0.4,0.3,0.6,0.5s0.2,0.5,0.2,0.9v3.3c0,0.2,0,0.4,0,0.5
		s0.1,0.2,0.3,0.2c0.1,0,0.2,0,0.3,0L183.3,418.8L183.3,418.8z M181.6,415.5c-0.1,0.1-0.3,0.2-0.5,0.2s-0.4,0.1-0.7,0.1
		c-0.2,0-0.5,0.1-0.7,0.1s-0.4,0.1-0.6,0.2s-0.3,0.2-0.5,0.4c-0.1,0.1-0.2,0.4-0.2,0.6s0,0.3,0.1,0.4s0.2,0.2,0.3,0.3
		s0.2,0.1,0.4,0.2s0.3,0,0.5,0c0.4,0,0.6,0,0.9-0.1c0.2-0.1,0.4-0.2,0.6-0.4c0.2-0.1,0.3-0.3,0.4-0.5c0.1-0.2,0.1-0.3,0.1-0.5
		L181.6,415.5L181.6,415.5z"/>
	<path class="st3" d="M187.1,412.4v0.9h-1.3v4c0,0.1,0,0.2,0,0.3s0.1,0.1,0.1,0.2s0.1,0.1,0.2,0.1c0.1,0,0.2,0,0.4,0h0.5v0.9h-0.8
		c-0.3,0-0.5,0-0.7-0.1s-0.4-0.1-0.5-0.2s-0.2-0.2-0.3-0.4c-0.1-0.2-0.1-0.4-0.1-0.7v-4.1h-1.1v-0.9h1.1v-1.9h1.1v1.9L187.1,412.4
		L187.1,412.4z"/>
	<path class="st3" d="M192.8,418.4c-0.5,0.4-1.1,0.5-1.8,0.5c-0.5,0-1-0.1-1.3-0.2s-0.7-0.4-0.9-0.7c-0.3-0.3-0.4-0.6-0.6-1.1
		c-0.1-0.4-0.2-0.9-0.2-1.4s0.1-0.9,0.2-1.3c0.1-0.4,0.4-0.8,0.6-1c0.3-0.3,0.6-0.5,0.9-0.7s0.8-0.2,1.2-0.2c0.6,0,1,0.1,1.4,0.4
		c0.4,0.2,0.7,0.5,0.9,0.9s0.4,0.8,0.5,1.2s0.1,0.8,0.1,1.2H189c0,0.3,0,0.5,0.1,0.8c0.1,0.2,0.2,0.5,0.4,0.7s0.4,0.4,0.6,0.5
		c0.3,0.1,0.6,0.2,0.9,0.2c0.4,0,0.8-0.1,1.1-0.3c0.3-0.2,0.5-0.5,0.6-0.9h1C193.5,417.5,193.2,418.1,192.8,418.4L192.8,418.4z
		 M192.5,414.3c-0.1-0.2-0.2-0.4-0.4-0.6s-0.4-0.3-0.6-0.4s-0.5-0.1-0.7-0.1s-0.5,0-0.7,0.1s-0.4,0.2-0.6,0.4
		c-0.2,0.2-0.3,0.4-0.4,0.6s-0.1,0.5-0.2,0.7h3.7C192.7,414.8,192.6,414.5,192.5,414.3L192.5,414.3z"/>
	<path class="st3" d="M204.7,418.2c-0.6,0.6-1.5,0.9-2.6,0.9s-2-0.3-2.7-0.8s-1-1.4-1-2.6V410h1.2v5.6c0,0.8,0.2,1.4,0.6,1.8
		c0.4,0.4,1,0.6,1.8,0.6s1.3-0.2,1.7-0.6s0.6-1,0.6-1.8V410h1.2v5.6C205.6,416.8,205.3,417.6,204.7,418.2L204.7,418.2z"/>
	<path class="st3" d="M208.3,412.4v1l0,0c0.4-0.8,1.1-1.2,2.1-1.2c0.4,0,0.8,0.1,1.1,0.2s0.5,0.3,0.7,0.5s0.3,0.5,0.4,0.7
		s0.1,0.6,0.1,1v4.2h-1.1v-4.3c0-0.4-0.1-0.7-0.4-0.9c-0.2-0.2-0.6-0.4-0.9-0.4c-0.3,0-0.6,0-0.8,0.1s-0.4,0.2-0.6,0.4
		c-0.2,0.2-0.3,0.4-0.4,0.6c-0.1,0.2-0.1,0.5-0.1,0.8v3.6h-1.1v-6.4L208.3,412.4L208.3,412.4z"/>
	<path class="st3" d="M214.2,411.3V410h1.1v1.3H214.2z M215.3,412.4v6.4h-1.1v-6.4H215.3z"/>
	<path class="st3" d="M218.7,418.8l-2.4-6.4h1.2l1.8,5.3l0,0l1.8-5.3h1.1l-2.3,6.4H218.7z"/>
	<path class="st3" d="M227.6,418.4c-0.5,0.4-1.1,0.5-1.8,0.5c-0.5,0-1-0.1-1.3-0.2s-0.7-0.4-0.9-0.7c-0.3-0.3-0.4-0.6-0.6-1.1
		c-0.1-0.4-0.2-0.9-0.2-1.4s0.1-0.9,0.2-1.3c0.1-0.4,0.4-0.8,0.6-1c0.3-0.3,0.6-0.5,0.9-0.7s0.8-0.2,1.2-0.2c0.6,0,1,0.1,1.4,0.4
		c0.4,0.2,0.7,0.5,0.9,0.9s0.4,0.8,0.5,1.2s0.1,0.8,0.1,1.2h-4.8c0,0.3,0,0.5,0.1,0.8c0.1,0.2,0.2,0.5,0.4,0.7s0.4,0.4,0.6,0.5
		c0.3,0.1,0.6,0.2,0.9,0.2c0.4,0,0.8-0.1,1.1-0.3c0.3-0.2,0.5-0.5,0.6-0.9h1C228.4,417.5,228.1,418.1,227.6,418.4L227.6,418.4z
		 M227.4,414.3c-0.1-0.2-0.2-0.4-0.4-0.6s-0.4-0.3-0.6-0.4s-0.5-0.1-0.7-0.1s-0.5,0-0.7,0.1s-0.4,0.2-0.6,0.4
		c-0.2,0.2-0.3,0.4-0.4,0.6s-0.1,0.5-0.2,0.7h3.7C227.5,414.8,227.5,414.5,227.4,414.3L227.4,414.3z"/>
	<path class="st3" d="M230.7,412.4v1.4l0,0c0.3-0.5,0.6-0.9,0.9-1.1c0.4-0.2,0.8-0.4,1.4-0.4v1.1c-0.4,0-0.8,0.1-1.1,0.2
		s-0.5,0.3-0.7,0.5s-0.3,0.5-0.4,0.8c-0.1,0.3-0.1,0.7-0.1,1.1v2.9h-1.1v-6.4L230.7,412.4L230.7,412.4z"/>
	<path class="st3" d="M234.7,417.4c0.1,0.2,0.2,0.3,0.4,0.4s0.3,0.2,0.6,0.2s0.4,0.1,0.6,0.1c0.2,0,0.3,0,0.5,0s0.4-0.1,0.5-0.1
		s0.3-0.2,0.4-0.3s0.1-0.3,0.1-0.5c0-0.3-0.1-0.5-0.3-0.6s-0.5-0.2-0.8-0.3s-0.6-0.2-1-0.2c-0.4-0.1-0.7-0.2-1-0.3
		c-0.3-0.1-0.6-0.3-0.8-0.5s-0.3-0.5-0.3-1c0-0.3,0.1-0.6,0.2-0.8s0.3-0.4,0.6-0.6c0.2-0.1,0.5-0.2,0.8-0.3c0.3-0.1,0.6-0.1,0.9-0.1
		c0.4,0,0.7,0,1,0.1s0.6,0.2,0.8,0.3c0.2,0.1,0.4,0.4,0.6,0.6s0.2,0.6,0.2,1h-1.1c0-0.2-0.1-0.4-0.2-0.5c-0.1-0.1-0.2-0.2-0.4-0.3
		s-0.3-0.1-0.5-0.2s-0.3-0.1-0.5-0.1s-0.3,0-0.5,0s-0.3,0.1-0.4,0.1s-0.2,0.1-0.3,0.2s-0.1,0.2-0.1,0.4c0,0.2,0.1,0.3,0.2,0.5
		c0.1,0.1,0.3,0.2,0.5,0.3c0.2,0.1,0.4,0.1,0.7,0.2c0.2,0,0.5,0.1,0.7,0.2c0.3,0.1,0.5,0.1,0.8,0.2s0.5,0.2,0.7,0.3
		c0.2,0.1,0.4,0.3,0.5,0.5s0.2,0.5,0.2,0.8c0,0.4-0.1,0.7-0.2,1s-0.4,0.5-0.6,0.6s-0.6,0.3-0.9,0.3s-0.6,0.1-1,0.1s-0.7,0-1-0.1
		s-0.6-0.2-0.9-0.4s-0.4-0.4-0.6-0.7c-0.1-0.3-0.2-0.6-0.2-1h1.1C234.6,417,234.6,417.2,234.7,417.4L234.7,417.4z"/>
	<path class="st3" d="M240.1,411.3V410h1.1v1.3H240.1z M241.2,412.4v6.4h-1.1v-6.4H241.2z"/>
	<path class="st3" d="M245.6,412.4v0.9h-1.3v4c0,0.1,0,0.2,0,0.3s0.1,0.1,0.1,0.2s0.1,0.1,0.2,0.1c0.1,0,0.2,0,0.4,0h0.5v0.9h-0.8
		c-0.3,0-0.5,0-0.7-0.1s-0.4-0.1-0.5-0.2s-0.2-0.2-0.3-0.4c-0.1-0.2-0.1-0.4-0.1-0.7v-4.1H242v-0.9h1.1v-1.9h1.1v1.9L245.6,412.4
		L245.6,412.4z"/>
	<path class="st3" d="M249.3,419.7c-0.1,0.3-0.2,0.6-0.4,0.8c-0.1,0.2-0.2,0.4-0.4,0.5c-0.1,0.1-0.3,0.2-0.5,0.3
		c-0.2,0.1-0.4,0.1-0.6,0.1c-0.1,0-0.2,0-0.4,0s-0.2,0-0.4-0.1v-1c0.1,0,0.2,0.1,0.3,0.1s0.2,0,0.3,0c0.2,0,0.4,0,0.5-0.1
		s0.2-0.2,0.3-0.4l0.4-1.1l-2.5-6.4h1.2l1.9,5.2l0,0l1.8-5.2h1.1L249.3,419.7L249.3,419.7z"/>
	<path class="st3" d="M161.2,429.8v1h-3.6v-1H161.2z"/>
	<path class="st3" d="M177.6,424.8l2.8,7.4l2.8-7.4h1.6v8.9h-1.1v-7.4l0,0l-2.8,7.4h-1l-2.8-7.4l0,0v7.4H176v-8.9H177.6L177.6,424.8
		z"/>
	<path class="st3" d="M192.3,433.7c-0.2,0.1-0.4,0.2-0.8,0.2c-0.3,0-0.5-0.1-0.6-0.2c-0.2-0.1-0.2-0.4-0.2-0.8
		c-0.3,0.4-0.6,0.6-1,0.8c-0.4,0.1-0.8,0.2-1.2,0.2c-0.3,0-0.6,0-0.8-0.1c-0.3-0.1-0.5-0.2-0.7-0.3s-0.3-0.3-0.4-0.5
		c-0.1-0.2-0.2-0.5-0.2-0.8c0-0.4,0.1-0.7,0.2-0.9c0.1-0.2,0.3-0.4,0.5-0.6s0.4-0.2,0.7-0.3s0.5-0.1,0.8-0.2s0.6-0.1,0.8-0.1
		c0.3,0,0.5-0.1,0.7-0.1s0.4-0.1,0.5-0.2s0.2-0.2,0.2-0.5c0-0.2,0-0.4-0.1-0.6c-0.1-0.1-0.2-0.2-0.3-0.3s-0.3-0.1-0.5-0.1
		s-0.3,0-0.5,0c-0.4,0-0.8,0.1-1.1,0.2c-0.3,0.2-0.5,0.5-0.5,1h-1.1c0-0.4,0.1-0.7,0.2-1s0.4-0.5,0.6-0.7s0.5-0.3,0.9-0.4
		c0.3-0.1,0.7-0.1,1-0.1s0.6,0,0.9,0.1c0.3,0,0.5,0.1,0.8,0.2s0.4,0.3,0.6,0.5s0.2,0.5,0.2,0.9v3.3c0,0.2,0,0.4,0,0.5
		s0.1,0.2,0.3,0.2c0.1,0,0.2,0,0.3,0L192.3,433.7L192.3,433.7z M190.5,430.4c-0.1,0.1-0.3,0.2-0.5,0.2s-0.4,0.1-0.7,0.1
		c-0.2,0-0.5,0.1-0.7,0.1s-0.4,0.1-0.6,0.2s-0.3,0.2-0.5,0.4c-0.1,0.1-0.2,0.4-0.2,0.6s0,0.3,0.1,0.4s0.2,0.2,0.3,0.3
		s0.2,0.1,0.4,0.2s0.3,0,0.5,0c0.4,0,0.6,0,0.9-0.1c0.2-0.1,0.4-0.2,0.6-0.4c0.2-0.1,0.3-0.3,0.4-0.5c0.1-0.2,0.1-0.3,0.1-0.5
		L190.5,430.4L190.5,430.4z"/>
	<path class="st3" d="M193.3,426.1v-1.3h1.1v1.3H193.3z M194.4,427.3v6.4h-1.1v-6.4H194.4z"/>
	<path class="st3" d="M197,427.3v1l0,0c0.4-0.8,1.1-1.2,2.1-1.2c0.4,0,0.8,0.1,1.1,0.2s0.5,0.3,0.7,0.5s0.3,0.5,0.4,0.7
		s0.1,0.6,0.1,1v4.2h-1.1v-4.3c0-0.4-0.1-0.7-0.4-0.9c-0.2-0.2-0.6-0.4-0.9-0.4c-0.3,0-0.6,0-0.8,0.1s-0.4,0.2-0.6,0.4
		c-0.2,0.2-0.3,0.4-0.4,0.6c-0.1,0.2-0.1,0.5-0.1,0.8v3.6H196v-6.4L197,427.3L197,427.3z"/>
	<path class="st3" d="M211.9,426.1c-0.4-0.3-1-0.5-1.6-0.5c-0.5,0-1,0.1-1.4,0.3s-0.7,0.5-0.9,0.8s-0.4,0.7-0.5,1.1
		s-0.2,0.9-0.2,1.3c0,0.5,0.1,1,0.2,1.4c0.1,0.5,0.3,0.8,0.5,1.2c0.2,0.3,0.6,0.6,0.9,0.8s0.8,0.3,1.4,0.3c0.4,0,0.7-0.1,1-0.2
		s0.6-0.3,0.8-0.5s0.4-0.5,0.5-0.8s0.2-0.6,0.2-1h1.2c-0.1,1.1-0.5,2-1.1,2.6s-1.5,0.9-2.7,0.9c-0.7,0-1.3-0.1-1.8-0.4
		c-0.5-0.2-0.9-0.6-1.3-1s-0.6-0.9-0.8-1.5s-0.2-1.2-0.2-1.8s0.1-1.2,0.3-1.8s0.4-1.1,0.8-1.5s0.8-0.8,1.3-1s1.1-0.4,1.8-0.4
		c0.5,0,0.9,0.1,1.3,0.2c0.4,0.1,0.8,0.3,1.1,0.5s0.6,0.5,0.8,0.9s0.4,0.8,0.4,1.2h-1.2C212.6,426.9,212.3,426.4,211.9,426.1
		L211.9,426.1z"/>
	<path class="st3" d="M220.9,433.7c-0.2,0.1-0.4,0.2-0.8,0.2c-0.3,0-0.5-0.1-0.6-0.2c-0.2-0.1-0.2-0.4-0.2-0.8
		c-0.3,0.4-0.6,0.6-1,0.8c-0.4,0.1-0.8,0.2-1.2,0.2c-0.3,0-0.6,0-0.8-0.1c-0.3-0.1-0.5-0.2-0.7-0.3s-0.3-0.3-0.4-0.5
		c-0.1-0.2-0.2-0.5-0.2-0.8c0-0.4,0.1-0.7,0.2-0.9c0.1-0.2,0.3-0.4,0.5-0.6s0.4-0.2,0.7-0.3s0.5-0.1,0.8-0.2s0.6-0.1,0.8-0.1
		c0.3,0,0.5-0.1,0.7-0.1s0.4-0.1,0.5-0.2s0.2-0.2,0.2-0.5c0-0.2,0-0.4-0.1-0.6c-0.1-0.1-0.2-0.2-0.3-0.3s-0.3-0.1-0.5-0.1
		s-0.3,0-0.5,0c-0.4,0-0.8,0.1-1.1,0.2c-0.3,0.2-0.5,0.5-0.5,1h-1.1c0-0.4,0.1-0.7,0.2-1s0.4-0.5,0.6-0.7s0.5-0.3,0.9-0.4
		c0.3-0.1,0.7-0.1,1-0.1s0.6,0,0.9,0.1c0.3,0,0.5,0.1,0.8,0.2s0.4,0.3,0.6,0.5s0.2,0.5,0.2,0.9v3.3c0,0.2,0,0.4,0,0.5
		s0.1,0.2,0.3,0.2c0.1,0,0.2,0,0.3,0L220.9,433.7L220.9,433.7z M219.2,430.4c-0.1,0.1-0.3,0.2-0.5,0.2s-0.4,0.1-0.7,0.1
		c-0.2,0-0.5,0.1-0.7,0.1s-0.4,0.1-0.6,0.2s-0.3,0.2-0.5,0.4c-0.1,0.1-0.2,0.4-0.2,0.6s0,0.3,0.1,0.4s0.2,0.2,0.3,0.3
		s0.2,0.1,0.4,0.2s0.3,0,0.5,0c0.4,0,0.6,0,0.9-0.1c0.2-0.1,0.4-0.2,0.6-0.4c0.2-0.1,0.3-0.3,0.4-0.5c0.1-0.2,0.1-0.3,0.1-0.5
		L219.2,430.4L219.2,430.4z"/>
	<path class="st3" d="M222.9,427.3v0.9l0,0c0.5-0.7,1.2-1.1,2.1-1.1c0.4,0,0.8,0.1,1.1,0.2s0.6,0.5,0.7,0.8c0.2-0.4,0.5-0.6,0.9-0.8
		s0.7-0.3,1.2-0.3c0.3,0,0.6,0,0.9,0.1s0.5,0.2,0.7,0.3s0.3,0.3,0.4,0.6c0.1,0.2,0.1,0.5,0.1,0.9v4.7h-1.1v-4.2c0-0.2,0-0.4-0.1-0.6
		c0-0.2-0.1-0.3-0.2-0.5s-0.2-0.2-0.4-0.3s-0.4-0.1-0.6-0.1c-0.5,0-0.9,0.1-1.2,0.5c-0.3,0.3-0.4,0.7-0.4,1.2v4h-1.1v-4.2
		c0-0.2,0-0.4-0.1-0.6s-0.1-0.3-0.2-0.5s-0.2-0.2-0.4-0.3s-0.4-0.1-0.6-0.1c-0.3,0-0.6,0.1-0.8,0.2s-0.4,0.3-0.5,0.5
		s-0.2,0.4-0.3,0.5s-0.1,0.3-0.1,0.5v4h-1.1v-6.4L222.9,427.3L222.9,427.3z"/>
	<path class="st3" d="M233.6,427.3v0.9l0,0c0.2-0.4,0.4-0.6,0.8-0.8c0.4-0.2,0.8-0.2,1.2-0.2c0.5,0,0.9,0.1,1.3,0.3s0.7,0.4,0.9,0.7
		c0.2,0.3,0.4,0.7,0.6,1.1c0.1,0.4,0.2,0.8,0.2,1.3s-0.1,0.9-0.2,1.3s-0.3,0.8-0.6,1.1c-0.2,0.3-0.6,0.5-0.9,0.7
		c-0.4,0.2-0.8,0.3-1.3,0.3c-0.2,0-0.3,0-0.5,0s-0.4-0.1-0.6-0.2s-0.4-0.2-0.5-0.3s-0.3-0.3-0.4-0.5l0,0v3.3h-1.1v-8.9L233.6,427.3
		L233.6,427.3z M237.4,429.5c-0.1-0.3-0.2-0.5-0.4-0.8s-0.4-0.4-0.6-0.5s-0.6-0.2-0.9-0.2c-0.4,0-0.7,0.1-0.9,0.2s-0.4,0.3-0.6,0.5
		c-0.2,0.2-0.3,0.5-0.3,0.8s-0.1,0.6-0.1,0.9s0,0.6,0.1,0.9s0.2,0.5,0.4,0.8s0.4,0.4,0.6,0.5c0.3,0.1,0.6,0.2,0.9,0.2
		s0.7-0.1,0.9-0.2s0.4-0.3,0.6-0.6s0.3-0.5,0.3-0.8c0.1-0.3,0.1-0.6,0.1-0.9C237.5,430.1,237.5,429.8,237.4,429.5L237.4,429.5z"/>
	<path class="st3" d="M244.2,433.7v-1l0,0c-0.2,0.4-0.5,0.7-0.9,0.9s-0.8,0.3-1.2,0.3s-0.8-0.1-1.1-0.2s-0.5-0.3-0.7-0.5
		s-0.3-0.5-0.4-0.7c-0.1-0.3-0.1-0.6-0.1-1v-4.2h1.1v4.3c0,0.4,0.1,0.7,0.4,0.9s0.6,0.4,0.9,0.4c0.3,0,0.6,0,0.8-0.1
		s0.4-0.2,0.6-0.4c0.2-0.2,0.3-0.4,0.4-0.6s0.1-0.5,0.1-0.8v-3.6h1.1v6.4L244.2,433.7L244.2,433.7z"/>
	<path class="st3" d="M247.6,432.3c0.1,0.2,0.2,0.3,0.4,0.4s0.3,0.2,0.6,0.2s0.4,0.1,0.6,0.1c0.2,0,0.3,0,0.5,0s0.4-0.1,0.5-0.1
		s0.3-0.2,0.4-0.3s0.1-0.3,0.1-0.5c0-0.3-0.1-0.5-0.3-0.6s-0.5-0.2-0.8-0.3s-0.6-0.2-1-0.2c-0.4-0.1-0.7-0.2-1-0.3
		c-0.3-0.1-0.6-0.3-0.8-0.5s-0.3-0.5-0.3-1c0-0.3,0.1-0.6,0.2-0.8s0.3-0.4,0.6-0.6c0.2-0.1,0.5-0.2,0.8-0.3c0.3-0.1,0.6-0.1,0.9-0.1
		c0.4,0,0.7,0,1,0.1s0.6,0.2,0.8,0.3c0.2,0.1,0.4,0.4,0.6,0.6s0.2,0.6,0.2,1h-1.1c0-0.2-0.1-0.4-0.2-0.5c-0.1-0.1-0.2-0.2-0.4-0.3
		s-0.3-0.1-0.5-0.2s-0.3-0.1-0.5-0.1s-0.3,0-0.5,0s-0.3,0.1-0.4,0.1s-0.2,0.1-0.3,0.2s-0.1,0.2-0.1,0.4c0,0.2,0.1,0.3,0.2,0.5
		c0.1,0.1,0.3,0.2,0.5,0.3c0.2,0.1,0.4,0.1,0.7,0.2c0.2,0,0.5,0.1,0.7,0.2c0.3,0.1,0.5,0.1,0.8,0.2s0.5,0.2,0.7,0.3
		c0.2,0.1,0.4,0.3,0.5,0.5s0.2,0.5,0.2,0.8c0,0.4-0.1,0.7-0.2,1s-0.4,0.5-0.6,0.6s-0.6,0.3-0.9,0.3s-0.6,0.1-1,0.1s-0.7,0-1-0.1
		s-0.6-0.2-0.9-0.4s-0.4-0.4-0.6-0.7c-0.1-0.3-0.2-0.6-0.2-1h1.1C247.4,431.9,247.5,432.1,247.6,432.3L247.6,432.3z"/>
</g>
<line class="st6" x1="262.4" y1="457.9" x2="256.1" y2="457.9"/>
<text transform="matrix(1 0 0 1 132.19 453.21)" class="st7 st4 st5">University of Illinois at</text>
<text transform="matrix(1 0 0 1 143.97 466.96)" class="st7 st4 st5">Urbana-Champaign</text>
<line class="st2" x1="262.4" y1="492.3" x2="256.1" y2="492.3"/>
<text transform="matrix(1 0 0 1 128.02 496.44)" class="st3 st4 st5">University of Delawa</text>
<text transform="matrix(1 0 0 1 241.16 496.44)" class="st3 st4 st5">r</text>
<text transform="matrix(1 0 0 1 245.06 496.44)" class="st3 st4 st5">e</text>
<line class="st2" x1="262.4" y1="526.7" x2="256.1" y2="526.7"/>
<g>
	<path class="st3" d="M103.5,523.1c-0.6,0.6-1.5,0.8-2.6,0.8s-2-0.3-2.7-0.8s-1-1.4-1-2.6v-5.6h1.2v5.7c0,0.8,0.2,1.4,0.6,1.8
		c0.4,0.4,1,0.6,1.8,0.6s1.3-0.2,1.7-0.6c0.4-0.4,0.6-1,0.6-1.8v-5.7h1.2v5.7C104.4,521.7,104.1,522.4,103.5,523.1L103.5,523.1z"/>
	<path class="st3" d="M107.1,517.2v1l0,0c0.4-0.8,1.1-1.2,2.1-1.2c0.4,0,0.8,0.1,1.1,0.2c0.3,0.1,0.5,0.3,0.7,0.5s0.3,0.5,0.4,0.7
		s0.1,0.6,0.1,1v4.2h-1.1v-4.3c0-0.4-0.1-0.7-0.3-0.9c-0.2-0.2-0.6-0.3-0.9-0.3s-0.6,0-0.8,0.2c-0.2,0.1-0.4,0.2-0.6,0.4
		s-0.3,0.4-0.3,0.6c-0.1,0.2-0.1,0.5-0.1,0.8v3.6h-1.1v-6.4L107.1,517.2L107.1,517.2z"/>
	<path class="st3" d="M113,516.2v-1.3h1.1v1.3H113z M114.1,517.2v6.4H113v-6.4H114.1z"/>
	<path class="st3" d="M117.5,523.7l-2.4-6.4h1.2l1.8,5.3l0,0l1.8-5.3h1.1l-2.3,6.4C118.6,523.7,117.5,523.7,117.5,523.7z"/>
	<path class="st3" d="M126.4,523.2c-0.5,0.4-1.1,0.5-1.8,0.5c-0.5,0-1-0.1-1.3-0.2c-0.3-0.1-0.7-0.4-0.9-0.7
		c-0.3-0.3-0.4-0.7-0.6-1.1c-0.1-0.4-0.2-0.9-0.2-1.3c0-0.5,0.1-0.9,0.2-1.3c0.2-0.4,0.4-0.8,0.6-1c0.3-0.3,0.6-0.5,0.9-0.7
		s0.8-0.2,1.2-0.2c0.6,0,1,0.1,1.4,0.3s0.7,0.5,0.9,0.9c0.2,0.4,0.4,0.8,0.5,1.2s0.1,0.8,0.1,1.2h-4.8c0,0.3,0,0.5,0.1,0.8
		c0.1,0.2,0.2,0.5,0.4,0.7c0.2,0.2,0.4,0.3,0.6,0.5c0.3,0.1,0.6,0.2,0.9,0.2c0.4,0,0.8-0.1,1.1-0.3c0.3-0.2,0.5-0.5,0.6-0.9h1
		C127.2,522.3,126.9,522.9,126.4,523.2L126.4,523.2z M126.2,519.2c-0.1-0.2-0.2-0.4-0.4-0.6s-0.3-0.3-0.6-0.4
		c-0.3-0.1-0.5-0.1-0.7-0.1s-0.5,0-0.7,0.1s-0.4,0.2-0.6,0.4s-0.3,0.4-0.4,0.6s-0.1,0.5-0.2,0.7h3.7
		C126.3,519.7,126.3,519.3,126.2,519.2z"/>
	<path class="st3" d="M129.5,517.2v1.3l0,0c0.3-0.5,0.6-0.9,0.9-1.2c0.4-0.2,0.8-0.4,1.4-0.3v1.1c-0.4,0-0.8,0.1-1.1,0.2
		s-0.5,0.3-0.7,0.5s-0.3,0.5-0.4,0.8c-0.1,0.3-0.1,0.7-0.1,1.1v2.8h-1.1v-6.4L129.5,517.2L129.5,517.2z"/>
	<path class="st3" d="M133.5,522.2c0.1,0.2,0.2,0.3,0.4,0.4c0.2,0.1,0.3,0.2,0.6,0.2s0.4,0.1,0.6,0.1c0.2,0,0.3,0,0.5,0
		s0.4-0.1,0.5-0.1s0.3-0.2,0.4-0.3s0.1-0.3,0.1-0.5c0-0.3-0.1-0.5-0.3-0.6s-0.5-0.2-0.8-0.3s-0.6-0.2-1-0.2s-0.7-0.2-1-0.3
		s-0.6-0.3-0.8-0.5s-0.3-0.5-0.3-1c0-0.3,0.1-0.6,0.2-0.8c0.1-0.2,0.3-0.4,0.6-0.6s0.5-0.2,0.8-0.3s0.6-0.1,0.9-0.1
		c0.4,0,0.7,0,1,0.1s0.6,0.2,0.8,0.3c0.2,0.2,0.4,0.4,0.6,0.6s0.2,0.6,0.2,1h-1.1c0-0.2-0.1-0.4-0.2-0.5c-0.1-0.1-0.2-0.2-0.4-0.3
		s-0.3-0.1-0.5-0.2c-0.2-0.1-0.3-0.1-0.5-0.1s-0.3,0-0.5,0s-0.3,0.1-0.4,0.1s-0.2,0.1-0.3,0.2c-0.1,0.1-0.1,0.2-0.1,0.4
		s0.1,0.3,0.2,0.5c0.1,0.2,0.3,0.2,0.5,0.3s0.4,0.1,0.7,0.2c0.2,0,0.5,0.1,0.7,0.2c0.3,0.1,0.5,0.1,0.8,0.2c0.3,0.1,0.5,0.2,0.7,0.3
		s0.4,0.3,0.5,0.5s0.2,0.5,0.2,0.8c0,0.4-0.1,0.7-0.2,1c-0.2,0.3-0.4,0.5-0.6,0.6s-0.6,0.3-0.9,0.3s-0.6,0.1-1,0.1s-0.7,0-1-0.1
		s-0.6-0.2-0.9-0.4c-0.3-0.2-0.4-0.4-0.6-0.7c-0.1-0.3-0.2-0.6-0.2-1h1.1C133.4,521.8,133.4,522.1,133.5,522.2L133.5,522.2z"/>
	<path class="st3" d="M138.9,516.2v-1.3h1.1v1.3H138.9z M140,517.2v6.4h-1.1v-6.4H140z"/>
	<path class="st3" d="M144.4,517.2v0.9h-1.3v4c0,0.1,0,0.2,0,0.3s0.1,0.1,0.1,0.2c0,0.1,0.1,0.1,0.2,0.1s0.2,0,0.4,0h0.5v0.9h-0.8
		c-0.3,0-0.5,0-0.7-0.1s-0.4-0.1-0.5-0.2s-0.2-0.2-0.3-0.4s-0.1-0.4-0.1-0.7v-4.1h-1.1v-0.9h1.1v-1.9h1.1v1.9H144.4L144.4,517.2z"/>
	<path class="st3" d="M148.1,524.6c-0.1,0.3-0.2,0.6-0.4,0.8c-0.1,0.2-0.2,0.4-0.4,0.5c-0.1,0.1-0.3,0.2-0.5,0.3s-0.4,0.1-0.6,0.1
		c-0.1,0-0.2,0-0.4,0s-0.2,0-0.4-0.1v-1c0.1,0,0.2,0.1,0.3,0.1s0.2,0,0.3,0c0.2,0,0.4,0,0.5-0.2c0.1-0.1,0.2-0.2,0.3-0.4l0.4-1.1
		l-2.5-6.4h1.2l1.9,5.2l0,0l1.8-5.2h1.1L148.1,524.6L148.1,524.6z"/>
	<path class="st3" d="M155,519.2c0.1-0.4,0.3-0.8,0.6-1.1s0.6-0.5,1-0.7s0.8-0.3,1.3-0.3s1,0.1,1.3,0.3c0.4,0.2,0.7,0.4,1,0.7
		s0.5,0.7,0.6,1.1s0.2,0.8,0.2,1.3s-0.1,0.9-0.2,1.3c-0.1,0.4-0.3,0.8-0.6,1.1s-0.6,0.5-1,0.7s-0.8,0.2-1.3,0.2s-0.9-0.1-1.3-0.2
		c-0.4-0.1-0.7-0.4-1-0.7s-0.5-0.7-0.6-1.1c-0.1-0.4-0.2-0.8-0.2-1.3S154.9,519.6,155,519.2z M156.1,521.6c0.1,0.3,0.2,0.5,0.4,0.8
		c0.2,0.2,0.4,0.4,0.6,0.5c0.2,0.1,0.5,0.2,0.8,0.2s0.5,0,0.8-0.2s0.5-0.3,0.6-0.5s0.3-0.5,0.4-0.8c0.1-0.3,0.1-0.7,0.1-1
		s-0.1-0.7-0.1-1c-0.1-0.3-0.2-0.6-0.4-0.8s-0.4-0.4-0.6-0.5c-0.2-0.1-0.5-0.2-0.8-0.2s-0.5,0-0.8,0.2s-0.5,0.3-0.6,0.5
		c-0.2,0.2-0.3,0.5-0.4,0.8c-0.1,0.3-0.2,0.7-0.2,1C155.9,520.8,156,521.2,156.1,521.6z"/>
	<path class="st3" d="M161.7,518.2v-0.9h1.1v-1c0-0.5,0.1-0.9,0.4-1.2c0.3-0.3,0.7-0.4,1.3-0.4c0.1,0,0.2,0,0.3,0s0.2,0,0.3,0.1v0.9
		c-0.1,0-0.2-0.1-0.3-0.1s-0.2,0-0.3,0c-0.3,0-0.4,0-0.6,0.2c-0.1,0.1-0.2,0.3-0.2,0.6v0.9h1.2v0.9h-1.2v5.5h-1.1v-5.5H161.7
		L161.7,518.2z"/>
	<path class="st3" d="M171.2,514.8l2.8,7.4l2.8-7.4h1.6v8.8h-1.1v-7.4l0,0l-2.8,7.4h-1l-2.8-7.4l0,0v7.4h-1.1v-8.8H171.2
		L171.2,514.8z"/>
	<path class="st3" d="M185.9,523.7c-0.2,0.1-0.4,0.2-0.8,0.2c-0.3,0-0.5-0.1-0.6-0.2c-0.2-0.2-0.2-0.4-0.2-0.8
		c-0.3,0.3-0.6,0.6-1,0.8s-0.8,0.2-1.2,0.2c-0.3,0-0.6,0-0.8-0.1c-0.3-0.1-0.5-0.2-0.7-0.3s-0.3-0.3-0.4-0.5
		c-0.1-0.2-0.2-0.5-0.2-0.8c0-0.4,0.1-0.7,0.2-0.9c0.1-0.2,0.3-0.4,0.5-0.6s0.4-0.2,0.7-0.3s0.5-0.1,0.8-0.2
		c0.3-0.1,0.6-0.1,0.8-0.1c0.3,0,0.5-0.1,0.7-0.1s0.4-0.1,0.5-0.2s0.2-0.2,0.2-0.5c0-0.2,0-0.4-0.1-0.6c-0.1-0.1-0.2-0.2-0.3-0.3
		s-0.3-0.1-0.5-0.2c-0.2,0-0.3,0-0.5,0c-0.4,0-0.8,0.1-1.1,0.2c-0.3,0.2-0.5,0.5-0.5,1h-1.1c0-0.4,0.1-0.7,0.2-1
		c0.1-0.3,0.4-0.5,0.6-0.7c0.2-0.2,0.5-0.3,0.9-0.4c0.3-0.1,0.7-0.1,1-0.1s0.6,0,0.9,0.1c0.3,0,0.5,0.1,0.8,0.2
		c0.3,0.1,0.4,0.3,0.6,0.5c0.2,0.2,0.2,0.5,0.2,0.9v3.3c0,0.2,0,0.4,0,0.5s0.1,0.2,0.3,0.2c0.1,0,0.2,0,0.3,0L185.9,523.7
		L185.9,523.7z M184.2,520.3c-0.1,0.1-0.3,0.2-0.5,0.2s-0.4,0.1-0.7,0.1c-0.2,0-0.5,0.1-0.7,0.1s-0.4,0.1-0.6,0.2
		c-0.2,0.1-0.3,0.2-0.5,0.3c-0.1,0.2-0.2,0.4-0.2,0.6s0,0.3,0.1,0.4c0.1,0.1,0.2,0.2,0.3,0.3s0.2,0.1,0.4,0.2c0.1,0,0.3,0,0.5,0
		c0.4,0,0.6,0,0.9-0.1s0.4-0.2,0.6-0.4c0.2-0.1,0.3-0.3,0.4-0.5c0.1-0.2,0.1-0.3,0.1-0.5L184.2,520.3L184.2,520.3z"/>
	<path class="st3" d="M187.7,522.2c0.1,0.2,0.2,0.3,0.4,0.4c0.2,0.1,0.3,0.2,0.6,0.2s0.4,0.1,0.6,0.1c0.2,0,0.3,0,0.5,0
		s0.4-0.1,0.5-0.1s0.3-0.2,0.4-0.3s0.1-0.3,0.1-0.5c0-0.3-0.1-0.5-0.3-0.6s-0.5-0.2-0.8-0.3s-0.6-0.2-1-0.2s-0.7-0.2-1-0.3
		s-0.6-0.3-0.8-0.5s-0.3-0.5-0.3-1c0-0.3,0.1-0.6,0.2-0.8c0.1-0.2,0.3-0.4,0.6-0.6s0.5-0.2,0.8-0.3s0.6-0.1,0.9-0.1
		c0.4,0,0.7,0,1,0.1s0.6,0.2,0.8,0.3c0.2,0.2,0.4,0.4,0.6,0.6s0.2,0.6,0.2,1h-1.1c0-0.2-0.1-0.4-0.2-0.5c-0.1-0.1-0.2-0.2-0.4-0.3
		s-0.3-0.1-0.5-0.2c-0.2-0.1-0.3-0.1-0.5-0.1s-0.3,0-0.5,0s-0.3,0.1-0.4,0.1s-0.2,0.1-0.3,0.2c-0.1,0.1-0.1,0.2-0.1,0.4
		s0.1,0.3,0.2,0.5c0.1,0.2,0.3,0.2,0.5,0.3s0.4,0.1,0.7,0.2c0.2,0,0.5,0.1,0.7,0.2c0.3,0.1,0.5,0.1,0.8,0.2c0.3,0.1,0.5,0.2,0.7,0.3
		s0.4,0.3,0.5,0.5s0.2,0.5,0.2,0.8c0,0.4-0.1,0.7-0.2,1c-0.2,0.3-0.4,0.5-0.6,0.6s-0.6,0.3-0.9,0.3s-0.6,0.1-1,0.1s-0.7,0-1-0.1
		s-0.6-0.2-0.9-0.4c-0.3-0.2-0.4-0.4-0.6-0.7c-0.1-0.3-0.2-0.6-0.2-1h1.1C187.5,521.8,187.6,522.1,187.7,522.2L187.7,522.2z"/>
	<path class="st3" d="M193.9,522.2c0.1,0.2,0.2,0.3,0.4,0.4c0.2,0.1,0.3,0.2,0.6,0.2s0.4,0.1,0.6,0.1c0.2,0,0.3,0,0.5,0
		s0.4-0.1,0.5-0.1s0.3-0.2,0.4-0.3s0.1-0.3,0.1-0.5c0-0.3-0.1-0.5-0.3-0.6s-0.5-0.2-0.8-0.3s-0.6-0.2-1-0.2s-0.7-0.2-1-0.3
		s-0.6-0.3-0.8-0.5s-0.3-0.5-0.3-1c0-0.3,0.1-0.6,0.2-0.8c0.1-0.2,0.3-0.4,0.6-0.6s0.5-0.2,0.8-0.3s0.6-0.1,0.9-0.1
		c0.4,0,0.7,0,1,0.1s0.6,0.2,0.8,0.3c0.2,0.2,0.4,0.4,0.6,0.6s0.2,0.6,0.2,1h-1.1c0-0.2-0.1-0.4-0.2-0.5c-0.1-0.1-0.2-0.2-0.4-0.3
		s-0.3-0.1-0.5-0.2c-0.2-0.1-0.3-0.1-0.5-0.1s-0.3,0-0.5,0s-0.3,0.1-0.4,0.1s-0.2,0.1-0.3,0.2c-0.1,0.1-0.1,0.2-0.1,0.4
		s0.1,0.3,0.2,0.5c0.1,0.2,0.3,0.2,0.5,0.3s0.4,0.1,0.7,0.2c0.2,0,0.5,0.1,0.7,0.2c0.3,0.1,0.5,0.1,0.8,0.2c0.3,0.1,0.5,0.2,0.7,0.3
		s0.4,0.3,0.5,0.5s0.2,0.5,0.2,0.8c0,0.4-0.1,0.7-0.2,1c-0.2,0.3-0.4,0.5-0.6,0.6s-0.6,0.3-0.9,0.3s-0.6,0.1-1,0.1s-0.7,0-1-0.1
		s-0.6-0.2-0.9-0.4c-0.3-0.2-0.4-0.4-0.6-0.7c-0.1-0.3-0.2-0.6-0.2-1h1.1C193.7,521.8,193.8,522.1,193.9,522.2L193.9,522.2z"/>
	<path class="st3" d="M204.9,523.7c-0.2,0.1-0.4,0.2-0.8,0.2c-0.3,0-0.5-0.1-0.6-0.2c-0.2-0.2-0.2-0.4-0.2-0.8
		c-0.3,0.3-0.6,0.6-1,0.8s-0.8,0.2-1.2,0.2c-0.3,0-0.6,0-0.8-0.1c-0.3-0.1-0.5-0.2-0.7-0.3s-0.3-0.3-0.4-0.5
		c-0.1-0.2-0.2-0.5-0.2-0.8c0-0.4,0.1-0.7,0.2-0.9c0.1-0.2,0.3-0.4,0.5-0.6s0.4-0.2,0.7-0.3s0.5-0.1,0.8-0.2
		c0.3-0.1,0.6-0.1,0.8-0.1c0.3,0,0.5-0.1,0.7-0.1s0.4-0.1,0.5-0.2s0.2-0.2,0.2-0.5c0-0.2,0-0.4-0.1-0.6c-0.1-0.1-0.2-0.2-0.3-0.3
		s-0.3-0.1-0.5-0.2c-0.2,0-0.3,0-0.5,0c-0.4,0-0.8,0.1-1.1,0.2c-0.3,0.2-0.5,0.5-0.5,1h-1.1c0-0.4,0.1-0.7,0.2-1
		c0.1-0.3,0.4-0.5,0.6-0.7c0.2-0.2,0.5-0.3,0.9-0.4c0.3-0.1,0.7-0.1,1-0.1s0.6,0,0.9,0.1c0.3,0,0.5,0.1,0.8,0.2
		c0.3,0.1,0.4,0.3,0.6,0.5c0.2,0.2,0.2,0.5,0.2,0.9v3.3c0,0.2,0,0.4,0,0.5s0.1,0.2,0.3,0.2c0.1,0,0.2,0,0.3,0L204.9,523.7
		L204.9,523.7z M203.2,520.3c-0.1,0.1-0.3,0.2-0.5,0.2s-0.4,0.1-0.7,0.1c-0.2,0-0.5,0.1-0.7,0.1s-0.4,0.1-0.6,0.2
		c-0.2,0.1-0.3,0.2-0.5,0.3c-0.1,0.2-0.2,0.4-0.2,0.6s0,0.3,0.1,0.4c0.1,0.1,0.2,0.2,0.3,0.3s0.2,0.1,0.4,0.2c0.1,0,0.3,0,0.5,0
		c0.4,0,0.6,0,0.9-0.1s0.4-0.2,0.6-0.4c0.2-0.1,0.3-0.3,0.4-0.5c0.1-0.2,0.1-0.3,0.1-0.5L203.2,520.3L203.2,520.3z"/>
	<path class="st3" d="M209.8,518.3c-0.3-0.2-0.6-0.3-1.1-0.3c-0.4,0-0.7,0.1-0.9,0.2c-0.3,0.1-0.5,0.3-0.6,0.6s-0.3,0.5-0.3,0.8
		s-0.1,0.6-0.1,0.9c0,0.3,0,0.6,0.1,0.9s0.2,0.5,0.3,0.8c0.1,0.2,0.3,0.4,0.6,0.5c0.2,0.1,0.5,0.2,0.9,0.2c0.5,0,0.9-0.1,1.2-0.4
		s0.5-0.7,0.5-1.2h1.1c-0.1,0.8-0.4,1.4-0.9,1.8c-0.5,0.4-1.1,0.6-1.9,0.6c-0.5,0-0.9-0.1-1.3-0.2c-0.4-0.1-0.7-0.4-0.9-0.7
		s-0.4-0.6-0.6-1c-0.1-0.4-0.2-0.8-0.2-1.3s0.1-0.9,0.2-1.3c0.1-0.4,0.3-0.8,0.6-1.1s0.6-0.5,0.9-0.7c0.4-0.2,0.8-0.3,1.3-0.3
		c0.4,0,0.7,0,1,0.1s0.6,0.2,0.8,0.4s0.4,0.4,0.6,0.7c0.2,0.3,0.3,0.6,0.3,1h-1.1C210.2,518.9,210,518.7,209.8,518.3L209.8,518.3z"
		/>
	<path class="st3" d="M213.6,514.8v3.4l0,0c0.1-0.2,0.2-0.4,0.4-0.5c0.1-0.1,0.3-0.2,0.5-0.3s0.4-0.2,0.6-0.2s0.4-0.1,0.6-0.1
		c0.4,0,0.8,0.1,1.1,0.2c0.3,0.1,0.5,0.3,0.7,0.5s0.3,0.5,0.4,0.7c0.1,0.2,0.1,0.6,0.1,1v4.2h-1.1v-4.3c0-0.4-0.1-0.7-0.4-0.9
		c-0.2-0.2-0.6-0.3-0.9-0.3c-0.3,0-0.6,0-0.8,0.2c-0.2,0.1-0.4,0.2-0.6,0.4c-0.2,0.2-0.3,0.4-0.4,0.6c-0.1,0.2-0.1,0.5-0.1,0.8v3.6
		h-1.1v-9L213.6,514.8L213.6,514.8z"/>
	<path class="st3" d="M223.8,523.7v-1l0,0c-0.2,0.4-0.5,0.7-0.9,0.9s-0.8,0.3-1.2,0.3s-0.8-0.1-1.1-0.2c-0.3-0.1-0.5-0.3-0.7-0.5
		s-0.3-0.5-0.4-0.7c-0.1-0.3-0.1-0.6-0.1-1v-4.2h1.1v4.3c0,0.4,0.1,0.7,0.4,0.9c0.3,0.2,0.6,0.3,0.9,0.3c0.3,0,0.6,0,0.8-0.2
		c0.2-0.1,0.4-0.2,0.6-0.4c0.2-0.2,0.3-0.4,0.4-0.6s0.1-0.5,0.1-0.8v-3.6h1.1v6.4L223.8,523.7L223.8,523.7z"/>
	<path class="st3" d="M227.2,522.2c0.1,0.2,0.2,0.3,0.4,0.4c0.2,0.1,0.3,0.2,0.6,0.2s0.4,0.1,0.6,0.1c0.2,0,0.3,0,0.5,0
		s0.4-0.1,0.5-0.1s0.3-0.2,0.4-0.3s0.1-0.3,0.1-0.5c0-0.3-0.1-0.5-0.3-0.6s-0.5-0.2-0.8-0.3s-0.6-0.2-1-0.2s-0.7-0.2-1-0.3
		s-0.6-0.3-0.8-0.5s-0.3-0.5-0.3-1c0-0.3,0.1-0.6,0.2-0.8c0.1-0.2,0.3-0.4,0.6-0.6s0.5-0.2,0.8-0.3s0.6-0.1,0.9-0.1
		c0.4,0,0.7,0,1,0.1s0.6,0.2,0.8,0.3c0.2,0.2,0.4,0.4,0.6,0.6s0.2,0.6,0.2,1h-1.1c0-0.2-0.1-0.4-0.2-0.5c-0.1-0.1-0.2-0.2-0.4-0.3
		s-0.3-0.1-0.5-0.2c-0.2-0.1-0.3-0.1-0.5-0.1s-0.3,0-0.5,0s-0.3,0.1-0.4,0.1s-0.2,0.1-0.3,0.2c-0.1,0.1-0.1,0.2-0.1,0.4
		s0.1,0.3,0.2,0.5c0.1,0.2,0.3,0.2,0.5,0.3s0.4,0.1,0.7,0.2c0.2,0,0.5,0.1,0.7,0.2c0.3,0.1,0.5,0.1,0.8,0.2c0.3,0.1,0.5,0.2,0.7,0.3
		s0.4,0.3,0.5,0.5s0.2,0.5,0.2,0.8c0,0.4-0.1,0.7-0.2,1c-0.2,0.3-0.4,0.5-0.6,0.6s-0.6,0.3-0.9,0.3s-0.6,0.1-1,0.1s-0.7,0-1-0.1
		s-0.6-0.2-0.9-0.4c-0.3-0.2-0.4-0.4-0.6-0.7c-0.1-0.3-0.2-0.6-0.2-1h1.1C227,521.8,227.1,522.1,227.2,522.2L227.2,522.2z"/>
	<path class="st3" d="M237.1,523.2c-0.5,0.4-1.1,0.5-1.8,0.5c-0.5,0-1-0.1-1.3-0.2c-0.3-0.1-0.7-0.4-0.9-0.7
		c-0.3-0.3-0.4-0.7-0.6-1.1c-0.1-0.4-0.2-0.9-0.2-1.3c0-0.5,0.1-0.9,0.2-1.3c0.1-0.4,0.4-0.8,0.6-1c0.3-0.3,0.6-0.5,0.9-0.7
		c0.3-0.2,0.8-0.2,1.2-0.2c0.6,0,1,0.1,1.4,0.3s0.7,0.5,0.9,0.9s0.4,0.8,0.5,1.2s0.1,0.8,0.1,1.2h-4.8c0,0.3,0,0.5,0.1,0.8
		c0.1,0.2,0.2,0.5,0.4,0.7s0.4,0.3,0.6,0.5c0.3,0.1,0.6,0.2,0.9,0.2c0.4,0,0.8-0.1,1.1-0.3s0.5-0.5,0.6-0.9h1
		C237.9,522.3,237.6,522.9,237.1,523.2L237.1,523.2z M236.8,519.2c-0.1-0.2-0.2-0.4-0.4-0.6s-0.4-0.3-0.6-0.4
		c-0.2-0.1-0.5-0.1-0.7-0.1s-0.5,0-0.7,0.1s-0.4,0.2-0.6,0.4c-0.2,0.2-0.3,0.4-0.4,0.6s-0.1,0.5-0.2,0.7h3.7
		C237,519.7,236.9,519.3,236.8,519.2L236.8,519.2z"/>
	<path class="st3" d="M241.9,517.2v0.9h-1.3v4c0,0.1,0,0.2,0,0.3s0.1,0.1,0.1,0.2c0,0.1,0.1,0.1,0.2,0.1s0.2,0,0.4,0h0.5v0.9H241
		c-0.3,0-0.5,0-0.7-0.1s-0.4-0.1-0.5-0.2s-0.2-0.2-0.3-0.4s-0.1-0.4-0.1-0.7v-4.1h-1.1v-0.9h1.1v-1.9h1.1v1.9H241.9L241.9,517.2z"/>
	<path class="st3" d="M245.9,517.2v0.9h-1.3v4c0,0.1,0,0.2,0,0.3s0.1,0.1,0.1,0.2c0,0.1,0.1,0.1,0.2,0.1s0.2,0,0.4,0h0.5v0.9H245
		c-0.3,0-0.5,0-0.7-0.1s-0.4-0.1-0.5-0.2s-0.2-0.2-0.3-0.4s-0.1-0.4-0.1-0.7v-4.1h-1.1v-0.9h1.1v-1.9h1.1v1.9H245.9L245.9,517.2z"/>
	<path class="st3" d="M247.8,522.2c0.1,0.2,0.2,0.3,0.4,0.4c0.2,0.1,0.3,0.2,0.6,0.2s0.4,0.1,0.6,0.1c0.2,0,0.3,0,0.5,0
		s0.4-0.1,0.5-0.1s0.3-0.2,0.4-0.3s0.1-0.3,0.1-0.5c0-0.3-0.1-0.5-0.3-0.6s-0.5-0.2-0.8-0.3s-0.6-0.2-1-0.2s-0.7-0.2-1-0.3
		s-0.6-0.3-0.8-0.5s-0.3-0.5-0.3-1c0-0.3,0.1-0.6,0.2-0.8c0.1-0.2,0.3-0.4,0.6-0.6s0.5-0.2,0.8-0.3s0.6-0.1,0.9-0.1
		c0.4,0,0.7,0,1,0.1s0.6,0.2,0.8,0.3c0.2,0.2,0.4,0.4,0.6,0.6s0.2,0.6,0.2,1h-1.1c0-0.2-0.1-0.4-0.2-0.5c-0.1-0.1-0.2-0.2-0.4-0.3
		s-0.3-0.1-0.5-0.2c-0.2-0.1-0.3-0.1-0.5-0.1s-0.3,0-0.5,0s-0.3,0.1-0.4,0.1s-0.2,0.1-0.3,0.2c-0.1,0.1-0.1,0.2-0.1,0.4
		s0.1,0.3,0.2,0.5c0.1,0.2,0.3,0.2,0.5,0.3s0.4,0.1,0.7,0.2c0.2,0,0.5,0.1,0.7,0.2c0.3,0.1,0.5,0.1,0.8,0.2c0.3,0.1,0.5,0.2,0.7,0.3
		s0.4,0.3,0.5,0.5s0.2,0.5,0.2,0.8c0,0.4-0.1,0.7-0.2,1c-0.2,0.3-0.4,0.5-0.6,0.6s-0.6,0.3-0.9,0.3s-0.6,0.1-1,0.1s-0.7,0-1-0.1
		s-0.6-0.2-0.9-0.4c-0.3-0.2-0.4-0.4-0.6-0.7c-0.1-0.3-0.2-0.6-0.2-1h1.1C247.7,521.8,247.8,522.1,247.8,522.2L247.8,522.2z"/>
	<path class="st3" d="M192.2,534.7v1h-3.6v-1H192.2z"/>
	<path class="st3" d="M210.7,529.7l3.5,8.8h-1.3l-1-2.7h-3.7l-1,2.7H206l3.4-8.8H210.7L210.7,529.7z M211.5,534.8l-1.5-4.1l0,0
		l-1.5,4.1H211.5z"/>
	<path class="st3" d="M215.9,532.2v0.9l0,0c0.5-0.7,1.2-1.1,2.1-1.1c0.4,0,0.8,0.1,1.1,0.2c0.3,0.1,0.6,0.5,0.7,0.8
		c0.2-0.3,0.5-0.6,0.9-0.8s0.7-0.3,1.2-0.3c0.3,0,0.6,0,0.9,0.1s0.5,0.2,0.7,0.3s0.3,0.3,0.4,0.6c0.1,0.2,0.1,0.5,0.1,0.8v4.7h-1.1
		v-4.2c0-0.2,0-0.4-0.1-0.6c0-0.2-0.1-0.3-0.2-0.5c-0.1-0.2-0.2-0.2-0.4-0.3s-0.4-0.1-0.6-0.1c-0.5,0-0.9,0.2-1.2,0.5
		s-0.4,0.7-0.4,1.2v4h-1.1v-4.2c0-0.2,0-0.4-0.1-0.6s-0.1-0.3-0.2-0.5c-0.1-0.2-0.2-0.2-0.4-0.3s-0.4-0.1-0.6-0.1
		c-0.3,0-0.6,0.1-0.8,0.2s-0.4,0.3-0.5,0.5s-0.2,0.3-0.3,0.5s-0.1,0.3-0.1,0.5v4h-1.1V532L215.9,532.2L215.9,532.2z"/>
	<path class="st3" d="M226.5,529.7v3.4l0,0c0.1-0.2,0.2-0.4,0.4-0.5c0.1-0.1,0.3-0.2,0.5-0.3s0.4-0.2,0.6-0.2s0.4-0.1,0.6-0.1
		c0.4,0,0.8,0.1,1.1,0.2s0.5,0.3,0.7,0.5s0.3,0.5,0.4,0.7c0.1,0.2,0.1,0.6,0.1,1v4.2h-1.1v-4.3c0-0.4-0.1-0.7-0.4-0.9
		c-0.2-0.2-0.6-0.3-0.9-0.3c-0.3,0-0.6,0-0.8,0.2c-0.2,0.1-0.4,0.2-0.6,0.4c-0.2,0.2-0.3,0.4-0.4,0.6c-0.1,0.2-0.1,0.5-0.1,0.8v3.6
		h-1.1v-8.8h1V529.7z"/>
	<path class="st3" d="M236.9,538.2c-0.5,0.4-1.1,0.5-1.8,0.5c-0.5,0-1-0.1-1.3-0.2c-0.3-0.1-0.7-0.4-0.9-0.7
		c-0.3-0.3-0.4-0.7-0.6-1.1c-0.1-0.4-0.2-0.9-0.2-1.3c0-0.5,0.1-0.9,0.2-1.3c0.1-0.4,0.4-0.8,0.6-1c0.3-0.3,0.6-0.5,0.9-0.7
		c0.3-0.2,0.8-0.2,1.2-0.2c0.6,0,1,0.1,1.4,0.3s0.7,0.5,0.9,0.9s0.4,0.8,0.5,1.2s0.1,0.8,0.1,1.2h-4.8c0,0.3,0,0.5,0.1,0.8
		c0.1,0.2,0.2,0.5,0.4,0.7s0.4,0.3,0.6,0.5c0.3,0.1,0.6,0.2,0.9,0.2c0.4,0,0.8-0.1,1.1-0.3s0.5-0.5,0.6-0.9h1
		C237.6,537.2,237.3,537.8,236.9,538.2L236.9,538.2z M236.6,534.1c-0.1-0.2-0.2-0.4-0.4-0.6s-0.4-0.3-0.6-0.4
		c-0.2-0.1-0.5-0.1-0.7-0.1s-0.5,0-0.7,0.1s-0.4,0.2-0.6,0.4c-0.2,0.2-0.3,0.4-0.4,0.6s-0.1,0.5-0.2,0.7h3.7
		C236.8,534.4,236.7,534.2,236.6,534.1L236.6,534.1z"/>
	<path class="st3" d="M239.9,532.2v1.3l0,0c0.3-0.5,0.6-0.9,0.9-1.2c0.4-0.2,0.8-0.4,1.4-0.3v1.1c-0.4,0-0.8,0.1-1.1,0.2
		c-0.3,0.1-0.5,0.3-0.7,0.5s-0.3,0.5-0.4,0.8c-0.1,0.3-0.1,0.7-0.1,1.1v2.8h-1.1V532L239.9,532.2L239.9,532.2z"/>
	<path class="st3" d="M243.9,537.2c0.1,0.2,0.2,0.3,0.4,0.4c0.2,0.1,0.3,0.2,0.6,0.2s0.4,0.1,0.6,0.1c0.2,0,0.3,0,0.5,0
		s0.4-0.1,0.5-0.1s0.3-0.2,0.4-0.3s0.1-0.3,0.1-0.5c0-0.3-0.1-0.5-0.3-0.6s-0.5-0.2-0.8-0.3s-0.6-0.2-1-0.2s-0.7-0.2-1-0.3
		s-0.6-0.3-0.8-0.5s-0.3-0.5-0.3-1c0-0.3,0.1-0.6,0.2-0.8c0.1-0.2,0.3-0.4,0.6-0.6s0.5-0.2,0.8-0.3s0.6-0.1,0.9-0.1
		c0.4,0,0.7,0,1,0.1s0.6,0.2,0.8,0.3c0.2,0.2,0.4,0.4,0.6,0.6s0.2,0.6,0.2,1h-1.1c0-0.2-0.1-0.4-0.2-0.5c-0.1-0.1-0.2-0.2-0.4-0.3
		s-0.3-0.1-0.5-0.2c-0.2-0.1-0.3-0.1-0.5-0.1s-0.3,0-0.5,0s-0.3,0.1-0.4,0.1s-0.2,0.1-0.3,0.2s-0.1,0.2-0.1,0.4s0.1,0.3,0.2,0.5
		c0.1,0.2,0.3,0.2,0.5,0.3s0.4,0.1,0.7,0.2c0.2,0,0.5,0.1,0.7,0.2c0.3,0.1,0.5,0.1,0.8,0.2c0.3,0.1,0.5,0.2,0.7,0.3s0.4,0.3,0.5,0.5
		s0.2,0.5,0.2,0.8c0,0.4-0.1,0.7-0.2,1c-0.2,0.3-0.4,0.5-0.6,0.6s-0.6,0.3-0.9,0.3s-0.6,0.1-1,0.1s-0.7,0-1-0.1s-0.6-0.2-0.9-0.4
		c-0.3-0.2-0.4-0.4-0.6-0.7c-0.1-0.3-0.2-0.6-0.2-1h1.1C243.8,536.8,243.8,536.9,243.9,537.2L243.9,537.2z"/>
	<path class="st3" d="M252.1,532.2v0.9h-1.3v4c0,0.1,0,0.2,0,0.3s0.1,0.1,0.1,0.2c0,0.1,0.1,0.1,0.2,0.1s0.2,0,0.4,0h0.5v0.9h-0.8
		c-0.3,0-0.5,0-0.7-0.1s-0.4-0.1-0.5-0.2c-0.1-0.1-0.2-0.2-0.3-0.4s-0.1-0.4-0.1-0.7v-4.1h-1.1v-0.9h1.1v-1.9h1.1v1.9H252.1
		L252.1,532.2z"/>
</g>
<line class="st6" x1="262.4" y1="561.1" x2="256.1" y2="561.1"/>
<text transform="matrix(1 0 0 1 58.57 565.22)" class="st7 st4 st5">University of Minnesota-</text>
<text transform="matrix(1 0 0 1 193.55 565.22)" class="st7 st4 st5">T</text>
<text transform="matrix(1 0 0 1 199.28 565.22)" class="st7 st4 st5">win Cities</text>
<rect x="262.4" y="62.4" class="st0" width="474.8" height="515.9"/>
<path id="point-0-0" class="st9" d="M262.4,67.6h445v24.1h-445L262.4,67.6L262.4,67.6z"/>
<path id="point-0-1" class="st9" d="M262.4,102h445v24.1h-445L262.4,102L262.4,102z"/>
<path id="point-0-2" class="st9" d="M262.4,136.4h440.3v24.1H262.4V136.4z"/>
<path id="point-0-3" class="st9" d="M262.4,170.8h430.8v24.1H262.4V170.8L262.4,170.8z"/>
<path id="point-0-4" class="st9" d="M262.4,205.1h426v24.1h-426L262.4,205.1L262.4,205.1z"/>
<path id="point-0-5" class="st10" d="M262.4,239.5h421.3v24.1H262.4V239.5L262.4,239.5z"/>
<path id="point-0-6" class="st9" d="M262.4,273.9h416.5V298H262.4V273.9z"/>
<path id="point-0-7" class="st10" d="M262.4,308.3h416.5v24.1H262.4V308.3z"/>
<path id="point-0-8" class="st9" d="M262.4,342.7h416.5v24.1H262.4V342.7z"/>
<path id="point-0-9" class="st9" d="M262.4,377.1h411.8v24.1H262.4V377.1z"/>
<path id="point-0-10" class="st10" d="M262.4,411.5h407v24.1h-407L262.4,411.5L262.4,411.5z"/>
<path id="point-0-11" class="st10" d="M262.4,445.9h402.3V470H262.4V445.9z"/>
<path id="point-0-12" class="st9" d="M262.4,480.3h397.5v24.1H262.4V480.3z"/>
<path id="point-0-13" class="st9" d="M262.4,514.7h397.5v24.1H262.4V514.7z"/>
<path id="point-0-14" class="st10" d="M262.4,549.1h397.5v24.1H262.4V549.1z"/>
<rect x="262.4" y="62.4" class="st0" width="474.8" height="515.9"/>
<path id="point-1-0" class="st11" d="M709.9,67.6h27.2v24.1h-27.2V67.6z"/>
<path id="point-1-1" class="st11" d="M709.9,102h27.2v24.1h-27.2V102z"/>
<path id="point-1-2" class="st11" d="M705.2,136.4h32v24.1h-32V136.4z"/>
<path id="point-1-3" class="st11" d="M695.7,170.8h41.5v24.1h-41.5V170.8L695.7,170.8z"/>
<path id="point-1-4" class="st11" d="M690.9,205.1h46.2v24.1h-46.2V205.1z"/>
<path id="point-1-5" class="st12" d="M686.2,239.5h51v24.1h-51V239.5L686.2,239.5z"/>
<path id="point-1-6" class="st11" d="M681.4,273.9h55.7V298h-55.7V273.9L681.4,273.9z"/>
<path id="point-1-7" class="st12" d="M681.4,308.3h55.7v24.1h-55.7V308.3L681.4,308.3z"/>
<path id="point-1-8" class="st11" d="M681.4,342.7h55.7v24.1h-55.7V342.7L681.4,342.7z"/>
<path id="point-1-9" class="st11" d="M676.7,377.1h60.5v24.1h-60.5V377.1L676.7,377.1z"/>
<path id="point-1-10" class="st12" d="M671.9,411.5h65.2v24.1h-65.2V411.5L671.9,411.5z"/>
<path id="point-1-11" class="st12" d="M667.2,445.9h70V470h-70V445.9z"/>
<path id="point-1-12" class="st11" d="M662.4,480.3h74.7v24.1h-74.7V480.3z"/>
<path id="point-1-13" class="st11" d="M662.4,514.7h74.7v24.1h-74.7V514.7z"/>
<path id="point-1-14" class="st12" d="M662.4,549.1h74.7v24.1h-74.7V549.1z"/>
<text transform="matrix(1 0 0 1 675.6899 84.3)" class="st4 st13">94%</text>
<text transform="matrix(1 0 0 1 675.6899 118.7)" class="st4 st13">94%</text>
<text transform="matrix(1 0 0 1 670.9399 153.09)" class="st4 st13">93%</text>
<text transform="matrix(1 0 0 1 661.45 187.48)" class="st4 st13">91%</text>
<text transform="matrix(1 0 0 1 656.7 221.87)" class="st4 st13">90%</text>
<text transform="matrix(1 0 0 1 651.95 256.26)" class="st4 st13">89%</text>
<text transform="matrix(1 0 0 1 647.21 290.65)" class="st4 st13">88%</text>
<text transform="matrix(1 0 0 1 647.21 325.04)" class="st4 st13">88%</text>
<text transform="matrix(1 0 0 1 647.21 359.43)" class="st4 st13">88%</text>
<text transform="matrix(1 0 0 1 642.46 393.82)" class="st4 st13">87%</text>
<text transform="matrix(1 0 0 1 637.71 428.21)" class="st4 st13">86%</text>
<text transform="matrix(1 0 0 1 632.96 462.6)" class="st4 st13">85%</text>
<text transform="matrix(1 0 0 1 628.21 496.99)" class="st4 st13">84%</text>
<text transform="matrix(1 0 0 1 628.21 531.38)" class="st4 st13">84%</text>
<text transform="matrix(1 0 0 1 628.21 565.77)" class="st4 st13">84%</text>
</svg>
