<?xml version="1.0" encoding="utf-8"?>
<!-- Generator: Adobe Illustrator 27.0.0, SVG Export Plug-In . SVG Version: 6.00 Build 0)  -->
<svg version="1.1" id="fl-legend-discrete-color-0-svg-screenshot-container"
	 xmlns="http://www.w3.org/2000/svg" xmlns:xlink="http://www.w3.org/1999/xlink" x="0px" y="0px" viewBox="0 0 720 1050.5"
	 style="enable-background:new 0 0 720 1050.5;" xml:space="preserve">
<style type="text/css">
	.st0{display:none;fill:none;stroke:#FF0000;}
	.st1{clip-path:url(#SVGID_00000052090475230226225260000003264031777027803039_);}
	
		.st2{opacity:0.7;clip-path:url(#SVGID_00000145757026141069103410000015738048023382060478_);fill:none;stroke:#DDDDDD;stroke-width:5.6;enable-background:new    ;}
	.st3{clip-path:url(#SVGID_00000046318321920722667700000008325951230195756680_);}
	
		.st4{opacity:0.7;clip-path:url(#SVGID_00000001641524437099314000000002492615023217300106_);fill:none;stroke:#DDDDDD;stroke-width:5.6;enable-background:new    ;}
	.st5{clip-path:url(#SVGID_00000179640522599921400190000014724626570015458996_);}
	
		.st6{opacity:0.7;clip-path:url(#SVGID_00000135666569977324446370000012993665603892257978_);fill:none;stroke:#DDDDDD;stroke-width:5.6;enable-background:new    ;}
	.st7{clip-path:url(#SVGID_00000116231274113401158430000001146356494764121023_);}
	
		.st8{opacity:0.7;clip-path:url(#SVGID_00000032634013506901840380000004689750881485357740_);fill:none;stroke:#DDDDDD;stroke-width:5.6;enable-background:new    ;}
	.st9{clip-path:url(#SVGID_00000003811834721055403120000004161660359319012503_);}
	
		.st10{opacity:0.7;clip-path:url(#SVGID_00000152954103043389713570000015902592712376805284_);fill:none;stroke:#DDDDDD;stroke-width:5.6;enable-background:new    ;}
	.st11{clip-path:url(#SVGID_00000075158998500963594900000006156494776817238706_);}
	
		.st12{opacity:0.7;clip-path:url(#SVGID_00000117677965693091790840000010209792568770791563_);fill:none;stroke:#DDDDDD;stroke-width:5.6;enable-background:new    ;}
	.st13{clip-path:url(#SVGID_00000161632486373332319550000013417259254748370623_);}
	
		.st14{opacity:0.7;clip-path:url(#SVGID_00000062173450042608273210000016592608847507649947_);fill:none;stroke:#DDDDDD;stroke-width:5.6;enable-background:new    ;}
	.st15{clip-path:url(#SVGID_00000004518986562340470440000004048186210113705383_);}
	
		.st16{opacity:0.7;clip-path:url(#SVGID_00000075851278212276824710000012957006328327738262_);fill:none;stroke:#DDDDDD;stroke-width:5.6;enable-background:new    ;}
	.st17{clip-path:url(#SVGID_00000137131507475803079150000006403181131618821546_);}
	
		.st18{opacity:0.7;clip-path:url(#SVGID_00000098215730014351448870000004335947556117815470_);fill:none;stroke:#DDDDDD;stroke-width:5.6;enable-background:new    ;}
	.st19{clip-path:url(#SVGID_00000059309745230953428800000015941775988444016829_);}
	
		.st20{opacity:0.7;clip-path:url(#SVGID_00000126303340498501349610000017186131565469505423_);fill:none;stroke:#DDDDDD;stroke-width:5.6;enable-background:new    ;}
	.st21{clip-path:url(#SVGID_00000047034577951743343610000016118244404625650611_);}
	
		.st22{opacity:0.7;clip-path:url(#SVGID_00000133525926031399661350000017365112336998613668_);fill:none;stroke:#DDDDDD;stroke-width:5.6;enable-background:new    ;}
	.st23{clip-path:url(#SVGID_00000095333542237810167600000016929427959388981920_);}
	
		.st24{opacity:0.7;clip-path:url(#SVGID_00000152950512254902427750000016753801736583422880_);fill:none;stroke:#DDDDDD;stroke-width:5.6;enable-background:new    ;}
	.st25{fill:none;stroke:#DDDDDD;}
	.st26{font-family:'HelveticaNeue';}
	.st27{font-size:19.3617px;}
	.st28{enable-background:new    ;}
	.st29{fill:#FFDB78;}
	.st30{font-size:19.9629px;}
	.st31{fill:#D1A347;}
	.st32{fill:none;stroke:#DDDDDD;stroke-width:5;stroke-miterlimit:10;}
	.st33{fill:#FFDB78;stroke:#FFDB78;stroke-width:1.4665;stroke-miterlimit:5.866;stroke-opacity:0;}
	.st34{fill:#D1A347;stroke:#D1A347;stroke-width:1.4665;stroke-miterlimit:5.866;stroke-opacity:0;}
	.st35{font-size:16.8917px;}
	.st36{fill:#FFFFFF;}
</style>
<rect x="-29.5" y="56.5" class="st0" width="775" height="508"/>
<g>
	<g>
		<defs>
			<polygon id="SVGID_1_" points="-26.5,57.5 -25.5,57.5 -26.5,58.5 			"/>
		</defs>
		<clipPath id="SVGID_00000148621463061443373990000014744773544807691926_">
			<use xlink:href="#SVGID_1_"  style="overflow:visible;"/>
		</clipPath>
	</g>
</g>
<g>
	<g>
		<g>
			<defs>
				<polygon id="SVGID_00000054963023337070399180000017717257053296714134_" points="-26.5,43.5 -25.5,43.5 -26.5,44.5 				"/>
			</defs>
			<clipPath id="SVGID_00000096745803675872748290000006927697669000379838_">
				<use xlink:href="#SVGID_00000054963023337070399180000017717257053296714134_"  style="overflow:visible;"/>
			</clipPath>
		</g>
		<g>
			<defs>
				<polygon id="SVGID_00000124157545109342987080000008346664289176085914_" points="-26.5,43.5 -25.5,43.5 -26.5,44.5 				"/>
			</defs>
			<defs>
				<polygon id="SVGID_00000017501333811682973620000015469997647063024049_" points="-28.5,41.5 -29.5,41.5 -28.5,40.5 				"/>
			</defs>
			<clipPath id="SVGID_00000029006468056004915820000008640857173691775664_">
				<use xlink:href="#SVGID_00000124157545109342987080000008346664289176085914_"  style="overflow:visible;"/>
			</clipPath>
			
				<clipPath id="SVGID_00000099648904743071321430000003350077502846059436_" style="clip-path:url(#SVGID_00000029006468056004915820000008640857173691775664_);">
				<use xlink:href="#SVGID_00000017501333811682973620000015469997647063024049_"  style="overflow:visible;"/>
			</clipPath>
			
				<path marker-end="url(#arrowhead-line-University-of-California-Berkeley-facet-)" style="opacity:0.7;clip-path:url(#SVGID_00000099648904743071321430000003350077502846059436_);fill:none;stroke:#DDDDDD;stroke-width:5.6;enable-background:new    ;" d="
				M370.1,81.6h358.1"/>
		</g>
	</g>
	<g>
		<g>
			<defs>
				<polygon id="SVGID_00000020382985574146164600000014273943740075131269_" points="-26.5,43.5 -25.5,43.5 -26.5,44.5 				"/>
			</defs>
			<clipPath id="SVGID_00000130604436456883071520000008927818081441030843_">
				<use xlink:href="#SVGID_00000020382985574146164600000014273943740075131269_"  style="overflow:visible;"/>
			</clipPath>
		</g>
		<g>
			<defs>
				<polygon id="SVGID_00000025426404782097963390000013148669092888568970_" points="-26.5,43.5 -25.5,43.5 -26.5,44.5 				"/>
			</defs>
			<defs>
				<polygon id="SVGID_00000122718319727857137020000012587652065737543595_" points="-28.5,41.5 -29.5,41.5 -28.5,40.5 				"/>
			</defs>
			<clipPath id="SVGID_00000178163115845305968370000015864614069444182675_">
				<use xlink:href="#SVGID_00000025426404782097963390000013148669092888568970_"  style="overflow:visible;"/>
			</clipPath>
			
				<clipPath id="SVGID_00000069369594356398944220000013983199772095032736_" style="clip-path:url(#SVGID_00000178163115845305968370000015864614069444182675_);">
				<use xlink:href="#SVGID_00000122718319727857137020000012587652065737543595_"  style="overflow:visible;"/>
			</clipPath>
			
				<path marker-end="url(#arrowhead-line-The-University-of-Texas-at-Austin-facet-)" style="opacity:0.7;clip-path:url(#SVGID_00000069369594356398944220000013983199772095032736_);fill:none;stroke:#DDDDDD;stroke-width:5.6;enable-background:new    ;" d="
				M464.9,118.2h242.2"/>
		</g>
	</g>
	<g>
		<g>
			<defs>
				<polygon id="SVGID_00000022537798945595792800000017936134519325833650_" points="-26.5,43.5 -25.5,43.5 -26.5,44.5 				"/>
			</defs>
			<clipPath id="SVGID_00000156572465121322290960000001513013407497894276_">
				<use xlink:href="#SVGID_00000022537798945595792800000017936134519325833650_"  style="overflow:visible;"/>
			</clipPath>
		</g>
		<g>
			<defs>
				<polygon id="SVGID_00000158028888956720994730000005198466324852434819_" points="-26.5,43.5 -25.5,43.5 -26.5,44.5 				"/>
			</defs>
			<defs>
				<polygon id="SVGID_00000090259590795895351480000008935340449204530619_" points="-28.5,41.5 -29.5,41.5 -28.5,40.5 				"/>
			</defs>
			<clipPath id="SVGID_00000176008751766302460630000009046159178358271403_">
				<use xlink:href="#SVGID_00000158028888956720994730000005198466324852434819_"  style="overflow:visible;"/>
			</clipPath>
			
				<clipPath id="SVGID_00000132052709715048982220000006277045049998697103_" style="clip-path:url(#SVGID_00000176008751766302460630000009046159178358271403_);">
				<use xlink:href="#SVGID_00000090259590795895351480000008935340449204530619_"  style="overflow:visible;"/>
			</clipPath>
			
				<path marker-end="url(#arrowhead-line-University-of-Colorado-Boulder-facet-)" style="opacity:0.7;clip-path:url(#SVGID_00000132052709715048982220000006277045049998697103_);fill:none;stroke:#DDDDDD;stroke-width:5.6;enable-background:new    ;" d="
				M306.9,154.9h210.6"/>
		</g>
	</g>
	<g>
		<g>
			<defs>
				<polygon id="SVGID_00000062901789837033316540000007291584392001737354_" points="-26.5,43.5 -25.5,43.5 -26.5,44.5 				"/>
			</defs>
			<clipPath id="SVGID_00000084512975908729336370000007191417019808242836_">
				<use xlink:href="#SVGID_00000062901789837033316540000007291584392001737354_"  style="overflow:visible;"/>
			</clipPath>
		</g>
		<g>
			<defs>
				<polygon id="SVGID_00000070091211736806801370000017747705932796684191_" points="-26.5,43.5 -25.5,43.5 -26.5,44.5 				"/>
			</defs>
			<defs>
				<polygon id="SVGID_00000164510247344729214640000005181164685187604641_" points="-28.5,41.5 -29.5,41.5 -28.5,40.5 				"/>
			</defs>
			<clipPath id="SVGID_00000148630931491460869150000013963280692792995993_">
				<use xlink:href="#SVGID_00000070091211736806801370000017747705932796684191_"  style="overflow:visible;"/>
			</clipPath>
			
				<clipPath id="SVGID_00000052077597527895279020000015597832074330280078_" style="clip-path:url(#SVGID_00000148630931491460869150000013963280692792995993_);">
				<use xlink:href="#SVGID_00000164510247344729214640000005181164685187604641_"  style="overflow:visible;"/>
			</clipPath>
			
				<path marker-end="url(#arrowhead-line-University-of-Arizona-facet-)" style="opacity:0.7;clip-path:url(#SVGID_00000052077597527895279020000015597832074330280078_);fill:none;stroke:#DDDDDD;stroke-width:5.6;enable-background:new    ;" d="
				M454.4,191.6h179"/>
		</g>
	</g>
	<g>
		<g>
			<defs>
				<polygon id="SVGID_00000145779374782917886190000008858433773271889816_" points="-26.5,43.5 -25.5,43.5 -26.5,44.5 				"/>
			</defs>
			<clipPath id="SVGID_00000037674782640892360490000001468723392104070808_">
				<use xlink:href="#SVGID_00000145779374782917886190000008858433773271889816_"  style="overflow:visible;"/>
			</clipPath>
		</g>
		<g>
			<defs>
				<polygon id="SVGID_00000023281030194830661510000007299566618203931838_" points="-26.5,43.5 -25.5,43.5 -26.5,44.5 				"/>
			</defs>
			<defs>
				<polygon id="SVGID_00000114034675307018100240000010681919727432540070_" points="-28.5,41.5 -29.5,41.5 -28.5,40.5 				"/>
			</defs>
			<clipPath id="SVGID_00000010308466814829974000000006125687318726841496_">
				<use xlink:href="#SVGID_00000023281030194830661510000007299566618203931838_"  style="overflow:visible;"/>
			</clipPath>
			
				<clipPath id="SVGID_00000016057394992669772020000016762012879508063885_" style="clip-path:url(#SVGID_00000010308466814829974000000006125687318726841496_);">
				<use xlink:href="#SVGID_00000114034675307018100240000010681919727432540070_"  style="overflow:visible;"/>
			</clipPath>
			
				<path marker-end="url(#arrowhead-line-University-of-Nevada-Reno-facet-)" style="opacity:0.7;clip-path:url(#SVGID_00000016057394992669772020000016762012879508063885_);fill:none;stroke:#DDDDDD;stroke-width:5.6;enable-background:new    ;" d="
				M422.8,228.2h179"/>
		</g>
	</g>
	<g>
		<g>
			<defs>
				<polygon id="SVGID_00000155857660000301148910000012411668879326864525_" points="-26.5,43.5 -25.5,43.5 -26.5,44.5 				"/>
			</defs>
			<clipPath id="SVGID_00000010280619593989402280000008529002457415986095_">
				<use xlink:href="#SVGID_00000155857660000301148910000012411668879326864525_"  style="overflow:visible;"/>
			</clipPath>
		</g>
		<g>
			<defs>
				<polygon id="SVGID_00000183965575951298168430000008144507238325099396_" points="-26.5,43.5 -25.5,43.5 -26.5,44.5 				"/>
			</defs>
			<defs>
				<polygon id="SVGID_00000147931798137188349440000004816265495362596771_" points="-28.5,41.5 -29.5,41.5 -28.5,40.5 				"/>
			</defs>
			<clipPath id="SVGID_00000134217632801894797970000010869016397737482151_">
				<use xlink:href="#SVGID_00000183965575951298168430000008144507238325099396_"  style="overflow:visible;"/>
			</clipPath>
			
				<clipPath id="SVGID_00000129904605699758968910000009880464574073570751_" style="clip-path:url(#SVGID_00000134217632801894797970000010869016397737482151_);">
				<use xlink:href="#SVGID_00000147931798137188349440000004816265495362596771_"  style="overflow:visible;"/>
			</clipPath>
			
				<path marker-end="url(#arrowhead-line-University-at-Buffalo-facet-)" style="opacity:0.7;clip-path:url(#SVGID_00000129904605699758968910000009880464574073570751_);fill:none;stroke:#DDDDDD;stroke-width:5.6;enable-background:new    ;" d="
				M264.8,264.9h168.5"/>
		</g>
	</g>
	<g>
		<g>
			<defs>
				<polygon id="SVGID_00000005234110173466786980000004090484184541985417_" points="-26.5,43.5 -25.5,43.5 -26.5,44.5 				"/>
			</defs>
			<clipPath id="SVGID_00000152962967944193189060000005655578942561225900_">
				<use xlink:href="#SVGID_00000005234110173466786980000004090484184541985417_"  style="overflow:visible;"/>
			</clipPath>
		</g>
		<g>
			<defs>
				<polygon id="SVGID_00000062887865468395920660000003354484860028058021_" points="-26.5,43.5 -25.5,43.5 -26.5,44.5 				"/>
			</defs>
			<defs>
				<polygon id="SVGID_00000169521585500012900570000016375013464041824906_" points="-28.5,41.5 -29.5,41.5 -28.5,40.5 				"/>
			</defs>
			<clipPath id="SVGID_00000003784036148990705770000001168536557792263067_">
				<use xlink:href="#SVGID_00000062887865468395920660000003354484860028058021_"  style="overflow:visible;"/>
			</clipPath>
			
				<clipPath id="SVGID_00000040532487377156758500000017937858302554048660_" style="clip-path:url(#SVGID_00000003784036148990705770000001168536557792263067_);">
				<use xlink:href="#SVGID_00000169521585500012900570000016375013464041824906_"  style="overflow:visible;"/>
			</clipPath>
			
				<path marker-end="url(#arrowhead-line-University-of-Rhode-Island-facet-)" style="opacity:0.7;clip-path:url(#SVGID_00000040532487377156758500000017937858302554048660_);fill:none;stroke:#DDDDDD;stroke-width:5.6;enable-background:new    ;" d="
				M275.3,301.6h168.5"/>
		</g>
	</g>
	<g>
		<g>
			<defs>
				<polygon id="SVGID_00000050625551438019872580000003651611371118809250_" points="-26.5,43.5 -25.5,43.5 -26.5,44.5 				"/>
			</defs>
			<clipPath id="SVGID_00000029046892533164550990000007022984613291403956_">
				<use xlink:href="#SVGID_00000050625551438019872580000003651611371118809250_"  style="overflow:visible;"/>
			</clipPath>
		</g>
		<g>
			<defs>
				<polygon id="SVGID_00000055689658583164647080000009050778747473712791_" points="-26.5,43.5 -25.5,43.5 -26.5,44.5 				"/>
			</defs>
			<defs>
				<polygon id="SVGID_00000063633633246590163230000016692195892641967752_" points="-28.5,41.5 -29.5,41.5 -28.5,40.5 				"/>
			</defs>
			<clipPath id="SVGID_00000094603818420613099350000011073566808297983925_">
				<use xlink:href="#SVGID_00000055689658583164647080000009050778747473712791_"  style="overflow:visible;"/>
			</clipPath>
			
				<clipPath id="SVGID_00000165930848879415515490000005573592438608805043_" style="clip-path:url(#SVGID_00000094603818420613099350000011073566808297983925_);">
				<use xlink:href="#SVGID_00000063633633246590163230000016692195892641967752_"  style="overflow:visible;"/>
			</clipPath>
			
				<path marker-end="url(#arrowhead-line-Rutgers-University-New-Brunswick-facet-)" style="opacity:0.7;clip-path:url(#SVGID_00000165930848879415515490000005573592438608805043_);fill:none;stroke:#DDDDDD;stroke-width:5.6;enable-background:new    ;" d="
				M306.9,338.2h147.4"/>
		</g>
	</g>
	<g>
		<g>
			<defs>
				<polygon id="SVGID_00000021091233569969335550000014062110295412256162_" points="-26.5,43.5 -25.5,43.5 -26.5,44.5 				"/>
			</defs>
			<clipPath id="SVGID_00000022556952862921740130000011959628169089004161_">
				<use xlink:href="#SVGID_00000021091233569969335550000014062110295412256162_"  style="overflow:visible;"/>
			</clipPath>
		</g>
		<g>
			<defs>
				<polygon id="SVGID_00000122708042897638102740000015469927796414195344_" points="-26.5,43.5 -25.5,43.5 -26.5,44.5 				"/>
			</defs>
			<defs>
				<polygon id="SVGID_00000047021217526468935030000011554771384058491281_" points="-28.5,41.5 -29.5,41.5 -28.5,40.5 				"/>
			</defs>
			<clipPath id="SVGID_00000006706647078958961280000013021920833118378654_">
				<use xlink:href="#SVGID_00000122708042897638102740000015469927796414195344_"  style="overflow:visible;"/>
			</clipPath>
			
				<clipPath id="SVGID_00000125598850421323744990000000704914284008816797_" style="clip-path:url(#SVGID_00000006706647078958961280000013021920833118378654_);">
				<use xlink:href="#SVGID_00000047021217526468935030000011554771384058491281_"  style="overflow:visible;"/>
			</clipPath>
			
				<path marker-end="url(#arrowhead-line-University-of-Florida-facet-)" style="opacity:0.7;clip-path:url(#SVGID_00000125598850421323744990000000704914284008816797_);fill:none;stroke:#DDDDDD;stroke-width:5.6;enable-background:new    ;" d="
				M401.7,374.9H507"/>
		</g>
	</g>
	<g>
		<g>
			<defs>
				<polygon id="SVGID_00000052091086583961521140000007141340116657940892_" points="-26.5,43.5 -25.5,43.5 -26.5,44.5 				"/>
			</defs>
			<clipPath id="SVGID_00000010268544069538433050000014842839528492668315_">
				<use xlink:href="#SVGID_00000052091086583961521140000007141340116657940892_"  style="overflow:visible;"/>
			</clipPath>
		</g>
		<g>
			<defs>
				<polygon id="SVGID_00000065074435239537993790000015389620164544462236_" points="-26.5,43.5 -25.5,43.5 -26.5,44.5 				"/>
			</defs>
			<defs>
				<polygon id="SVGID_00000089564110650390957100000005234166798604598714_" points="-28.5,41.5 -29.5,41.5 -28.5,40.5 				"/>
			</defs>
			<clipPath id="SVGID_00000158004136877971508370000015228146388143853729_">
				<use xlink:href="#SVGID_00000065074435239537993790000015389620164544462236_"  style="overflow:visible;"/>
			</clipPath>
			
				<clipPath id="SVGID_00000051364090675664477750000015699811361684812728_" style="clip-path:url(#SVGID_00000158004136877971508370000015228146388143853729_);">
				<use xlink:href="#SVGID_00000089564110650390957100000005234166798604598714_"  style="overflow:visible;"/>
			</clipPath>
			
				<path marker-end="url(#arrowhead-line-University-of-Nebraska-Lincoln-facet-)" style="opacity:0.7;clip-path:url(#SVGID_00000051364090675664477750000015699811361684812728_);fill:none;stroke:#DDDDDD;stroke-width:5.6;enable-background:new    ;" d="
				M254.3,411.5h105.3"/>
		</g>
	</g>
	<g>
		<g>
			<defs>
				<polygon id="SVGID_00000018238279748605252760000005442760446927975336_" points="-26.5,43.5 -25.5,43.5 -26.5,44.5 				"/>
			</defs>
			<clipPath id="SVGID_00000114793916637073938050000015304036751194281345_">
				<use xlink:href="#SVGID_00000018238279748605252760000005442760446927975336_"  style="overflow:visible;"/>
			</clipPath>
		</g>
		<g>
			<defs>
				<polygon id="SVGID_00000074425126293286943110000011721723712145164201_" points="-26.5,43.5 -25.5,43.5 -26.5,44.5 				"/>
			</defs>
			<defs>
				<polygon id="SVGID_00000092442175993594534690000003687266903920334014_" points="-28.5,41.5 -29.5,41.5 -28.5,40.5 				"/>
			</defs>
			<clipPath id="SVGID_00000102544647613738629170000013482929305127839892_">
				<use xlink:href="#SVGID_00000074425126293286943110000011721723712145164201_"  style="overflow:visible;"/>
			</clipPath>
			
				<clipPath id="SVGID_00000042729093491579440850000001950722969805931439_" style="clip-path:url(#SVGID_00000102544647613738629170000013482929305127839892_);">
				<use xlink:href="#SVGID_00000092442175993594534690000003687266903920334014_"  style="overflow:visible;"/>
			</clipPath>
			
				<path marker-end="url(#arrowhead-line-University-of-Massachusetts-Amherst-facet-)" style="opacity:0.7;clip-path:url(#SVGID_00000042729093491579440850000001950722969805931439_);fill:none;stroke:#DDDDDD;stroke-width:5.6;enable-background:new    ;" d="
				M264.8,448.2h105.3"/>
		</g>
	</g>
	<g>
		<g>
			<defs>
				<polygon id="SVGID_00000146457575774353813280000004568839486282044566_" points="-26.5,43.5 -25.5,43.5 -26.5,44.5 				"/>
			</defs>
			<clipPath id="SVGID_00000066481381236601863970000002687152877526332314_">
				<use xlink:href="#SVGID_00000146457575774353813280000004568839486282044566_"  style="overflow:visible;"/>
			</clipPath>
		</g>
		<g>
			<defs>
				<polygon id="SVGID_00000049194235861812797230000014886731420442953361_" points="-26.5,43.5 -25.5,43.5 -26.5,44.5 				"/>
			</defs>
			<defs>
				<polygon id="SVGID_00000057853254178670110960000016107309076831148687_" points="-28.5,41.5 -29.5,41.5 -28.5,40.5 				"/>
			</defs>
			<clipPath id="SVGID_00000101064729917846172460000015371367585481601963_">
				<use xlink:href="#SVGID_00000049194235861812797230000014886731420442953361_"  style="overflow:visible;"/>
			</clipPath>
			
				<clipPath id="SVGID_00000182521159660578336930000000952638653407082415_" style="clip-path:url(#SVGID_00000101064729917846172460000015371367585481601963_);">
				<use xlink:href="#SVGID_00000057853254178670110960000016107309076831148687_"  style="overflow:visible;"/>
			</clipPath>
			
				<path marker-end="url(#arrowhead-line-University-of-Kansas-facet-)" style="opacity:0.7;clip-path:url(#SVGID_00000182521159660578336930000000952638653407082415_);fill:none;stroke:#DDDDDD;stroke-width:5.6;enable-background:new    ;" d="
				M254.3,484.9h115.8"/>
		</g>
	</g>
</g>
<line class="st25" x1="96.3" y1="165" x2="96.3" y2="142"/>
<text transform="matrix(1 0 0 1 40.8554 62.3684)" class="st26 st27">University of California-Berkeley</text>
<line class="st25" x1="629.4" y1="165" x2="629.4" y2="142"/>
<text transform="matrix(1 0 0 1 96.2729 113.595)" class="st28"><tspan x="0" y="0" class="st29 st26 st30">Percent of freshmen</tspan><tspan x="0" y="24" class="st29 st26 st30">who are Hispanic</tspan></text>
<text transform="matrix(1 0 0 1 477.542 89.6379)" class="st31 st26 st30">Percent of public</text>
<text transform="matrix(1 0 0 1 431.6269 113.593)" class="st31 st26 st30">high school graduates</text>
<text transform="matrix(1 0 0 1 413.1992 137.5481)" class="st31 st26 st30">who are Hispanic/Latino</text>
<line class="st32" x1="96.1" y1="166.2" x2="629.7" y2="166.2"/>
<path id="dot-0" vector-effect="non-scaling-stroke" class="st33" d="M105.2,166.2c0,4.9-4,8.9-8.9,8.9c-4.9,0-8.9-4-8.9-8.9
	s4-8.9,8.9-8.9C101,157.2,105.2,161.2,105.2,166.2"/>
<path id="dot-1" vector-effect="non-scaling-stroke" class="st34" d="M638.3,166.2c0,4.9-4,8.9-8.9,8.9c-4.9,0-8.9-4-8.9-8.9
	s4-8.9,8.9-8.9C634.4,157.3,638.3,161.2,638.3,166.2"/>
<text transform="matrix(1 0 0 1 42.2881 173.1184)" class="st29 st26 st35">20%</text>
<text transform="matrix(1 0 0 1 647.626 173.1184)" class="st31 st26 st35">54%</text>
<g>
	<text transform="matrix(1 0 0 1 42.2881 213.6497)" class="st26 st27">The University of Texas at Austin</text>
	<g>
		<line class="st32" x1="93.5" y1="241.9" x2="457" y2="241.9"/>
		<path id="dot-2" vector-effect="non-scaling-stroke" class="st33" d="M105.2,241.9c0,4.9-4,8.9-8.9,8.9c-4.9,0-8.9-4-8.9-8.9
			s4-8.9,8.9-8.9C101.2,233,105.2,237,105.2,241.9"/>
		<path id="dot-3" vector-effect="non-scaling-stroke" class="st34" d="M465.9,241.9c0,4.9-4,8.9-8.9,8.9s-8.9-4-8.9-8.9
			s4-8.9,8.9-8.9S465.9,237,465.9,241.9"/>
		<text transform="matrix(1 0 0 1 42.3266 248.1389)" class="st29 st26 st35">29%</text>
		<text transform="matrix(1 0 0 1 475.1284 248.1389)" class="st31 st26 st35">52%</text>
	</g>
</g>
<g>
	<text transform="matrix(1 0 0 1 433.1665 323.1555)" class="st31 st26 st35">34%</text>
	<g>
		<text transform="matrix(1 0 0 1 42.3657 962.3782)" class="st26 st27">University of Kansas</text>
		<text transform="matrix(1 0 0 1 42.3657 887.9407)" class="st26 st27">University of Massachusetts-Amherst</text>
		<text transform="matrix(1 0 0 1 42.3657 813.2571)" class="st26 st27">University of Nebraska-Lincoln</text>
		<text transform="matrix(1 0 0 1 42.3652 738.2708)" class="st26 st27">University of Florida</text>
		<text transform="matrix(1 0 0 1 42.2881 663.5735)" class="st26 st27">Rutgers University-New Brunswick</text>
		<text transform="matrix(1 0 0 1 42.3657 588.719)" class="st26 st27">University of Rhode Island</text>
		<text transform="matrix(1 0 0 1 42.3657 513.7854)" class="st26 st27">University at Buffalo</text>
		<text transform="matrix(1 0 0 1 42.3647 438.802)" class="st26 st27">University of Nevada-Reno</text>
		<text transform="matrix(1 0 0 1 42.3647 363.7551)" class="st26 st27">University of Arizona</text>
		<text transform="matrix(1 0 0 1 42.3647 288.845)" class="st26 st27">University of Colorado Boulder</text>
		<line class="st32" x1="97.6" y1="317.1" x2="413" y2="317.1"/>
		<path id="dot-4" vector-effect="non-scaling-stroke" class="st33" d="M106.7,317.1c0,4.9-4,8.9-8.9,8.9c-4.9,0-8.9-4-8.9-8.9
			s4-8.9,8.9-8.9C102.7,308.1,106.7,312,106.7,317.1"/>
		<text transform="matrix(1 0 0 1 43.7983 323.2239)" class="st29 st26 st35">14%</text>
		<line class="st32" x1="97.6" y1="392" x2="364.3" y2="392"/>
		<path id="dot-6" vector-effect="non-scaling-stroke" class="st33" d="M106.7,392c0,4.9-4,8.9-8.9,8.9c-4.9,0-8.9-4-8.9-8.9
			s4-8.9,8.9-8.9C102.7,383.1,106.7,387.1,106.7,392"/>
		<path id="dot-7" vector-effect="non-scaling-stroke" class="st34" d="M373.2,392c0,4.9-4,8.9-8.9,8.9s-8.9-4-8.9-8.9
			s4-8.9,8.9-8.9C369.3,383.1,373.2,387.1,373.2,392"/>
		<text transform="matrix(1 0 0 1 43.7983 398.2708)" class="st29 st26 st35">28%</text>
		<text transform="matrix(1 0 0 1 382.4897 398.2034)" class="st31 st26 st35">45%</text>
		<line class="st32" x1="98" y1="467.1" x2="364.3" y2="467.1"/>
		<path id="dot-8" vector-effect="non-scaling-stroke" class="st33" d="M106.6,467.1c0,4.9-4,8.9-8.9,8.9c-4.9,0-8.9-4-8.9-8.9
			s4-8.9,8.9-8.9C102.6,458.2,106.6,462.2,106.6,467.1"/>
		<path id="dot-9" vector-effect="non-scaling-stroke" class="st34" d="M373.3,467.1c0,4.9-4,8.9-8.9,8.9s-8.9-4-8.9-8.9
			s4-8.9,8.9-8.9S373.3,462.2,373.3,467.1"/>
		<text transform="matrix(1 0 0 1 43.7983 473.2551)" class="st29 st26 st35">25%</text>
		<text transform="matrix(1 0 0 1 382.4887 473.1868)" class="st31 st26 st35">42%</text>
		<line class="st32" x1="98" y1="542.2" x2="350.8" y2="542.2"/>
		<path id="dot-10" vector-effect="non-scaling-stroke" class="st33" d="M106.6,542.1c0,4.9-4,8.9-8.9,8.9c-4.9,0-8.9-4-8.9-8.9
			c0-4.9,4-8.9,8.9-8.9C102.6,533,106.6,537,106.6,542.1"/>
		<path id="dot-11" vector-effect="non-scaling-stroke" class="st34" d="M357.5,542.1c0,4.9-4,8.9-8.9,8.9c-4.9,0-8.9-4-8.9-8.9
			c0-4.9,4-8.9,8.9-8.9C353.5,533,357.5,537,357.5,542.1"/>
		<text transform="matrix(1 0 0 1 43.7978 548.1868)" class="st29 st26 st35">10%</text>
		<text transform="matrix(1 0 0 1 366.8042 548.1184)" class="st31 st26 st35">26%</text>
		<line class="st32" x1="96.3" y1="617.4" x2="348.6" y2="617.4"/>
		<path id="dot-12" vector-effect="non-scaling-stroke" class="st33" d="M106.6,617c0,4.9-4,8.9-8.9,8.9c-4.9,0-8.9-4-8.9-8.9
			s4-8.9,8.9-8.9C102.6,608.1,106.6,612.1,106.6,617"/>
		<path id="dot-13" vector-effect="non-scaling-stroke" class="st34" d="M357.7,617c0,4.9-4,8.9-8.9,8.9c-4.9,0-8.9-4-8.9-8.9
			s4-8.9,8.9-8.9C353.5,608.1,357.7,612.1,357.7,617"/>
		<text transform="matrix(1 0 0 1 43.7978 623.1965)" class="st29 st26 st35">11%</text>
		<text transform="matrix(1 0 0 1 366.8032 623.1301)" class="st31 st26 st35">27%</text>
		<line class="st32" x1="97.6" y1="691.9" x2="317.2" y2="691.9"/>
		<g>
			<path id="dot-14" vector-effect="non-scaling-stroke" class="st33" d="M106.7,691.9c0,4.9-4,8.9-8.9,8.9c-4.9,0-8.9-4-8.9-8.9
				c0-4.9,4-8.9,8.9-8.9C102.7,682.8,106.7,686.8,106.7,691.9"/>
			<path id="dot-15" vector-effect="non-scaling-stroke" class="st34" d="M326.3,691.9c0,4.9-4,8.9-8.9,8.9c-4.9,0-8.9-4-8.9-8.9
				c0-4.9,4-8.9,8.9-8.9C322.3,682.8,326.3,686.8,326.3,691.9"/>
			<text transform="matrix(1 0 0 1 43.7983 697.7385)" class="st29 st26 st35">14%</text>
			<text transform="matrix(1 0 0 1 335.4341 697.6711)" class="st31 st26 st35">28%</text>
		</g>
		<line class="st32" x1="95.4" y1="766.5" x2="256.8" y2="766.5"/>
		<path id="dot-16" vector-effect="non-scaling-stroke" class="st33" d="M106.6,766.5c0,4.9-4,8.9-8.9,8.9c-4.9,0-8.9-4-8.9-8.9
			c0-4.9,4-8.9,8.9-8.9C102.6,757.6,106.6,761.6,106.6,766.5"/>
		<path id="dot-17" vector-effect="non-scaling-stroke" class="st34" d="M263.4,766.5c0,4.9-4,8.9-8.9,8.9c-4.9,0-8.9-4-8.9-8.9
			c0-4.9,4-8.9,8.9-8.9C259.4,757.6,263.4,761.6,263.4,766.5"/>
		<text transform="matrix(1 0 0 1 43.7978 772.7249)" class="st29 st26 st35">23%</text>
		<text transform="matrix(1 0 0 1 272.6938 772.6575)" class="st31 st26 st35">33%</text>
		<line class="st32" x1="86.8" y1="841.5" x2="245.1" y2="841.5"/>
		<path id="dot-18" vector-effect="non-scaling-stroke" class="st33" d="M97.2,841.5c0,4.9-4,8.9-8.9,8.9c-4.9,0-8.9-4-8.9-8.9
			c0-4.9,4-8.9,8.9-8.9C93.2,832.5,97.2,836.6,97.2,841.5"/>
		<path id="dot-19" vector-effect="non-scaling-stroke" class="st34" d="M254,841.5c0,4.9-4,8.9-8.9,8.9c-4.9,0-8.9-4-8.9-8.9
			c0-4.9,4-8.9,8.9-8.9C250,832.5,254,836.6,254,841.5"/>
		<text transform="matrix(1 0 0 1 43.7978 847.4075)" class="st29 st26 st35">9%</text>
		<text transform="matrix(1 0 0 1 263.3027 847.3411)" class="st31 st26 st35">19%</text>
		<line class="st32" x1="97.1" y1="916.5" x2="254.5" y2="916.5"/>
		<g>
			<path id="dot-20" vector-effect="non-scaling-stroke" class="st33" d="M106.6,916.8c0,4.9-4,8.9-8.9,8.9c-4.9,0-8.9-4-8.9-8.9
				c0-4.9,4-8.9,8.9-8.9C102.6,907.9,106.6,911.9,106.6,916.8"/>
			<path id="dot-21" vector-effect="non-scaling-stroke" class="st34" d="M263.5,916.8c0,4.9-4,8.9-8.9,8.9c-4.9,0-8.9-4-8.9-8.9
				c0-4.9,4-8.9,8.9-8.9C259.4,907.9,263.5,911.9,263.5,916.8"/>
			<text transform="matrix(1 0 0 1 43.7983 921.8469)" class="st29 st26 st35">10%</text>
			<text transform="matrix(1 0 0 1 272.6928 921.7795)" class="st31 st26 st35">20%</text>
		</g>
		<line class="st32" x1="87.9" y1="990.6" x2="260.8" y2="990.6"/>
		<g>
			<path id="dot-22" vector-effect="non-scaling-stroke" class="st33" d="M97.2,990.6c0,4.9-4,8.9-8.9,8.9c-4.9,0-8.9-4-8.9-8.9
				s4-8.9,8.9-8.9C93.2,981.7,97.2,985.7,97.2,990.6"/>
			<path id="dot-23" vector-effect="non-scaling-stroke" class="st34" d="M269.8,990.6c0,4.9-4,8.9-8.9,8.9c-4.9,0-8.9-4-8.9-8.9
				s4-8.9,8.9-8.9C265.7,981.7,269.8,985.7,269.8,990.6"/>
			<text transform="matrix(1 0 0 1 43.7983 996.552)" class="st29 st26 st35">9%</text>
			<text transform="matrix(1 0 0 1 278.9868 996.4846)" class="st31 st26 st35">20%</text>
		</g>
	</g>
	<path id="dot-5" vector-effect="non-scaling-stroke" class="st34" d="M424,317.1c0,4.9-4,8.9-8.9,8.9s-8.9-4-8.9-8.9s4-8.9,8.9-8.9
		C419.9,308.1,424,312,424,317.1"/>
</g>
<rect x="22.9" y="264.9" class="st36" width="659" height="763"/>
</svg>
