<?xml version="1.0" encoding="utf-8"?>
<!-- Generator: Adobe Illustrator 27.0.0, SVG Export Plug-In . SVG Version: 6.00 Build 0)  -->
<svg version="1.1" id="fl-legend-discrete-color-0-svg-screenshot-container"
	 xmlns="http://www.w3.org/2000/svg" xmlns:xlink="http://www.w3.org/1999/xlink" x="0px" y="0px" viewBox="0 0 720 1050.4"
	 style="enable-background:new 0 0 720 1050.4;" xml:space="preserve">
<style type="text/css">
	.st0{clip-path:url(#SVGID_00000016039158809858849840000017142843121845204404_);}
	.st1{clip-path:url(#SVGID_00000168808903015478394910000007977218139155818147_);}
	.st2{opacity:0.7;fill:none;stroke:#DDDDDD;stroke-width:5.6;enable-background:new    ;}
	.st3{clip-path:url(#SVGID_00000168839906032989964670000004213291408555003569_);}
	.st4{clip-path:url(#SVGID_00000169528909705951381060000006171296077197880733_);}
	.st5{clip-path:url(#SVGID_00000165943360802265551300000017717703959898164876_);}
	.st6{clip-path:url(#SVGID_00000046315872632340457200000017012761667848433812_);}
	.st7{clip-path:url(#SVGID_00000062910658245095426930000016052398088490049710_);}
	.st8{clip-path:url(#SVGID_00000104678171626918957540000009587830816315224730_);}
	.st9{clip-path:url(#SVGID_00000075844893547713121890000007595168232512635801_);}
	.st10{clip-path:url(#SVGID_00000039820503778145712020000003649789487337943733_);}
	.st11{clip-path:url(#SVGID_00000004543141627535741960000000889360454274278285_);}
	.st12{clip-path:url(#SVGID_00000068643677525966965580000009033867245386479495_);}
	.st13{clip-path:url(#SVGID_00000096049738850257927360000006785876803210413976_);}
	.st14{clip-path:url(#SVGID_00000072985474030422598960000014496858647248192398_);}
	.st15{clip-path:url(#SVGID_00000086680771485691701780000012800885066415431611_);}
	.st16{clip-path:url(#SVGID_00000129895341551150622770000012510631604524701580_);}
	.st17{clip-path:url(#SVGID_00000095331301628725123950000005982491042613314462_);}
	.st18{clip-path:url(#SVGID_00000105407507669314060740000011530952782853113775_);}
	.st19{clip-path:url(#SVGID_00000060749242519326645510000008995226728403837106_);}
	.st20{clip-path:url(#SVGID_00000066485372906710820130000002054934485529253513_);}
	.st21{clip-path:url(#SVGID_00000075123207640373231880000007733588293024757436_);}
	.st22{clip-path:url(#SVGID_00000000908452457372993670000010605591596965461438_);}
	.st23{clip-path:url(#SVGID_00000034051863269767437690000011015651796245672580_);}
	.st24{clip-path:url(#SVGID_00000036232605198344922940000005068918323839999119_);}
	.st25{fill:none;stroke:#DDDDDD;}
	.st26{font-family:'HelveticaNeue';}
	.st27{font-size:19.36px;}
	.st28{fill:#FFDB78;}
	.st29{font-size:19.96px;}
	.st30{fill:#D1A347;}
	.st31{fill:none;stroke:#DDDDDD;stroke-width:5;stroke-miterlimit:10;}
	.st32{font-size:16.89px;}
	.st33{fill:#FFFFFF;}
</style>
<g>
	<g>
		<defs>
			<polygon id="SVGID_1_" points="-26.5,43.5 -25.5,43.5 -26.5,44.5 			"/>
		</defs>
		<defs>
			<polygon id="SVGID_00000044859980277093026180000013118494671078219136_" points="-28.5,41.5 -29.5,41.5 -28.5,40.5 			"/>
		</defs>
		<clipPath id="SVGID_00000078729932987577591810000000554129436546981809_">
			<use xlink:href="#SVGID_1_"  style="overflow:visible;"/>
		</clipPath>
		
			<clipPath id="SVGID_00000016773721815417614010000008668355057025501883_" style="clip-path:url(#SVGID_00000078729932987577591810000000554129436546981809_);">
			<use xlink:href="#SVGID_00000044859980277093026180000013118494671078219136_"  style="overflow:visible;"/>
		</clipPath>
		<g style="clip-path:url(#SVGID_00000016773721815417614010000008668355057025501883_);">
			<path marker-end="url(#arrowhead-line-University-of-California-Berkeley-facet-)" class="st2" d="M370.1,81.6h358.1"/>
		</g>
	</g>
	<g>
		<defs>
			<polygon id="SVGID_00000050653343034272211960000011377046078908298631_" points="-26.5,43.5 -25.5,43.5 -26.5,44.5 			"/>
		</defs>
		<defs>
			<polygon id="SVGID_00000037685980761726410760000003232403121230807710_" points="-28.5,41.5 -29.5,41.5 -28.5,40.5 			"/>
		</defs>
		<clipPath id="SVGID_00000178890119574850507360000012468791291029857433_">
			<use xlink:href="#SVGID_00000050653343034272211960000011377046078908298631_"  style="overflow:visible;"/>
		</clipPath>
		
			<clipPath id="SVGID_00000099657155789681912530000009958698856002139583_" style="clip-path:url(#SVGID_00000178890119574850507360000012468791291029857433_);">
			<use xlink:href="#SVGID_00000037685980761726410760000003232403121230807710_"  style="overflow:visible;"/>
		</clipPath>
		<g style="clip-path:url(#SVGID_00000099657155789681912530000009958698856002139583_);">
			<path marker-end="url(#arrowhead-line-The-University-of-Texas-at-Austin-facet-)" class="st2" d="M464.9,118.2h242.2"/>
		</g>
	</g>
	<g>
		<defs>
			<polygon id="SVGID_00000024719742558920976710000015052542478646263995_" points="-26.5,43.5 -25.5,43.5 -26.5,44.5 			"/>
		</defs>
		<defs>
			<polygon id="SVGID_00000052084572824541620250000016854755604344545948_" points="-28.5,41.5 -29.5,41.5 -28.5,40.5 			"/>
		</defs>
		<clipPath id="SVGID_00000060723014854595705210000017848111317058643606_">
			<use xlink:href="#SVGID_00000024719742558920976710000015052542478646263995_"  style="overflow:visible;"/>
		</clipPath>
		
			<clipPath id="SVGID_00000112616951680447994680000018367174528169631136_" style="clip-path:url(#SVGID_00000060723014854595705210000017848111317058643606_);">
			<use xlink:href="#SVGID_00000052084572824541620250000016854755604344545948_"  style="overflow:visible;"/>
		</clipPath>
		<g style="clip-path:url(#SVGID_00000112616951680447994680000018367174528169631136_);">
			<path marker-end="url(#arrowhead-line-University-of-Colorado-Boulder-facet-)" class="st2" d="M306.9,154.9h210.6"/>
		</g>
	</g>
	<g>
		<defs>
			<polygon id="SVGID_00000071518086453118478850000006261013044279245218_" points="-26.5,43.5 -25.5,43.5 -26.5,44.5 			"/>
		</defs>
		<defs>
			<polygon id="SVGID_00000142134059136500663600000005674780878800705947_" points="-28.5,41.5 -29.5,41.5 -28.5,40.5 			"/>
		</defs>
		<clipPath id="SVGID_00000019652312951628396400000006448514093016028329_">
			<use xlink:href="#SVGID_00000071518086453118478850000006261013044279245218_"  style="overflow:visible;"/>
		</clipPath>
		
			<clipPath id="SVGID_00000026885921448774140650000014144130725677843108_" style="clip-path:url(#SVGID_00000019652312951628396400000006448514093016028329_);">
			<use xlink:href="#SVGID_00000142134059136500663600000005674780878800705947_"  style="overflow:visible;"/>
		</clipPath>
		<g style="clip-path:url(#SVGID_00000026885921448774140650000014144130725677843108_);">
			<path marker-end="url(#arrowhead-line-University-of-Arizona-facet-)" class="st2" d="M454.4,191.6h179"/>
		</g>
	</g>
	<g>
		<defs>
			<polygon id="SVGID_00000083767420339848464430000005595821997765474225_" points="-26.5,43.5 -25.5,43.5 -26.5,44.5 			"/>
		</defs>
		<defs>
			<polygon id="SVGID_00000116201532921433418450000014612794581866367886_" points="-28.5,41.5 -29.5,41.5 -28.5,40.5 			"/>
		</defs>
		<clipPath id="SVGID_00000072982587134655489060000004284217126139513756_">
			<use xlink:href="#SVGID_00000083767420339848464430000005595821997765474225_"  style="overflow:visible;"/>
		</clipPath>
		
			<clipPath id="SVGID_00000042700361879887403790000014222023323362927795_" style="clip-path:url(#SVGID_00000072982587134655489060000004284217126139513756_);">
			<use xlink:href="#SVGID_00000116201532921433418450000014612794581866367886_"  style="overflow:visible;"/>
		</clipPath>
		<g style="clip-path:url(#SVGID_00000042700361879887403790000014222023323362927795_);">
			<path marker-end="url(#arrowhead-line-University-of-Nevada-Reno-facet-)" class="st2" d="M422.8,228.2h179"/>
		</g>
	</g>
	<g>
		<defs>
			<polygon id="SVGID_00000013168325949989010690000013631218283525056443_" points="-26.5,43.5 -25.5,43.5 -26.5,44.5 			"/>
		</defs>
		<defs>
			<polygon id="SVGID_00000142889351896513545890000017681151965071124916_" points="-28.5,41.5 -29.5,41.5 -28.5,40.5 			"/>
		</defs>
		<clipPath id="SVGID_00000124878525967810460940000014711013429672213934_">
			<use xlink:href="#SVGID_00000013168325949989010690000013631218283525056443_"  style="overflow:visible;"/>
		</clipPath>
		
			<clipPath id="SVGID_00000043430405703176327730000000963292256645060231_" style="clip-path:url(#SVGID_00000124878525967810460940000014711013429672213934_);">
			<use xlink:href="#SVGID_00000142889351896513545890000017681151965071124916_"  style="overflow:visible;"/>
		</clipPath>
		<g style="clip-path:url(#SVGID_00000043430405703176327730000000963292256645060231_);">
			<path marker-end="url(#arrowhead-line-University-at-Buffalo-facet-)" class="st2" d="M264.8,264.9h168.5"/>
		</g>
	</g>
	<g>
		<defs>
			<polygon id="SVGID_00000142854387360873292380000002233715399902339236_" points="-26.5,43.5 -25.5,43.5 -26.5,44.5 			"/>
		</defs>
		<defs>
			<polygon id="SVGID_00000032634581338453823570000002625050431031896764_" points="-28.5,41.5 -29.5,41.5 -28.5,40.5 			"/>
		</defs>
		<clipPath id="SVGID_00000159449837230036937570000017101175563445800093_">
			<use xlink:href="#SVGID_00000142854387360873292380000002233715399902339236_"  style="overflow:visible;"/>
		</clipPath>
		
			<clipPath id="SVGID_00000121990318656284120970000005555018749076436652_" style="clip-path:url(#SVGID_00000159449837230036937570000017101175563445800093_);">
			<use xlink:href="#SVGID_00000032634581338453823570000002625050431031896764_"  style="overflow:visible;"/>
		</clipPath>
		<g style="clip-path:url(#SVGID_00000121990318656284120970000005555018749076436652_);">
			<path marker-end="url(#arrowhead-line-University-of-Rhode-Island-facet-)" class="st2" d="M275.3,301.6h168.5"/>
		</g>
	</g>
	<g>
		<defs>
			<polygon id="SVGID_00000108988945362565286830000005014786443107490192_" points="-26.5,43.5 -25.5,43.5 -26.5,44.5 			"/>
		</defs>
		<defs>
			<polygon id="SVGID_00000075852558640946914390000006057466696115121295_" points="-28.5,41.5 -29.5,41.5 -28.5,40.5 			"/>
		</defs>
		<clipPath id="SVGID_00000067220972285086491550000011603756681136540585_">
			<use xlink:href="#SVGID_00000108988945362565286830000005014786443107490192_"  style="overflow:visible;"/>
		</clipPath>
		
			<clipPath id="SVGID_00000082350290327526341990000003562302565844797069_" style="clip-path:url(#SVGID_00000067220972285086491550000011603756681136540585_);">
			<use xlink:href="#SVGID_00000075852558640946914390000006057466696115121295_"  style="overflow:visible;"/>
		</clipPath>
		<g style="clip-path:url(#SVGID_00000082350290327526341990000003562302565844797069_);">
			<path marker-end="url(#arrowhead-line-Rutgers-University-New-Brunswick-facet-)" class="st2" d="M306.9,338.2h147.4"/>
		</g>
	</g>
	<g>
		<defs>
			<polygon id="SVGID_00000039116777921252867160000006614014984665322151_" points="-26.5,43.5 -25.5,43.5 -26.5,44.5 			"/>
		</defs>
		<defs>
			<polygon id="SVGID_00000125595516490597371870000015896975038196680877_" points="-28.5,41.5 -29.5,41.5 -28.5,40.5 			"/>
		</defs>
		<clipPath id="SVGID_00000180356971214862186400000000276743743864866476_">
			<use xlink:href="#SVGID_00000039116777921252867160000006614014984665322151_"  style="overflow:visible;"/>
		</clipPath>
		
			<clipPath id="SVGID_00000075863993262289274930000017736201987514062514_" style="clip-path:url(#SVGID_00000180356971214862186400000000276743743864866476_);">
			<use xlink:href="#SVGID_00000125595516490597371870000015896975038196680877_"  style="overflow:visible;"/>
		</clipPath>
		<g style="clip-path:url(#SVGID_00000075863993262289274930000017736201987514062514_);">
			<path marker-end="url(#arrowhead-line-University-of-Florida-facet-)" class="st2" d="M401.7,374.9H507"/>
		</g>
	</g>
	<g>
		<defs>
			<polygon id="SVGID_00000114071636908578498060000004788346988603741095_" points="-26.5,43.5 -25.5,43.5 -26.5,44.5 			"/>
		</defs>
		<defs>
			<polygon id="SVGID_00000044156859883865165510000006916118696173626282_" points="-28.5,41.5 -29.5,41.5 -28.5,40.5 			"/>
		</defs>
		<clipPath id="SVGID_00000105416331005261884900000006455084827749626807_">
			<use xlink:href="#SVGID_00000114071636908578498060000004788346988603741095_"  style="overflow:visible;"/>
		</clipPath>
		
			<clipPath id="SVGID_00000059307167566337558100000005501971192823111846_" style="clip-path:url(#SVGID_00000105416331005261884900000006455084827749626807_);">
			<use xlink:href="#SVGID_00000044156859883865165510000006916118696173626282_"  style="overflow:visible;"/>
		</clipPath>
		<g style="clip-path:url(#SVGID_00000059307167566337558100000005501971192823111846_);">
			<path marker-end="url(#arrowhead-line-University-of-Nebraska-Lincoln-facet-)" class="st2" d="M254.3,411.5h105.3"/>
		</g>
	</g>
	<g>
		<defs>
			<polygon id="SVGID_00000032623719805604417710000005384937203366496920_" points="-26.5,43.5 -25.5,43.5 -26.5,44.5 			"/>
		</defs>
		<defs>
			<polygon id="SVGID_00000030457234411097239590000005253917501833043884_" points="-28.5,41.5 -29.5,41.5 -28.5,40.5 			"/>
		</defs>
		<clipPath id="SVGID_00000086677885754956492330000009378437142286821019_">
			<use xlink:href="#SVGID_00000032623719805604417710000005384937203366496920_"  style="overflow:visible;"/>
		</clipPath>
		
			<clipPath id="SVGID_00000119826150897117496400000013184249877353332400_" style="clip-path:url(#SVGID_00000086677885754956492330000009378437142286821019_);">
			<use xlink:href="#SVGID_00000030457234411097239590000005253917501833043884_"  style="overflow:visible;"/>
		</clipPath>
		<g style="clip-path:url(#SVGID_00000119826150897117496400000013184249877353332400_);">
			<path marker-end="url(#arrowhead-line-University-of-Massachusetts-Amherst-facet-)" class="st2" d="M264.8,448.2h105.3"/>
		</g>
	</g>
	<g>
		<defs>
			<polygon id="SVGID_00000154418145115832710300000007797561447378881705_" points="-26.5,43.5 -25.5,43.5 -26.5,44.5 			"/>
		</defs>
		<defs>
			<polygon id="SVGID_00000062914897833092199180000014665050005920551552_" points="-28.5,41.5 -29.5,41.5 -28.5,40.5 			"/>
		</defs>
		<clipPath id="SVGID_00000154389896428583804740000016879412680478923452_">
			<use xlink:href="#SVGID_00000154418145115832710300000007797561447378881705_"  style="overflow:visible;"/>
		</clipPath>
		
			<clipPath id="SVGID_00000109729394252161103770000003457116348461448365_" style="clip-path:url(#SVGID_00000154389896428583804740000016879412680478923452_);">
			<use xlink:href="#SVGID_00000062914897833092199180000014665050005920551552_"  style="overflow:visible;"/>
		</clipPath>
		<g style="clip-path:url(#SVGID_00000109729394252161103770000003457116348461448365_);">
			<path marker-end="url(#arrowhead-line-University-of-Kansas-facet-)" class="st2" d="M254.3,484.9h115.8"/>
		</g>
	</g>
</g>
<line class="st25" x1="96.3" y1="165" x2="96.3" y2="142"/>
<text transform="matrix(1 0 0 1 40.86 62.37)" class="st26 st27">University of Califo</text>
<text transform="matrix(1 0 0 1 203.61 62.37)" class="st26 st27">r</text>
<text transform="matrix(1 0 0 1 210.41 62.37)" class="st26 st27">nia-Berkeley</text>
<line class="st25" x1="629.4" y1="165" x2="629.4" y2="142"/>
<text transform="matrix(1 0 0 1 96.27 113.59)" class="st28 st26 st29">Pe</text>
<text transform="matrix(1 0 0 1 119.93 113.59)" class="st28 st26 st29">r</text>
<text transform="matrix(1 0 0 1 126.21 113.59)" class="st28 st26 st29">cent of f</text>
<text transform="matrix(1 0 0 1 199.42 113.59)" class="st28 st26 st29">r</text>
<text transform="matrix(1 0 0 1 205.71 113.59)" class="st28 st26 st29">eshmen</text>
<text transform="matrix(1 0 0 1 96.27 137.55)" class="st28 st26 st29">who a</text>
<text transform="matrix(1 0 0 1 150.23 137.55)" class="st28 st26 st29">r</text>
<text transform="matrix(1 0 0 1 156.52 137.55)" class="st28 st26 st29">e Hispanic</text>
<text transform="matrix(1 0 0 1 477.54 89.64)" class="st30 st26 st29">Pe</text>
<text transform="matrix(1 0 0 1 501.2 89.64)" class="st30 st26 st29">r</text>
<text transform="matrix(1 0 0 1 507.48 89.64)" class="st30 st26 st29">cent of public</text>
<text transform="matrix(1 0 0 1 431.63 113.59)" class="st30 st26 st29">high school graduates</text>
<text transform="matrix(1 0 0 1 413.2 137.55)" class="st30 st26 st29">who a</text>
<text transform="matrix(1 0 0 1 467.16 137.55)" class="st30 st26 st29">r</text>
<text transform="matrix(1 0 0 1 473.45 137.55)" class="st30 st26 st29">e Hispanic/Latino</text>
<line class="st31" x1="96.1" y1="166.2" x2="629.7" y2="166.2"/>
<path id="dot-0" vector-effect="non-scaling-stroke" class="st28" d="M105.2,166.2c0,4.9-4,8.9-8.9,8.9s-8.9-4-8.9-8.9
	s4-8.9,8.9-8.9C101,157.2,105.2,161.2,105.2,166.2"/>
<path id="dot-1" vector-effect="non-scaling-stroke" class="st30" d="M638.3,166.2c0,4.9-4,8.9-8.9,8.9s-8.9-4-8.9-8.9
	s4-8.9,8.9-8.9S638.3,161.2,638.3,166.2"/>
<text transform="matrix(1 0 0 1 42.29 173.12)" class="st28 st26 st32">20%</text>
<text transform="matrix(1 0 0 1 647.63 173.12)" class="st30 st26 st32">54%</text>
<text transform="matrix(1 0 0 1 42.29 213.65)" class="st26 st27">University of Texas at Austin </text>
<g>
	<line class="st31" x1="93.5" y1="241.9" x2="457" y2="241.9"/>
	<path id="dot-2" vector-effect="non-scaling-stroke" class="st28" d="M105.2,241.9c0,4.9-4,8.9-8.9,8.9s-8.9-4-8.9-8.9
		s4-8.9,8.9-8.9C101.2,233,105.2,237,105.2,241.9"/>
	<path id="dot-3" vector-effect="non-scaling-stroke" class="st30" d="M465.9,241.9c0,4.9-4,8.9-8.9,8.9s-8.9-4-8.9-8.9
		s4-8.9,8.9-8.9S465.9,237,465.9,241.9"/>
	<text transform="matrix(1 0 0 1 42.33 248.14)" class="st28 st26 st32">29%</text>
	<text transform="matrix(1 0 0 1 475.13 248.14)" class="st30 st26 st32">52%</text>
</g>
<g>
	<text transform="matrix(1 0 0 1 433.17 323.16)" class="st30 st26 st32">34%</text>
	<g>
		<text transform="matrix(1 0 0 1 42.37 962.38)" class="st26 st27">University of Kansas</text>
		<text transform="matrix(1 0 0 1 42.37 887.94)" class="st26 st27">University of Massachusetts-Amherst</text>
		<text transform="matrix(1 0 0 1 42.37 813.26)" class="st26 st27">University of Nebraska-Lincoln</text>
		<text transform="matrix(1 0 0 1 42.37 738.27)" class="st26 st27">University of Florida</text>
		<text transform="matrix(1 0 0 1 42.29 663.57)" class="st26 st27">Rutgers University-New Brunswick</text>
		<text transform="matrix(1 0 0 1 42.37 588.72)" class="st26 st27">University of Rhode Island</text>
		<text transform="matrix(1 0 0 1 42.37 513.79)" class="st26 st27">University at Bu</text>
		<text transform="matrix(1 0 0 1 178.98 513.79)" class="st26 st27">f</text>
		<text transform="matrix(1 0 0 1 184.37 513.79)" class="st26 st27">falo</text>
		<text transform="matrix(1 0 0 1 42.36 438.8)" class="st26 st27">University of Nevada-Reno</text>
		<text transform="matrix(1 0 0 1 42.36 363.76)" class="st26 st27">University of Arizona</text>
		<text transform="matrix(1 0 0 1 42.36 288.84)" class="st26 st27">University of Colorado Boulder</text>
		<line class="st31" x1="97.6" y1="317.1" x2="413" y2="317.1"/>
		<path id="dot-4" vector-effect="non-scaling-stroke" class="st28" d="M106.7,317.1c0,4.9-4,8.9-8.9,8.9s-8.9-4-8.9-8.9
			s4-8.9,8.9-8.9C102.7,308.1,106.7,312,106.7,317.1"/>
		<text transform="matrix(1 0 0 1 43.8 323.22)" class="st28 st26 st32">14%</text>
		<line class="st31" x1="97.6" y1="392" x2="364.3" y2="392"/>
		<path id="dot-6" vector-effect="non-scaling-stroke" class="st28" d="M106.7,392c0,4.9-4,8.9-8.9,8.9s-8.9-4-8.9-8.9
			s4-8.9,8.9-8.9S106.7,387.1,106.7,392"/>
		<path id="dot-7" vector-effect="non-scaling-stroke" class="st30" d="M373.2,392c0,4.9-4,8.9-8.9,8.9s-8.9-4-8.9-8.9
			s4-8.9,8.9-8.9S373.2,387.1,373.2,392"/>
		<text transform="matrix(1 0 0 1 43.8 398.27)" class="st28 st26 st32">28%</text>
		<text transform="matrix(1 0 0 1 382.49 398.2)" class="st30 st26 st32">45%</text>
		<line class="st31" x1="98" y1="467.1" x2="364.3" y2="467.1"/>
		<path id="dot-8" vector-effect="non-scaling-stroke" class="st28" d="M106.6,467.1c0,4.9-4,8.9-8.9,8.9s-8.9-4-8.9-8.9
			s4-8.9,8.9-8.9S106.6,462.1,106.6,467.1"/>
		<path id="dot-9" vector-effect="non-scaling-stroke" class="st30" d="M373.3,467.1c0,4.9-4,8.9-8.9,8.9s-8.9-4-8.9-8.9
			s4-8.9,8.9-8.9S373.3,462.1,373.3,467.1"/>
		<text transform="matrix(1 0 0 1 43.8 473.26)" class="st28 st26 st32">25%</text>
		<text transform="matrix(1 0 0 1 382.49 473.19)" class="st30 st26 st32">42%</text>
		<line class="st31" x1="98" y1="542.2" x2="350.8" y2="542.2"/>
		<path id="dot-10" vector-effect="non-scaling-stroke" class="st28" d="M106.6,542.1c0,4.9-4,8.9-8.9,8.9s-8.9-4-8.9-8.9
			s4-8.9,8.9-8.9C102.6,533,106.6,537,106.6,542.1"/>
		<path id="dot-11" vector-effect="non-scaling-stroke" class="st30" d="M357.5,542.1c0,4.9-4,8.9-8.9,8.9s-8.9-4-8.9-8.9
			s4-8.9,8.9-8.9C353.5,533,357.5,537,357.5,542.1"/>
		<text transform="matrix(1 0 0 1 43.8 548.19)" class="st28 st26 st32">10%</text>
		<text transform="matrix(1 0 0 1 366.8 548.12)" class="st30 st26 st32">26%</text>
		<line class="st31" x1="96.3" y1="617.5" x2="348.6" y2="617.5"/>
		<path id="dot-12" vector-effect="non-scaling-stroke" class="st28" d="M106.6,617c0,4.9-4,8.9-8.9,8.9s-8.9-4-8.9-8.9
			s4-8.9,8.9-8.9S106.6,612.1,106.6,617"/>
		<path id="dot-13" vector-effect="non-scaling-stroke" class="st30" d="M357.6,617c0,4.9-4,8.9-8.9,8.9s-8.9-4-8.9-8.9
			s4-8.9,8.9-8.9S357.6,612.1,357.6,617"/>
		<text transform="matrix(1 0 0 1 43.8 623.2)" class="st28 st26 st32">11%</text>
		<text transform="matrix(1 0 0 1 366.8 623.13)" class="st30 st26 st32">27%</text>
		<line class="st31" x1="97.6" y1="691.9" x2="317.2" y2="691.9"/>
		<g>
			<path id="dot-14" vector-effect="non-scaling-stroke" class="st28" d="M106.7,691.9c0,4.9-4,8.9-8.9,8.9s-8.9-4-8.9-8.9
				s4-8.9,8.9-8.9C102.7,682.8,106.7,686.8,106.7,691.9"/>
			<path id="dot-15" vector-effect="non-scaling-stroke" class="st30" d="M326.3,691.9c0,4.9-4,8.9-8.9,8.9s-8.9-4-8.9-8.9
				s4-8.9,8.9-8.9C322.3,682.8,326.3,686.8,326.3,691.9"/>
			<text transform="matrix(1 0 0 1 43.8 697.74)" class="st28 st26 st32">14%</text>
			<text transform="matrix(1 0 0 1 335.43 697.67)" class="st30 st26 st32">28%</text>
		</g>
		<line class="st31" x1="95.4" y1="766.5" x2="256.8" y2="766.5"/>
		<path id="dot-16" vector-effect="non-scaling-stroke" class="st28" d="M106.6,766.5c0,4.9-4,8.9-8.9,8.9s-8.9-4-8.9-8.9
			s4-8.9,8.9-8.9S106.6,761.6,106.6,766.5"/>
		<path id="dot-17" vector-effect="non-scaling-stroke" class="st30" d="M263.4,766.5c0,4.9-4,8.9-8.9,8.9s-8.9-4-8.9-8.9
			s4-8.9,8.9-8.9C259.4,757.6,263.4,761.6,263.4,766.5"/>
		<text transform="matrix(1 0 0 1 43.8 772.72)" class="st28 st26 st32">23%</text>
		<text transform="matrix(1 0 0 1 272.69 772.66)" class="st30 st26 st32">33%</text>
		<line class="st31" x1="86.8" y1="841.5" x2="245.1" y2="841.5"/>
		<path id="dot-18" vector-effect="non-scaling-stroke" class="st28" d="M97.2,841.5c0,4.9-4,8.9-8.9,8.9s-8.9-4-8.9-8.9
			s4-8.9,8.9-8.9C93.2,832.5,97.2,836.6,97.2,841.5"/>
		<path id="dot-19" vector-effect="non-scaling-stroke" class="st30" d="M254,841.5c0,4.9-4,8.9-8.9,8.9s-8.9-4-8.9-8.9
			s4-8.9,8.9-8.9C250,832.5,254,836.6,254,841.5"/>
		<text transform="matrix(1 0 0 1 43.8 847.41)" class="st28 st26 st32">9%</text>
		<text transform="matrix(1 0 0 1 263.3 847.34)" class="st30 st26 st32">19%</text>
		<line class="st31" x1="97.1" y1="916.5" x2="254.5" y2="916.5"/>
		<g>
			<path id="dot-20" vector-effect="non-scaling-stroke" class="st28" d="M106.6,916.8c0,4.9-4,8.9-8.9,8.9s-8.9-4-8.9-8.9
				s4-8.9,8.9-8.9C102.6,907.9,106.6,911.9,106.6,916.8"/>
			<path id="dot-21" vector-effect="non-scaling-stroke" class="st30" d="M263.5,916.8c0,4.9-4,8.9-8.9,8.9s-8.9-4-8.9-8.9
				s4-8.9,8.9-8.9C259.4,907.9,263.5,911.9,263.5,916.8"/>
			<text transform="matrix(1 0 0 1 43.8 921.85)" class="st28 st26 st32">10%</text>
			<text transform="matrix(1 0 0 1 272.69 921.78)" class="st30 st26 st32">20%</text>
		</g>
		<line class="st31" x1="87.9" y1="990.7" x2="260.8" y2="990.7"/>
		<g>
			<path id="dot-22" vector-effect="non-scaling-stroke" class="st28" d="M97.2,990.7c0,4.9-4,8.9-8.9,8.9s-8.9-4-8.9-8.9
				s4-8.9,8.9-8.9C93.2,981.7,97.2,985.7,97.2,990.7"/>
			<path id="dot-23" vector-effect="non-scaling-stroke" class="st30" d="M269.8,990.7c0,4.9-4,8.9-8.9,8.9s-8.9-4-8.9-8.9
				s4-8.9,8.9-8.9C265.7,981.7,269.8,985.7,269.8,990.7"/>
			<text transform="matrix(1 0 0 1 43.8 996.55)" class="st28 st26 st32">9%</text>
			<text transform="matrix(1 0 0 1 278.99 996.48)" class="st30 st26 st32">20%</text>
		</g>
	</g>
	<path id="dot-5" vector-effect="non-scaling-stroke" class="st30" d="M424,317.1c0,4.9-4,8.9-8.9,8.9s-8.9-4-8.9-8.9s4-8.9,8.9-8.9
		C419.9,308.1,424,312,424,317.1"/>
</g>
<rect x="22.9" y="264.9" class="st33" width="659" height="763"/>
</svg>
