<?xml version="1.0" encoding="utf-8"?>
<!-- Generator: Adobe Illustrator 27.0.0, SVG Export Plug-In . SVG Version: 6.00 Build 0)  -->
<svg version="1.1" id="fl-legend-discrete-color-0-svg-screenshot-container"
	 xmlns="http://www.w3.org/2000/svg" xmlns:xlink="http://www.w3.org/1999/xlink" x="0px" y="0px" viewBox="0 0 800 514"
	 style="enable-background:new 0 0 800 514;" xml:space="preserve">
<style type="text/css">
	.st0{fill:none;stroke:#DDDDDD;}
	.st1{clip-path:url(#SVGID_00000065058275605396500770000015703866211365336718_);}
	.st2{clip-path:url(#SVGID_00000011025110036527300580000015027556453475727252_);}
	.st3{opacity:0.7;fill:none;stroke:#DDDDDD;stroke-width:5.6;enable-background:new    ;}
	.st4{clip-path:url(#SVGID_00000116958391896758135870000005252274417689248680_);}
	.st5{clip-path:url(#SVGID_00000021081780547546112740000011414254794236115088_);}
	.st6{clip-path:url(#SVGID_00000079488061938055494810000004914031361279309480_);}
	.st7{clip-path:url(#SVGID_00000034063674621942109040000015012181214617789338_);}
	.st8{clip-path:url(#SVGID_00000016071524056425609200000008594027995908983736_);}
	.st9{clip-path:url(#SVGID_00000078726669289724644540000008448089242508958910_);}
	.st10{clip-path:url(#SVGID_00000175307279692810032770000008354020960724365988_);}
	.st11{clip-path:url(#SVGID_00000104692243951794107030000005273284193591207353_);}
	.st12{clip-path:url(#SVGID_00000048467999856641023490000002498294537271355319_);}
	.st13{clip-path:url(#SVGID_00000036939593682752748210000001269899374971877773_);}
	.st14{clip-path:url(#SVGID_00000106841076373878589980000010816117031939812538_);}
	.st15{clip-path:url(#SVGID_00000017499011156353514210000011497409540556993192_);}
	.st16{clip-path:url(#SVGID_00000083769648225386154700000007614753366622951602_);}
	.st17{clip-path:url(#SVGID_00000042725002777361747660000015379822255922259343_);}
	.st18{clip-path:url(#SVGID_00000037654187340288920000000014954854444534808979_);}
	.st19{clip-path:url(#SVGID_00000177466927455897985540000010011635721102489745_);}
	.st20{clip-path:url(#SVGID_00000103981097079248633260000016980411408882162573_);}
	.st21{clip-path:url(#SVGID_00000016043297873822072000000001906287485698691768_);}
	.st22{clip-path:url(#SVGID_00000144339509422692774040000015734563270296633782_);}
	.st23{clip-path:url(#SVGID_00000096773506010064616160000017615713392218980781_);}
	.st24{clip-path:url(#SVGID_00000042714155578435715800000017527776818478327178_);}
	.st25{clip-path:url(#SVGID_00000075868866576339810690000013985806129572385706_);}
	.st26{fill:none;stroke:#DDDDDD;stroke-linecap:square;}
	.st27{font-family:'HelveticaNeue';}
	.st28{font-size:12.61px;}
	.st29{fill:none;stroke:#DDDDDD;stroke-width:5;stroke-miterlimit:10;}
	.st30{fill:#FFDB78;}
	.st31{fill:#D1A347;}
	.st32{font-size:13px;}
	.st33{font-size:11px;}
</style>
<line class="st0" x1="396.2" y1="83.1" x2="396.2" y2="68.2"/>
<g>
	<g>
		<defs>
			<polygon id="SVGID_1_" points="13.5,43.5 14.5,43.5 13.5,44.5 			"/>
		</defs>
		<defs>
			<polygon id="SVGID_00000066511503464649581450000001577058396670356151_" points="11.5,41.5 10.5,41.5 11.5,40.5 			"/>
		</defs>
		<clipPath id="SVGID_00000167386715248174713180000006188246528929076905_">
			<use xlink:href="#SVGID_1_"  style="overflow:visible;"/>
		</clipPath>
		
			<clipPath id="SVGID_00000138573636369465546210000010582033312818742914_" style="clip-path:url(#SVGID_00000167386715248174713180000006188246528929076905_);">
			<use xlink:href="#SVGID_00000066511503464649581450000001577058396670356151_"  style="overflow:visible;"/>
		</clipPath>
		<g style="clip-path:url(#SVGID_00000138573636369465546210000010582033312818742914_);">
			<path marker-end="url(#arrowhead-line-University-of-California-Berkeley-facet-)" class="st3" d="M410.1,81.6h358.1"/>
		</g>
	</g>
	<g>
		<defs>
			<polygon id="SVGID_00000106853665659893808450000008766162206451141278_" points="13.5,43.5 14.5,43.5 13.5,44.5 			"/>
		</defs>
		<defs>
			<polygon id="SVGID_00000173877970256472378330000003914792451110242212_" points="11.5,41.5 10.5,41.5 11.5,40.5 			"/>
		</defs>
		<clipPath id="SVGID_00000043419168334735608090000010919857326944392848_">
			<use xlink:href="#SVGID_00000106853665659893808450000008766162206451141278_"  style="overflow:visible;"/>
		</clipPath>
		
			<clipPath id="SVGID_00000099653429820474475220000015857014619149007789_" style="clip-path:url(#SVGID_00000043419168334735608090000010919857326944392848_);">
			<use xlink:href="#SVGID_00000173877970256472378330000003914792451110242212_"  style="overflow:visible;"/>
		</clipPath>
		<g style="clip-path:url(#SVGID_00000099653429820474475220000015857014619149007789_);">
			<path marker-end="url(#arrowhead-line-The-University-of-Texas-at-Austin-facet-)" class="st3" d="M504.9,118.2h242.2"/>
		</g>
	</g>
	<g>
		<defs>
			<polygon id="SVGID_00000136395088506424771150000011540556326682010034_" points="13.5,43.5 14.5,43.5 13.5,44.5 			"/>
		</defs>
		<defs>
			<polygon id="SVGID_00000061443012338709231470000008409182585390624427_" points="11.5,41.5 10.5,41.5 11.5,40.5 			"/>
		</defs>
		<clipPath id="SVGID_00000127039755823922031640000018361469801967966137_">
			<use xlink:href="#SVGID_00000136395088506424771150000011540556326682010034_"  style="overflow:visible;"/>
		</clipPath>
		
			<clipPath id="SVGID_00000165206368233743812500000006475631367326539941_" style="clip-path:url(#SVGID_00000127039755823922031640000018361469801967966137_);">
			<use xlink:href="#SVGID_00000061443012338709231470000008409182585390624427_"  style="overflow:visible;"/>
		</clipPath>
		<g style="clip-path:url(#SVGID_00000165206368233743812500000006475631367326539941_);">
			<path marker-end="url(#arrowhead-line-University-of-Colorado-Boulder-facet-)" class="st3" d="M346.9,154.9h210.6"/>
		</g>
	</g>
	<g>
		<defs>
			<polygon id="SVGID_00000149354088092911980060000017835421801250086542_" points="13.5,43.5 14.5,43.5 13.5,44.5 			"/>
		</defs>
		<defs>
			<polygon id="SVGID_00000051384122410369727890000000928823904225232818_" points="11.5,41.5 10.5,41.5 11.5,40.5 			"/>
		</defs>
		<clipPath id="SVGID_00000180335278417889111900000008792876785518123404_">
			<use xlink:href="#SVGID_00000149354088092911980060000017835421801250086542_"  style="overflow:visible;"/>
		</clipPath>
		
			<clipPath id="SVGID_00000076601614977051627790000015960335800463622065_" style="clip-path:url(#SVGID_00000180335278417889111900000008792876785518123404_);">
			<use xlink:href="#SVGID_00000051384122410369727890000000928823904225232818_"  style="overflow:visible;"/>
		</clipPath>
		<g style="clip-path:url(#SVGID_00000076601614977051627790000015960335800463622065_);">
			<path marker-end="url(#arrowhead-line-University-of-Arizona-facet-)" class="st3" d="M494.4,191.6h179"/>
		</g>
	</g>
	<g>
		<defs>
			<polygon id="SVGID_00000180347410592964521940000011657863067837990309_" points="13.5,43.5 14.5,43.5 13.5,44.5 			"/>
		</defs>
		<defs>
			<polygon id="SVGID_00000068653441960259783560000008008380896561993908_" points="11.5,41.5 10.5,41.5 11.5,40.5 			"/>
		</defs>
		<clipPath id="SVGID_00000057853268738530148420000015754494729116591001_">
			<use xlink:href="#SVGID_00000180347410592964521940000011657863067837990309_"  style="overflow:visible;"/>
		</clipPath>
		
			<clipPath id="SVGID_00000121977429514433229740000011664309340560435843_" style="clip-path:url(#SVGID_00000057853268738530148420000015754494729116591001_);">
			<use xlink:href="#SVGID_00000068653441960259783560000008008380896561993908_"  style="overflow:visible;"/>
		</clipPath>
		<g style="clip-path:url(#SVGID_00000121977429514433229740000011664309340560435843_);">
			<path marker-end="url(#arrowhead-line-University-of-Nevada-Reno-facet-)" class="st3" d="M462.8,228.2h179"/>
		</g>
	</g>
	<g>
		<defs>
			<polygon id="SVGID_00000176006966367528733600000010188641776641580173_" points="13.5,43.5 14.5,43.5 13.5,44.5 			"/>
		</defs>
		<defs>
			<polygon id="SVGID_00000043433215309320378990000001297054847637648296_" points="11.5,41.5 10.5,41.5 11.5,40.5 			"/>
		</defs>
		<clipPath id="SVGID_00000121990072346641674770000011439512970429272994_">
			<use xlink:href="#SVGID_00000176006966367528733600000010188641776641580173_"  style="overflow:visible;"/>
		</clipPath>
		
			<clipPath id="SVGID_00000150098105495240589770000012922674058750091658_" style="clip-path:url(#SVGID_00000121990072346641674770000011439512970429272994_);">
			<use xlink:href="#SVGID_00000043433215309320378990000001297054847637648296_"  style="overflow:visible;"/>
		</clipPath>
		<g style="clip-path:url(#SVGID_00000150098105495240589770000012922674058750091658_);">
			<path marker-end="url(#arrowhead-line-University-at-Buffalo-facet-)" class="st3" d="M304.8,264.9h168.5"/>
		</g>
	</g>
	<g>
		<defs>
			<polygon id="SVGID_00000087397933875102506460000010462868613699835283_" points="13.5,43.5 14.5,43.5 13.5,44.5 			"/>
		</defs>
		<defs>
			<polygon id="SVGID_00000140005394401287074310000014774405893622027414_" points="11.5,41.5 10.5,41.5 11.5,40.5 			"/>
		</defs>
		<clipPath id="SVGID_00000002341891226038208100000000604531395182924730_">
			<use xlink:href="#SVGID_00000087397933875102506460000010462868613699835283_"  style="overflow:visible;"/>
		</clipPath>
		
			<clipPath id="SVGID_00000064347721893689766800000017552549185397198264_" style="clip-path:url(#SVGID_00000002341891226038208100000000604531395182924730_);">
			<use xlink:href="#SVGID_00000140005394401287074310000014774405893622027414_"  style="overflow:visible;"/>
		</clipPath>
		<g style="clip-path:url(#SVGID_00000064347721893689766800000017552549185397198264_);">
			<path marker-end="url(#arrowhead-line-University-of-Rhode-Island-facet-)" class="st3" d="M315.3,301.6h168.5"/>
		</g>
	</g>
	<g>
		<defs>
			<polygon id="SVGID_00000003798667352988623490000001165336747946775699_" points="13.5,43.5 14.5,43.5 13.5,44.5 			"/>
		</defs>
		<defs>
			<polygon id="SVGID_00000074401977677847702120000000683958045106235308_" points="11.5,41.5 10.5,41.5 11.5,40.5 			"/>
		</defs>
		<clipPath id="SVGID_00000164502142519601376470000007901532079691665080_">
			<use xlink:href="#SVGID_00000003798667352988623490000001165336747946775699_"  style="overflow:visible;"/>
		</clipPath>
		
			<clipPath id="SVGID_00000075142700367276202500000011020616859353874097_" style="clip-path:url(#SVGID_00000164502142519601376470000007901532079691665080_);">
			<use xlink:href="#SVGID_00000074401977677847702120000000683958045106235308_"  style="overflow:visible;"/>
		</clipPath>
		<g style="clip-path:url(#SVGID_00000075142700367276202500000011020616859353874097_);">
			<path marker-end="url(#arrowhead-line-Rutgers-University-New-Brunswick-facet-)" class="st3" d="M346.9,338.2h147.4"/>
		</g>
	</g>
	<g>
		<defs>
			<polygon id="SVGID_00000103943992933371726320000009052343002202814140_" points="13.5,43.5 14.5,43.5 13.5,44.5 			"/>
		</defs>
		<defs>
			<polygon id="SVGID_00000085237918973568241880000005547310757144370110_" points="11.5,41.5 10.5,41.5 11.5,40.5 			"/>
		</defs>
		<clipPath id="SVGID_00000039820222764804197040000005362686125117045415_">
			<use xlink:href="#SVGID_00000103943992933371726320000009052343002202814140_"  style="overflow:visible;"/>
		</clipPath>
		
			<clipPath id="SVGID_00000052090196371626588340000011525965757567607942_" style="clip-path:url(#SVGID_00000039820222764804197040000005362686125117045415_);">
			<use xlink:href="#SVGID_00000085237918973568241880000005547310757144370110_"  style="overflow:visible;"/>
		</clipPath>
		<g style="clip-path:url(#SVGID_00000052090196371626588340000011525965757567607942_);">
			<path marker-end="url(#arrowhead-line-University-of-Florida-facet-)" class="st3" d="M441.7,374.9H547"/>
		</g>
	</g>
	<g>
		<defs>
			<polygon id="SVGID_00000097467023025992390630000004406083866384504996_" points="13.5,43.5 14.5,43.5 13.5,44.5 			"/>
		</defs>
		<defs>
			<polygon id="SVGID_00000047058388525041449220000013688669497825004696_" points="11.5,41.5 10.5,41.5 11.5,40.5 			"/>
		</defs>
		<clipPath id="SVGID_00000103985644206763906510000011558664731146334609_">
			<use xlink:href="#SVGID_00000097467023025992390630000004406083866384504996_"  style="overflow:visible;"/>
		</clipPath>
		
			<clipPath id="SVGID_00000019646438584474222150000017263881238871470509_" style="clip-path:url(#SVGID_00000103985644206763906510000011558664731146334609_);">
			<use xlink:href="#SVGID_00000047058388525041449220000013688669497825004696_"  style="overflow:visible;"/>
		</clipPath>
		<g style="clip-path:url(#SVGID_00000019646438584474222150000017263881238871470509_);">
			<path marker-end="url(#arrowhead-line-University-of-Nebraska-Lincoln-facet-)" class="st3" d="M294.3,411.5h105.3"/>
		</g>
	</g>
	<g>
		<defs>
			<polygon id="SVGID_00000119093449515301304790000018336498226482641592_" points="13.5,43.5 14.5,43.5 13.5,44.5 			"/>
		</defs>
		<defs>
			<polygon id="SVGID_00000103945730469340403090000004823243724580726710_" points="11.5,41.5 10.5,41.5 11.5,40.5 			"/>
		</defs>
		<clipPath id="SVGID_00000117677001893831523780000006342041845136867499_">
			<use xlink:href="#SVGID_00000119093449515301304790000018336498226482641592_"  style="overflow:visible;"/>
		</clipPath>
		
			<clipPath id="SVGID_00000106834157657499902800000018341436523488833444_" style="clip-path:url(#SVGID_00000117677001893831523780000006342041845136867499_);">
			<use xlink:href="#SVGID_00000103945730469340403090000004823243724580726710_"  style="overflow:visible;"/>
		</clipPath>
		<g style="clip-path:url(#SVGID_00000106834157657499902800000018341436523488833444_);">
			<path marker-end="url(#arrowhead-line-University-of-Massachusetts-Amherst-facet-)" class="st3" d="M304.8,448.2h105.3"/>
		</g>
	</g>
	<g>
		<defs>
			<polygon id="SVGID_00000029748984072686423670000013262754285373908626_" points="13.5,43.5 14.5,43.5 13.5,44.5 			"/>
		</defs>
		<defs>
			<polygon id="SVGID_00000147941899302733109270000005983423620638581170_" points="11.5,41.5 10.5,41.5 11.5,40.5 			"/>
		</defs>
		<clipPath id="SVGID_00000157282319387223895000000009904452951075823497_">
			<use xlink:href="#SVGID_00000029748984072686423670000013262754285373908626_"  style="overflow:visible;"/>
		</clipPath>
		
			<clipPath id="SVGID_00000174579791546067180180000005908616269424263818_" style="clip-path:url(#SVGID_00000157282319387223895000000009904452951075823497_);">
			<use xlink:href="#SVGID_00000147941899302733109270000005983423620638581170_"  style="overflow:visible;"/>
		</clipPath>
		<g style="clip-path:url(#SVGID_00000174579791546067180180000005908616269424263818_);">
			<path marker-end="url(#arrowhead-line-University-of-Kansas-facet-)" class="st3" d="M294.3,484.9h115.8"/>
		</g>
	</g>
</g>
<line class="st26" x1="243" y1="495" x2="243" y2="68.3"/>
<line class="st0" x1="243" y1="477.2" x2="236.2" y2="477.2"/>
<text transform="matrix(1 0 0 1 111.74 481.24)" class="st27 st28">University of Kansas</text>
<line class="st0" x1="243" y1="441.6" x2="236.2" y2="441.6"/>
<text transform="matrix(1 0 0 1 21.42 445.68)" class="st27 st28">University of Massachusetts-Amherst</text>
<line class="st0" x1="243" y1="406.1" x2="236.2" y2="406.1"/>
<text transform="matrix(1 0 0 1 57.4 410.12)" class="st27 st28">University of Nebraska-Lincoln</text>
<line class="st0" x1="243" y1="370.5" x2="236.2" y2="370.5"/>
<text transform="matrix(1 0 0 1 115.14 374.56)" class="st27 st28">University of Florida</text>
<line class="st0" x1="243" y1="335" x2="236.2" y2="335"/>
<text transform="matrix(1 0 0 1 35.7 339)" class="st27 st28">Rutgers University-New Brunswick</text>
<line class="st0" x1="243" y1="299.4" x2="236.2" y2="299.4"/>
<text transform="matrix(1 0 0 1 80.48 303.44)" class="st27 st28">University of Rhode Island</text>
<line class="st0" x1="243" y1="263.9" x2="236.2" y2="263.9"/>
<text transform="matrix(1 0 0 1 114.67 267.88)" class="st27 st28">University at Bu</text>
<text transform="matrix(1 0 0 1 203.63 267.88)" class="st27 st28">f</text>
<text transform="matrix(1 0 0 1 207.14 267.88)" class="st27 st28">falo</text>
<line class="st0" x1="243" y1="228.3" x2="236.2" y2="228.3"/>
<text transform="matrix(1 0 0 1 77.09 232.33)" class="st27 st28">University of Nevada-Reno</text>
<line class="st0" x1="243" y1="192.7" x2="236.2" y2="192.7"/>
<text transform="matrix(1 0 0 1 111.74 196.77)" class="st27 st28">University of Arizona</text>
<line class="st0" x1="243" y1="157.2" x2="236.2" y2="157.2"/>
<text transform="matrix(1 0 0 1 57.39 161.21)" class="st27 st28">University of Colorado Boulder</text>
<line class="st0" x1="243" y1="121.6" x2="236.2" y2="121.6"/>
<text transform="matrix(1 0 0 1 71.9684 125.65)" class="st27 st28">University of Texas at Austin </text>
<line class="st0" x1="243" y1="86.1" x2="236.2" y2="86.1"/>
<text transform="matrix(1 0 0 1 49.26 90.09)" class="st27 st28">University of Califo</text>
<text transform="matrix(1 0 0 1 155.25 90.09)" class="st27 st28">r</text>
<text transform="matrix(1 0 0 1 159.67 90.09)" class="st27 st28">nia-Berkeley</text>
<line class="st29" x1="396.2" y1="86.2" x2="743.7" y2="86.2"/>
<line class="st29" x1="486.4" y1="121.6" x2="723.1" y2="121.6"/>
<line class="st29" x1="334.9" y1="157.2" x2="540.3" y2="157.2"/>
<line class="st29" x1="477.9" y1="192.7" x2="651.6" y2="192.7"/>
<line class="st29" x1="447.5" y1="228.3" x2="620.9" y2="228.3"/>
<line class="st29" x1="294.3" y1="264" x2="458.9" y2="264"/>
<line class="st29" x1="303.4" y1="299.7" x2="467.7" y2="299.7"/>
<line class="st29" x1="334.9" y1="335" x2="477.9" y2="335"/>
<line class="st29" x1="425.4" y1="370.5" x2="530.5" y2="370.5"/>
<line class="st29" x1="282.9" y1="406.1" x2="386" y2="406.1"/>
<line class="st29" x1="293.7" y1="441.4" x2="396.2" y2="441.4"/>
<line class="st29" x1="283.6" y1="477.2" x2="396.2" y2="477.2"/>
<line class="st0" x1="743.5" y1="83.5" x2="743.5" y2="68.5"/>
<path id="dot-0" vector-effect="non-scaling-stroke" class="st30" d="M402.1,86.1c0,3.2-2.6,5.8-5.8,5.8s-5.8-2.6-5.8-5.8
	s2.6-5.8,5.8-5.8S402.1,82.8,402.1,86.1"/>
<path id="dot-1" vector-effect="non-scaling-stroke" class="st31" d="M749.3,86.1c0,3.2-2.6,5.8-5.8,5.8s-5.8-2.6-5.8-5.8
	s2.6-5.8,5.8-5.8S749.3,82.8,749.3,86.1"/>
<path id="dot-2" vector-effect="non-scaling-stroke" class="st30" d="M494,121.6c0,3.2-2.6,5.8-5.8,5.8s-5.8-2.6-5.8-5.8
	s2.6-5.8,5.8-5.8S494,118.4,494,121.6"/>
<path id="dot-3" vector-effect="non-scaling-stroke" class="st31" d="M728.9,121.6c0,3.2-2.6,5.8-5.8,5.8s-5.8-2.6-5.8-5.8
	s2.6-5.8,5.8-5.8S728.9,118.4,728.9,121.6"/>
<path id="dot-4" vector-effect="non-scaling-stroke" class="st30" d="M340.8,157.2c0,3.2-2.6,5.8-5.8,5.8s-5.8-2.6-5.8-5.8
	s2.6-5.8,5.8-5.8S340.8,154,340.8,157.2"/>
<path id="dot-5" vector-effect="non-scaling-stroke" class="st31" d="M545.1,157.2c0,3.2-2.6,5.8-5.8,5.8s-5.8-2.6-5.8-5.8
	s2.6-5.8,5.8-5.8S545.1,154,545.1,157.2"/>
<path id="dot-6" vector-effect="non-scaling-stroke" class="st30" d="M483.8,192.7c0,3.2-2.6,5.8-5.8,5.8s-5.8-2.6-5.8-5.8
	s2.6-5.8,5.8-5.8S483.8,189.5,483.8,192.7"/>
<path id="dot-7" vector-effect="non-scaling-stroke" class="st31" d="M657.4,192.7c0,3.2-2.6,5.8-5.8,5.8s-5.8-2.6-5.8-5.8
	s2.6-5.8,5.8-5.8S657.4,189.5,657.4,192.7"/>
<path id="dot-8" vector-effect="non-scaling-stroke" class="st30" d="M453.1,228.3c0,3.2-2.6,5.8-5.8,5.8s-5.8-2.6-5.8-5.8
	s2.6-5.8,5.8-5.8S453.1,225.1,453.1,228.3"/>
<path id="dot-9" vector-effect="non-scaling-stroke" class="st31" d="M626.8,228.3c0,3.2-2.6,5.8-5.8,5.8s-5.8-2.6-5.8-5.8
	s2.6-5.8,5.8-5.8S626.8,225.1,626.8,228.3"/>
<path id="dot-10" vector-effect="non-scaling-stroke" class="st30" d="M299.9,263.9c0,3.2-2.6,5.8-5.8,5.8s-5.8-2.6-5.8-5.8
	s2.6-5.8,5.8-5.8S299.9,260.6,299.9,263.9"/>
<path id="dot-11" vector-effect="non-scaling-stroke" class="st31" d="M463.4,263.9c0,3.2-2.6,5.8-5.8,5.8s-5.8-2.6-5.8-5.8
	s2.6-5.8,5.8-5.8S463.4,260.6,463.4,263.9"/>
<path id="dot-12" vector-effect="non-scaling-stroke" class="st30" d="M310.1,299.4c0,3.2-2.6,5.8-5.8,5.8s-5.8-2.6-5.8-5.8
	s2.6-5.8,5.8-5.8S310.1,296.2,310.1,299.4"/>
<path id="dot-13" vector-effect="non-scaling-stroke" class="st31" d="M473.6,299.4c0,3.2-2.6,5.8-5.8,5.8s-5.8-2.6-5.8-5.8
	s2.6-5.8,5.8-5.8S473.6,296.2,473.6,299.4"/>
<path id="dot-14" vector-effect="non-scaling-stroke" class="st30" d="M340.8,335c0,3.2-2.6,5.8-5.8,5.8s-5.8-2.6-5.8-5.8
	s2.6-5.8,5.8-5.8S340.8,331.8,340.8,335"/>
<path id="dot-15" vector-effect="non-scaling-stroke" class="st31" d="M483.8,335c0,3.2-2.6,5.8-5.8,5.8s-5.8-2.6-5.8-5.8
	s2.6-5.8,5.8-5.8S483.8,331.8,483.8,335"/>
<path id="dot-16" vector-effect="non-scaling-stroke" class="st30" d="M432.7,370.5c0,3.2-2.6,5.8-5.8,5.8s-5.8-2.6-5.8-5.8
	s2.6-5.8,5.8-5.8S432.7,367.3,432.7,370.5"/>
<path id="dot-17" vector-effect="non-scaling-stroke" class="st31" d="M534.8,370.5c0,3.2-2.6,5.8-5.8,5.8s-5.8-2.6-5.8-5.8
	s2.6-5.8,5.8-5.8S534.8,367.3,534.8,370.5"/>
<path id="dot-18" vector-effect="non-scaling-stroke" class="st30" d="M289.7,406.1c0,3.2-2.6,5.8-5.8,5.8s-5.8-2.6-5.8-5.8
	s2.6-5.8,5.8-5.8S289.7,402.9,289.7,406.1"/>
<path id="dot-19" vector-effect="non-scaling-stroke" class="st31" d="M391.9,406.1c0,3.2-2.6,5.8-5.8,5.8s-5.8-2.6-5.8-5.8
	s2.6-5.8,5.8-5.8S391.9,402.9,391.9,406.1"/>
<path id="dot-20" vector-effect="non-scaling-stroke" class="st30" d="M299.9,441.6c0,3.2-2.6,5.8-5.8,5.8s-5.8-2.6-5.8-5.8
	s2.6-5.8,5.8-5.8S299.9,438.4,299.9,441.6"/>
<path id="dot-21" vector-effect="non-scaling-stroke" class="st31" d="M402.1,441.6c0,3.2-2.6,5.8-5.8,5.8s-5.8-2.6-5.8-5.8
	s2.6-5.8,5.8-5.8S402.1,438.4,402.1,441.6"/>
<path id="dot-22" vector-effect="non-scaling-stroke" class="st30" d="M289.7,477.2c0,3.2-2.6,5.8-5.8,5.8s-5.8-2.6-5.8-5.8
	s2.6-5.8,5.8-5.8S289.7,474,289.7,477.2"/>
<path id="dot-23" vector-effect="non-scaling-stroke" class="st31" d="M402.1,477.2c0,3.2-2.6,5.8-5.8,5.8s-5.8-2.6-5.8-5.8
	s2.6-5.8,5.8-5.8S402.1,474,402.1,477.2"/>
<text transform="matrix(1 0 0 1 285.18 45.8101)" class="st30 st27 st32">Pe</text>
<text transform="matrix(1 0 0 1 300.58 45.8101)" class="st30 st27 st32">r</text>
<text transform="matrix(1 0 0 1 304.68 45.8101)" class="st30 st27 st32">cent of f</text>
<text transform="matrix(1 0 0 1 352.35 45.8101)" class="st30 st27 st32">r</text>
<text transform="matrix(1 0 0 1 356.45 45.8101)" class="st30 st27 st32">eshmen</text>
<text transform="matrix(1 0 0 1 302.07 61.41)" class="st30 st27 st32">who a</text>
<text transform="matrix(1 0 0 1 337.21 61.41)" class="st30 st27 st32">r</text>
<text transform="matrix(1 0 0 1 341.3 61.41)" class="st30 st27 st32">e Hispanic</text>
<text transform="matrix(1 0 0 1 645.1699 30.21)" class="st31 st27 st32">Pe</text>
<text transform="matrix(1 0 0 1 660.5701 30.21)" class="st31 st27 st32">r</text>
<text transform="matrix(1 0 0 1 664.6699 30.21)" class="st31 st27 st32">cent of public</text>
<text transform="matrix(1 0 0 1 615.08 45.8101)" class="st31 st27 st32">high school graduates</text>
<text transform="matrix(1 0 0 1 603.3 61.41)" class="st31 st27 st32">who a</text>
<text transform="matrix(1 0 0 1 638.4399 61.41)" class="st31 st27 st32">r</text>
<text transform="matrix(1 0 0 1 642.53 61.41)" class="st31 st27 st32">e Hispanic/Latino</text>
<text transform="matrix(1 0 0 1 361.14 90.57)" class="st30 st27 st33">20%</text>
<text transform="matrix(1 0 0 1 299.86 161.18)" class="st30 st27 st33">14%</text>
<text transform="matrix(1 0 0 1 453.07 125.65)" class="st30 st27 st33">29%</text>
<text transform="matrix(1 0 0 1 442.86 196.77)" class="st30 st27 st33">28%</text>
<text transform="matrix(1 0 0 1 412.22 232.33)" class="st30 st27 st33">25%</text>
<text transform="matrix(1 0 0 1 259 267.89)" class="st30 st27 st33">10%</text>
<text transform="matrix(1 0 0 1 269.22 303.44)" class="st30 st27 st33">11%</text>
<text transform="matrix(1 0 0 1 299.86 338.81)" class="st30 st27 st33">14%</text>
<text transform="matrix(1 0 0 1 391.79 374.53)" class="st30 st27 st33">23%</text>
<text transform="matrix(1 0 0 1 254.9 409.93)" class="st30 st27 st33">9%</text>
<text transform="matrix(1 0 0 1 259 444.88)" class="st30 st27 st33">10%</text>
<text transform="matrix(1 0 0 1 254.9 481.04)" class="st30 st27 st33">9%</text>
<text transform="matrix(1 0 0 1 755.35 90.57)" class="st31 st27 st33">54%</text>
<text transform="matrix(1 0 0 1 551.0601 161.13)" class="st31 st27 st33">34%</text>
<text transform="matrix(1 0 0 1 734.9199 125.65)" class="st31 st27 st33">52%</text>
<text transform="matrix(1 0 0 1 663.4199 196.72)" class="st31 st27 st33">45%</text>
<text transform="matrix(1 0 0 1 632.77 232.28)" class="st31 st27 st33">42%</text>
<text transform="matrix(1 0 0 1 469.35 267.85)" class="st31 st27 st33">26%</text>
<text transform="matrix(1 0 0 1 479.5601 303.4)" class="st31 st27 st33">27%</text>
<text transform="matrix(1 0 0 1 489.77 338.77)" class="st31 st27 st33">28%</text>
<text transform="matrix(1 0 0 1 540.85 374.48)" class="st31 st27 st33">33%</text>
<text transform="matrix(1 0 0 1 397.85 409.88)" class="st31 st27 st33">19%</text>
<text transform="matrix(1 0 0 1 408.06 444.84)" class="st31 st27 st33">20%</text>
<text transform="matrix(1 0 0 1 408.06 481)" class="st31 st27 st33">20%</text>
</svg>
