<?xml version="1.0" encoding="UTF-8"?>
<svg id="fl-legend-discrete-color-0-svg-screenshot-container" xmlns="http://www.w3.org/2000/svg" xmlns:xlink="http://www.w3.org/1999/xlink" viewBox="0 0 800 515.75">
  <defs>
    <style>
      .cls-1, .cls-2, .cls-3, .cls-4, .cls-5, .cls-6, .cls-7, .cls-8, .cls-9, .cls-10, .cls-11, .cls-12, .cls-13, .cls-14, .cls-15, .cls-16, .cls-17, .cls-18, .cls-19 {
        fill: none;
      }

      .cls-20, .cls-21, .cls-22, .cls-23, .cls-24, .cls-25, .cls-26, .cls-18, .cls-27, .cls-28, .cls-29, .cls-30 {
        isolation: isolate;
      }

      .cls-20, .cls-21, .cls-22, .cls-23, .cls-24, .cls-25, .cls-26, .cls-27, .cls-28, .cls-29, .cls-30 {
        font-family: HelveticaNeue, 'Helvetica Neue';
      }

      .cls-20, .cls-21, .cls-25, .cls-27, .cls-28 {
        font-size: 13px;
      }

      .cls-20, .cls-22, .cls-26 {
        letter-spacing: -.02em;
      }

      .cls-2 {
        clip-path: url(#clippath-8);
      }

      .cls-3 {
        clip-path: url(#clippath-6);
      }

      .cls-4 {
        clip-path: url(#clippath-4);
      }

      .cls-5 {
        clip-path: url(#clippath-2);
      }

      .cls-21 {
        letter-spacing: -.02em;
      }

      .cls-6 {
        stroke-linecap: square;
      }

      .cls-6, .cls-7, .cls-17 {
        stroke: #ddd;
      }

      .cls-31, .cls-22, .cls-24, .cls-30 {
        fill: #0082b3;
      }

      .cls-32 {
        fill: #fff;
      }

      .cls-33, .cls-23, .cls-26, .cls-29 {
        fill: #99def8;
      }

      .cls-7 {
        stroke-miterlimit: 10;
        stroke-width: 5px;
      }

      .cls-34 {
        clip-path: url(#clippath-1);
      }

      .cls-35 {
        clip-path: url(#clippath-3);
      }

      .cls-36 {
        clip-path: url(#clippath-7);
      }

      .cls-37 {
        clip-path: url(#clippath-5);
      }

      .cls-38 {
        clip-path: url(#clippath-9);
      }

      .cls-8 {
        clip-path: url(#clippath-14);
      }

      .cls-9 {
        clip-path: url(#clippath-12);
      }

      .cls-10 {
        clip-path: url(#clippath-18);
      }

      .cls-11 {
        clip-path: url(#clippath-16);
      }

      .cls-12 {
        clip-path: url(#clippath-10);
      }

      .cls-13 {
        clip-path: url(#clippath-22);
      }

      .cls-14 {
        clip-path: url(#clippath-24);
      }

      .cls-15 {
        clip-path: url(#clippath-20);
      }

      .cls-16 {
        clip-path: url(#clippath-26);
      }

      .cls-22, .cls-26, .cls-29, .cls-30 {
        font-size: 12px;
      }

      .cls-23, .cls-24 {
        font-size: 11px;
      }

      .cls-39 {
        clip-path: url(#clippath-21);
      }

      .cls-40 {
        clip-path: url(#clippath-23);
      }

      .cls-41 {
        clip-path: url(#clippath-25);
      }

      .cls-42 {
        clip-path: url(#clippath-27);
      }

      .cls-43 {
        clip-path: url(#clippath-13);
      }

      .cls-44 {
        clip-path: url(#clippath-15);
      }

      .cls-45 {
        clip-path: url(#clippath-17);
      }

      .cls-46 {
        clip-path: url(#clippath-19);
      }

      .cls-47 {
        clip-path: url(#clippath-11);
      }

      .cls-25 {
        letter-spacing: -.11em;
      }

      .cls-18 {
        opacity: .7;
        stroke: #bcbcbc;
        stroke-width: 5.6px;
      }

      .cls-27 {
        letter-spacing: -.03em;
      }

      .cls-19 {
        clip-path: url(#clippath);
      }
    </style>
    <clipPath id="clippath">
      <polygon class="cls-1" points="19.98 34.18 20.98 34.18 19.98 35.18 19.98 34.18"/>
    </clipPath>
    <clipPath id="clippath-1">
      <polygon class="cls-19" points="17.98 32.18 16.98 32.18 17.98 31.18 17.98 32.18"/>
    </clipPath>
    <clipPath id="clippath-2">
      <polygon class="cls-1" points="19.98 34.18 20.98 34.18 19.98 35.18 19.98 34.18"/>
    </clipPath>
    <clipPath id="clippath-3">
      <polygon class="cls-5" points="17.98 32.18 16.98 32.18 17.98 31.18 17.98 32.18"/>
    </clipPath>
    <clipPath id="clippath-4">
      <polygon class="cls-1" points="19.98 34.18 20.98 34.18 19.98 35.18 19.98 34.18"/>
    </clipPath>
    <clipPath id="clippath-5">
      <polygon class="cls-4" points="17.98 32.18 16.98 32.18 17.98 31.18 17.98 32.18"/>
    </clipPath>
    <clipPath id="clippath-6">
      <polygon class="cls-1" points="19.98 34.18 20.98 34.18 19.98 35.18 19.98 34.18"/>
    </clipPath>
    <clipPath id="clippath-7">
      <polygon class="cls-3" points="17.98 32.18 16.98 32.18 17.98 31.18 17.98 32.18"/>
    </clipPath>
    <clipPath id="clippath-8">
      <polygon class="cls-1" points="19.98 34.18 20.98 34.18 19.98 35.18 19.98 34.18"/>
    </clipPath>
    <clipPath id="clippath-9">
      <polygon class="cls-2" points="17.98 32.18 16.98 32.18 17.98 31.18 17.98 32.18"/>
    </clipPath>
    <clipPath id="clippath-10">
      <polygon class="cls-1" points="19.98 34.18 20.98 34.18 19.98 35.18 19.98 34.18"/>
    </clipPath>
    <clipPath id="clippath-11">
      <polygon class="cls-12" points="17.98 32.18 16.98 32.18 17.98 31.18 17.98 32.18"/>
    </clipPath>
    <clipPath id="clippath-12">
      <polygon class="cls-1" points="19.98 34.18 20.98 34.18 19.98 35.18 19.98 34.18"/>
    </clipPath>
    <clipPath id="clippath-13">
      <polygon class="cls-9" points="17.98 32.18 16.98 32.18 17.98 31.18 17.98 32.18"/>
    </clipPath>
    <clipPath id="clippath-14">
      <polygon class="cls-1" points="19.98 34.18 20.98 34.18 19.98 35.18 19.98 34.18"/>
    </clipPath>
    <clipPath id="clippath-15">
      <polygon class="cls-8" points="17.98 32.18 16.98 32.18 17.98 31.18 17.98 32.18"/>
    </clipPath>
    <clipPath id="clippath-16">
      <polygon class="cls-1" points="19.98 34.18 20.98 34.18 19.98 35.18 19.98 34.18"/>
    </clipPath>
    <clipPath id="clippath-17">
      <polygon class="cls-11" points="17.98 32.18 16.98 32.18 17.98 31.18 17.98 32.18"/>
    </clipPath>
    <clipPath id="clippath-18">
      <polygon class="cls-1" points="19.98 34.18 20.98 34.18 19.98 35.18 19.98 34.18"/>
    </clipPath>
    <clipPath id="clippath-19">
      <polygon class="cls-10" points="17.98 32.18 16.98 32.18 17.98 31.18 17.98 32.18"/>
    </clipPath>
    <clipPath id="clippath-20">
      <polygon class="cls-1" points="19.98 34.18 20.98 34.18 19.98 35.18 19.98 34.18"/>
    </clipPath>
    <clipPath id="clippath-21">
      <polygon class="cls-15" points="17.98 32.18 16.98 32.18 17.98 31.18 17.98 32.18"/>
    </clipPath>
    <clipPath id="clippath-22">
      <polygon class="cls-1" points="19.98 34.18 20.98 34.18 19.98 35.18 19.98 34.18"/>
    </clipPath>
    <clipPath id="clippath-23">
      <polygon class="cls-13" points="17.98 32.18 16.98 32.18 17.98 31.18 17.98 32.18"/>
    </clipPath>
    <clipPath id="clippath-24">
      <polygon class="cls-1" points="19.98 34.18 20.98 34.18 19.98 35.18 19.98 34.18"/>
    </clipPath>
    <clipPath id="clippath-25">
      <polygon class="cls-14" points="17.98 32.18 16.98 32.18 17.98 31.18 17.98 32.18"/>
    </clipPath>
    <clipPath id="clippath-26">
      <polygon class="cls-1" points="19.98 34.18 20.98 34.18 19.98 35.18 19.98 34.18"/>
    </clipPath>
    <clipPath id="clippath-27">
      <polygon class="cls-16" points="17.98 32.18 16.98 32.18 17.98 31.18 17.98 32.18"/>
    </clipPath>
  </defs>
  <g>
    <g class="cls-34">
      <path class="cls-18" d="M375.6,69.49h389.37" marker-end="url(#arrowhead-line-University-of-Mississippi-facet-)"/>
    </g>
    <g class="cls-35">
      <path class="cls-18" d="M356.13,100.59h292.03" marker-end="url(#arrowhead-line-University-of-Georgia-facet-)"/>
    </g>
    <g class="cls-37">
      <path class="cls-18" d="M375.6,131.7h262.82" marker-end="url(#arrowhead-line-University-of-South-Carolina-Columbia-facet-)"/>
    </g>
    <g class="cls-36">
      <path class="cls-18" d="M482.68,162.8h233.62" marker-end="url(#arrowhead-line-Louisiana-State-University-and-Agricultural-&amp;-Mechanical-College-facet-)"/>
    </g>
    <g class="cls-38">
      <path class="cls-18" d="M365.87,193.91h233.62" marker-end="url(#arrowhead-line-University-of-Delaware-facet-)"/>
    </g>
    <g class="cls-47">
      <path class="cls-18" d="M395.07,225.02h223.89" marker-end="url(#arrowhead-line-University-of-Maryland-College-Park-facet-)"/>
    </g>
    <g class="cls-43">
      <path class="cls-18" d="M404.8,256.12h194.68" marker-end="url(#arrowhead-line-The-University-of-Alabama-facet-)"/>
    </g>
    <g class="cls-44">
      <path class="cls-18" d="M336.66,287.23h194.68" marker-end="url(#arrowhead-line-The-University-of-Tennessee-Knoxville-facet-)"/>
    </g>
    <g class="cls-45">
      <path class="cls-18" d="M346.4,318.34h155.75" marker-end="url(#arrowhead-line-University-of-Florida-facet-)"/>
    </g>
    <g class="cls-46">
      <path class="cls-18" d="M326.93,349.44h165.48" marker-end="url(#arrowhead-line-University-of-Arkansas-facet-)"/>
    </g>
    <g class="cls-39">
      <path class="cls-18" d="M385.33,380.55h155.75" marker-end="url(#arrowhead-line-University-of-North-Carolina-at-Chapel-Hill-facet-)"/>
    </g>
    <g class="cls-40">
      <path class="cls-18" d="M356.13,411.65h155.75" marker-end="url(#arrowhead-line-University-of-Virginia-Main-Campus-facet-)"/>
    </g>
    <g class="cls-41">
      <path class="cls-18" d="M336.66,442.76h126.54" marker-end="url(#arrowhead-line-University-of-Michigan-Ann-Arbor-facet-)"/>
    </g>
    <g class="cls-42">
      <path class="cls-18" d="M346.4,473.87h97.34" marker-end="url(#arrowhead-line-University-of-Missouri-Columbia-facet-)"/>
    </g>
  </g>
  <line class="cls-6" x1="286.06" y1="476.72" x2="286.06" y2="60.89"/>
  <line class="cls-17" x1="286.06" y1="461.87" x2="279.38" y2="461.87"/>
  <line class="cls-17" x1="286.06" y1="432.17" x2="279.38" y2="432.17"/>
  <line class="cls-17" x1="286.06" y1="402.46" x2="279.38" y2="402.46"/>
  <line class="cls-17" x1="286.06" y1="372.76" x2="279.38" y2="372.76"/>
  <line class="cls-17" x1="286.06" y1="343.06" x2="279.38" y2="343.06"/>
  <line class="cls-17" x1="286.06" y1="313.36" x2="279.38" y2="313.36"/>
  <line class="cls-17" x1="286.06" y1="283.65" x2="279.38" y2="283.65"/>
  <line class="cls-17" x1="286.06" y1="253.95" x2="279.38" y2="253.95"/>
  <line class="cls-17" x1="286.06" y1="224.25" x2="279.38" y2="224.25"/>
  <line class="cls-17" x1="286.06" y1="194.55" x2="279.38" y2="194.55"/>
  <line class="cls-17" x1="286.06" y1="164.85" x2="279.38" y2="164.85"/>
  <line class="cls-17" x1="286.06" y1="135.14" x2="279.38" y2="135.14"/>
  <line class="cls-17" x1="286.06" y1="105.44" x2="279.38" y2="105.44"/>
  <line class="cls-17" x1="286.06" y1="75.74" x2="279.38" y2="75.74"/>
  <line class="cls-7" x1="360.42" y1="75.74" x2="732.22" y2="75.74"/>
  <line class="cls-7" x1="344.7" y1="105.44" x2="619.76" y2="105.44"/>
  <line class="cls-7" x1="358.71" y1="135.14" x2="611.38" y2="135.14"/>
  <line class="cls-7" x1="460.95" y1="164.85" x2="685.74" y2="164.85"/>
  <line class="cls-7" x1="352.46" y1="194.55" x2="573.03" y2="194.55"/>
  <line class="cls-7" x1="377.3" y1="224.25" x2="592.79" y2="224.25"/>
  <line class="cls-7" x1="386.6" y1="253.95" x2="574.2" y2="253.95"/>
  <line class="cls-7" x1="324.28" y1="284.06" x2="508.28" y2="284.06"/>
  <line class="cls-7" x1="330.83" y1="313.36" x2="481.25" y2="313.36"/>
  <line class="cls-7" x1="313.95" y1="343.06" x2="471.96" y2="343.06"/>
  <line class="cls-7" x1="369.72" y1="372.76" x2="518.43" y2="372.76"/>
  <line class="cls-7" x1="342.87" y1="402.46" x2="490.55" y2="402.46"/>
  <line class="cls-7" x1="323.42" y1="432.17" x2="444.07" y2="432.17"/>
  <line class="cls-7" x1="330.83" y1="461.87" x2="425.48" y2="461.87"/>
  <line class="cls-17" x1="360.42" y1="74.8" x2="360.42" y2="59.83"/>
  <line class="cls-17" x1="732.22" y1="73.37" x2="732.22" y2="58.4"/>
  <path id="dot-0" class="cls-33" d="M366.11,75.74c0,3.14-2.55,5.69-5.69,5.69s-5.69-2.55-5.69-5.69,2.55-5.69,5.69-5.69,5.69,2.55,5.69,5.69" vector-effect="non-scaling-stroke"/>
  <path id="dot-1" class="cls-31" d="M737.91,75.74c0,3.14-2.55,5.69-5.69,5.69s-5.69-2.55-5.69-5.69,2.55-5.69,5.69-5.69,5.69,2.55,5.69,5.69" vector-effect="non-scaling-stroke"/>
  <path id="dot-2" class="cls-33" d="M347.52,105.44c0,3.14-2.55,5.69-5.69,5.69s-5.69-2.55-5.69-5.69,2.55-5.69,5.69-5.69,5.69,2.55,5.69,5.69" vector-effect="non-scaling-stroke"/>
  <path id="dot-3" class="cls-31" d="M626.37,105.44c0,3.14-2.55,5.69-5.69,5.69s-5.69-2.55-5.69-5.69,2.55-5.69,5.69-5.69,5.69,2.55,5.69,5.69" vector-effect="non-scaling-stroke"/>
  <path id="dot-4" class="cls-33" d="M366.11,135.14c0,3.14-2.55,5.69-5.69,5.69s-5.69-2.55-5.69-5.69,2.55-5.69,5.69-5.69,5.69,2.55,5.69,5.69" vector-effect="non-scaling-stroke"/>
  <path id="dot-5" class="cls-31" d="M617.08,135.14c0,3.14-2.55,5.69-5.69,5.69s-5.69-2.55-5.69-5.69,2.55-5.69,5.69-5.69,5.69,2.55,5.69,5.69" vector-effect="non-scaling-stroke"/>
  <path id="dot-6" class="cls-33" d="M468.36,164.85c0,3.14-2.55,5.69-5.69,5.69s-5.69-2.55-5.69-5.69,2.55-5.69,5.69-5.69,5.69,2.55,5.69,5.69" vector-effect="non-scaling-stroke"/>
  <path id="dot-7" class="cls-31" d="M691.43,164.85c0,3.14-2.55,5.69-5.69,5.69s-5.69-2.55-5.69-5.69,2.55-5.69,5.69-5.69,5.69,2.55,5.69,5.69" vector-effect="non-scaling-stroke"/>
  <path id="dot-8" class="cls-33" d="M356.82,194.55c0,3.14-2.55,5.69-5.69,5.69s-5.69-2.55-5.69-5.69,2.55-5.69,5.69-5.69,5.69,2.55,5.69,5.69" vector-effect="non-scaling-stroke"/>
  <path id="dot-9" class="cls-31" d="M579.9,194.55c0,3.14-2.55,5.69-5.69,5.69s-5.69-2.55-5.69-5.69,2.55-5.69,5.69-5.69,5.69,2.55,5.69,5.69" vector-effect="non-scaling-stroke"/>
  <path id="dot-10" class="cls-33" d="M384.7,224.25c0,3.14-2.55,5.69-5.69,5.69s-5.69-2.55-5.69-5.69,2.55-5.69,5.69-5.69,5.69,2.55,5.69,5.69" vector-effect="non-scaling-stroke"/>
  <path id="dot-11" class="cls-31" d="M598.49,224.25c0,3.14-2.55,5.69-5.69,5.69s-5.69-2.55-5.69-5.69,2.55-5.69,5.69-5.69,5.69,2.55,5.69,5.69" vector-effect="non-scaling-stroke"/>
  <path id="dot-12" class="cls-33" d="M394,253.95c0,3.14-2.55,5.69-5.69,5.69s-5.69-2.55-5.69-5.69,2.55-5.69,5.69-5.69,5.69,2.55,5.69,5.69" vector-effect="non-scaling-stroke"/>
  <path id="dot-13" class="cls-31" d="M579.9,253.95c0,3.14-2.55,5.69-5.69,5.69s-5.69-2.55-5.69-5.69,2.55-5.69,5.69-5.69,5.69,2.55,5.69,5.69" vector-effect="non-scaling-stroke"/>
  <path id="dot-14" class="cls-33" d="M328.93,283.65c0,3.14-2.55,5.69-5.69,5.69s-5.69-2.55-5.69-5.69,2.55-5.69,5.69-5.69,5.69,2.55,5.69,5.69" vector-effect="non-scaling-stroke"/>
  <path id="dot-15" class="cls-31" d="M514.83,283.65c0,3.14-2.55,5.69-5.69,5.69s-5.69-2.55-5.69-5.69,2.55-5.69,5.69-5.69,5.69,2.55,5.69,5.69" vector-effect="non-scaling-stroke"/>
  <path id="dot-16" class="cls-33" d="M338.23,313.36c0,3.14-2.55,5.69-5.69,5.69s-5.69-2.55-5.69-5.69,2.55-5.69,5.69-5.69,5.69,2.55,5.69,5.69" vector-effect="non-scaling-stroke"/>
  <path id="dot-17" class="cls-31" d="M486.95,313.36c0,3.14-2.55,5.69-5.69,5.69s-5.69-2.55-5.69-5.69,2.55-5.69,5.69-5.69,5.69,2.55,5.69,5.69" vector-effect="non-scaling-stroke"/>
  <path id="dot-18" class="cls-33" d="M319.64,343.06c0,3.14-2.55,5.69-5.69,5.69s-5.69-2.55-5.69-5.69,2.55-5.69,5.69-5.69,5.69,2.55,5.69,5.69" vector-effect="non-scaling-stroke"/>
  <path id="dot-19" class="cls-31" d="M477.65,343.06c0,3.14-2.55,5.69-5.69,5.69s-5.69-2.55-5.69-5.69,2.55-5.69,5.69-5.69,5.69,2.55,5.69,5.69" vector-effect="non-scaling-stroke"/>
  <path id="dot-20" class="cls-33" d="M375.41,372.76c0,3.14-2.55,5.69-5.69,5.69s-5.69-2.55-5.69-5.69,2.55-5.69,5.69-5.69,5.69,2.55,5.69,5.69" vector-effect="non-scaling-stroke"/>
  <path id="dot-21" class="cls-31" d="M524.13,372.76c0,3.14-2.55,5.69-5.69,5.69s-5.69-2.55-5.69-5.69,2.55-5.69,5.69-5.69,5.69,2.55,5.69,5.69" vector-effect="non-scaling-stroke"/>
  <path id="dot-22" class="cls-33" d="M347.52,402.46c0,3.14-2.55,5.69-5.69,5.69s-5.69-2.55-5.69-5.69,2.55-5.69,5.69-5.69,5.69,2.55,5.69,5.69" vector-effect="non-scaling-stroke"/>
  <path id="dot-23" class="cls-31" d="M496.24,402.46c0,3.14-2.55,5.69-5.69,5.69s-5.69-2.55-5.69-5.69,2.55-5.69,5.69-5.69,5.69,2.55,5.69,5.69" vector-effect="non-scaling-stroke"/>
  <path id="dot-24" class="cls-33" d="M328.93,432.17c0,3.14-2.55,5.69-5.69,5.69s-5.69-2.55-5.69-5.69,2.55-5.69,5.69-5.69,5.69,2.55,5.69,5.69" vector-effect="non-scaling-stroke"/>
  <path id="dot-25" class="cls-31" d="M449.77,432.17c0,3.14-2.55,5.69-5.69,5.69s-5.69-2.55-5.69-5.69,2.55-5.69,5.69-5.69,5.69,2.55,5.69,5.69" vector-effect="non-scaling-stroke"/>
  <path id="dot-26" class="cls-33" d="M338.23,461.87c0,3.14-2.55,5.69-5.69,5.69s-5.69-2.55-5.69-5.69,2.55-5.69,5.69-5.69,5.69,2.55,5.69,5.69" vector-effect="non-scaling-stroke"/>
  <path id="dot-27" class="cls-31" d="M431.18,461.87c0,3.14-2.55,5.69-5.69,5.69s-5.69-2.55-5.69-5.69,2.55-5.69,5.69-5.69,5.69,2.55,5.69,5.69" vector-effect="non-scaling-stroke"/>
  <text class="cls-29" transform="translate(358.71 39)"><tspan x="0" y="0">Pe</tspan></text>
  <text class="cls-26" transform="translate(372.93 39)"><tspan x="0" y="0">r</tspan></text>
  <text class="cls-29" transform="translate(376.71 39)"><tspan x="0" y="0">cent of f</tspan></text>
  <text class="cls-26" transform="translate(420.71 39)"><tspan x="0" y="0">r</tspan></text>
  <text class="cls-29" transform="translate(424.49 39)"><tspan x="0" y="0">eshmen</tspan></text>
  <text class="cls-29" transform="translate(358.71 54)"><tspan x="0" y="0">who a</tspan></text>
  <text class="cls-26" transform="translate(391.15 54)"><tspan x="0" y="0">r</tspan></text>
  <text class="cls-29" transform="translate(394.93 54)"><tspan x="0" y="0">e Black</tspan></text>
  <text class="cls-30" transform="translate(612.69 24)"><tspan x="0" y="0">Pe</tspan></text>
  <text class="cls-22" transform="translate(626.91 24)"><tspan x="0" y="0">r</tspan></text>
  <text class="cls-30" transform="translate(630.69 24)"><tspan x="0" y="0">cent of state public</tspan></text>
  <text class="cls-30" transform="translate(612.69 39)"><tspan x="0" y="0">high school graduates</tspan></text>
  <text class="cls-30" transform="translate(612.69 54)"><tspan x="0" y="0">who a</tspan></text>
  <text class="cls-22" transform="translate(645.13 54)"><tspan x="0" y="0">r</tspan></text>
  <text class="cls-30" transform="translate(648.91 54)"><tspan x="0" y="0">e Black</tspan></text>
  <text class="cls-23" transform="translate(332.63 79.71)"><tspan x="0" y="0">8%</tspan></text>
  <text class="cls-23" transform="translate(332.63 139.11)"><tspan x="0" y="0">8%</tspan></text>
  <text class="cls-23" transform="translate(314.04 109.41)"><tspan x="0" y="0">6%</tspan></text>
  <text class="cls-23" transform="translate(428.76 168.45)"><tspan x="0" y="0">19%</tspan></text>
  <text class="cls-23" transform="translate(323.34 197.55)"><tspan x="0" y="0">7%</tspan></text>
  <text class="cls-23" transform="translate(345.1 227.22)"><tspan x="0" y="0">10%</tspan></text>
  <text class="cls-23" transform="translate(354.4 257.87)"><tspan x="0" y="0">11%</tspan></text>
  <text class="cls-23" transform="translate(295.45 286.62)"><tspan x="0" y="0">4%</tspan></text>
  <text class="cls-23" transform="translate(304.75 316.33)"><tspan x="0" y="0">5%</tspan></text>
  <text class="cls-23" transform="translate(286.16 346.75)"><tspan x="0" y="0">3%</tspan></text>
  <text class="cls-23" transform="translate(341.93 375.73)"><tspan x="0" y="0">9%</tspan></text>
  <text class="cls-23" transform="translate(314.04 406.43)"><tspan x="0" y="0">6%</tspan></text>
  <text class="cls-23" transform="translate(295.45 435.86)"><tspan x="0" y="0">4%</tspan></text>
  <text class="cls-23" transform="translate(304.75 465.56)"><tspan x="0" y="0">5%</tspan></text>
  <text class="cls-24" transform="translate(743.6 79.71)"><tspan x="0" y="0">48%</tspan></text>
  <text class="cls-24" transform="translate(632.04 109.41)"><tspan x="0" y="0">36%</tspan></text>
  <text class="cls-24" transform="translate(697.12 168.45)"><tspan x="0" y="0">43%</tspan></text>
  <text class="cls-24" transform="translate(622.75 139.11)"><tspan x="0" y="0">35%</tspan></text>
  <text class="cls-24" transform="translate(585.57 198.52)"><tspan x="0" y="0">31%</tspan></text>
  <text class="cls-24" transform="translate(604.16 228.22)"><tspan x="0" y="0">33%</tspan></text>
  <text class="cls-24" transform="translate(585.57 257.95)"><tspan x="0" y="0">31%</tspan></text>
  <text class="cls-24" transform="translate(520.57 287.62)"><tspan x="0" y="0">24%</tspan></text>
  <text class="cls-24" transform="translate(492.69 317.33)"><tspan x="0" y="0">21%</tspan></text>
  <text class="cls-24" transform="translate(483.39 346.06)"><tspan x="0" y="0">20%</tspan></text>
  <text class="cls-24" transform="translate(529.87 375.76)"><tspan x="0" y="0">25%</tspan></text>
  <text class="cls-24" transform="translate(501.98 406.43)"><tspan x="0" y="0">22%</tspan></text>
  <text class="cls-24" transform="translate(454.81 436.86)"><tspan x="0" y="0">17%</tspan></text>
  <text class="cls-24" transform="translate(436.22 465.56)"><tspan x="0" y="0">15%</tspan></text>
  <text class="cls-28" transform="translate(86.83 465.84)"><tspan x="0" y="0">University of Missouri-Columbia</tspan></text>
  <text class="cls-28" transform="translate(79.85 436.14)"><tspan x="0" y="0">University of Michigan-Ann Arbor</tspan></text>
  <text class="cls-28" transform="translate(68.64 406.43)"><tspan x="0" y="0">University of </tspan></text>
  <text class="cls-21" transform="translate(144.47 406.43)"><tspan x="0" y="0">V</tspan></text>
  <text class="cls-28" transform="translate(152.18 406.43)"><tspan x="0" y="0">i</tspan></text>
  <text class="cls-27" transform="translate(155.06 406.43)"><tspan x="0" y="0">r</tspan></text>
  <text class="cls-28" transform="translate(159.03 406.43)"><tspan x="0" y="0">ginia-Main Campus</tspan></text>
  <text class="cls-28" transform="translate(31.48 376.73)"><tspan x="0" y="0">University of North Ca</tspan></text>
  <text class="cls-20" transform="translate(159.79 376.73)"><tspan x="0" y="0">r</tspan></text>
  <text class="cls-28" transform="translate(163.88 376.73)"><tspan x="0" y="0">olina at Chapel Hill</tspan></text>
  <text class="cls-28" transform="translate(142.94 347.03)"><tspan x="0" y="0">University of Arkansas</tspan></text>
  <text class="cls-28" transform="translate(156.91 317.33)"><tspan x="0" y="0">University of Florida</tspan></text>
  <text class="cls-28" transform="translate(52.66 287.62)"><tspan x="0" y="0">The University of </tspan></text>
  <text class="cls-25" transform="translate(153.77 287.62)"><tspan x="0" y="0">T</tspan></text>
  <text class="cls-28" transform="translate(159.79 287.62)"><tspan x="0" y="0">ennessee-Knoxville</tspan></text>
  <text class="cls-28" transform="translate(120.29 257.92)"><tspan x="0" y="0">The University of Alabama</tspan></text>
  <text class="cls-28" transform="translate(63.5 228.22)"><tspan x="0" y="0">University of Maryland-College Park</tspan></text>
  <text class="cls-28" transform="translate(142.72 198.52)"><tspan x="0" y="0">University of Delawa</tspan></text>
  <text class="cls-20" transform="translate(261.38 198.52)"><tspan x="0" y="0">r</tspan></text>
  <text class="cls-28" transform="translate(265.48 198.52)"><tspan x="0" y="0">e</tspan></text>
  <text class="cls-28" transform="translate(96.45 159.94)"><tspan x="0" y="0">Louisiana State University and</tspan></text>
  <text class="cls-28" transform="translate(76.65 175.17)"><tspan x="0" y="0">Agricultural &amp; Mechanical College</tspan></text>
  <text class="cls-28" transform="translate(49.99 139.11)"><tspan x="0" y="0">University of South Ca</tspan></text>
  <text class="cls-20" transform="translate(180.24 139.11)"><tspan x="0" y="0">r</tspan></text>
  <text class="cls-28" transform="translate(184.33 139.11)"><tspan x="0" y="0">olina-Columbia</tspan></text>
  <text class="cls-28" transform="translate(151.02 109.41)"><tspan x="0" y="0">University of Geo</tspan></text>
  <text class="cls-27" transform="translate(251.16 109.41)"><tspan x="0" y="0">r</tspan></text>
  <text class="cls-28" transform="translate(255.12 109.41)"><tspan x="0" y="0">gia</tspan></text>
  <text class="cls-28" transform="translate(132.34 79.71)"><tspan x="0" y="0">University of Mississippi</tspan></text>
  <rect class="cls-32" x="12.94" y="120.93" width="776.75" height="376.13"/>
</svg>