<?xml version="1.0" encoding="utf-8"?>
<!-- Generator: Adobe Illustrator 27.0.0, SVG Export Plug-In . SVG Version: 6.00 Build 0)  -->
<svg version="1.1" id="fl-legend-discrete-color-0-svg-screenshot-container"
	 xmlns="http://www.w3.org/2000/svg" xmlns:xlink="http://www.w3.org/1999/xlink" x="0px" y="0px" viewBox="0 0 800 515.8"
	 style="enable-background:new 0 0 800 515.8;" xml:space="preserve">
<style type="text/css">
	.st0{clip-path:url(#SVGID_00000174564110990230131700000005239317123691340163_);}
	.st1{clip-path:url(#SVGID_00000129191552899129989390000010017116618585816754_);}
	.st2{opacity:0.7;fill:none;stroke:#BCBCBC;stroke-width:5.6;enable-background:new    ;}
	.st3{clip-path:url(#SVGID_00000110431647582351697240000004111086998764351141_);}
	.st4{clip-path:url(#SVGID_00000008834779500762439230000011620436810112988808_);}
	.st5{clip-path:url(#SVGID_00000080890724438064662020000015923594067367749308_);}
	.st6{clip-path:url(#SVGID_00000114052598931682914360000009879577319744471736_);}
	.st7{clip-path:url(#SVGID_00000020368430792640085280000000246648075918607786_);}
	.st8{clip-path:url(#SVGID_00000175284780372529848230000016849190559477065914_);}
	.st9{clip-path:url(#SVGID_00000000935694857190283400000005072816433621881008_);}
	.st10{clip-path:url(#SVGID_00000064331456390019236790000009364157289350560700_);}
	.st11{clip-path:url(#SVGID_00000158009678892479985220000002027329852174634140_);}
	.st12{clip-path:url(#SVGID_00000170998963845496571260000008079377573778464658_);}
	.st13{clip-path:url(#SVGID_00000067929293473575758690000002073323580781151886_);}
	.st14{clip-path:url(#SVGID_00000094618207501111439050000008379150631316418233_);}
	.st15{clip-path:url(#SVGID_00000106148283696684408250000004516546047759903367_);}
	.st16{clip-path:url(#SVGID_00000142168045902654562070000006809830328651410819_);}
	.st17{clip-path:url(#SVGID_00000040547011826895828780000000789070025820047488_);}
	.st18{clip-path:url(#SVGID_00000082356209456868266300000014946460095027881624_);}
	.st19{clip-path:url(#SVGID_00000105392876274863704360000013555296992884794016_);}
	.st20{clip-path:url(#SVGID_00000029756647293947368700000017357667215514785973_);}
	.st21{clip-path:url(#SVGID_00000033328990166997459460000013650464777175240332_);}
	.st22{clip-path:url(#SVGID_00000173845129405875471070000009249538644262206654_);}
	.st23{clip-path:url(#SVGID_00000148644145092056627170000001435142888801001905_);}
	.st24{clip-path:url(#SVGID_00000031920042062004189050000007192491069967418792_);}
	.st25{clip-path:url(#SVGID_00000004548141718461024080000005334732235477355152_);}
	.st26{clip-path:url(#SVGID_00000088820921039448122950000007889593968104392343_);}
	.st27{clip-path:url(#SVGID_00000116914419980057666520000017529595242404667053_);}
	.st28{clip-path:url(#SVGID_00000044174014057241386090000009942222066534403259_);}
	.st29{fill:none;stroke:#DDDDDD;stroke-linecap:square;}
	.st30{fill:none;stroke:#DDDDDD;}
	.st31{fill:none;stroke:#DDDDDD;stroke-width:5;stroke-miterlimit:10;}
	.st32{fill:#99DEF8;}
	.st33{fill:#0082B3;}
	.st34{font-family:'HelveticaNeue';}
	.st35{font-size:12px;}
	.st36{font-size:11px;}
	.st37{font-size:13px;}
	.st38{letter-spacing:-1;}
</style>
<g>
	<g>
		<defs>
			<polygon id="SVGID_1_" points="20,34.2 21,34.2 20,35.2 			"/>
		</defs>
		<defs>
			<polygon id="SVGID_00000017512822844655028300000000923340483707315600_" points="18,32.2 17,32.2 18,31.2 			"/>
		</defs>
		<clipPath id="SVGID_00000042007953920348983920000008988891582656905368_">
			<use xlink:href="#SVGID_1_"  style="overflow:visible;"/>
		</clipPath>
		
			<clipPath id="SVGID_00000055697624821419665600000002520910160469865100_" style="clip-path:url(#SVGID_00000042007953920348983920000008988891582656905368_);">
			<use xlink:href="#SVGID_00000017512822844655028300000000923340483707315600_"  style="overflow:visible;"/>
		</clipPath>
		<g style="clip-path:url(#SVGID_00000055697624821419665600000002520910160469865100_);">
			<path marker-end="url(#arrowhead-line-University-of-Mississippi-facet-)" class="st2" d="M375.6,69.5H765"/>
		</g>
	</g>
	<g>
		<defs>
			<polygon id="SVGID_00000098215512744486341500000005235632860679599774_" points="20,34.2 21,34.2 20,35.2 			"/>
		</defs>
		<defs>
			<polygon id="SVGID_00000166669337707983034400000015395872953712464318_" points="18,32.2 17,32.2 18,31.2 			"/>
		</defs>
		<clipPath id="SVGID_00000019651748722926924230000016415407823704733867_">
			<use xlink:href="#SVGID_00000098215512744486341500000005235632860679599774_"  style="overflow:visible;"/>
		</clipPath>
		
			<clipPath id="SVGID_00000160903394183285859930000008930125255417468067_" style="clip-path:url(#SVGID_00000019651748722926924230000016415407823704733867_);">
			<use xlink:href="#SVGID_00000166669337707983034400000015395872953712464318_"  style="overflow:visible;"/>
		</clipPath>
		<g style="clip-path:url(#SVGID_00000160903394183285859930000008930125255417468067_);">
			<path marker-end="url(#arrowhead-line-University-of-Georgia-facet-)" class="st2" d="M356.1,100.6h292"/>
		</g>
	</g>
	<g>
		<defs>
			<polygon id="SVGID_00000154387341592578641550000001945685826264126646_" points="20,34.2 21,34.2 20,35.2 			"/>
		</defs>
		<defs>
			<polygon id="SVGID_00000020389837370582929840000003942468595232392332_" points="18,32.2 17,32.2 18,31.2 			"/>
		</defs>
		<clipPath id="SVGID_00000028298797494718151780000009839580217595494055_">
			<use xlink:href="#SVGID_00000154387341592578641550000001945685826264126646_"  style="overflow:visible;"/>
		</clipPath>
		
			<clipPath id="SVGID_00000072278248610232556100000012529904800346149284_" style="clip-path:url(#SVGID_00000028298797494718151780000009839580217595494055_);">
			<use xlink:href="#SVGID_00000020389837370582929840000003942468595232392332_"  style="overflow:visible;"/>
		</clipPath>
		<g style="clip-path:url(#SVGID_00000072278248610232556100000012529904800346149284_);">
			<path marker-end="url(#arrowhead-line-University-of-South-Carolina-Columbia-facet-)" class="st2" d="M375.6,131.7h262.8"/>
		</g>
	</g>
	<g>
		<defs>
			<polygon id="SVGID_00000011732895000141115710000010077941645042436744_" points="20,34.2 21,34.2 20,35.2 			"/>
		</defs>
		<defs>
			<polygon id="SVGID_00000010285710649646939600000006789128702715758237_" points="18,32.2 17,32.2 18,31.2 			"/>
		</defs>
		<clipPath id="SVGID_00000113350563660623974680000006015263342222764205_">
			<use xlink:href="#SVGID_00000011732895000141115710000010077941645042436744_"  style="overflow:visible;"/>
		</clipPath>
		
			<clipPath id="SVGID_00000072281697068314144540000007116768243156212885_" style="clip-path:url(#SVGID_00000113350563660623974680000006015263342222764205_);">
			<use xlink:href="#SVGID_00000010285710649646939600000006789128702715758237_"  style="overflow:visible;"/>
		</clipPath>
		<g style="clip-path:url(#SVGID_00000072281697068314144540000007116768243156212885_);">
			
				<path marker-end="url(#arrowhead-line-Louisiana-State-University-and-Agricultural-&amp;-Mechanical-College-facet-)" class="st2" d="
				M482.7,162.8h233.6"/>
		</g>
	</g>
	<g>
		<defs>
			<polygon id="SVGID_00000155112991665650993330000005207321416835205264_" points="20,34.2 21,34.2 20,35.2 			"/>
		</defs>
		<defs>
			<polygon id="SVGID_00000147207645965126138870000000237022875068807310_" points="18,32.2 17,32.2 18,31.2 			"/>
		</defs>
		<clipPath id="SVGID_00000180356248907742353200000001589023452696363426_">
			<use xlink:href="#SVGID_00000155112991665650993330000005207321416835205264_"  style="overflow:visible;"/>
		</clipPath>
		
			<clipPath id="SVGID_00000060717827561856546050000013795794261333152953_" style="clip-path:url(#SVGID_00000180356248907742353200000001589023452696363426_);">
			<use xlink:href="#SVGID_00000147207645965126138870000000237022875068807310_"  style="overflow:visible;"/>
		</clipPath>
		<g style="clip-path:url(#SVGID_00000060717827561856546050000013795794261333152953_);">
			<path marker-end="url(#arrowhead-line-University-of-Delaware-facet-)" class="st2" d="M365.9,193.9h233.6"/>
		</g>
	</g>
	<g>
		<defs>
			<polygon id="SVGID_00000173145498597865052950000000208463955408394910_" points="20,34.2 21,34.2 20,35.2 			"/>
		</defs>
		<defs>
			<polygon id="SVGID_00000124159584755001042480000000487573001393850771_" points="18,32.2 17,32.2 18,31.2 			"/>
		</defs>
		<clipPath id="SVGID_00000103266272029367333500000011518158289660783233_">
			<use xlink:href="#SVGID_00000173145498597865052950000000208463955408394910_"  style="overflow:visible;"/>
		</clipPath>
		
			<clipPath id="SVGID_00000041295724432665665860000006371553384905629838_" style="clip-path:url(#SVGID_00000103266272029367333500000011518158289660783233_);">
			<use xlink:href="#SVGID_00000124159584755001042480000000487573001393850771_"  style="overflow:visible;"/>
		</clipPath>
		<g style="clip-path:url(#SVGID_00000041295724432665665860000006371553384905629838_);">
			<path marker-end="url(#arrowhead-line-University-of-Maryland-College-Park-facet-)" class="st2" d="M395.1,225H619"/>
		</g>
	</g>
	<g>
		<defs>
			<polygon id="SVGID_00000002355818630121102410000014165502264324370594_" points="20,34.2 21,34.2 20,35.2 			"/>
		</defs>
		<defs>
			<polygon id="SVGID_00000132784667127513928510000016535871291547926408_" points="18,32.2 17,32.2 18,31.2 			"/>
		</defs>
		<clipPath id="SVGID_00000139286125697268221750000007079425672539272616_">
			<use xlink:href="#SVGID_00000002355818630121102410000014165502264324370594_"  style="overflow:visible;"/>
		</clipPath>
		
			<clipPath id="SVGID_00000149371576952458844800000011799809327479480480_" style="clip-path:url(#SVGID_00000139286125697268221750000007079425672539272616_);">
			<use xlink:href="#SVGID_00000132784667127513928510000016535871291547926408_"  style="overflow:visible;"/>
		</clipPath>
		<g style="clip-path:url(#SVGID_00000149371576952458844800000011799809327479480480_);">
			<path marker-end="url(#arrowhead-line-The-University-of-Alabama-facet-)" class="st2" d="M404.8,256.1h194.7"/>
		</g>
	</g>
	<g>
		<defs>
			<polygon id="SVGID_00000004535448159535920650000017976893154030746046_" points="20,34.2 21,34.2 20,35.2 			"/>
		</defs>
		<defs>
			<polygon id="SVGID_00000183235864203472314760000016200041323697108648_" points="18,32.2 17,32.2 18,31.2 			"/>
		</defs>
		<clipPath id="SVGID_00000110463778931822752910000012839158270191106948_">
			<use xlink:href="#SVGID_00000004535448159535920650000017976893154030746046_"  style="overflow:visible;"/>
		</clipPath>
		
			<clipPath id="SVGID_00000005950716883778614320000002687522518502093218_" style="clip-path:url(#SVGID_00000110463778931822752910000012839158270191106948_);">
			<use xlink:href="#SVGID_00000183235864203472314760000016200041323697108648_"  style="overflow:visible;"/>
		</clipPath>
		<g style="clip-path:url(#SVGID_00000005950716883778614320000002687522518502093218_);">
			<path marker-end="url(#arrowhead-line-The-University-of-Tennessee-Knoxville-facet-)" class="st2" d="M336.7,287.2h194.7"/>
		</g>
	</g>
	<g>
		<defs>
			<polygon id="SVGID_00000023269927711602797470000013858500758836521658_" points="20,34.2 21,34.2 20,35.2 			"/>
		</defs>
		<defs>
			<polygon id="SVGID_00000071530944372152783190000013007002450880146560_" points="18,32.2 17,32.2 18,31.2 			"/>
		</defs>
		<clipPath id="SVGID_00000044877362522007182680000003877554459700284822_">
			<use xlink:href="#SVGID_00000023269927711602797470000013858500758836521658_"  style="overflow:visible;"/>
		</clipPath>
		
			<clipPath id="SVGID_00000160150416818732636830000014939749231882536372_" style="clip-path:url(#SVGID_00000044877362522007182680000003877554459700284822_);">
			<use xlink:href="#SVGID_00000071530944372152783190000013007002450880146560_"  style="overflow:visible;"/>
		</clipPath>
		<g style="clip-path:url(#SVGID_00000160150416818732636830000014939749231882536372_);">
			<path marker-end="url(#arrowhead-line-University-of-Florida-facet-)" class="st2" d="M346.4,318.3h155.8"/>
		</g>
	</g>
	<g>
		<defs>
			<polygon id="SVGID_00000096764062429410954900000015847745554565376391_" points="20,34.2 21,34.2 20,35.2 			"/>
		</defs>
		<defs>
			<polygon id="SVGID_00000183946686608006239270000006208308150258588349_" points="18,32.2 17,32.2 18,31.2 			"/>
		</defs>
		<clipPath id="SVGID_00000052097722927332020070000013731816383239000719_">
			<use xlink:href="#SVGID_00000096764062429410954900000015847745554565376391_"  style="overflow:visible;"/>
		</clipPath>
		
			<clipPath id="SVGID_00000041266838961484354090000005916907640720423564_" style="clip-path:url(#SVGID_00000052097722927332020070000013731816383239000719_);">
			<use xlink:href="#SVGID_00000183946686608006239270000006208308150258588349_"  style="overflow:visible;"/>
		</clipPath>
		<g style="clip-path:url(#SVGID_00000041266838961484354090000005916907640720423564_);">
			<path marker-end="url(#arrowhead-line-University-of-Arkansas-facet-)" class="st2" d="M326.9,349.4h165.5"/>
		</g>
	</g>
	<g>
		<defs>
			<polygon id="SVGID_00000082363839667510125680000007177660660176200618_" points="20,34.2 21,34.2 20,35.2 			"/>
		</defs>
		<defs>
			<polygon id="SVGID_00000092438686109815161750000003637133837740909446_" points="18,32.2 17,32.2 18,31.2 			"/>
		</defs>
		<clipPath id="SVGID_00000129913994258298502140000014726389079869454500_">
			<use xlink:href="#SVGID_00000082363839667510125680000007177660660176200618_"  style="overflow:visible;"/>
		</clipPath>
		
			<clipPath id="SVGID_00000092415291526797450000000004105123445036679048_" style="clip-path:url(#SVGID_00000129913994258298502140000014726389079869454500_);">
			<use xlink:href="#SVGID_00000092438686109815161750000003637133837740909446_"  style="overflow:visible;"/>
		</clipPath>
		<g style="clip-path:url(#SVGID_00000092415291526797450000000004105123445036679048_);">
			<path marker-end="url(#arrowhead-line-University-of-North-Carolina-at-Chapel-Hill-facet-)" class="st2" d="M385.3,380.5h155.7"
				/>
		</g>
	</g>
	<g>
		<defs>
			<polygon id="SVGID_00000049221610788224621450000005442855963723573646_" points="20,34.2 21,34.2 20,35.2 			"/>
		</defs>
		<defs>
			<polygon id="SVGID_00000018233560423721115210000016873737885966739119_" points="18,32.2 17,32.2 18,31.2 			"/>
		</defs>
		<clipPath id="SVGID_00000169544020087989547950000004474708334931790748_">
			<use xlink:href="#SVGID_00000049221610788224621450000005442855963723573646_"  style="overflow:visible;"/>
		</clipPath>
		
			<clipPath id="SVGID_00000015338358302560952620000009748848111832188046_" style="clip-path:url(#SVGID_00000169544020087989547950000004474708334931790748_);">
			<use xlink:href="#SVGID_00000018233560423721115210000016873737885966739119_"  style="overflow:visible;"/>
		</clipPath>
		<g style="clip-path:url(#SVGID_00000015338358302560952620000009748848111832188046_);">
			<path marker-end="url(#arrowhead-line-University-of-Virginia-Main-Campus-facet-)" class="st2" d="M356.1,411.6h155.8"/>
		</g>
	</g>
	<g>
		<defs>
			<polygon id="SVGID_00000127758594945001590930000003955598578655077290_" points="20,34.2 21,34.2 20,35.2 			"/>
		</defs>
		<defs>
			<polygon id="SVGID_00000018227266677369060160000005912807360778187651_" points="18,32.2 17,32.2 18,31.2 			"/>
		</defs>
		<clipPath id="SVGID_00000137837443516359597800000011920778650067468432_">
			<use xlink:href="#SVGID_00000127758594945001590930000003955598578655077290_"  style="overflow:visible;"/>
		</clipPath>
		
			<clipPath id="SVGID_00000112597885655387588830000003830365564598068617_" style="clip-path:url(#SVGID_00000137837443516359597800000011920778650067468432_);">
			<use xlink:href="#SVGID_00000018227266677369060160000005912807360778187651_"  style="overflow:visible;"/>
		</clipPath>
		<g style="clip-path:url(#SVGID_00000112597885655387588830000003830365564598068617_);">
			<path marker-end="url(#arrowhead-line-University-of-Michigan-Ann-Arbor-facet-)" class="st2" d="M336.7,442.8h126.5"/>
		</g>
	</g>
	<g>
		<defs>
			<polygon id="SVGID_00000049189345704520461810000007927294583207021700_" points="20,34.2 21,34.2 20,35.2 			"/>
		</defs>
		<defs>
			<polygon id="SVGID_00000132049650182852431180000011912120721001976202_" points="18,32.2 17,32.2 18,31.2 			"/>
		</defs>
		<clipPath id="SVGID_00000017515353877570495520000002668381515349750432_">
			<use xlink:href="#SVGID_00000049189345704520461810000007927294583207021700_"  style="overflow:visible;"/>
		</clipPath>
		
			<clipPath id="SVGID_00000086660627676060174310000010416799910122591411_" style="clip-path:url(#SVGID_00000017515353877570495520000002668381515349750432_);">
			<use xlink:href="#SVGID_00000132049650182852431180000011912120721001976202_"  style="overflow:visible;"/>
		</clipPath>
		<g style="clip-path:url(#SVGID_00000086660627676060174310000010416799910122591411_);">
			<path marker-end="url(#arrowhead-line-University-of-Missouri-Columbia-facet-)" class="st2" d="M346.4,473.9h97.3"/>
		</g>
	</g>
</g>
<line class="st29" x1="286.1" y1="476.7" x2="286.1" y2="60.9"/>
<line class="st30" x1="286.1" y1="461.9" x2="279.4" y2="461.9"/>
<line class="st30" x1="286.1" y1="432.2" x2="279.4" y2="432.2"/>
<line class="st30" x1="286.1" y1="402.5" x2="279.4" y2="402.5"/>
<line class="st30" x1="286.1" y1="372.8" x2="279.4" y2="372.8"/>
<line class="st30" x1="286.1" y1="343.1" x2="279.4" y2="343.1"/>
<line class="st30" x1="286.1" y1="313.4" x2="279.4" y2="313.4"/>
<line class="st30" x1="286.1" y1="283.6" x2="279.4" y2="283.6"/>
<line class="st30" x1="286.1" y1="253.9" x2="279.4" y2="253.9"/>
<line class="st30" x1="286.1" y1="224.2" x2="279.4" y2="224.2"/>
<line class="st30" x1="286.1" y1="194.6" x2="279.4" y2="194.6"/>
<line class="st30" x1="286.1" y1="164.9" x2="279.4" y2="164.9"/>
<line class="st30" x1="286.1" y1="135.1" x2="279.4" y2="135.1"/>
<line class="st30" x1="286.1" y1="105.4" x2="279.4" y2="105.4"/>
<line class="st30" x1="286.1" y1="75.7" x2="279.4" y2="75.7"/>
<line class="st31" x1="360.4" y1="75.7" x2="732.2" y2="75.7"/>
<line class="st31" x1="344.7" y1="105.4" x2="619.8" y2="105.4"/>
<line class="st31" x1="358.7" y1="135.1" x2="611.4" y2="135.1"/>
<line class="st31" x1="461" y1="164.9" x2="685.7" y2="164.9"/>
<line class="st31" x1="352.5" y1="194.6" x2="573" y2="194.6"/>
<line class="st31" x1="377.3" y1="224.2" x2="592.8" y2="224.2"/>
<line class="st31" x1="386.6" y1="253.9" x2="574.2" y2="253.9"/>
<line class="st31" x1="324.3" y1="284.1" x2="508.3" y2="284.1"/>
<line class="st31" x1="330.8" y1="313.4" x2="481.2" y2="313.4"/>
<line class="st31" x1="314" y1="343.1" x2="472" y2="343.1"/>
<line class="st31" x1="369.7" y1="372.8" x2="518.4" y2="372.8"/>
<line class="st31" x1="342.9" y1="402.5" x2="490.5" y2="402.5"/>
<line class="st31" x1="323.4" y1="432.2" x2="444.1" y2="432.2"/>
<line class="st31" x1="330.8" y1="461.9" x2="425.5" y2="461.9"/>
<line class="st30" x1="360.4" y1="74.8" x2="360.4" y2="59.8"/>
<line class="st30" x1="732.2" y1="73.4" x2="732.2" y2="58.4"/>
<path id="dot-0" vector-effect="non-scaling-stroke" class="st32" d="M366.1,75.7c0,3.1-2.5,5.7-5.7,5.7s-5.7-2.6-5.7-5.7
	s2.5-5.7,5.7-5.7S366.1,72.6,366.1,75.7"/>
<path id="dot-1" vector-effect="non-scaling-stroke" class="st33" d="M737.9,75.7c0,3.1-2.5,5.7-5.7,5.7s-5.7-2.6-5.7-5.7
	s2.5-5.7,5.7-5.7S737.9,72.6,737.9,75.7"/>
<path id="dot-2" vector-effect="non-scaling-stroke" class="st32" d="M347.5,105.4c0,3.1-2.5,5.7-5.7,5.7s-5.7-2.6-5.7-5.7
	s2.5-5.7,5.7-5.7S347.5,102.3,347.5,105.4"/>
<path id="dot-3" vector-effect="non-scaling-stroke" class="st33" d="M626.4,105.4c0,3.1-2.5,5.7-5.7,5.7s-5.7-2.6-5.7-5.7
	s2.5-5.7,5.7-5.7S626.4,102.3,626.4,105.4"/>
<path id="dot-4" vector-effect="non-scaling-stroke" class="st32" d="M366.1,135.1c0,3.1-2.5,5.7-5.7,5.7s-5.7-2.6-5.7-5.7
	s2.5-5.7,5.7-5.7S366.1,132,366.1,135.1"/>
<path id="dot-5" vector-effect="non-scaling-stroke" class="st33" d="M617.1,135.1c0,3.1-2.5,5.7-5.7,5.7s-5.7-2.6-5.7-5.7
	s2.5-5.7,5.7-5.7S617.1,132,617.1,135.1"/>
<path id="dot-6" vector-effect="non-scaling-stroke" class="st32" d="M468.4,164.9c0,3.1-2.5,5.7-5.7,5.7s-5.7-2.6-5.7-5.7
	s2.5-5.7,5.7-5.7S468.4,161.7,468.4,164.9"/>
<path id="dot-7" vector-effect="non-scaling-stroke" class="st33" d="M691.4,164.9c0,3.1-2.5,5.7-5.7,5.7s-5.7-2.6-5.7-5.7
	s2.5-5.7,5.7-5.7S691.4,161.7,691.4,164.9"/>
<path id="dot-8" vector-effect="non-scaling-stroke" class="st32" d="M356.8,194.6c0,3.1-2.5,5.7-5.7,5.7s-5.7-2.6-5.7-5.7
	s2.5-5.7,5.7-5.7S356.8,191.4,356.8,194.6"/>
<path id="dot-9" vector-effect="non-scaling-stroke" class="st33" d="M579.9,194.6c0,3.1-2.5,5.7-5.7,5.7s-5.7-2.6-5.7-5.7
	s2.5-5.7,5.7-5.7S579.9,191.4,579.9,194.6"/>
<path id="dot-10" vector-effect="non-scaling-stroke" class="st32" d="M384.7,224.2c0,3.1-2.5,5.7-5.7,5.7s-5.7-2.6-5.7-5.7
	s2.5-5.7,5.7-5.7S384.7,221.1,384.7,224.2"/>
<path id="dot-11" vector-effect="non-scaling-stroke" class="st33" d="M598.5,224.2c0,3.1-2.5,5.7-5.7,5.7s-5.7-2.6-5.7-5.7
	s2.5-5.7,5.7-5.7S598.5,221.1,598.5,224.2"/>
<path id="dot-12" vector-effect="non-scaling-stroke" class="st32" d="M394,253.9c0,3.1-2.5,5.7-5.7,5.7s-5.7-2.5-5.7-5.7
	s2.5-5.7,5.7-5.7S394,250.8,394,253.9"/>
<path id="dot-13" vector-effect="non-scaling-stroke" class="st33" d="M579.9,253.9c0,3.1-2.5,5.7-5.7,5.7s-5.7-2.5-5.7-5.7
	s2.5-5.7,5.7-5.7S579.9,250.8,579.9,253.9"/>
<path id="dot-14" vector-effect="non-scaling-stroke" class="st32" d="M328.9,283.6c0,3.1-2.5,5.7-5.7,5.7s-5.7-2.5-5.7-5.7
	s2.5-5.7,5.7-5.7S328.9,280.5,328.9,283.6"/>
<path id="dot-15" vector-effect="non-scaling-stroke" class="st33" d="M514.8,283.6c0,3.1-2.5,5.7-5.7,5.7s-5.7-2.5-5.7-5.7
	s2.5-5.7,5.7-5.7S514.8,280.5,514.8,283.6"/>
<path id="dot-16" vector-effect="non-scaling-stroke" class="st32" d="M338.2,313.4c0,3.1-2.5,5.7-5.7,5.7s-5.7-2.5-5.7-5.7
	s2.5-5.7,5.7-5.7S338.2,310.2,338.2,313.4"/>
<path id="dot-17" vector-effect="non-scaling-stroke" class="st33" d="M487,313.4c0,3.1-2.5,5.7-5.7,5.7s-5.7-2.5-5.7-5.7
	s2.5-5.7,5.7-5.7S487,310.2,487,313.4"/>
<path id="dot-18" vector-effect="non-scaling-stroke" class="st32" d="M319.6,343.1c0,3.1-2.5,5.7-5.7,5.7s-5.7-2.5-5.7-5.7
	s2.5-5.7,5.7-5.7S319.6,339.9,319.6,343.1"/>
<path id="dot-19" vector-effect="non-scaling-stroke" class="st33" d="M477.6,343.1c0,3.1-2.5,5.7-5.7,5.7s-5.7-2.5-5.7-5.7
	s2.5-5.7,5.7-5.7S477.6,339.9,477.6,343.1"/>
<path id="dot-20" vector-effect="non-scaling-stroke" class="st32" d="M375.4,372.8c0,3.1-2.5,5.7-5.7,5.7s-5.7-2.5-5.7-5.7
	s2.5-5.7,5.7-5.7S375.4,369.6,375.4,372.8"/>
<path id="dot-21" vector-effect="non-scaling-stroke" class="st33" d="M524.1,372.8c0,3.1-2.5,5.7-5.7,5.7s-5.7-2.5-5.7-5.7
	s2.5-5.7,5.7-5.7S524.1,369.6,524.1,372.8"/>
<path id="dot-22" vector-effect="non-scaling-stroke" class="st32" d="M347.5,402.5c0,3.1-2.5,5.7-5.7,5.7s-5.7-2.5-5.7-5.7
	s2.5-5.7,5.7-5.7S347.5,399.3,347.5,402.5"/>
<path id="dot-23" vector-effect="non-scaling-stroke" class="st33" d="M496.2,402.5c0,3.1-2.5,5.7-5.7,5.7s-5.7-2.5-5.7-5.7
	s2.5-5.7,5.7-5.7S496.2,399.3,496.2,402.5"/>
<path id="dot-24" vector-effect="non-scaling-stroke" class="st32" d="M328.9,432.2c0,3.1-2.5,5.7-5.7,5.7s-5.7-2.5-5.7-5.7
	s2.5-5.7,5.7-5.7S328.9,429,328.9,432.2"/>
<path id="dot-25" vector-effect="non-scaling-stroke" class="st33" d="M449.8,432.2c0,3.1-2.5,5.7-5.7,5.7s-5.7-2.5-5.7-5.7
	s2.5-5.7,5.7-5.7S449.8,429,449.8,432.2"/>
<path id="dot-26" vector-effect="non-scaling-stroke" class="st32" d="M338.2,461.9c0,3.1-2.5,5.7-5.7,5.7s-5.7-2.5-5.7-5.7
	s2.5-5.7,5.7-5.7S338.2,458.7,338.2,461.9"/>
<path id="dot-27" vector-effect="non-scaling-stroke" class="st33" d="M431.2,461.9c0,3.1-2.5,5.7-5.7,5.7s-5.7-2.5-5.7-5.7
	s2.5-5.7,5.7-5.7S431.2,458.7,431.2,461.9"/>
<text transform="matrix(1 0 0 1 358.71 38.9999)" class="st32 st34 st35">Pe</text>
<text transform="matrix(1 0 0 1 372.93 38.9999)" class="st32 st34 st35">r</text>
<text transform="matrix(1 0 0 1 376.71 38.9999)" class="st32 st34 st35">cent of f</text>
<text transform="matrix(1 0 0 1 420.71 38.9999)" class="st32 st34 st35">r</text>
<text transform="matrix(1 0 0 1 424.49 38.9999)" class="st32 st34 st35">eshmen</text>
<text transform="matrix(1 0 0 1 358.71 53.9999)" class="st32 st34 st35">who a</text>
<text transform="matrix(1 0 0 1 391.15 53.9999)" class="st32 st34 st35">r</text>
<text transform="matrix(1 0 0 1 394.93 53.9999)" class="st32 st34 st35">e Black</text>
<text transform="matrix(1 0 0 1 612.6899 24)" class="st33 st34 st35">Pe</text>
<text transform="matrix(1 0 0 1 626.9099 24)" class="st33 st34 st35">r</text>
<text transform="matrix(1 0 0 1 630.6899 24)" class="st33 st34 st35">cent of state public</text>
<text transform="matrix(1 0 0 1 612.6899 39)" class="st33 st34 st35">high school graduates</text>
<text transform="matrix(1 0 0 1 612.6899 54)" class="st33 st34 st35">who a</text>
<text transform="matrix(1 0 0 1 645.13 54)" class="st33 st34 st35">r</text>
<text transform="matrix(1 0 0 1 648.91 54)" class="st33 st34 st35">e Black</text>
<text transform="matrix(1 0 0 1 332.626 79.71)" class="st32 st34 st36">8%</text>
<text transform="matrix(1 0 0 1 332.6259 139.11)" class="st32 st34 st36">8%</text>
<text transform="matrix(1 0 0 1 314.036 109.41)" class="st32 st34 st36">6%</text>
<text transform="matrix(1 0 0 1 428.7604 168.45)" class="st32 st34 st36">19%</text>
<text transform="matrix(1 0 0 1 323.3361 197.55)" class="st32 st34 st36">7%</text>
<text transform="matrix(1 0 0 1 345.1003 227.22)" class="st32 st34 st36">10%</text>
<text transform="matrix(1 0 0 1 354.4003 257.87)" class="st32 st34 st36">11%</text>
<text transform="matrix(1 0 0 1 295.4459 286.62)" class="st32 st34 st36">4%</text>
<text transform="matrix(1 0 0 1 304.746 316.33)" class="st32 st34 st36">5%</text>
<text transform="matrix(1 0 0 1 286.1558 346.75)" class="st32 st34 st36">3%</text>
<text transform="matrix(1 0 0 1 341.926 375.73)" class="st32 st34 st36">9%</text>
<text transform="matrix(1 0 0 1 314.036 406.43)" class="st32 st34 st36">6%</text>
<text transform="matrix(1 0 0 1 295.4459 435.86)" class="st32 st34 st36">4%</text>
<text transform="matrix(1 0 0 1 304.746 465.56)" class="st32 st34 st36">5%</text>
<text transform="matrix(1 0 0 1 743.6021 79.71)" class="st33 st34 st36">48%</text>
<text transform="matrix(1 0 0 1 632.0414 109.41)" class="st33 st34 st36">36%</text>
<text transform="matrix(1 0 0 1 697.1223 168.45)" class="st33 st34 st36">43%</text>
<text transform="matrix(1 0 0 1 622.7507 139.11)" class="st33 st34 st36">35%</text>
<text transform="matrix(1 0 0 1 585.5709 198.52)" class="st33 st34 st36">31%</text>
<text transform="matrix(1 0 0 1 604.1604 228.22)" class="st33 st34 st36">33%</text>
<text transform="matrix(1 0 0 1 585.5709 257.95)" class="st33 st34 st36">31%</text>
<text transform="matrix(1 0 0 1 520.5667 287.62)" class="st33 st34 st36">24%</text>
<text transform="matrix(1 0 0 1 492.6865 317.33)" class="st33 st34 st36">21%</text>
<text transform="matrix(1 0 0 1 483.386 346.06)" class="st33 st34 st36">20%</text>
<text transform="matrix(1 0 0 1 529.866 375.76)" class="st33 st34 st36">25%</text>
<text transform="matrix(1 0 0 1 501.9761 406.43)" class="st33 st34 st36">22%</text>
<text transform="matrix(1 0 0 1 454.8127 436.86)" class="st33 st34 st36">17%</text>
<text transform="matrix(1 0 0 1 436.2228 465.56)" class="st33 st34 st36">15%</text>
<text transform="matrix(1 0 0 1 86.83 465.84)" class="st34 st37">University of Missouri-Columbia</text>
<text transform="matrix(1 0 0 1 79.85 436.14)" class="st34 st37">University of Michigan-Ann Arbor</text>
<text transform="matrix(1 0 0 1 68.64 406.43)" class="st34 st37">University of </text>
<text transform="matrix(1 0 0 1 144.47 406.43)" class="st34 st37">V</text>
<text transform="matrix(1 0 0 1 152.18 406.43)" class="st34 st37">i</text>
<text transform="matrix(1 0 0 1 155.06 406.43)" class="st34 st37">r</text>
<text transform="matrix(1 0 0 1 159.03 406.43)" class="st34 st37">ginia-Main Campus</text>
<text transform="matrix(1 0 0 1 31.48 376.73)" class="st34 st37">University of North Ca</text>
<text transform="matrix(1 0 0 1 159.79 376.73)" class="st34 st37">r</text>
<text transform="matrix(1 0 0 1 163.88 376.73)" class="st34 st37">olina at Chapel Hill</text>
<text transform="matrix(1 0 0 1 142.94 347.03)" class="st34 st37">University of Arkansas</text>
<text transform="matrix(1 0 0 1 156.91 317.33)" class="st34 st37">University of Florida</text>
<text transform="matrix(1 0 0 1 52.66 287.62)" class="st34 st37">The University of </text>
<text transform="matrix(1 0 0 1 153.77 287.62)" class="st34 st37 st38">T</text>
<text transform="matrix(1 0 0 1 159.79 287.62)" class="st34 st37">ennessee-Knoxville</text>
<text transform="matrix(1 0 0 1 120.29 257.92)" class="st34 st37">The University of Alabama</text>
<text transform="matrix(1 0 0 1 63.5 228.22)" class="st34 st37">University of Maryland-College Park</text>
<text transform="matrix(1 0 0 1 142.72 198.52)" class="st34 st37">University of Delawa</text>
<text transform="matrix(1 0 0 1 261.38 198.52)" class="st34 st37">r</text>
<text transform="matrix(1 0 0 1 265.48 198.52)" class="st34 st37">e</text>
<text transform="matrix(1 0 0 1 96.45 159.94)" class="st34 st37">Louisiana State University and</text>
<text transform="matrix(1 0 0 1 76.65 175.17)" class="st34 st37">Agricultural &amp; Mechanical College</text>
<text transform="matrix(1 0 0 1 49.99 139.11)" class="st34 st37">University of South Ca</text>
<text transform="matrix(1 0 0 1 180.24 139.11)" class="st34 st37">r</text>
<text transform="matrix(1 0 0 1 184.33 139.11)" class="st34 st37">olina-Columbia</text>
<text transform="matrix(1 0 0 1 151.02 109.41)" class="st34 st37">University of Geo</text>
<text transform="matrix(1 0 0 1 251.16 109.41)" class="st34 st37">r</text>
<text transform="matrix(1 0 0 1 255.12 109.41)" class="st34 st37">gia</text>
<text transform="matrix(1 0 0 1 132.34 79.71)" class="st34 st37">University of Mississippi</text>
</svg>
