<?xml version="1.0" encoding="utf-8"?>
<!-- Generator: Adobe Illustrator 27.0.0, SVG Export Plug-In . SVG Version: 6.00 Build 0)  -->
<svg version="1.1" id="fl-legend-discrete-color-0-svg-screenshot-container"
	 xmlns="http://www.w3.org/2000/svg" xmlns:xlink="http://www.w3.org/1999/xlink" x="0px" y="0px" viewBox="0 0 800 514.1"
	 style="enable-background:new 0 0 800 514.1;" xml:space="preserve">
<style type="text/css">
	.st0{fill:none;stroke:#DDDDDD;}
	.st1{display:none;fill:none;stroke:#FF0000;}
	.st2{clip-path:url(#SVGID_00000142858922821841535250000015534226085680262535_);}
	.st3{clip-path:url(#SVGID_00000093145493742847836130000007400899760720694973_);}
	
		.st4{opacity:0.7;clip-path:url(#SVGID_00000163061633482364667760000010276216473894639280_);fill:none;stroke:#DDDDDD;stroke-width:5.6;enable-background:new    ;}
	.st5{clip-path:url(#SVGID_00000170960160754251098800000011216941350619196059_);}
	
		.st6{opacity:0.7;clip-path:url(#SVGID_00000052808289175841528240000002757066683135085485_);fill:none;stroke:#DDDDDD;stroke-width:5.6;enable-background:new    ;}
	.st7{clip-path:url(#SVGID_00000064327717923429390190000007644907283860372632_);}
	
		.st8{opacity:0.7;clip-path:url(#SVGID_00000101788190214801168380000016485746321244140944_);fill:none;stroke:#DDDDDD;stroke-width:5.6;enable-background:new    ;}
	.st9{clip-path:url(#SVGID_00000066511776224582682460000014492545991531965325_);}
	
		.st10{opacity:0.7;clip-path:url(#SVGID_00000021083476556053300580000014943637977441041559_);fill:none;stroke:#DDDDDD;stroke-width:5.6;enable-background:new    ;}
	.st11{clip-path:url(#SVGID_00000092442741409994082280000009242967938120848282_);}
	
		.st12{opacity:0.7;clip-path:url(#SVGID_00000035503021107505998420000016469935432509679790_);fill:none;stroke:#DDDDDD;stroke-width:5.6;enable-background:new    ;}
	.st13{clip-path:url(#SVGID_00000026860151737206587450000002115597414001424555_);}
	
		.st14{opacity:0.7;clip-path:url(#SVGID_00000045583337921495903080000001758859850773002175_);fill:none;stroke:#DDDDDD;stroke-width:5.6;enable-background:new    ;}
	.st15{clip-path:url(#SVGID_00000129906440774989634430000004294664532364470441_);}
	
		.st16{opacity:0.7;clip-path:url(#SVGID_00000093875740169488312020000002963565650074783121_);fill:none;stroke:#DDDDDD;stroke-width:5.6;enable-background:new    ;}
	.st17{clip-path:url(#SVGID_00000004545697787154964790000011667155313738424489_);}
	
		.st18{opacity:0.7;clip-path:url(#SVGID_00000062874706052086395780000013737493982130231713_);fill:none;stroke:#DDDDDD;stroke-width:5.6;enable-background:new    ;}
	.st19{clip-path:url(#SVGID_00000015354194418374706480000000188825117329919387_);}
	
		.st20{opacity:0.7;clip-path:url(#SVGID_00000002347838456435505880000006357863261638166457_);fill:none;stroke:#DDDDDD;stroke-width:5.6;enable-background:new    ;}
	.st21{clip-path:url(#SVGID_00000094597477579457855080000010559997688513406140_);}
	
		.st22{opacity:0.7;clip-path:url(#SVGID_00000004532447584175765570000010766281657709277857_);fill:none;stroke:#DDDDDD;stroke-width:5.6;enable-background:new    ;}
	.st23{clip-path:url(#SVGID_00000048502251857466664610000003415824127210602135_);}
	
		.st24{opacity:0.7;clip-path:url(#SVGID_00000156576176020937345560000005940423467614849664_);fill:none;stroke:#DDDDDD;stroke-width:5.6;enable-background:new    ;}
	.st25{clip-path:url(#SVGID_00000175280536082304726480000015582894961446211970_);}
	
		.st26{opacity:0.7;clip-path:url(#SVGID_00000084492610300720827550000009815331443446803618_);fill:none;stroke:#DDDDDD;stroke-width:5.6;enable-background:new    ;}
	.st27{fill:none;stroke:#DDDDDD;stroke-linecap:square;}
	.st28{font-family:'HelveticaNeue';}
	.st29{font-size:12.6085px;}
	.st30{fill:none;stroke:#DDDDDD;stroke-width:5;stroke-miterlimit:10;}
	.st31{fill:#FFDB78;stroke:#FFDB78;stroke-width:1.4665;stroke-miterlimit:5.866;stroke-opacity:0;}
	.st32{fill:#D1A347;stroke:#D1A347;stroke-width:1.4665;stroke-miterlimit:5.866;stroke-opacity:0;}
	.st33{fill:#FFDB78;}
	.st34{font-size:13px;}
	.st35{fill:#D1A347;}
	.st36{font-size:11px;}
</style>
<line class="st0" x1="396.2" y1="83.1" x2="396.2" y2="68.2"/>
<rect x="10.5" y="56.5" class="st1" width="775" height="508"/>
<g>
	<defs>
		<polygon id="SVGID_1_" points="13.5,57.5 14.5,57.5 13.5,58.5 		"/>
	</defs>
	<defs>
		<polygon id="SVGID_00000174593319684422588450000009934207857443593654_" points="11.5,55.5 10.5,55.5 11.5,54.5 		"/>
	</defs>
	<clipPath id="SVGID_00000103240725769096000210000006238075888256536756_">
		<use xlink:href="#SVGID_1_"  style="overflow:visible;"/>
	</clipPath>
	
		<clipPath id="SVGID_00000165935459622648834010000006156876631320326309_" style="clip-path:url(#SVGID_00000103240725769096000210000006238075888256536756_);">
		<use xlink:href="#SVGID_00000174593319684422588450000009934207857443593654_"  style="overflow:visible;"/>
	</clipPath>
</g>
<g>
	<g>
		<defs>
			<polygon id="SVGID_00000002370047893758489120000007089324312835909273_" points="13.5,43.5 14.5,43.5 13.5,44.5 			"/>
		</defs>
		<defs>
			<polygon id="SVGID_00000090296868714744381240000015314189465125131695_" points="11.5,41.5 10.5,41.5 11.5,40.5 			"/>
		</defs>
		<clipPath id="SVGID_00000016060001862669177580000008187956025441009805_">
			<use xlink:href="#SVGID_00000002370047893758489120000007089324312835909273_"  style="overflow:visible;"/>
		</clipPath>
		
			<clipPath id="SVGID_00000062188643815252656820000000264343013439501752_" style="clip-path:url(#SVGID_00000016060001862669177580000008187956025441009805_);">
			<use xlink:href="#SVGID_00000090296868714744381240000015314189465125131695_"  style="overflow:visible;"/>
		</clipPath>
		
			<path marker-end="url(#arrowhead-line-University-of-California-Berkeley-facet-)" style="opacity:0.7;clip-path:url(#SVGID_00000062188643815252656820000000264343013439501752_);fill:none;stroke:#DDDDDD;stroke-width:5.6;enable-background:new    ;" d="
			M410.1,81.6h358.1"/>
	</g>
	<g>
		<defs>
			<polygon id="SVGID_00000137810949152935401340000008419362475468098959_" points="13.5,43.5 14.5,43.5 13.5,44.5 			"/>
		</defs>
		<defs>
			<polygon id="SVGID_00000119100887920686051640000000297826053446030976_" points="11.5,41.5 10.5,41.5 11.5,40.5 			"/>
		</defs>
		<clipPath id="SVGID_00000099640174634266772490000009296685885211810963_">
			<use xlink:href="#SVGID_00000137810949152935401340000008419362475468098959_"  style="overflow:visible;"/>
		</clipPath>
		
			<clipPath id="SVGID_00000028288573698455576100000010512156240684348833_" style="clip-path:url(#SVGID_00000099640174634266772490000009296685885211810963_);">
			<use xlink:href="#SVGID_00000119100887920686051640000000297826053446030976_"  style="overflow:visible;"/>
		</clipPath>
		
			<path marker-end="url(#arrowhead-line-The-University-of-Texas-at-Austin-facet-)" style="opacity:0.7;clip-path:url(#SVGID_00000028288573698455576100000010512156240684348833_);fill:none;stroke:#DDDDDD;stroke-width:5.6;enable-background:new    ;" d="
			M504.9,118.2h242.2"/>
	</g>
	<g>
		<defs>
			<polygon id="SVGID_00000144336310420374012080000008961083936048869042_" points="13.5,43.5 14.5,43.5 13.5,44.5 			"/>
		</defs>
		<defs>
			<polygon id="SVGID_00000133490791736390975780000001595504747218290879_" points="11.5,41.5 10.5,41.5 11.5,40.5 			"/>
		</defs>
		<clipPath id="SVGID_00000057859706685728931310000008972267635087952270_">
			<use xlink:href="#SVGID_00000144336310420374012080000008961083936048869042_"  style="overflow:visible;"/>
		</clipPath>
		
			<clipPath id="SVGID_00000029757841966580793340000017886896601901693099_" style="clip-path:url(#SVGID_00000057859706685728931310000008972267635087952270_);">
			<use xlink:href="#SVGID_00000133490791736390975780000001595504747218290879_"  style="overflow:visible;"/>
		</clipPath>
		
			<path marker-end="url(#arrowhead-line-University-of-Colorado-Boulder-facet-)" style="opacity:0.7;clip-path:url(#SVGID_00000029757841966580793340000017886896601901693099_);fill:none;stroke:#DDDDDD;stroke-width:5.6;enable-background:new    ;" d="
			M346.9,154.9h210.6"/>
	</g>
	<g>
		<defs>
			<polygon id="SVGID_00000054963254013708432450000014413027719475094922_" points="13.5,43.5 14.5,43.5 13.5,44.5 			"/>
		</defs>
		<defs>
			<polygon id="SVGID_00000165207671077464228680000000438973917312082055_" points="11.5,41.5 10.5,41.5 11.5,40.5 			"/>
		</defs>
		<clipPath id="SVGID_00000020375170619452670610000004250565160595473564_">
			<use xlink:href="#SVGID_00000054963254013708432450000014413027719475094922_"  style="overflow:visible;"/>
		</clipPath>
		
			<clipPath id="SVGID_00000127741681978851537360000015136922164261730226_" style="clip-path:url(#SVGID_00000020375170619452670610000004250565160595473564_);">
			<use xlink:href="#SVGID_00000165207671077464228680000000438973917312082055_"  style="overflow:visible;"/>
		</clipPath>
		
			<path marker-end="url(#arrowhead-line-University-of-Arizona-facet-)" style="opacity:0.7;clip-path:url(#SVGID_00000127741681978851537360000015136922164261730226_);fill:none;stroke:#DDDDDD;stroke-width:5.6;enable-background:new    ;" d="
			M494.4,191.6h179"/>
	</g>
	<g>
		<defs>
			<polygon id="SVGID_00000145056551771199400660000015002383118886757040_" points="13.5,43.5 14.5,43.5 13.5,44.5 			"/>
		</defs>
		<defs>
			<polygon id="SVGID_00000151511093491042821630000008582893096918718876_" points="11.5,41.5 10.5,41.5 11.5,40.5 			"/>
		</defs>
		<clipPath id="SVGID_00000062152151502711576700000002380309434893079200_">
			<use xlink:href="#SVGID_00000145056551771199400660000015002383118886757040_"  style="overflow:visible;"/>
		</clipPath>
		
			<clipPath id="SVGID_00000070082109701988586300000006813780181095548086_" style="clip-path:url(#SVGID_00000062152151502711576700000002380309434893079200_);">
			<use xlink:href="#SVGID_00000151511093491042821630000008582893096918718876_"  style="overflow:visible;"/>
		</clipPath>
		
			<path marker-end="url(#arrowhead-line-University-of-Nevada-Reno-facet-)" style="opacity:0.7;clip-path:url(#SVGID_00000070082109701988586300000006813780181095548086_);fill:none;stroke:#DDDDDD;stroke-width:5.6;enable-background:new    ;" d="
			M462.8,228.2h179"/>
	</g>
	<g>
		<defs>
			<polygon id="SVGID_00000101800238158817290260000011468259217198093203_" points="13.5,43.5 14.5,43.5 13.5,44.5 			"/>
		</defs>
		<defs>
			<polygon id="SVGID_00000142876783663571233610000011346069776289060737_" points="11.5,41.5 10.5,41.5 11.5,40.5 			"/>
		</defs>
		<clipPath id="SVGID_00000039831378028382397390000007801628780900467128_">
			<use xlink:href="#SVGID_00000101800238158817290260000011468259217198093203_"  style="overflow:visible;"/>
		</clipPath>
		
			<clipPath id="SVGID_00000044879511796804730920000003507179799037530249_" style="clip-path:url(#SVGID_00000039831378028382397390000007801628780900467128_);">
			<use xlink:href="#SVGID_00000142876783663571233610000011346069776289060737_"  style="overflow:visible;"/>
		</clipPath>
		
			<path marker-end="url(#arrowhead-line-University-at-Buffalo-facet-)" style="opacity:0.7;clip-path:url(#SVGID_00000044879511796804730920000003507179799037530249_);fill:none;stroke:#DDDDDD;stroke-width:5.6;enable-background:new    ;" d="
			M304.8,264.9h168.5"/>
	</g>
	<g>
		<defs>
			<polygon id="SVGID_00000139262913600786570440000001852949562002059925_" points="13.5,43.5 14.5,43.5 13.5,44.5 			"/>
		</defs>
		<defs>
			<polygon id="SVGID_00000013901293203878950550000016415777385919177623_" points="11.5,41.5 10.5,41.5 11.5,40.5 			"/>
		</defs>
		<clipPath id="SVGID_00000013887094051814979210000003102182110476619446_">
			<use xlink:href="#SVGID_00000139262913600786570440000001852949562002059925_"  style="overflow:visible;"/>
		</clipPath>
		
			<clipPath id="SVGID_00000168090941379933468760000014483868778171730083_" style="clip-path:url(#SVGID_00000013887094051814979210000003102182110476619446_);">
			<use xlink:href="#SVGID_00000013901293203878950550000016415777385919177623_"  style="overflow:visible;"/>
		</clipPath>
		
			<path marker-end="url(#arrowhead-line-University-of-Rhode-Island-facet-)" style="opacity:0.7;clip-path:url(#SVGID_00000168090941379933468760000014483868778171730083_);fill:none;stroke:#DDDDDD;stroke-width:5.6;enable-background:new    ;" d="
			M315.3,301.6h168.5"/>
	</g>
	<g>
		<defs>
			<polygon id="SVGID_00000138540724175375678990000006777197274404754874_" points="13.5,43.5 14.5,43.5 13.5,44.5 			"/>
		</defs>
		<defs>
			<polygon id="SVGID_00000083807983121549889080000018042831031204297150_" points="11.5,41.5 10.5,41.5 11.5,40.5 			"/>
		</defs>
		<clipPath id="SVGID_00000132049905608318632130000012244393009951440299_">
			<use xlink:href="#SVGID_00000138540724175375678990000006777197274404754874_"  style="overflow:visible;"/>
		</clipPath>
		
			<clipPath id="SVGID_00000167396967970588669150000001550300819477862817_" style="clip-path:url(#SVGID_00000132049905608318632130000012244393009951440299_);">
			<use xlink:href="#SVGID_00000083807983121549889080000018042831031204297150_"  style="overflow:visible;"/>
		</clipPath>
		
			<path marker-end="url(#arrowhead-line-Rutgers-University-New-Brunswick-facet-)" style="opacity:0.7;clip-path:url(#SVGID_00000167396967970588669150000001550300819477862817_);fill:none;stroke:#DDDDDD;stroke-width:5.6;enable-background:new    ;" d="
			M346.9,338.2h147.4"/>
	</g>
	<g>
		<defs>
			<polygon id="SVGID_00000001628518442584522330000016290722298787621039_" points="13.5,43.5 14.5,43.5 13.5,44.5 			"/>
		</defs>
		<defs>
			<polygon id="SVGID_00000119111424372241611310000003875709039454611629_" points="11.5,41.5 10.5,41.5 11.5,40.5 			"/>
		</defs>
		<clipPath id="SVGID_00000174560465725875131620000000761544833431013031_">
			<use xlink:href="#SVGID_00000001628518442584522330000016290722298787621039_"  style="overflow:visible;"/>
		</clipPath>
		
			<clipPath id="SVGID_00000145049679059259054300000008111062490416256650_" style="clip-path:url(#SVGID_00000174560465725875131620000000761544833431013031_);">
			<use xlink:href="#SVGID_00000119111424372241611310000003875709039454611629_"  style="overflow:visible;"/>
		</clipPath>
		
			<path marker-end="url(#arrowhead-line-University-of-Florida-facet-)" style="opacity:0.7;clip-path:url(#SVGID_00000145049679059259054300000008111062490416256650_);fill:none;stroke:#DDDDDD;stroke-width:5.6;enable-background:new    ;" d="
			M441.7,374.9H547"/>
	</g>
	<g>
		<defs>
			<polygon id="SVGID_00000007399235764687275360000017818126034035286705_" points="13.5,43.5 14.5,43.5 13.5,44.5 			"/>
		</defs>
		<defs>
			<polygon id="SVGID_00000146460603336878091840000011466818465859374998_" points="11.5,41.5 10.5,41.5 11.5,40.5 			"/>
		</defs>
		<clipPath id="SVGID_00000050633660331371858200000009063984328005524109_">
			<use xlink:href="#SVGID_00000007399235764687275360000017818126034035286705_"  style="overflow:visible;"/>
		</clipPath>
		
			<clipPath id="SVGID_00000062171752582928642090000000451901551603673524_" style="clip-path:url(#SVGID_00000050633660331371858200000009063984328005524109_);">
			<use xlink:href="#SVGID_00000146460603336878091840000011466818465859374998_"  style="overflow:visible;"/>
		</clipPath>
		
			<path marker-end="url(#arrowhead-line-University-of-Nebraska-Lincoln-facet-)" style="opacity:0.7;clip-path:url(#SVGID_00000062171752582928642090000000451901551603673524_);fill:none;stroke:#DDDDDD;stroke-width:5.6;enable-background:new    ;" d="
			M294.3,411.5h105.3"/>
	</g>
	<g>
		<defs>
			<polygon id="SVGID_00000166664963171058826800000014674923706125064631_" points="13.5,43.5 14.5,43.5 13.5,44.5 			"/>
		</defs>
		<defs>
			<polygon id="SVGID_00000005959095580617763950000007386014047562452119_" points="11.5,41.5 10.5,41.5 11.5,40.5 			"/>
		</defs>
		<clipPath id="SVGID_00000060728587306798144790000005408181685627389839_">
			<use xlink:href="#SVGID_00000166664963171058826800000014674923706125064631_"  style="overflow:visible;"/>
		</clipPath>
		
			<clipPath id="SVGID_00000129918439623284566080000014654537053874495640_" style="clip-path:url(#SVGID_00000060728587306798144790000005408181685627389839_);">
			<use xlink:href="#SVGID_00000005959095580617763950000007386014047562452119_"  style="overflow:visible;"/>
		</clipPath>
		
			<path marker-end="url(#arrowhead-line-University-of-Massachusetts-Amherst-facet-)" style="opacity:0.7;clip-path:url(#SVGID_00000129918439623284566080000014654537053874495640_);fill:none;stroke:#DDDDDD;stroke-width:5.6;enable-background:new    ;" d="
			M304.8,448.2h105.3"/>
	</g>
	<g>
		<defs>
			<polygon id="SVGID_00000181810032953871296400000004659164589358749598_" points="13.5,43.5 14.5,43.5 13.5,44.5 			"/>
		</defs>
		<defs>
			<polygon id="SVGID_00000145749616168188896630000009644805897551495580_" points="11.5,41.5 10.5,41.5 11.5,40.5 			"/>
		</defs>
		<clipPath id="SVGID_00000130608655712819493490000008593519129196035725_">
			<use xlink:href="#SVGID_00000181810032953871296400000004659164589358749598_"  style="overflow:visible;"/>
		</clipPath>
		
			<clipPath id="SVGID_00000132795136788590853880000012263386459883003296_" style="clip-path:url(#SVGID_00000130608655712819493490000008593519129196035725_);">
			<use xlink:href="#SVGID_00000145749616168188896630000009644805897551495580_"  style="overflow:visible;"/>
		</clipPath>
		
			<path marker-end="url(#arrowhead-line-University-of-Kansas-facet-)" style="opacity:0.7;clip-path:url(#SVGID_00000132795136788590853880000012263386459883003296_);fill:none;stroke:#DDDDDD;stroke-width:5.6;enable-background:new    ;" d="
			M294.3,484.9h115.8"/>
	</g>
</g>
<g id="axes-highlights">
	<g>
		<g transform="translate(0, 14)">
		</g>
	</g>
</g>
<g>
	<defs>
		<rect id="SVGID_00000129179767209074482960000017399985000796819856_" x="243" y="68.3" width="510.7" height="426.7"/>
	</defs>
	<clipPath id="SVGID_00000008836290600891698960000014597701993810878900_">
		<use xlink:href="#SVGID_00000129179767209074482960000017399985000796819856_"  style="overflow:visible;"/>
	</clipPath>
</g>
<line class="st27" x1="243" y1="495" x2="243" y2="68.3"/>
<line class="st0" x1="243" y1="477.2" x2="236.2" y2="477.2"/>
<text transform="matrix(1 0 0 1 111.7354 481.2357)" class="st28 st29">University of Kansas</text>
<line class="st0" x1="243" y1="441.6" x2="236.2" y2="441.6"/>
<text transform="matrix(1 0 0 1 21.4234 445.6771)" class="st28 st29">University of Massachusetts-Amherst</text>
<line class="st0" x1="243" y1="406.1" x2="236.2" y2="406.1"/>
<text transform="matrix(1 0 0 1 57.399 410.1185)" class="st28 st29">University of Nebraska-Lincoln</text>
<line class="st0" x1="243" y1="370.5" x2="236.2" y2="370.5"/>
<text transform="matrix(1 0 0 1 115.1427 374.5599)" class="st28 st29">University of Florida</text>
<line class="st0" x1="243" y1="335" x2="236.2" y2="335"/>
<text transform="matrix(1 0 0 1 35.6969 339.0013)" class="st28 st29">Rutgers University-New Brunswick</text>
<line class="st0" x1="243" y1="299.4" x2="236.2" y2="299.4"/>
<text transform="matrix(1 0 0 1 80.4796 303.4427)" class="st28 st29">University of Rhode Island</text>
<line class="st0" x1="243" y1="263.9" x2="236.2" y2="263.9"/>
<text transform="matrix(1 0 0 1 114.671 267.8846)" class="st28 st29">University at Buffalo</text>
<line class="st0" x1="243" y1="228.3" x2="236.2" y2="228.3"/>
<text transform="matrix(1 0 0 1 77.0904 232.326)" class="st28 st29">University of Nevada-Reno</text>
<line class="st0" x1="243" y1="192.7" x2="236.2" y2="192.7"/>
<text transform="matrix(1 0 0 1 111.7354 196.7674)" class="st28 st29">University of Arizona</text>
<line class="st0" x1="243" y1="157.2" x2="236.2" y2="157.2"/>
<text transform="matrix(1 0 0 1 57.3868 161.2088)" class="st28 st29">University of Colorado Boulder</text>
<line class="st0" x1="243" y1="121.6" x2="236.2" y2="121.6"/>
<text transform="matrix(1 0 0 1 46.0675 125.6502)" class="st28 st29">The University of Texas at Austin</text>
<line class="st0" x1="243" y1="86.1" x2="236.2" y2="86.1"/>
<text transform="matrix(1 0 0 1 49.2599 90.0916)" class="st28 st29">University of California-Berkeley</text>
<g>
	<defs>
		<rect id="SVGID_00000085959074480994387470000009424375344611867561_" x="243" y="68.3" width="510.7" height="426.7"/>
	</defs>
	<clipPath id="SVGID_00000041979891932400898090000013505203701590030490_">
		<use xlink:href="#SVGID_00000085959074480994387470000009424375344611867561_"  style="overflow:visible;"/>
	</clipPath>
</g>
<line class="st30" x1="396.2" y1="86.1" x2="743.7" y2="86.1"/>
<line class="st30" x1="486.4" y1="121.6" x2="723.1" y2="121.6"/>
<line class="st30" x1="334.9" y1="157.2" x2="540.3" y2="157.2"/>
<line class="st30" x1="477.9" y1="192.7" x2="651.6" y2="192.7"/>
<line class="st30" x1="447.5" y1="228.3" x2="620.9" y2="228.3"/>
<line class="st30" x1="294.3" y1="264" x2="458.9" y2="264"/>
<line class="st30" x1="303.4" y1="299.7" x2="467.7" y2="299.7"/>
<line class="st30" x1="334.9" y1="335" x2="477.9" y2="335"/>
<line class="st30" x1="425.4" y1="370.5" x2="530.5" y2="370.5"/>
<line class="st30" x1="282.9" y1="406.1" x2="386" y2="406.1"/>
<line class="st30" x1="293.7" y1="441.4" x2="396.2" y2="441.4"/>
<line class="st30" x1="283.6" y1="477.2" x2="396.2" y2="477.2"/>
<line class="st0" x1="743.5" y1="83.5" x2="743.5" y2="68.5"/>
<path id="dot-0" vector-effect="non-scaling-stroke" class="st31" d="M402.1,86.1c0,3.2-2.6,5.8-5.8,5.8c-3.2,0-5.8-2.6-5.8-5.8
	s2.6-5.8,5.8-5.8C399.4,80.2,402.1,82.8,402.1,86.1"/>
<path id="dot-1" vector-effect="non-scaling-stroke" class="st32" d="M749.3,86.1c0,3.2-2.6,5.8-5.8,5.8s-5.8-2.6-5.8-5.8
	s2.6-5.8,5.8-5.8S749.3,82.8,749.3,86.1"/>
<path id="dot-2" vector-effect="non-scaling-stroke" class="st31" d="M494,121.6c0,3.2-2.6,5.8-5.8,5.8c-3.2,0-5.8-2.6-5.8-5.8
	s2.6-5.8,5.8-5.8C491.4,115.8,494,118.4,494,121.6"/>
<path id="dot-3" vector-effect="non-scaling-stroke" class="st32" d="M728.9,121.6c0,3.2-2.6,5.8-5.8,5.8s-5.8-2.6-5.8-5.8
	s2.6-5.8,5.8-5.8S728.9,118.4,728.9,121.6"/>
<path id="dot-4" vector-effect="non-scaling-stroke" class="st31" d="M340.8,157.2c0,3.2-2.6,5.8-5.8,5.8c-3.2,0-5.8-2.6-5.8-5.8
	s2.6-5.8,5.8-5.8C338.2,151.3,340.8,153.9,340.8,157.2"/>
<path id="dot-5" vector-effect="non-scaling-stroke" class="st32" d="M545.1,157.2c0,3.2-2.6,5.8-5.8,5.8c-3.2,0-5.8-2.6-5.8-5.8
	s2.6-5.8,5.8-5.8C542.4,151.3,545.1,153.9,545.1,157.2"/>
<path id="dot-6" vector-effect="non-scaling-stroke" class="st31" d="M483.8,192.7c0,3.2-2.6,5.8-5.8,5.8c-3.2,0-5.8-2.6-5.8-5.8
	s2.6-5.8,5.8-5.8C481.2,186.9,483.8,189.5,483.8,192.7"/>
<path id="dot-7" vector-effect="non-scaling-stroke" class="st32" d="M657.4,192.7c0,3.2-2.6,5.8-5.8,5.8c-3.2,0-5.8-2.6-5.8-5.8
	s2.6-5.8,5.8-5.8C654.8,186.9,657.4,189.5,657.4,192.7"/>
<path id="dot-8" vector-effect="non-scaling-stroke" class="st31" d="M453.1,228.3c0,3.2-2.6,5.8-5.8,5.8c-3.2,0-5.8-2.6-5.8-5.8
	s2.6-5.8,5.8-5.8C450.5,222.5,453.1,225.1,453.1,228.3"/>
<path id="dot-9" vector-effect="non-scaling-stroke" class="st32" d="M626.8,228.3c0,3.2-2.6,5.8-5.8,5.8c-3.2,0-5.8-2.6-5.8-5.8
	s2.6-5.8,5.8-5.8C624.2,222.5,626.8,225.1,626.8,228.3"/>
<path id="dot-10" vector-effect="non-scaling-stroke" class="st31" d="M299.9,263.9c0,3.2-2.6,5.8-5.8,5.8c-3.2,0-5.8-2.6-5.8-5.8
	c0-3.2,2.6-5.8,5.8-5.8C297.3,258,299.9,260.6,299.9,263.9"/>
<path id="dot-11" vector-effect="non-scaling-stroke" class="st32" d="M463.3,263.9c0,3.2-2.6,5.8-5.8,5.8c-3.2,0-5.8-2.6-5.8-5.8
	c0-3.2,2.6-5.8,5.8-5.8C460.7,258,463.3,260.6,463.3,263.9"/>
<path id="dot-12" vector-effect="non-scaling-stroke" class="st31" d="M310.1,299.4c0,3.2-2.6,5.8-5.8,5.8c-3.2,0-5.8-2.6-5.8-5.8
	c0-3.2,2.6-5.8,5.8-5.8C307.5,293.6,310.1,296.2,310.1,299.4"/>
<path id="dot-13" vector-effect="non-scaling-stroke" class="st32" d="M473.6,299.4c0,3.2-2.6,5.8-5.8,5.8c-3.2,0-5.8-2.6-5.8-5.8
	c0-3.2,2.6-5.8,5.8-5.8C470.9,293.6,473.6,296.2,473.6,299.4"/>
<path id="dot-14" vector-effect="non-scaling-stroke" class="st31" d="M340.8,335c0,3.2-2.6,5.8-5.8,5.8c-3.2,0-5.8-2.6-5.8-5.8
	c0-3.2,2.6-5.8,5.8-5.8C338.2,329.1,340.8,331.7,340.8,335"/>
<path id="dot-15" vector-effect="non-scaling-stroke" class="st32" d="M483.8,335c0,3.2-2.6,5.8-5.8,5.8c-3.2,0-5.8-2.6-5.8-5.8
	c0-3.2,2.6-5.8,5.8-5.8C481.2,329.1,483.8,331.7,483.8,335"/>
<path id="dot-16" vector-effect="non-scaling-stroke" class="st31" d="M432.7,370.5c0,3.2-2.6,5.8-5.8,5.8c-3.2,0-5.8-2.6-5.8-5.8
	c0-3.2,2.6-5.8,5.8-5.8C430.1,364.7,432.7,367.3,432.7,370.5"/>
<path id="dot-17" vector-effect="non-scaling-stroke" class="st32" d="M534.8,370.5c0,3.2-2.6,5.8-5.8,5.8s-5.8-2.6-5.8-5.8
	c0-3.2,2.6-5.8,5.8-5.8S534.8,367.3,534.8,370.5"/>
<path id="dot-18" vector-effect="non-scaling-stroke" class="st31" d="M289.7,406.1c0,3.2-2.6,5.8-5.8,5.8c-3.2,0-5.8-2.6-5.8-5.8
	c0-3.2,2.6-5.8,5.8-5.8C287.1,400.2,289.7,402.9,289.7,406.1"/>
<path id="dot-19" vector-effect="non-scaling-stroke" class="st32" d="M391.8,406.1c0,3.2-2.6,5.8-5.8,5.8c-3.2,0-5.8-2.6-5.8-5.8
	c0-3.2,2.6-5.8,5.8-5.8C389.2,400.2,391.8,402.9,391.8,406.1"/>
<path id="dot-20" vector-effect="non-scaling-stroke" class="st31" d="M299.9,441.6c0,3.2-2.6,5.8-5.8,5.8c-3.2,0-5.8-2.6-5.8-5.8
	c0-3.2,2.6-5.8,5.8-5.8C297.3,435.8,299.9,438.4,299.9,441.6"/>
<path id="dot-21" vector-effect="non-scaling-stroke" class="st32" d="M402.1,441.6c0,3.2-2.6,5.8-5.8,5.8c-3.2,0-5.8-2.6-5.8-5.8
	c0-3.2,2.6-5.8,5.8-5.8C399.4,435.8,402.1,438.4,402.1,441.6"/>
<path id="dot-22" vector-effect="non-scaling-stroke" class="st31" d="M289.7,477.2c0,3.2-2.6,5.8-5.8,5.8c-3.2,0-5.8-2.6-5.8-5.8
	c0-3.2,2.6-5.8,5.8-5.8C287.1,471.4,289.7,474,289.7,477.2"/>
<path id="dot-23" vector-effect="non-scaling-stroke" class="st32" d="M402.1,477.2c0,3.2-2.6,5.8-5.8,5.8c-3.2,0-5.8-2.6-5.8-5.8
	c0-3.2,2.6-5.8,5.8-5.8C399.4,471.4,402.1,474,402.1,477.2"/>
<path class="st30" d="M493.7,249.5"/>
<path class="st30" d="M278.3,249.5"/>
<text transform="matrix(1 0 0 1 280.6165 45.8127)"><tspan x="0" y="0" class="st33 st28 st34">Percent of freshment</tspan><tspan x="21.2" y="15.6" class="st33 st28 st34">who are Hispanic</tspan></text>
<text transform="matrix(1 0 0 1 644.9395 30.2125)"><tspan x="0" y="0" class="st35 st28 st34">Percent of public</tspan><tspan x="-29.9" y="15.6" class="st35 st28 st34">high school graduates</tspan><tspan x="-41.9" y="31.2" class="st35 st28 st34">who are Hispanic/Latino</tspan></text>
<text transform="matrix(1 0 0 1 361.145 90.5746)" class="st33 st28 st36">20%</text>
<text transform="matrix(1 0 0 1 299.8596 161.1762)" class="st33 st28 st36">14%</text>
<text transform="matrix(1 0 0 1 453.073 125.65)" class="st33 st28 st36">29%</text>
<text transform="matrix(1 0 0 1 442.8588 196.7671)" class="st33 st28 st36">28%</text>
<text transform="matrix(1 0 0 1 412.2158 232.3256)" class="st33 st28 st36">25%</text>
<text transform="matrix(1 0 0 1 259.0027 267.8898)" class="st33 st28 st36">10%</text>
<text transform="matrix(1 0 0 1 269.217 303.4435)" class="st33 st28 st36">11%</text>
<text transform="matrix(1 0 0 1 299.8596 338.8112)" class="st33 st28 st36">14%</text>
<text transform="matrix(1 0 0 1 391.7874 374.5274)" class="st33 st28 st36">23%</text>
<text transform="matrix(1 0 0 1 254.9041 409.9278)" class="st33 st28 st36">9%</text>
<text transform="matrix(1 0 0 1 259.0029 444.8798)" class="st33 st28 st36">10%</text>
<text transform="matrix(1 0 0 1 254.9045 481.045)" class="st33 st28 st36">9%</text>
<text transform="matrix(1 0 0 1 755.3451 90.5745)" class="st35 st28 st36">54%</text>
<text transform="matrix(1 0 0 1 551.0602 161.1321)" class="st35 st28 st36">34%</text>
<text transform="matrix(1 0 0 1 734.9169 125.6498)" class="st35 st28 st36">52%</text>
<text transform="matrix(1 0 0 1 663.4169 196.723)" class="st35 st28 st36">45%</text>
<text transform="matrix(1 0 0 1 632.7738 232.2816)" class="st35 st28 st36">42%</text>
<text transform="matrix(1 0 0 1 469.3468 267.8457)" class="st35 st28 st36">26%</text>
<text transform="matrix(1 0 0 1 479.5605 303.3994)" class="st35 st28 st36">27%</text>
<text transform="matrix(1 0 0 1 489.7749 338.7672)" class="st35 st28 st36">28%</text>
<text transform="matrix(1 0 0 1 540.8459 374.4833)" class="st35 st28 st36">33%</text>
<text transform="matrix(1 0 0 1 397.8472 409.8838)" class="st35 st28 st36">19%</text>
<text transform="matrix(1 0 0 1 408.0607 444.8357)" class="st35 st28 st36">20%</text>
<text transform="matrix(1 0 0 1 408.061 481.0009)" class="st35 st28 st36">20%</text>
</svg>
