<?xml version="1.0" encoding="utf-8"?>
<!-- Generator: Adobe Illustrator 27.0.0, SVG Export Plug-In . SVG Version: 6.00 Build 0)  -->
<svg version="1.1" id="fl-legend-discrete-color-0-svg-screenshot-container"
	 xmlns="http://www.w3.org/2000/svg" xmlns:xlink="http://www.w3.org/1999/xlink" x="0px" y="0px" viewBox="0 0 800 514.1"
	 style="enable-background:new 0 0 800 514.1;" xml:space="preserve">
<style type="text/css">
	.st0{display:none;fill:none;stroke:#FF0000;}
	.st1{clip-path:url(#SVGID_00000018939734439224835320000010310922098555788935_);}
	.st2{clip-path:url(#SVGID_00000024714130253277437660000003683362595268360326_);}
	
		.st3{opacity:0.7;clip-path:url(#SVGID_00000099633419651344234680000012276771458210453893_);fill:none;stroke:#DDDDDD;stroke-width:5.6;enable-background:new    ;}
	.st4{clip-path:url(#SVGID_00000158018478474655119750000009010707706755396792_);}
	
		.st5{opacity:0.7;clip-path:url(#SVGID_00000069374667019103386600000001986263050369634466_);fill:none;stroke:#DDDDDD;stroke-width:5.6;enable-background:new    ;}
	.st6{clip-path:url(#SVGID_00000119830114815620129080000014102833912224044457_);}
	
		.st7{opacity:0.7;clip-path:url(#SVGID_00000168837611467534114460000007226667402737965224_);fill:none;stroke:#DDDDDD;stroke-width:5.6;enable-background:new    ;}
	.st8{clip-path:url(#SVGID_00000134224234990985733990000002514289973252524188_);}
	
		.st9{opacity:0.7;clip-path:url(#SVGID_00000055705143848244103890000010700717668949947520_);fill:none;stroke:#DDDDDD;stroke-width:5.6;enable-background:new    ;}
	.st10{clip-path:url(#SVGID_00000003085162482921039120000018252228003280192691_);}
	
		.st11{opacity:0.7;clip-path:url(#SVGID_00000169539996638291972360000017043644495851533210_);fill:none;stroke:#DDDDDD;stroke-width:5.6;enable-background:new    ;}
	.st12{clip-path:url(#SVGID_00000110472204410261030700000005659233102124021161_);}
	
		.st13{opacity:0.7;clip-path:url(#SVGID_00000147206762323455763800000011914500488210714799_);fill:none;stroke:#DDDDDD;stroke-width:5.6;enable-background:new    ;}
	.st14{clip-path:url(#SVGID_00000057852733156790566450000014465884572027836554_);}
	
		.st15{opacity:0.7;clip-path:url(#SVGID_00000160188996310784016570000005938779479520969862_);fill:none;stroke:#DDDDDD;stroke-width:5.6;enable-background:new    ;}
	.st16{clip-path:url(#SVGID_00000175320446902527660600000014835453914170236856_);}
	
		.st17{opacity:0.7;clip-path:url(#SVGID_00000178172232539028804990000012977649209277935515_);fill:none;stroke:#DDDDDD;stroke-width:5.6;enable-background:new    ;}
	.st18{clip-path:url(#SVGID_00000082343134527292044300000018070075301558024374_);}
	
		.st19{opacity:0.7;clip-path:url(#SVGID_00000016757623191207580620000009903880281269622421_);fill:none;stroke:#DDDDDD;stroke-width:5.6;enable-background:new    ;}
	.st20{clip-path:url(#SVGID_00000047757271868281874190000014744444334448466600_);}
	
		.st21{opacity:0.7;clip-path:url(#SVGID_00000067204475122357591860000017839967727429225376_);fill:none;stroke:#DDDDDD;stroke-width:5.6;enable-background:new    ;}
	.st22{clip-path:url(#SVGID_00000138532835073323228110000008128980219970344098_);}
	
		.st23{opacity:0.7;clip-path:url(#SVGID_00000006675065031643191880000010940368548476403599_);fill:none;stroke:#DDDDDD;stroke-width:5.6;enable-background:new    ;}
	.st24{clip-path:url(#SVGID_00000085947808105569749160000012184149829625545652_);}
	
		.st25{opacity:0.7;clip-path:url(#SVGID_00000070839733408923204220000007686557552758820758_);fill:none;stroke:#DDDDDD;stroke-width:5.6;enable-background:new    ;}
	.st26{fill:none;stroke:#DDDDDD;stroke-linecap:square;}
	.st27{fill:none;stroke:#DDDDDD;}
	.st28{font-family:'HelveticaNeue';}
	.st29{font-size:12.6085px;}
	.st30{fill:none;stroke:#DDDDDD;stroke-width:5;stroke-miterlimit:10;}
	.st31{fill:#FFDB78;stroke:#FFDB78;stroke-width:1.4665;stroke-miterlimit:5.866;stroke-opacity:0;}
	.st32{fill:#D1A347;stroke:#D1A347;stroke-width:1.4665;stroke-miterlimit:5.866;stroke-opacity:0;}
	.st33{fill:#FFDB78;}
	.st34{font-size:13px;}
	.st35{fill:#D1A347;}
	.st36{font-size:11px;}
</style>
<rect x="10.5" y="56.5" class="st0" width="775" height="508"/>
<g>
	<defs>
		<polygon id="SVGID_1_" points="13.5,57.5 14.5,57.5 13.5,58.5 		"/>
	</defs>
	<defs>
		<polygon id="SVGID_00000005969351207612128870000013077992179377214891_" points="11.5,55.5 10.5,55.5 11.5,54.5 		"/>
	</defs>
	<clipPath id="SVGID_00000035500444783953030490000001686768368733188015_">
		<use xlink:href="#SVGID_1_"  style="overflow:visible;"/>
	</clipPath>
	
		<clipPath id="SVGID_00000064316324134981570510000007725018263137165498_" style="clip-path:url(#SVGID_00000035500444783953030490000001686768368733188015_);">
		<use xlink:href="#SVGID_00000005969351207612128870000013077992179377214891_"  style="overflow:visible;"/>
	</clipPath>
</g>
<g>
	<g>
		<defs>
			<polygon id="SVGID_00000135666671523998355760000003525497306221058724_" points="13.5,43.5 14.5,43.5 13.5,44.5 			"/>
		</defs>
		<defs>
			<polygon id="SVGID_00000070824458740432526430000018149664649308577963_" points="11.5,41.5 10.5,41.5 11.5,40.5 			"/>
		</defs>
		<clipPath id="SVGID_00000142140521029873739140000014259404819378528396_">
			<use xlink:href="#SVGID_00000135666671523998355760000003525497306221058724_"  style="overflow:visible;"/>
		</clipPath>
		
			<clipPath id="SVGID_00000164507894949946848760000010450788802933008815_" style="clip-path:url(#SVGID_00000142140521029873739140000014259404819378528396_);">
			<use xlink:href="#SVGID_00000070824458740432526430000018149664649308577963_"  style="overflow:visible;"/>
		</clipPath>
		
			<path marker-end="url(#arrowhead-line-University-of-California-Berkeley-facet-)" style="opacity:0.7;clip-path:url(#SVGID_00000164507894949946848760000010450788802933008815_);fill:none;stroke:#DDDDDD;stroke-width:5.6;enable-background:new    ;" d="
			M410.1,81.6h358.1"/>
	</g>
	<g>
		<defs>
			<polygon id="SVGID_00000119812746898651776650000010355460271391701389_" points="13.5,43.5 14.5,43.5 13.5,44.5 			"/>
		</defs>
		<defs>
			<polygon id="SVGID_00000166647924947824699980000008080901661130027707_" points="11.5,41.5 10.5,41.5 11.5,40.5 			"/>
		</defs>
		<clipPath id="SVGID_00000173851617201287441140000002961203506794631094_">
			<use xlink:href="#SVGID_00000119812746898651776650000010355460271391701389_"  style="overflow:visible;"/>
		</clipPath>
		
			<clipPath id="SVGID_00000138536771076760455550000005179927838141945256_" style="clip-path:url(#SVGID_00000173851617201287441140000002961203506794631094_);">
			<use xlink:href="#SVGID_00000166647924947824699980000008080901661130027707_"  style="overflow:visible;"/>
		</clipPath>
		
			<path marker-end="url(#arrowhead-line-The-University-of-Texas-at-Austin-facet-)" style="opacity:0.7;clip-path:url(#SVGID_00000138536771076760455550000005179927838141945256_);fill:none;stroke:#DDDDDD;stroke-width:5.6;enable-background:new    ;" d="
			M504.9,118.2h242.2"/>
	</g>
	<g>
		<defs>
			<polygon id="SVGID_00000040542065383980719630000017006324796914121094_" points="13.5,43.5 14.5,43.5 13.5,44.5 			"/>
		</defs>
		<defs>
			<polygon id="SVGID_00000112620960181293453840000000032044397205028992_" points="11.5,41.5 10.5,41.5 11.5,40.5 			"/>
		</defs>
		<clipPath id="SVGID_00000085220867074826422710000008415238672527852430_">
			<use xlink:href="#SVGID_00000040542065383980719630000017006324796914121094_"  style="overflow:visible;"/>
		</clipPath>
		
			<clipPath id="SVGID_00000046318387436640189930000002185926487435092655_" style="clip-path:url(#SVGID_00000085220867074826422710000008415238672527852430_);">
			<use xlink:href="#SVGID_00000112620960181293453840000000032044397205028992_"  style="overflow:visible;"/>
		</clipPath>
		
			<path marker-end="url(#arrowhead-line-University-of-Colorado-Boulder-facet-)" style="opacity:0.7;clip-path:url(#SVGID_00000046318387436640189930000002185926487435092655_);fill:none;stroke:#DDDDDD;stroke-width:5.6;enable-background:new    ;" d="
			M346.9,154.9h210.6"/>
	</g>
	<g>
		<defs>
			<polygon id="SVGID_00000165932998085968826860000013974594324767873412_" points="13.5,43.5 14.5,43.5 13.5,44.5 			"/>
		</defs>
		<defs>
			<polygon id="SVGID_00000017503226094037512760000007291150604967028100_" points="11.5,41.5 10.5,41.5 11.5,40.5 			"/>
		</defs>
		<clipPath id="SVGID_00000050660367396131315950000017922712302188764813_">
			<use xlink:href="#SVGID_00000165932998085968826860000013974594324767873412_"  style="overflow:visible;"/>
		</clipPath>
		
			<clipPath id="SVGID_00000062179213390196912810000016578783164556177051_" style="clip-path:url(#SVGID_00000050660367396131315950000017922712302188764813_);">
			<use xlink:href="#SVGID_00000017503226094037512760000007291150604967028100_"  style="overflow:visible;"/>
		</clipPath>
		
			<path marker-end="url(#arrowhead-line-University-of-Arizona-facet-)" style="opacity:0.7;clip-path:url(#SVGID_00000062179213390196912810000016578783164556177051_);fill:none;stroke:#DDDDDD;stroke-width:5.6;enable-background:new    ;" d="
			M494.4,191.6h179"/>
	</g>
	<g>
		<defs>
			<polygon id="SVGID_00000047037785315922868990000005653483844836835239_" points="13.5,43.5 14.5,43.5 13.5,44.5 			"/>
		</defs>
		<defs>
			<polygon id="SVGID_00000061463285938344425800000012054120554782514365_" points="11.5,41.5 10.5,41.5 11.5,40.5 			"/>
		</defs>
		<clipPath id="SVGID_00000096762574459039342980000013785995257266362299_">
			<use xlink:href="#SVGID_00000047037785315922868990000005653483844836835239_"  style="overflow:visible;"/>
		</clipPath>
		
			<clipPath id="SVGID_00000047056384155569246590000008117925597321646230_" style="clip-path:url(#SVGID_00000096762574459039342980000013785995257266362299_);">
			<use xlink:href="#SVGID_00000061463285938344425800000012054120554782514365_"  style="overflow:visible;"/>
		</clipPath>
		
			<path marker-end="url(#arrowhead-line-University-of-Nevada-Reno-facet-)" style="opacity:0.7;clip-path:url(#SVGID_00000047056384155569246590000008117925597321646230_);fill:none;stroke:#DDDDDD;stroke-width:5.6;enable-background:new    ;" d="
			M462.8,228.2h179"/>
	</g>
	<g>
		<defs>
			<polygon id="SVGID_00000019663810916637805010000014973266733790642325_" points="13.5,43.5 14.5,43.5 13.5,44.5 			"/>
		</defs>
		<defs>
			<polygon id="SVGID_00000027592790718053835340000012796255452498021010_" points="11.5,41.5 10.5,41.5 11.5,40.5 			"/>
		</defs>
		<clipPath id="SVGID_00000013878320648041410460000017926975035321578894_">
			<use xlink:href="#SVGID_00000019663810916637805010000014973266733790642325_"  style="overflow:visible;"/>
		</clipPath>
		
			<clipPath id="SVGID_00000018918117182785646890000003218119052488372134_" style="clip-path:url(#SVGID_00000013878320648041410460000017926975035321578894_);">
			<use xlink:href="#SVGID_00000027592790718053835340000012796255452498021010_"  style="overflow:visible;"/>
		</clipPath>
		
			<path marker-end="url(#arrowhead-line-University-at-Buffalo-facet-)" style="opacity:0.7;clip-path:url(#SVGID_00000018918117182785646890000003218119052488372134_);fill:none;stroke:#DDDDDD;stroke-width:5.6;enable-background:new    ;" d="
			M304.8,264.9h168.5"/>
	</g>
	<g>
		<defs>
			<polygon id="SVGID_00000144303388311417842110000013321601494188926106_" points="13.5,43.5 14.5,43.5 13.5,44.5 			"/>
		</defs>
		<defs>
			<polygon id="SVGID_00000148635784098233824270000011777757688181823875_" points="11.5,41.5 10.5,41.5 11.5,40.5 			"/>
		</defs>
		<clipPath id="SVGID_00000146470790008228577610000017506827702315068841_">
			<use xlink:href="#SVGID_00000144303388311417842110000013321601494188926106_"  style="overflow:visible;"/>
		</clipPath>
		
			<clipPath id="SVGID_00000018201799200965734160000012985315868304654239_" style="clip-path:url(#SVGID_00000146470790008228577610000017506827702315068841_);">
			<use xlink:href="#SVGID_00000148635784098233824270000011777757688181823875_"  style="overflow:visible;"/>
		</clipPath>
		
			<path marker-end="url(#arrowhead-line-University-of-Rhode-Island-facet-)" style="opacity:0.7;clip-path:url(#SVGID_00000018201799200965734160000012985315868304654239_);fill:none;stroke:#DDDDDD;stroke-width:5.6;enable-background:new    ;" d="
			M315.3,301.6h168.5"/>
	</g>
	<g>
		<defs>
			<polygon id="SVGID_00000070100339205781238490000012206085531572546976_" points="13.5,43.5 14.5,43.5 13.5,44.5 			"/>
		</defs>
		<defs>
			<polygon id="SVGID_00000136396231982204593500000008060440666628948397_" points="11.5,41.5 10.5,41.5 11.5,40.5 			"/>
		</defs>
		<clipPath id="SVGID_00000024683613122335539910000002087825617119970948_">
			<use xlink:href="#SVGID_00000070100339205781238490000012206085531572546976_"  style="overflow:visible;"/>
		</clipPath>
		
			<clipPath id="SVGID_00000174597760352013125940000007037731795652077720_" style="clip-path:url(#SVGID_00000024683613122335539910000002087825617119970948_);">
			<use xlink:href="#SVGID_00000136396231982204593500000008060440666628948397_"  style="overflow:visible;"/>
		</clipPath>
		
			<path marker-end="url(#arrowhead-line-Rutgers-University-New-Brunswick-facet-)" style="opacity:0.7;clip-path:url(#SVGID_00000174597760352013125940000007037731795652077720_);fill:none;stroke:#DDDDDD;stroke-width:5.6;enable-background:new    ;" d="
			M346.9,338.2h147.4"/>
	</g>
	<g>
		<defs>
			<polygon id="SVGID_00000016757428435769067040000013670902175325309358_" points="13.5,43.5 14.5,43.5 13.5,44.5 			"/>
		</defs>
		<defs>
			<polygon id="SVGID_00000119084509220286769830000003246029815788433553_" points="11.5,41.5 10.5,41.5 11.5,40.5 			"/>
		</defs>
		<clipPath id="SVGID_00000037656146563881153600000010048697264139205051_">
			<use xlink:href="#SVGID_00000016757428435769067040000013670902175325309358_"  style="overflow:visible;"/>
		</clipPath>
		
			<clipPath id="SVGID_00000028300228760936429330000002820398659341771933_" style="clip-path:url(#SVGID_00000037656146563881153600000010048697264139205051_);">
			<use xlink:href="#SVGID_00000119084509220286769830000003246029815788433553_"  style="overflow:visible;"/>
		</clipPath>
		
			<path marker-end="url(#arrowhead-line-University-of-Florida-facet-)" style="opacity:0.7;clip-path:url(#SVGID_00000028300228760936429330000002820398659341771933_);fill:none;stroke:#DDDDDD;stroke-width:5.6;enable-background:new    ;" d="
			M441.7,374.9H547"/>
	</g>
	<g>
		<defs>
			<polygon id="SVGID_00000141442967247791056630000010666039396609157025_" points="13.5,43.5 14.5,43.5 13.5,44.5 			"/>
		</defs>
		<defs>
			<polygon id="SVGID_00000118399087702545873730000017467056755425328825_" points="11.5,41.5 10.5,41.5 11.5,40.5 			"/>
		</defs>
		<clipPath id="SVGID_00000153677765804752070100000006908470341710106807_">
			<use xlink:href="#SVGID_00000141442967247791056630000010666039396609157025_"  style="overflow:visible;"/>
		</clipPath>
		
			<clipPath id="SVGID_00000093159093789783066670000015571268517260532894_" style="clip-path:url(#SVGID_00000153677765804752070100000006908470341710106807_);">
			<use xlink:href="#SVGID_00000118399087702545873730000017467056755425328825_"  style="overflow:visible;"/>
		</clipPath>
		
			<path marker-end="url(#arrowhead-line-University-of-Nebraska-Lincoln-facet-)" style="opacity:0.7;clip-path:url(#SVGID_00000093159093789783066670000015571268517260532894_);fill:none;stroke:#DDDDDD;stroke-width:5.6;enable-background:new    ;" d="
			M294.3,411.5h105.3"/>
	</g>
	<g>
		<defs>
			<polygon id="SVGID_00000145041171056796106640000000336894432689663922_" points="13.5,43.5 14.5,43.5 13.5,44.5 			"/>
		</defs>
		<defs>
			<polygon id="SVGID_00000142890505018120281500000004829750485537781178_" points="11.5,41.5 10.5,41.5 11.5,40.5 			"/>
		</defs>
		<clipPath id="SVGID_00000000940873745962028700000016271072644664530607_">
			<use xlink:href="#SVGID_00000145041171056796106640000000336894432689663922_"  style="overflow:visible;"/>
		</clipPath>
		
			<clipPath id="SVGID_00000118396206362405596340000002583811418279121579_" style="clip-path:url(#SVGID_00000000940873745962028700000016271072644664530607_);">
			<use xlink:href="#SVGID_00000142890505018120281500000004829750485537781178_"  style="overflow:visible;"/>
		</clipPath>
		
			<path marker-end="url(#arrowhead-line-University-of-Massachusetts-Amherst-facet-)" style="opacity:0.7;clip-path:url(#SVGID_00000118396206362405596340000002583811418279121579_);fill:none;stroke:#DDDDDD;stroke-width:5.6;enable-background:new    ;" d="
			M304.8,448.2h105.3"/>
	</g>
	<g>
		<defs>
			<polygon id="SVGID_00000171677599371922007780000007459185081550925463_" points="13.5,43.5 14.5,43.5 13.5,44.5 			"/>
		</defs>
		<defs>
			<polygon id="SVGID_00000124851131333373169820000006575906701105283724_" points="11.5,41.5 10.5,41.5 11.5,40.5 			"/>
		</defs>
		<clipPath id="SVGID_00000171708471795153183080000009932002166879061889_">
			<use xlink:href="#SVGID_00000171677599371922007780000007459185081550925463_"  style="overflow:visible;"/>
		</clipPath>
		
			<clipPath id="SVGID_00000101069739189143563230000003732903838607805341_" style="clip-path:url(#SVGID_00000171708471795153183080000009932002166879061889_);">
			<use xlink:href="#SVGID_00000124851131333373169820000006575906701105283724_"  style="overflow:visible;"/>
		</clipPath>
		
			<path marker-end="url(#arrowhead-line-University-of-Kansas-facet-)" style="opacity:0.7;clip-path:url(#SVGID_00000101069739189143563230000003732903838607805341_);fill:none;stroke:#DDDDDD;stroke-width:5.6;enable-background:new    ;" d="
			M294.3,484.9h115.8"/>
	</g>
</g>
<g>
	<defs>
		<rect id="SVGID_00000019667772320891623170000004207650242257677240_" x="243" y="68.3" width="510.7" height="426.7"/>
	</defs>
	<clipPath id="SVGID_00000150099248485910529780000000186794616032418460_">
		<use xlink:href="#SVGID_00000019667772320891623170000004207650242257677240_"  style="overflow:visible;"/>
	</clipPath>
</g>
<line class="st26" x1="243" y1="495" x2="243" y2="68.3"/>
<line class="st27" x1="243" y1="477.2" x2="236.2" y2="477.2"/>
<text transform="matrix(1 0 0 1 111.7354 481.2357)" class="st28 st29">University of Kansas</text>
<line class="st27" x1="243" y1="441.6" x2="236.2" y2="441.6"/>
<text transform="matrix(1 0 0 1 21.4234 445.6771)" class="st28 st29">University of Massachusetts-Amherst</text>
<line class="st27" x1="243" y1="406.1" x2="236.2" y2="406.1"/>
<text transform="matrix(1 0 0 1 57.399 410.1185)" class="st28 st29">University of Nebraska-Lincoln</text>
<line class="st27" x1="243" y1="370.5" x2="236.2" y2="370.5"/>
<text transform="matrix(1 0 0 1 115.1427 374.5599)" class="st28 st29">University of Florida</text>
<line class="st27" x1="243" y1="335" x2="236.2" y2="335"/>
<text transform="matrix(1 0 0 1 35.6969 339.0013)" class="st28 st29">Rutgers University-New Brunswick</text>
<line class="st27" x1="243" y1="299.4" x2="236.2" y2="299.4"/>
<text transform="matrix(1 0 0 1 80.4796 303.4427)" class="st28 st29">University of Rhode Island</text>
<line class="st27" x1="243" y1="263.9" x2="236.2" y2="263.9"/>
<text transform="matrix(1 0 0 1 114.671 267.8846)" class="st28 st29">University at Buffalo</text>
<line class="st27" x1="243" y1="228.3" x2="236.2" y2="228.3"/>
<text transform="matrix(1 0 0 1 77.0904 232.326)" class="st28 st29">University of Nevada-Reno</text>
<line class="st27" x1="243" y1="192.7" x2="236.2" y2="192.7"/>
<text transform="matrix(1 0 0 1 111.7354 196.7674)" class="st28 st29">University of Arizona</text>
<line class="st27" x1="243" y1="157.2" x2="236.2" y2="157.2"/>
<text transform="matrix(1 0 0 1 57.3868 161.2088)" class="st28 st29">University of Colorado Boulder</text>
<line class="st27" x1="243" y1="121.6" x2="236.2" y2="121.6"/>
<text transform="matrix(1 0 0 1 46.0675 125.6502)" class="st28 st29">The University of Texas at Austin</text>
<line class="st27" x1="243" y1="86.1" x2="236.2" y2="86.1"/>
<text transform="matrix(1 0 0 1 49.2599 90.0916)" class="st28 st29">University of California-Berkeley</text>
<g>
	<defs>
		<rect id="SVGID_00000005956773911694850550000014394037862244865933_" x="243" y="68.3" width="510.7" height="426.7"/>
	</defs>
	<clipPath id="SVGID_00000103247039613031114970000001813622927278475182_">
		<use xlink:href="#SVGID_00000005956773911694850550000014394037862244865933_"  style="overflow:visible;"/>
	</clipPath>
</g>
<line class="st30" x1="396.2" y1="86.1" x2="743.7" y2="86.1"/>
<line class="st30" x1="486.4" y1="121.6" x2="723.1" y2="121.6"/>
<line class="st30" x1="334.9" y1="157.2" x2="540.3" y2="157.2"/>
<line class="st30" x1="477.9" y1="192.7" x2="651.6" y2="192.7"/>
<line class="st30" x1="447.5" y1="228.3" x2="620.9" y2="228.3"/>
<line class="st30" x1="294.3" y1="264" x2="458.9" y2="264"/>
<line class="st30" x1="303.4" y1="299.7" x2="467.7" y2="299.7"/>
<line class="st30" x1="334.9" y1="335" x2="477.9" y2="335"/>
<line class="st30" x1="425.4" y1="370.5" x2="530.5" y2="370.5"/>
<line class="st30" x1="282.9" y1="406.1" x2="386" y2="406.1"/>
<line class="st30" x1="293.7" y1="441.4" x2="396.2" y2="441.4"/>
<line class="st30" x1="283.6" y1="477.2" x2="396.2" y2="477.2"/>
<line class="st27" x1="743.5" y1="82.8" x2="743.5" y2="67.8"/>
<path id="dot-0" vector-effect="non-scaling-stroke" class="st31" d="M402.1,86.1c0,3.2-2.6,5.8-5.8,5.8c-3.2,0-5.8-2.6-5.8-5.8
	s2.6-5.8,5.8-5.8C399.4,80.2,402.1,82.8,402.1,86.1"/>
<path id="dot-1" vector-effect="non-scaling-stroke" class="st32" d="M749.3,86.1c0,3.2-2.6,5.8-5.8,5.8s-5.8-2.6-5.8-5.8
	s2.6-5.8,5.8-5.8S749.3,82.8,749.3,86.1"/>
<path id="dot-2" vector-effect="non-scaling-stroke" class="st31" d="M494,121.6c0,3.2-2.6,5.8-5.8,5.8c-3.2,0-5.8-2.6-5.8-5.8
	s2.6-5.8,5.8-5.8C491.4,115.8,494,118.4,494,121.6"/>
<path id="dot-3" vector-effect="non-scaling-stroke" class="st32" d="M728.9,121.6c0,3.2-2.6,5.8-5.8,5.8s-5.8-2.6-5.8-5.8
	s2.6-5.8,5.8-5.8S728.9,118.4,728.9,121.6"/>
<path id="dot-4" vector-effect="non-scaling-stroke" class="st31" d="M340.8,157.2c0,3.2-2.6,5.8-5.8,5.8c-3.2,0-5.8-2.6-5.8-5.8
	s2.6-5.8,5.8-5.8C338.2,151.3,340.8,153.9,340.8,157.2"/>
<path id="dot-5" vector-effect="non-scaling-stroke" class="st32" d="M545.1,157.2c0,3.2-2.6,5.8-5.8,5.8c-3.2,0-5.8-2.6-5.8-5.8
	s2.6-5.8,5.8-5.8C542.4,151.3,545.1,153.9,545.1,157.2"/>
<path id="dot-6" vector-effect="non-scaling-stroke" class="st31" d="M483.8,192.7c0,3.2-2.6,5.8-5.8,5.8c-3.2,0-5.8-2.6-5.8-5.8
	s2.6-5.8,5.8-5.8C481.2,186.9,483.8,189.5,483.8,192.7"/>
<path id="dot-7" vector-effect="non-scaling-stroke" class="st32" d="M657.4,192.7c0,3.2-2.6,5.8-5.8,5.8c-3.2,0-5.8-2.6-5.8-5.8
	s2.6-5.8,5.8-5.8C654.8,186.9,657.4,189.5,657.4,192.7"/>
<path id="dot-8" vector-effect="non-scaling-stroke" class="st31" d="M453.1,228.3c0,3.2-2.6,5.8-5.8,5.8c-3.2,0-5.8-2.6-5.8-5.8
	s2.6-5.8,5.8-5.8C450.5,222.5,453.1,225.1,453.1,228.3"/>
<path id="dot-9" vector-effect="non-scaling-stroke" class="st32" d="M626.8,228.3c0,3.2-2.6,5.8-5.8,5.8c-3.2,0-5.8-2.6-5.8-5.8
	s2.6-5.8,5.8-5.8C624.2,222.5,626.8,225.1,626.8,228.3"/>
<path id="dot-10" vector-effect="non-scaling-stroke" class="st31" d="M299.9,263.9c0,3.2-2.6,5.8-5.8,5.8c-3.2,0-5.8-2.6-5.8-5.8
	c0-3.2,2.6-5.8,5.8-5.8C297.3,258,299.9,260.6,299.9,263.9"/>
<path id="dot-11" vector-effect="non-scaling-stroke" class="st32" d="M463.3,263.9c0,3.2-2.6,5.8-5.8,5.8c-3.2,0-5.8-2.6-5.8-5.8
	c0-3.2,2.6-5.8,5.8-5.8C460.7,258,463.3,260.6,463.3,263.9"/>
<path id="dot-12" vector-effect="non-scaling-stroke" class="st31" d="M310.1,299.4c0,3.2-2.6,5.8-5.8,5.8c-3.2,0-5.8-2.6-5.8-5.8
	c0-3.2,2.6-5.8,5.8-5.8C307.5,293.6,310.1,296.2,310.1,299.4"/>
<path id="dot-13" vector-effect="non-scaling-stroke" class="st32" d="M473.6,299.4c0,3.2-2.6,5.8-5.8,5.8c-3.2,0-5.8-2.6-5.8-5.8
	c0-3.2,2.6-5.8,5.8-5.8C470.9,293.6,473.6,296.2,473.6,299.4"/>
<path id="dot-14" vector-effect="non-scaling-stroke" class="st31" d="M340.8,335c0,3.2-2.6,5.8-5.8,5.8c-3.2,0-5.8-2.6-5.8-5.8
	c0-3.2,2.6-5.8,5.8-5.8C338.2,329.1,340.8,331.7,340.8,335"/>
<path id="dot-15" vector-effect="non-scaling-stroke" class="st32" d="M483.8,335c0,3.2-2.6,5.8-5.8,5.8c-3.2,0-5.8-2.6-5.8-5.8
	c0-3.2,2.6-5.8,5.8-5.8C481.2,329.1,483.8,331.7,483.8,335"/>
<path id="dot-16" vector-effect="non-scaling-stroke" class="st31" d="M432.7,370.5c0,3.2-2.6,5.8-5.8,5.8c-3.2,0-5.8-2.6-5.8-5.8
	c0-3.2,2.6-5.8,5.8-5.8C430.1,364.7,432.7,367.3,432.7,370.5"/>
<path id="dot-17" vector-effect="non-scaling-stroke" class="st32" d="M534.8,370.5c0,3.2-2.6,5.8-5.8,5.8s-5.8-2.6-5.8-5.8
	c0-3.2,2.6-5.8,5.8-5.8S534.8,367.3,534.8,370.5"/>
<path id="dot-18" vector-effect="non-scaling-stroke" class="st31" d="M289.7,406.1c0,3.2-2.6,5.8-5.8,5.8c-3.2,0-5.8-2.6-5.8-5.8
	c0-3.2,2.6-5.8,5.8-5.8C287.1,400.2,289.7,402.9,289.7,406.1"/>
<path id="dot-19" vector-effect="non-scaling-stroke" class="st32" d="M391.8,406.1c0,3.2-2.6,5.8-5.8,5.8c-3.2,0-5.8-2.6-5.8-5.8
	c0-3.2,2.6-5.8,5.8-5.8C389.2,400.2,391.8,402.9,391.8,406.1"/>
<path id="dot-20" vector-effect="non-scaling-stroke" class="st31" d="M299.9,441.6c0,3.2-2.6,5.8-5.8,5.8c-3.2,0-5.8-2.6-5.8-5.8
	c0-3.2,2.6-5.8,5.8-5.8C297.3,435.8,299.9,438.4,299.9,441.6"/>
<path id="dot-21" vector-effect="non-scaling-stroke" class="st32" d="M402.1,441.6c0,3.2-2.6,5.8-5.8,5.8c-3.2,0-5.8-2.6-5.8-5.8
	c0-3.2,2.6-5.8,5.8-5.8C399.4,435.8,402.1,438.4,402.1,441.6"/>
<path id="dot-22" vector-effect="non-scaling-stroke" class="st31" d="M289.7,477.2c0,3.2-2.6,5.8-5.8,5.8c-3.2,0-5.8-2.6-5.8-5.8
	c0-3.2,2.6-5.8,5.8-5.8C287.1,471.4,289.7,474,289.7,477.2"/>
<path id="dot-23" vector-effect="non-scaling-stroke" class="st32" d="M402.1,477.2c0,3.2-2.6,5.8-5.8,5.8c-3.2,0-5.8-2.6-5.8-5.8
	c0-3.2,2.6-5.8,5.8-5.8C399.4,471.4,402.1,474,402.1,477.2"/>
<text transform="matrix(1 0 0 1 280.6165 45.8127)"><tspan x="0" y="0" class="st33 st28 st34">Percent of freshment</tspan><tspan x="21.2" y="15.6" class="st33 st28 st34">who are Hispanic</tspan></text>
<text transform="matrix(1 0 0 1 644.9395 30.2125)"><tspan x="0" y="0" class="st35 st28 st34">Percent of public</tspan><tspan x="-29.9" y="15.6" class="st35 st28 st34">high school graduates</tspan><tspan x="-41.9" y="31.2" class="st35 st28 st34">who are Hispanic/Latino</tspan></text>
<text transform="matrix(1 0 0 1 361.145 90.5746)" class="st33 st28 st36">20%</text>
<text transform="matrix(1 0 0 1 299.8596 161.1762)" class="st33 st28 st36">14%</text>
<text transform="matrix(1 0 0 1 453.073 125.65)" class="st33 st28 st36">29%</text>
<text transform="matrix(1 0 0 1 442.8588 196.7671)" class="st33 st28 st36">28%</text>
<text transform="matrix(1 0 0 1 412.2158 232.3256)" class="st33 st28 st36">25%</text>
<text transform="matrix(1 0 0 1 259.0027 267.8898)" class="st33 st28 st36">10%</text>
<text transform="matrix(1 0 0 1 269.217 303.4435)" class="st33 st28 st36">11%</text>
<text transform="matrix(1 0 0 1 299.8596 338.8112)" class="st33 st28 st36">14%</text>
<text transform="matrix(1 0 0 1 391.7874 374.5274)" class="st33 st28 st36">23%</text>
<text transform="matrix(1 0 0 1 254.9041 409.9278)" class="st33 st28 st36">9%</text>
<text transform="matrix(1 0 0 1 259.0029 444.8798)" class="st33 st28 st36">10%</text>
<text transform="matrix(1 0 0 1 254.9045 481.045)" class="st33 st28 st36">9%</text>
<text transform="matrix(1 0 0 1 755.3451 90.5745)" class="st35 st28 st36">54%</text>
<text transform="matrix(1 0 0 1 551.0602 161.1321)" class="st35 st28 st36">34%</text>
<text transform="matrix(1 0 0 1 734.9169 125.6498)" class="st35 st28 st36">52%</text>
<text transform="matrix(1 0 0 1 663.4169 196.723)" class="st35 st28 st36">45%</text>
<text transform="matrix(1 0 0 1 632.7738 232.2816)" class="st35 st28 st36">42%</text>
<text transform="matrix(1 0 0 1 469.3468 267.8457)" class="st35 st28 st36">26%</text>
<text transform="matrix(1 0 0 1 479.5605 303.3994)" class="st35 st28 st36">27%</text>
<text transform="matrix(1 0 0 1 489.7749 338.7672)" class="st35 st28 st36">28%</text>
<text transform="matrix(1 0 0 1 540.8459 374.4833)" class="st35 st28 st36">33%</text>
<text transform="matrix(1 0 0 1 397.8472 409.8838)" class="st35 st28 st36">19%</text>
<text transform="matrix(1 0 0 1 408.0607 444.8357)" class="st35 st28 st36">20%</text>
<text transform="matrix(1 0 0 1 408.061 481.0009)" class="st35 st28 st36">20%</text>
</svg>
