<?xml version="1.0" encoding="UTF-8"?>
<svg id="fl-legend-discrete-color-0-svg-screenshot-container" xmlns="http://www.w3.org/2000/svg" xmlns:xlink="http://www.w3.org/1999/xlink" viewBox="0 0 800 514.05">
  <defs>
    <style>
      .cls-1, .cls-2, .cls-3, .cls-4, .cls-5, .cls-6, .cls-7, .cls-8, .cls-9, .cls-10, .cls-11, .cls-12, .cls-13, .cls-14, .cls-15, .cls-16, .cls-17 {
        fill: none;
      }

      .cls-2 {
        clip-path: url(#clippath-8);
      }

      .cls-3 {
        clip-path: url(#clippath-6);
      }

      .cls-4 {
        clip-path: url(#clippath-4);
      }

      .cls-5 {
        clip-path: url(#clippath-2);
      }

      .cls-6 {
        stroke-linecap: square;
      }

      .cls-6, .cls-7, .cls-16, .cls-17 {
        stroke: #ddd;
      }

      .cls-18 {
        font-size: 12.61px;
      }

      .cls-18, .cls-19, .cls-20, .cls-21, .cls-22 {
        font-family: HelveticaNeue, 'Helvetica Neue';
      }

      .cls-18, .cls-21, .cls-22, .cls-17 {
        isolation: isolate;
      }

      .cls-23 {
        fill: #fff;
      }

      .cls-24 {
        letter-spacing: -.02em;
      }

      .cls-25 {
        letter-spacing: -.02em;
      }

      .cls-19, .cls-20 {
        font-size: 13px;
      }

      .cls-19, .cls-21, .cls-26 {
        fill: #d1a347;
      }

      .cls-20, .cls-22, .cls-27 {
        fill: #ffdb78;
      }

      .cls-7 {
        stroke-miterlimit: 10;
        stroke-width: 5px;
      }

      .cls-28 {
        clip-path: url(#clippath-3);
      }

      .cls-29 {
        clip-path: url(#clippath-7);
      }

      .cls-30 {
        clip-path: url(#clippath-5);
      }

      .cls-31 {
        clip-path: url(#clippath-9);
      }

      .cls-8 {
        clip-path: url(#clippath-14);
      }

      .cls-9 {
        clip-path: url(#clippath-12);
      }

      .cls-10 {
        clip-path: url(#clippath-18);
      }

      .cls-11 {
        clip-path: url(#clippath-16);
      }

      .cls-12 {
        clip-path: url(#clippath-10);
      }

      .cls-13 {
        clip-path: url(#clippath-22);
      }

      .cls-14 {
        clip-path: url(#clippath-24);
      }

      .cls-15 {
        clip-path: url(#clippath-20);
      }

      .cls-21, .cls-22 {
        font-size: 11px;
      }

      .cls-32 {
        clip-path: url(#clippath-21);
      }

      .cls-33 {
        clip-path: url(#clippath-23);
      }

      .cls-34 {
        clip-path: url(#clippath-25);
      }

      .cls-35 {
        clip-path: url(#clippath-13);
      }

      .cls-36 {
        clip-path: url(#clippath-15);
      }

      .cls-37 {
        clip-path: url(#clippath-17);
      }

      .cls-38 {
        clip-path: url(#clippath-19);
      }

      .cls-39 {
        clip-path: url(#clippath-11);
      }

      .cls-40 {
        letter-spacing: 0em;
      }

      .cls-27 {
        stroke: rgba(255, 219, 120, 0);
      }

      .cls-27, .cls-26 {
        stroke-miterlimit: 5.87;
        stroke-width: 1.47px;
      }

      .cls-26 {
        stroke: rgba(209, 163, 71, 0);
      }

      .cls-41 {
        letter-spacing: .02em;
      }

      .cls-42 {
        letter-spacing: -.11em;
      }

      .cls-43 {
        letter-spacing: 0em;
      }

      .cls-17 {
        opacity: .7;
        stroke-width: 5.6px;
      }
    </style>
    <clipPath id="clippath-2">
      <polygon class="cls-1" points="13.5 43.5 14.5 43.5 13.5 44.5 13.5 43.5"/>
    </clipPath>
    <clipPath id="clippath-3">
      <polygon class="cls-5" points="11.5 41.5 10.5 41.5 11.5 40.5 11.5 41.5"/>
    </clipPath>
    <clipPath id="clippath-4">
      <polygon class="cls-1" points="13.5 43.5 14.5 43.5 13.5 44.5 13.5 43.5"/>
    </clipPath>
    <clipPath id="clippath-5">
      <polygon class="cls-4" points="11.5 41.5 10.5 41.5 11.5 40.5 11.5 41.5"/>
    </clipPath>
    <clipPath id="clippath-6">
      <polygon class="cls-1" points="13.5 43.5 14.5 43.5 13.5 44.5 13.5 43.5"/>
    </clipPath>
    <clipPath id="clippath-7">
      <polygon class="cls-3" points="11.5 41.5 10.5 41.5 11.5 40.5 11.5 41.5"/>
    </clipPath>
    <clipPath id="clippath-8">
      <polygon class="cls-1" points="13.5 43.5 14.5 43.5 13.5 44.5 13.5 43.5"/>
    </clipPath>
    <clipPath id="clippath-9">
      <polygon class="cls-2" points="11.5 41.5 10.5 41.5 11.5 40.5 11.5 41.5"/>
    </clipPath>
    <clipPath id="clippath-10">
      <polygon class="cls-1" points="13.5 43.5 14.5 43.5 13.5 44.5 13.5 43.5"/>
    </clipPath>
    <clipPath id="clippath-11">
      <polygon class="cls-12" points="11.5 41.5 10.5 41.5 11.5 40.5 11.5 41.5"/>
    </clipPath>
    <clipPath id="clippath-12">
      <polygon class="cls-1" points="13.5 43.5 14.5 43.5 13.5 44.5 13.5 43.5"/>
    </clipPath>
    <clipPath id="clippath-13">
      <polygon class="cls-9" points="11.5 41.5 10.5 41.5 11.5 40.5 11.5 41.5"/>
    </clipPath>
    <clipPath id="clippath-14">
      <polygon class="cls-1" points="13.5 43.5 14.5 43.5 13.5 44.5 13.5 43.5"/>
    </clipPath>
    <clipPath id="clippath-15">
      <polygon class="cls-8" points="11.5 41.5 10.5 41.5 11.5 40.5 11.5 41.5"/>
    </clipPath>
    <clipPath id="clippath-16">
      <polygon class="cls-1" points="13.5 43.5 14.5 43.5 13.5 44.5 13.5 43.5"/>
    </clipPath>
    <clipPath id="clippath-17">
      <polygon class="cls-11" points="11.5 41.5 10.5 41.5 11.5 40.5 11.5 41.5"/>
    </clipPath>
    <clipPath id="clippath-18">
      <polygon class="cls-1" points="13.5 43.5 14.5 43.5 13.5 44.5 13.5 43.5"/>
    </clipPath>
    <clipPath id="clippath-19">
      <polygon class="cls-10" points="11.5 41.5 10.5 41.5 11.5 40.5 11.5 41.5"/>
    </clipPath>
    <clipPath id="clippath-20">
      <polygon class="cls-1" points="13.5 43.5 14.5 43.5 13.5 44.5 13.5 43.5"/>
    </clipPath>
    <clipPath id="clippath-21">
      <polygon class="cls-15" points="11.5 41.5 10.5 41.5 11.5 40.5 11.5 41.5"/>
    </clipPath>
    <clipPath id="clippath-22">
      <polygon class="cls-1" points="13.5 43.5 14.5 43.5 13.5 44.5 13.5 43.5"/>
    </clipPath>
    <clipPath id="clippath-23">
      <polygon class="cls-13" points="11.5 41.5 10.5 41.5 11.5 40.5 11.5 41.5"/>
    </clipPath>
    <clipPath id="clippath-24">
      <polygon class="cls-1" points="13.5 43.5 14.5 43.5 13.5 44.5 13.5 43.5"/>
    </clipPath>
    <clipPath id="clippath-25">
      <polygon class="cls-14" points="11.5 41.5 10.5 41.5 11.5 40.5 11.5 41.5"/>
    </clipPath>
  </defs>
  <line class="cls-16" x1="396.22" y1="83.13" x2="396.22" y2="68.16"/>
  <g>
    <g class="cls-28">
      <path class="cls-17" d="M410.12,81.58h358.07" marker-end="url(#arrowhead-line-University-of-California-Berkeley-facet-)"/>
    </g>
    <g class="cls-30">
      <path class="cls-17" d="M504.9,118.24h242.22" marker-end="url(#arrowhead-line-The-University-of-Texas-at-Austin-facet-)"/>
    </g>
    <g class="cls-29">
      <path class="cls-17" d="M346.93,154.91h210.63" marker-end="url(#arrowhead-line-University-of-Colorado-Boulder-facet-)"/>
    </g>
    <g class="cls-31">
      <path class="cls-17" d="M494.37,191.57h179.03" marker-end="url(#arrowhead-line-University-of-Arizona-facet-)"/>
    </g>
    <g class="cls-39">
      <path class="cls-17" d="M462.77,228.23h179.03" marker-end="url(#arrowhead-line-University-of-Nevada-Reno-facet-)"/>
    </g>
    <g class="cls-35">
      <path class="cls-17" d="M304.8,264.89h168.5" marker-end="url(#arrowhead-line-University-at-Buffalo-facet-)"/>
    </g>
    <g class="cls-36">
      <path class="cls-17" d="M315.33,301.56h168.5" marker-end="url(#arrowhead-line-University-of-Rhode-Island-facet-)"/>
    </g>
    <g class="cls-37">
      <path class="cls-17" d="M346.93,338.22h147.44" marker-end="url(#arrowhead-line-Rutgers-University-New-Brunswick-facet-)"/>
    </g>
    <g class="cls-38">
      <path class="cls-17" d="M441.71,374.88h105.31" marker-end="url(#arrowhead-line-University-of-Florida-facet-)"/>
    </g>
    <g class="cls-32">
      <path class="cls-17" d="M294.27,411.54h105.31" marker-end="url(#arrowhead-line-University-of-Nebraska-Lincoln-facet-)"/>
    </g>
    <g class="cls-33">
      <path class="cls-17" d="M304.8,448.21h105.31" marker-end="url(#arrowhead-line-University-of-Massachusetts-Amherst-facet-)"/>
    </g>
    <g class="cls-34">
      <path class="cls-17" d="M294.27,484.87h115.84" marker-end="url(#arrowhead-line-University-of-Kansas-facet-)"/>
    </g>
  </g>
  <line class="cls-6" x1="243.01" y1="494.98" x2="243.01" y2="68.28"/>
  <line class="cls-16" x1="243.01" y1="477.2" x2="236.22" y2="477.2"/>
  <text class="cls-18" transform="translate(111.74 481.24)"><tspan x="0" y="0">University of Kansas</tspan></text>
  <line class="cls-16" x1="243.01" y1="441.64" x2="236.22" y2="441.64"/>
  <text class="cls-18" transform="translate(21.42 445.68)"><tspan x="0" y="0">University of Massachusetts-Amherst</tspan></text>
  <line class="cls-16" x1="243.01" y1="406.09" x2="236.22" y2="406.09"/>
  <text class="cls-18" transform="translate(57.4 410.12)"><tspan x="0" y="0">University of Nebraska-Lincoln</tspan></text>
  <line class="cls-16" x1="243.01" y1="370.53" x2="236.22" y2="370.53"/>
  <text class="cls-18" transform="translate(115.14 374.56)"><tspan x="0" y="0">University of Florida</tspan></text>
  <line class="cls-16" x1="243.01" y1="334.97" x2="236.22" y2="334.97"/>
  <text class="cls-18" transform="translate(35.7 339)"><tspan x="0" y="0">Rutgers University-New Brunswick</tspan></text>
  <line class="cls-16" x1="243.01" y1="299.41" x2="236.22" y2="299.41"/>
  <text class="cls-18" transform="translate(80.48 303.44)"><tspan x="0" y="0">University of Rhode Island</tspan></text>
  <line class="cls-16" x1="243.01" y1="263.85" x2="236.22" y2="263.85"/>
  <text class="cls-18" transform="translate(114.67 267.88)"><tspan x="0" y="0">University at Bu</tspan><tspan class="cls-24" x="88.96" y="0">f</tspan><tspan x="92.47" y="0">falo</tspan></text>
  <line class="cls-16" x1="243.01" y1="228.29" x2="236.22" y2="228.29"/>
  <text class="cls-18" transform="translate(77.09 232.33)"><tspan x="0" y="0">University of Nevada-Reno</tspan></text>
  <line class="cls-16" x1="243.01" y1="192.73" x2="236.22" y2="192.73"/>
  <text class="cls-18" transform="translate(111.74 196.77)"><tspan x="0" y="0">University of Arizona</tspan></text>
  <line class="cls-16" x1="243.01" y1="157.18" x2="236.22" y2="157.18"/>
  <text class="cls-18" transform="translate(57.39 161.21)"><tspan x="0" y="0">University of Colorado Boulder</tspan></text>
  <line class="cls-16" x1="243.01" y1="121.62" x2="236.22" y2="121.62"/>
  <text class="cls-18" transform="translate(46.07 125.65)"><tspan x="0" y="0">The University of </tspan><tspan class="cls-42" x="98.07" y="0">T</tspan><tspan class="cls-40" x="103.91" y="0">exas at Austin</tspan></text>
  <line class="cls-16" x1="243.01" y1="86.06" x2="236.22" y2="86.06"/>
  <text class="cls-18" transform="translate(49.26 90.09)"><tspan x="0" y="0">University of Califo</tspan><tspan class="cls-41" x="105.99" y="0">r</tspan><tspan x="110.41" y="0">nia-Berkeley</tspan></text>
  <line class="cls-7" x1="396.22" y1="86.15" x2="743.69" y2="86.15"/>
  <line class="cls-7" x1="486.4" y1="121.62" x2="723.07" y2="121.62"/>
  <line class="cls-7" x1="334.93" y1="157.18" x2="540.26" y2="157.18"/>
  <line class="cls-7" x1="477.93" y1="192.73" x2="651.57" y2="192.73"/>
  <line class="cls-7" x1="447.47" y1="228.29" x2="620.93" y2="228.29"/>
  <line class="cls-7" x1="294.26" y1="263.98" x2="458.94" y2="263.98"/>
  <line class="cls-7" x1="303.38" y1="299.66" x2="467.72" y2="299.66"/>
  <line class="cls-7" x1="334.93" y1="334.97" x2="477.93" y2="334.97"/>
  <line class="cls-7" x1="425.37" y1="370.53" x2="530.47" y2="370.53"/>
  <line class="cls-7" x1="282.94" y1="406.09" x2="386" y2="406.09"/>
  <line class="cls-7" x1="293.69" y1="441.41" x2="396.22" y2="441.41"/>
  <line class="cls-7" x1="283.61" y1="477.16" x2="396.22" y2="477.16"/>
  <line class="cls-16" x1="743.5" y1="83.46" x2="743.5" y2="68.49"/>
  <path id="dot-0" class="cls-27" d="M402.06,86.06c0,3.23-2.62,5.84-5.84,5.84s-5.84-2.62-5.84-5.84,2.62-5.84,5.84-5.84,5.84,2.62,5.84,5.84" vector-effect="non-scaling-stroke"/>
  <path id="dot-1" class="cls-26" d="M749.35,86.06c0,3.23-2.62,5.84-5.84,5.84s-5.84-2.62-5.84-5.84,2.62-5.84,5.84-5.84,5.84,2.62,5.84,5.84" vector-effect="non-scaling-stroke"/>
  <path id="dot-2" class="cls-27" d="M493.99,121.62c0,3.23-2.62,5.84-5.84,5.84s-5.84-2.62-5.84-5.84,2.62-5.84,5.84-5.84,5.84,2.62,5.84,5.84" vector-effect="non-scaling-stroke"/>
  <path id="dot-3" class="cls-26" d="M728.92,121.62c0,3.23-2.62,5.84-5.84,5.84s-5.84-2.62-5.84-5.84,2.62-5.84,5.84-5.84,5.84,2.62,5.84,5.84" vector-effect="non-scaling-stroke"/>
  <path id="dot-4" class="cls-27" d="M340.78,157.18c0,3.23-2.62,5.84-5.84,5.84s-5.84-2.62-5.84-5.84,2.62-5.84,5.84-5.84,5.84,2.62,5.84,5.84" vector-effect="non-scaling-stroke"/>
  <path id="dot-5" class="cls-26" d="M545.06,157.18c0,3.23-2.62,5.84-5.84,5.84s-5.84-2.62-5.84-5.84,2.62-5.84,5.84-5.84,5.84,2.62,5.84,5.84" vector-effect="non-scaling-stroke"/>
  <path id="dot-6" class="cls-27" d="M483.78,192.73c0,3.23-2.62,5.84-5.84,5.84s-5.84-2.62-5.84-5.84,2.62-5.84,5.84-5.84,5.84,2.62,5.84,5.84" vector-effect="non-scaling-stroke"/>
  <path id="dot-7" class="cls-26" d="M657.42,192.73c0,3.23-2.62,5.84-5.84,5.84s-5.84-2.62-5.84-5.84,2.62-5.84,5.84-5.84,5.84,2.62,5.84,5.84" vector-effect="non-scaling-stroke"/>
  <path id="dot-8" class="cls-27" d="M453.13,228.29c0,3.23-2.62,5.84-5.84,5.84s-5.84-2.62-5.84-5.84,2.62-5.84,5.84-5.84,5.84,2.62,5.84,5.84" vector-effect="non-scaling-stroke"/>
  <path id="dot-9" class="cls-26" d="M626.77,228.29c0,3.23-2.62,5.84-5.84,5.84s-5.84-2.62-5.84-5.84,2.62-5.84,5.84-5.84,5.84,2.62,5.84,5.84" vector-effect="non-scaling-stroke"/>
  <path id="dot-10" class="cls-27" d="M299.92,263.85c0,3.23-2.62,5.84-5.84,5.84s-5.84-2.62-5.84-5.84,2.62-5.84,5.84-5.84,5.84,2.62,5.84,5.84" vector-effect="non-scaling-stroke"/>
  <path id="dot-11" class="cls-26" d="M463.35,263.85c0,3.23-2.62,5.84-5.84,5.84s-5.84-2.62-5.84-5.84,2.62-5.84,5.84-5.84,5.84,2.62,5.84,5.84" vector-effect="non-scaling-stroke"/>
  <path id="dot-12" class="cls-27" d="M310.13,299.41c0,3.23-2.62,5.84-5.84,5.84s-5.84-2.62-5.84-5.84,2.62-5.84,5.84-5.84,5.84,2.62,5.84,5.84" vector-effect="non-scaling-stroke"/>
  <path id="dot-13" class="cls-26" d="M473.56,299.41c0,3.23-2.62,5.84-5.84,5.84s-5.84-2.62-5.84-5.84,2.62-5.84,5.84-5.84,5.84,2.62,5.84,5.84" vector-effect="non-scaling-stroke"/>
  <path id="dot-14" class="cls-27" d="M340.78,334.97c0,3.23-2.62,5.84-5.84,5.84s-5.84-2.62-5.84-5.84,2.62-5.84,5.84-5.84,5.84,2.62,5.84,5.84" vector-effect="non-scaling-stroke"/>
  <path id="dot-15" class="cls-26" d="M483.78,334.97c0,3.23-2.62,5.84-5.84,5.84s-5.84-2.62-5.84-5.84,2.62-5.84,5.84-5.84,5.84,2.62,5.84,5.84" vector-effect="non-scaling-stroke"/>
  <path id="dot-16" class="cls-27" d="M432.7,370.53c0,3.23-2.62,5.84-5.84,5.84s-5.84-2.62-5.84-5.84,2.62-5.84,5.84-5.84,5.84,2.62,5.84,5.84" vector-effect="non-scaling-stroke"/>
  <path id="dot-17" class="cls-26" d="M534.85,370.53c0,3.23-2.62,5.84-5.84,5.84s-5.84-2.62-5.84-5.84,2.62-5.84,5.84-5.84,5.84,2.62,5.84,5.84" vector-effect="non-scaling-stroke"/>
  <path id="dot-18" class="cls-27" d="M289.7,406.09c0,3.23-2.62,5.84-5.84,5.84s-5.84-2.62-5.84-5.84,2.62-5.84,5.84-5.84,5.84,2.62,5.84,5.84" vector-effect="non-scaling-stroke"/>
  <path id="dot-19" class="cls-26" d="M391.85,406.09c0,3.23-2.62,5.84-5.84,5.84s-5.84-2.62-5.84-5.84,2.62-5.84,5.84-5.84,5.84,2.62,5.84,5.84" vector-effect="non-scaling-stroke"/>
  <path id="dot-20" class="cls-27" d="M299.92,441.64c0,3.23-2.62,5.84-5.84,5.84s-5.84-2.62-5.84-5.84,2.62-5.84,5.84-5.84,5.84,2.62,5.84,5.84" vector-effect="non-scaling-stroke"/>
  <path id="dot-21" class="cls-26" d="M402.06,441.64c0,3.23-2.62,5.84-5.84,5.84s-5.84-2.62-5.84-5.84,2.62-5.84,5.84-5.84,5.84,2.62,5.84,5.84" vector-effect="non-scaling-stroke"/>
  <path id="dot-22" class="cls-27" d="M289.7,477.2c0,3.23-2.62,5.84-5.84,5.84s-5.84-2.62-5.84-5.84,2.62-5.84,5.84-5.84,5.84,2.62,5.84,5.84" vector-effect="non-scaling-stroke"/>
  <path id="dot-23" class="cls-26" d="M402.06,477.2c0,3.23-2.62,5.84-5.84,5.84s-5.84-2.62-5.84-5.84,2.62-5.84,5.84-5.84,5.84,2.62,5.84,5.84" vector-effect="non-scaling-stroke"/>
  <text class="cls-20" transform="translate(281.08 45.81)"><tspan x="0" y="0">Pe</tspan><tspan class="cls-25" x="15.4" y="0">r</tspan><tspan class="cls-43" x="19.5" y="0">cent of f</tspan><tspan class="cls-25" x="67.17" y="0">r</tspan><tspan class="cls-43" x="71.27" y="0">eshment</tspan><tspan x="20.98" y="15.6">who a</tspan><tspan class="cls-25" x="56.12" y="15.6">r</tspan><tspan class="cls-43" x="60.22" y="15.6">e Hispanic</tspan></text>
  <text class="cls-19" transform="translate(645.17 30.21)"><tspan x="0" y="0">Pe</tspan><tspan class="cls-25" x="15.4" y="0">r</tspan><tspan class="cls-43" x="19.5" y="0">cent of public</tspan><tspan x="-30.09" y="15.6">high school graduates</tspan><tspan x="-41.87" y="31.2">who a</tspan><tspan class="cls-25" x="-6.73" y="31.2">r</tspan><tspan class="cls-43" x="-2.64" y="31.2">e Hispanic/Latino</tspan></text>
  <text class="cls-22" transform="translate(361.14 90.57)"><tspan x="0" y="0">20%</tspan></text>
  <text class="cls-22" transform="translate(299.86 161.18)"><tspan x="0" y="0">14%</tspan></text>
  <text class="cls-22" transform="translate(453.07 125.65)"><tspan x="0" y="0">29%</tspan></text>
  <text class="cls-22" transform="translate(442.86 196.77)"><tspan x="0" y="0">28%</tspan></text>
  <text class="cls-22" transform="translate(412.22 232.33)"><tspan x="0" y="0">25%</tspan></text>
  <text class="cls-22" transform="translate(259 267.89)"><tspan x="0" y="0">10%</tspan></text>
  <text class="cls-22" transform="translate(269.22 303.44)"><tspan x="0" y="0">11%</tspan></text>
  <text class="cls-22" transform="translate(299.86 338.81)"><tspan x="0" y="0">14%</tspan></text>
  <text class="cls-22" transform="translate(391.79 374.53)"><tspan x="0" y="0">23%</tspan></text>
  <text class="cls-22" transform="translate(254.9 409.93)"><tspan x="0" y="0">9%</tspan></text>
  <text class="cls-22" transform="translate(259 444.88)"><tspan x="0" y="0">10%</tspan></text>
  <text class="cls-22" transform="translate(254.9 481.04)"><tspan x="0" y="0">9%</tspan></text>
  <text class="cls-21" transform="translate(755.35 90.57)"><tspan x="0" y="0">54%</tspan></text>
  <text class="cls-21" transform="translate(551.06 161.13)"><tspan x="0" y="0">34%</tspan></text>
  <text class="cls-21" transform="translate(734.92 125.65)"><tspan x="0" y="0">52%</tspan></text>
  <text class="cls-21" transform="translate(663.42 196.72)"><tspan x="0" y="0">45%</tspan></text>
  <text class="cls-21" transform="translate(632.77 232.28)"><tspan x="0" y="0">42%</tspan></text>
  <text class="cls-21" transform="translate(469.35 267.85)"><tspan x="0" y="0">26%</tspan></text>
  <text class="cls-21" transform="translate(479.56 303.4)"><tspan x="0" y="0">27%</tspan></text>
  <text class="cls-21" transform="translate(489.77 338.77)"><tspan x="0" y="0">28%</tspan></text>
  <text class="cls-21" transform="translate(540.85 374.48)"><tspan x="0" y="0">33%</tspan></text>
  <text class="cls-21" transform="translate(397.85 409.88)"><tspan x="0" y="0">19%</tspan></text>
  <text class="cls-21" transform="translate(408.06 444.84)"><tspan x="0" y="0">20%</tspan></text>
  <text class="cls-21" transform="translate(408.06 481)"><tspan x="0" y="0">20%</tspan></text>
  <rect class="cls-23" x="14.5" y="103.77" width="771.49" height="389.21"/>
</svg>