<?xml version="1.0" encoding="utf-8"?>
<!-- Generator: Adobe Illustrator 27.0.0, SVG Export Plug-In . SVG Version: 6.00 Build 0)  -->
<svg version="1.1" id="graphic" xmlns="http://www.w3.org/2000/svg" xmlns:xlink="http://www.w3.org/1999/xlink" x="0px" y="0px"
	 viewBox="0 0 800 1463.1" style="enable-background:new 0 0 800 1463.1;" xml:space="preserve">
<style type="text/css">
	.st0{fill:none;stroke:#EEEEEE;}
	.st1{opacity:0.5;fill:none;stroke:#EEEEEE;enable-background:new    ;}
	.st2{fill:#4A4A4A;}
	.st3{font-family:'HelveticaNeue';}
	.st4{font-size:18.26px;}
	.st5{opacity:0.9;fill:#73A9AD;enable-background:new    ;}
	.st6{opacity:0.8;fill:#DDDDDD;enable-background:new    ;}
	.st7{font-size:19.66px;}
	.st8{opacity:0.5;fill:#73A9AD;enable-background:new    ;}
	.st9{opacity:0.5;fill:#DDDDDD;enable-background:new    ;}
	.st10{letter-spacing:-2;}
</style>
<line class="st0" x1="262.4" y1="79.6" x2="256.1" y2="79.6"/>
<line class="st0" x1="262.4" y1="114" x2="256.1" y2="114"/>
<line class="st0" x1="262.4" y1="148.4" x2="256.1" y2="148.4"/>
<line class="st0" x1="262.4" y1="182.8" x2="256.1" y2="182.8"/>
<line class="st0" x1="262.4" y1="217.2" x2="256.1" y2="217.2"/>
<line class="st1" x1="262.4" y1="251.6" x2="256.1" y2="251.6"/>
<line class="st0" x1="262.4" y1="286" x2="256.1" y2="286"/>
<line class="st1" x1="262.4" y1="320.4" x2="256.1" y2="320.4"/>
<line class="st0" x1="262.4" y1="354.8" x2="256.1" y2="354.8"/>
<text transform="matrix(1 0 0 1 49.64 70.34)" class="st2 st3 st4">University of Michigan-Ann Arbor</text>
<path id="point-0-0" class="st5" d="M51,88.9h655.5v35.5H51V88.9z"/>
<path id="point-1-0" class="st6" d="M710.2,88.9h40.1v35.5h-40.1V88.9z"/>
<text transform="matrix(1 0 0 1 659.75 113.5)" class="st3 st7">94%</text>
<text transform="matrix(1 0 0 1 49.64 162.0801)" class="st2 st3 st4">University of </text>
<text transform="matrix(1 0 0 1 156.13 162.0801)" class="st2 st3 st4">V</text>
<text transform="matrix(1 0 0 1 166.96 162.0801)" class="st2 st3 st4">i</text>
<text transform="matrix(1 0 0 1 171.01 162.0801)" class="st2 st3 st4">r</text>
<text transform="matrix(1 0 0 1 176.58 162.0801)" class="st2 st3 st4">ginia-Main Campus</text>
<path id="point-0-1" class="st5" d="M51,180.6h655.5v35.5H51V180.6z"/>
<path id="point-1-1" class="st6" d="M710.2,180.6h40.1v35.5h-40.1V180.6z"/>
<text transform="matrix(1 0 0 1 659.75 205.25)" class="st3 st7">94%</text>
<text transform="matrix(1 0 0 1 49.64 253.83)" class="st2 st3 st4">University of Califo</text>
<text transform="matrix(1 0 0 1 203.1 253.83)" class="st2 st3 st4">r</text>
<text transform="matrix(1 0 0 1 209.51 253.83)" class="st2 st3 st4">nia-Berkeley</text>
<path id="point-0-2" class="st5" d="M51,272.3h648.5v35.5H51V272.3z"/>
<path id="point-1-2" class="st6" d="M703.2,272.3h47.1v35.5h-47.1V272.3z"/>
<text transform="matrix(1 0 0 1 652.76 296.96)" class="st3 st7">93%</text>
<text transform="matrix(1 0 0 1 49.64 345.54)" class="st2 st3 st4">University of Florida</text>
<path id="point-0-3" class="st5" d="M51,364h634.5v35.5H51V364z"/>
<path id="point-1-3" class="st6" d="M689.2,364h61.1v35.5h-61.1V364z"/>
<text transform="matrix(1 0 0 1 638.77 388.67)" class="st3 st7">91%</text>
<text transform="matrix(1 0 0 1 49.64 437.25)" class="st2 st3 st4">University of North Ca</text>
<text transform="matrix(1 0 0 1 229.83 437.25)" class="st2 st3 st4">r</text>
<text transform="matrix(1 0 0 1 235.58 437.25)" class="st2 st3 st4">olina at Chapel Hill</text>
<path id="point-0-4" class="st5" d="M51,455.8h627.5v35.5H51V455.8z"/>
<path id="point-1-4" class="st6" d="M682.2,455.8h68.1v35.5h-68.1L682.2,455.8L682.2,455.8z"/>
<text transform="matrix(1 0 0 1 631.78 480.38)" class="st3 st7">90%</text>
<text transform="matrix(1 0 0 1 49.64 528.95)" class="st2 st3 st4">University of Wisconsin-Madison</text>
<path id="point-0-5" class="st8" d="M51,547.5h620.5v35.5H51V547.5z"/>
<path id="point-1-5" class="st9" d="M675.2,547.5h75.1v35.5h-75.1V547.5z"/>
<text transform="matrix(1 0 0 1 624.79 572.08)" class="st3 st7">89%</text>
<text transform="matrix(1 0 0 1 49.64 620.66)" class="st2 st3 st4">University of Maryland-College Park</text>
<path id="point-0-6" class="st5" d="M51,639.2h613.5v35.5H51V639.2z"/>
<path id="point-1-6" class="st6" d="M668.2,639.2h82.1v35.5h-82.1V639.2z"/>
<text transform="matrix(1 0 0 1 617.79 663.83)" class="st3 st7">88%</text>
<text transform="matrix(1 0 0 1 49.64 712.41)" class="st2 st3 st4">Ohio State University-Main Campus</text>
<path id="point-0-7" class="st8" d="M50.3,730.9h613.5v35.5H50.3V730.9z"/>
<path id="point-1-7" class="st6" d="M667.5,730.9h82.1v35.5h-82.1V730.9z"/>
<text transform="matrix(1 0 0 1 617.14 755.54)" class="st3 st7">88%</text>
<text transform="matrix(1 0 0 1 49.64 804.11)" class="st2 st3 st4">University of Texas at Austin </text>
<path id="point-0-8" class="st5" d="M49.7,822.6h613.5v35.5H49.7V822.6z"/>
<path id="point-1-8" class="st6" d="M666.9,822.6H749v35.5h-82.1V822.6z"/>
<text transform="matrix(1 0 0 1 616.48 847.24)" class="st3 st7">88%</text>
<text transform="matrix(1 0 0 1 49.64 895.82)" class="st2 st3 st4">University of Geo</text>
<text transform="matrix(1 0 0 1 190.27 895.82)" class="st2 st3 st4">r</text>
<text transform="matrix(1 0 0 1 195.84 895.82)" class="st2 st3 st4">gia</text>
<path id="point-0-9" class="st5" d="M51,914.4h606.5v35.5H51V914.4z"/>
<path id="point-1-9" class="st6" d="M661.2,914.4h89.1v35.5h-89.1V914.4z"/>
<text transform="matrix(1 0 0 1 610.8 938.99)" class="st3 st7">87%</text>
<text transform="matrix(1 0 0 1 49.64 987.57)" class="st2 st3 st4">Pennsylvania State University - Main Campus</text>
<path id="point-0-10" class="st8" d="M51.1,1006.1h599.6v35.5H51.1V1006.1z"/>
<path id="point-1-10" class="st9" d="M654.3,1006.1h96.1v35.5h-96.1V1006.1z"/>
<text transform="matrix(1 0 0 1 603.88 1030.7)" class="st3 st7">86%</text>
<text transform="matrix(1 0 0 1 49.64 1079.28)" class="st2 st3 st4">University of Illinois at Urbana-Champaign</text>
<path id="point-0-11" class="st8" d="M51,1097.8h592.6v35.5H51V1097.8z"/>
<path id="point-1-11" class="st9" d="M647.2,1097.8h103v35.5h-103V1097.8z"/>
<text transform="matrix(1 0 0 1 596.8201 1122.4399)" class="st3 st7">85%</text>
<text transform="matrix(1 0 0 1 49.64 1171.02)" class="st2 st3 st4">University of Delawa</text>
<text transform="matrix(1 0 0 1 216.29 1171.02)" class="st2 st3 st4">r</text>
<text transform="matrix(1 0 0 1 222.04 1171.02)" class="st2 st3 st4">e</text>
<path id="point-0-12" class="st5" d="M51,1189.5h585.6v35.5H51V1189.5z"/>
<path id="point-1-12" class="st6" d="M640.2,1189.5h110v35.5h-110V1189.5z"/>
<text transform="matrix(1 0 0 1 589.8201 1214.15)" class="st3 st7">84%</text>
<text transform="matrix(1 0 0 1 49.64 1262.73)" class="st2 st3 st4">University of Massachusetts - Amherst</text>
<path id="point-0-13" class="st5" d="M51,1281.2h585.6v35.5H51V1281.2z"/>
<path id="point-1-13" class="st6" d="M640.2,1281.2h110v35.5h-110V1281.2z"/>
<text transform="matrix(1 0 0 1 589.8201 1305.86)" class="st3 st7">84%</text>
<text transform="matrix(1 0 0 1 49.64 1354.4399)" class="st2 st3 st4">University of Minnesota-</text>
<text transform="matrix(1 0 0 1 248.45 1354.4399)" class="st2 st3 st4 st10">T</text>
<text transform="matrix(1 0 0 1 256.91 1354.4399)" class="st2 st3 st4">win Cities</text>
<path id="point-0-14" class="st8" d="M51,1372.9h585.6v35.5H51V1372.9z"/>
<path id="point-1-14" class="st9" d="M640.2,1372.9h110v35.5h-110V1372.9z"/>
<text transform="matrix(1 0 0 1 589.8201 1397.5699)" class="st3 st7">84%</text>
</svg>
