<?xml version="1.0" encoding="utf-8"?>
<!-- Generator: Adobe Illustrator 27.0.0, SVG Export Plug-In . SVG Version: 6.00 Build 0)  -->
<svg version="1.1" id="fl-legend-discrete-color-0-svg-screenshot-container"
	 xmlns="http://www.w3.org/2000/svg" xmlns:xlink="http://www.w3.org/1999/xlink" x="0px" y="0px" viewBox="0 0 800 514"
	 style="enable-background:new 0 0 800 514;" xml:space="preserve">
<style type="text/css">
	.st0{fill:none;stroke:#DDDDDD;}
	.st1{clip-path:url(#SVGID_00000176034850368543009010000014450901181811512760_);}
	.st2{clip-path:url(#SVGID_00000129889671159824725840000004280424166015867268_);}
	.st3{opacity:0.7;fill:none;stroke:#DDDDDD;stroke-width:5.6;enable-background:new    ;}
	.st4{clip-path:url(#SVGID_00000081640855441980072830000003165051097754435770_);}
	.st5{clip-path:url(#SVGID_00000112632378198723358830000010621023845709300117_);}
	.st6{clip-path:url(#SVGID_00000106843344122143152310000013582970528956461977_);}
	.st7{clip-path:url(#SVGID_00000157283651511071265650000017998253029518550694_);}
	.st8{clip-path:url(#SVGID_00000109743530220049788850000009492288602394959491_);}
	.st9{clip-path:url(#SVGID_00000121267328046289953300000005926887978815865995_);}
	.st10{clip-path:url(#SVGID_00000135692251363457168380000010687127968482590139_);}
	.st11{clip-path:url(#SVGID_00000082361955194786963290000000045070064371203770_);}
	.st12{clip-path:url(#SVGID_00000021798236224771149530000012723015965911836596_);}
	.st13{clip-path:url(#SVGID_00000143587982901092447950000017237775583071686547_);}
	.st14{clip-path:url(#SVGID_00000153694330132910293310000009793902621344743340_);}
	.st15{clip-path:url(#SVGID_00000168080765741965373370000015997192179764179092_);}
	.st16{clip-path:url(#SVGID_00000150104042625450108060000016027791377475452045_);}
	.st17{clip-path:url(#SVGID_00000103244386748948561050000005404296062688517800_);}
	.st18{clip-path:url(#SVGID_00000110466071451305218480000002803352422382053002_);}
	.st19{clip-path:url(#SVGID_00000179603669848326608260000014138585809009424568_);}
	.st20{clip-path:url(#SVGID_00000136386438195206377920000009908967862360928701_);}
	.st21{clip-path:url(#SVGID_00000121991695809071126700000003516330231467367591_);}
	.st22{clip-path:url(#SVGID_00000036940938632383711240000003912132356570249641_);}
	.st23{clip-path:url(#SVGID_00000100368655945508925830000008671822428584196762_);}
	.st24{clip-path:url(#SVGID_00000165223941756244138160000003899400444336760746_);}
	.st25{clip-path:url(#SVGID_00000130623785602193438970000005271953379495462037_);}
	.st26{fill:none;stroke:#DDDDDD;stroke-linecap:square;}
	.st27{font-family:'HelveticaNeue';}
	.st28{font-size:12.61px;}
	.st29{fill:none;stroke:#DDDDDD;stroke-width:5;stroke-miterlimit:10;}
	.st30{fill:#FFDB78;}
	.st31{fill:#D1A347;}
	.st32{font-size:13px;}
	.st33{font-size:11px;}
	.st34{fill:#FFFFFF;}
</style>
<line class="st0" x1="396.2" y1="83.1" x2="396.2" y2="68.2"/>
<g>
	<g>
		<defs>
			<polygon id="SVGID_1_" points="13.5,43.5 14.5,43.5 13.5,44.5 			"/>
		</defs>
		<defs>
			<polygon id="SVGID_00000115488408587768251190000013431336270760590213_" points="11.5,41.5 10.5,41.5 11.5,40.5 			"/>
		</defs>
		<clipPath id="SVGID_00000038372825145361820220000013751347008811660948_">
			<use xlink:href="#SVGID_1_"  style="overflow:visible;"/>
		</clipPath>
		
			<clipPath id="SVGID_00000153687468237352432840000011712827398976249485_" style="clip-path:url(#SVGID_00000038372825145361820220000013751347008811660948_);">
			<use xlink:href="#SVGID_00000115488408587768251190000013431336270760590213_"  style="overflow:visible;"/>
		</clipPath>
		<g style="clip-path:url(#SVGID_00000153687468237352432840000011712827398976249485_);">
			<path marker-end="url(#arrowhead-line-University-of-California-Berkeley-facet-)" class="st3" d="M410.1,81.6h358.1"/>
		</g>
	</g>
	<g>
		<defs>
			<polygon id="SVGID_00000064332550235122926980000012765415013237184411_" points="13.5,43.5 14.5,43.5 13.5,44.5 			"/>
		</defs>
		<defs>
			<polygon id="SVGID_00000117650345721617733020000004049922597319480735_" points="11.5,41.5 10.5,41.5 11.5,40.5 			"/>
		</defs>
		<clipPath id="SVGID_00000165916772450307429690000016542936246741973693_">
			<use xlink:href="#SVGID_00000064332550235122926980000012765415013237184411_"  style="overflow:visible;"/>
		</clipPath>
		
			<clipPath id="SVGID_00000165930525796215661270000013690001880330601866_" style="clip-path:url(#SVGID_00000165916772450307429690000016542936246741973693_);">
			<use xlink:href="#SVGID_00000117650345721617733020000004049922597319480735_"  style="overflow:visible;"/>
		</clipPath>
		<g style="clip-path:url(#SVGID_00000165930525796215661270000013690001880330601866_);">
			<path marker-end="url(#arrowhead-line-The-University-of-Texas-at-Austin-facet-)" class="st3" d="M504.9,118.2h242.2"/>
		</g>
	</g>
	<g>
		<defs>
			<polygon id="SVGID_00000111899499801638616020000018137537365986568104_" points="13.5,43.5 14.5,43.5 13.5,44.5 			"/>
		</defs>
		<defs>
			<polygon id="SVGID_00000071561200389083270610000009536276684509759921_" points="11.5,41.5 10.5,41.5 11.5,40.5 			"/>
		</defs>
		<clipPath id="SVGID_00000131345383218563243160000001038401469770033300_">
			<use xlink:href="#SVGID_00000111899499801638616020000018137537365986568104_"  style="overflow:visible;"/>
		</clipPath>
		
			<clipPath id="SVGID_00000159431643360649654960000000793288176551470993_" style="clip-path:url(#SVGID_00000131345383218563243160000001038401469770033300_);">
			<use xlink:href="#SVGID_00000071561200389083270610000009536276684509759921_"  style="overflow:visible;"/>
		</clipPath>
		<g style="clip-path:url(#SVGID_00000159431643360649654960000000793288176551470993_);">
			<path marker-end="url(#arrowhead-line-University-of-Colorado-Boulder-facet-)" class="st3" d="M346.9,154.9h210.6"/>
		</g>
	</g>
	<g>
		<defs>
			<polygon id="SVGID_00000128471624072075603960000006808050021651587256_" points="13.5,43.5 14.5,43.5 13.5,44.5 			"/>
		</defs>
		<defs>
			<polygon id="SVGID_00000141453788475079272230000014035421094417233801_" points="11.5,41.5 10.5,41.5 11.5,40.5 			"/>
		</defs>
		<clipPath id="SVGID_00000139281301035066930540000000370719914860258212_">
			<use xlink:href="#SVGID_00000128471624072075603960000006808050021651587256_"  style="overflow:visible;"/>
		</clipPath>
		
			<clipPath id="SVGID_00000031171498427076248940000010212659292456506268_" style="clip-path:url(#SVGID_00000139281301035066930540000000370719914860258212_);">
			<use xlink:href="#SVGID_00000141453788475079272230000014035421094417233801_"  style="overflow:visible;"/>
		</clipPath>
		<g style="clip-path:url(#SVGID_00000031171498427076248940000010212659292456506268_);">
			<path marker-end="url(#arrowhead-line-University-of-Arizona-facet-)" class="st3" d="M494.4,191.6h179"/>
		</g>
	</g>
	<g>
		<defs>
			<polygon id="SVGID_00000072961144440100793480000014909158908229201067_" points="13.5,43.5 14.5,43.5 13.5,44.5 			"/>
		</defs>
		<defs>
			<polygon id="SVGID_00000161605490272472043830000009659552493863755139_" points="11.5,41.5 10.5,41.5 11.5,40.5 			"/>
		</defs>
		<clipPath id="SVGID_00000065791209918010450120000004970635680566675076_">
			<use xlink:href="#SVGID_00000072961144440100793480000014909158908229201067_"  style="overflow:visible;"/>
		</clipPath>
		
			<clipPath id="SVGID_00000015332310972122983250000009010264076742021285_" style="clip-path:url(#SVGID_00000065791209918010450120000004970635680566675076_);">
			<use xlink:href="#SVGID_00000161605490272472043830000009659552493863755139_"  style="overflow:visible;"/>
		</clipPath>
		<g style="clip-path:url(#SVGID_00000015332310972122983250000009010264076742021285_);">
			<path marker-end="url(#arrowhead-line-University-of-Nevada-Reno-facet-)" class="st3" d="M462.8,228.2h179"/>
		</g>
	</g>
	<g>
		<defs>
			<polygon id="SVGID_00000145764651739008658360000004521584858720836759_" points="13.5,43.5 14.5,43.5 13.5,44.5 			"/>
		</defs>
		<defs>
			<polygon id="SVGID_00000063607601898966208230000015045831559082433430_" points="11.5,41.5 10.5,41.5 11.5,40.5 			"/>
		</defs>
		<clipPath id="SVGID_00000158002897139164358120000016564656323889659068_">
			<use xlink:href="#SVGID_00000145764651739008658360000004521584858720836759_"  style="overflow:visible;"/>
		</clipPath>
		
			<clipPath id="SVGID_00000013184828406978996630000015874331593026733981_" style="clip-path:url(#SVGID_00000158002897139164358120000016564656323889659068_);">
			<use xlink:href="#SVGID_00000063607601898966208230000015045831559082433430_"  style="overflow:visible;"/>
		</clipPath>
		<g style="clip-path:url(#SVGID_00000013184828406978996630000015874331593026733981_);">
			<path marker-end="url(#arrowhead-line-University-at-Buffalo-facet-)" class="st3" d="M304.8,264.9h168.5"/>
		</g>
	</g>
	<g>
		<defs>
			<polygon id="SVGID_00000181044802390276376410000004126460708200974242_" points="13.5,43.5 14.5,43.5 13.5,44.5 			"/>
		</defs>
		<defs>
			<polygon id="SVGID_00000126323499116967884890000007361962412667964314_" points="11.5,41.5 10.5,41.5 11.5,40.5 			"/>
		</defs>
		<clipPath id="SVGID_00000183218780920273543560000006198334487743109293_">
			<use xlink:href="#SVGID_00000181044802390276376410000004126460708200974242_"  style="overflow:visible;"/>
		</clipPath>
		
			<clipPath id="SVGID_00000178911030718725564370000008497542361909115301_" style="clip-path:url(#SVGID_00000183218780920273543560000006198334487743109293_);">
			<use xlink:href="#SVGID_00000126323499116967884890000007361962412667964314_"  style="overflow:visible;"/>
		</clipPath>
		<g style="clip-path:url(#SVGID_00000178911030718725564370000008497542361909115301_);">
			<path marker-end="url(#arrowhead-line-University-of-Rhode-Island-facet-)" class="st3" d="M315.3,301.6h168.5"/>
		</g>
	</g>
	<g>
		<defs>
			<polygon id="SVGID_00000112608513841264419510000000063144044148589440_" points="13.5,43.5 14.5,43.5 13.5,44.5 			"/>
		</defs>
		<defs>
			<polygon id="SVGID_00000163767489839348470920000005478376347886644108_" points="11.5,41.5 10.5,41.5 11.5,40.5 			"/>
		</defs>
		<clipPath id="SVGID_00000030483554325021652260000009469953723656583074_">
			<use xlink:href="#SVGID_00000112608513841264419510000000063144044148589440_"  style="overflow:visible;"/>
		</clipPath>
		
			<clipPath id="SVGID_00000121982951912260271040000011499847691553623448_" style="clip-path:url(#SVGID_00000030483554325021652260000009469953723656583074_);">
			<use xlink:href="#SVGID_00000163767489839348470920000005478376347886644108_"  style="overflow:visible;"/>
		</clipPath>
		<g style="clip-path:url(#SVGID_00000121982951912260271040000011499847691553623448_);">
			<path marker-end="url(#arrowhead-line-Rutgers-University-New-Brunswick-facet-)" class="st3" d="M346.9,338.2h147.4"/>
		</g>
	</g>
	<g>
		<defs>
			<polygon id="SVGID_00000122685440886455341380000015834211686521093264_" points="13.5,43.5 14.5,43.5 13.5,44.5 			"/>
		</defs>
		<defs>
			<polygon id="SVGID_00000170261059236320690710000008738895547661197700_" points="11.5,41.5 10.5,41.5 11.5,40.5 			"/>
		</defs>
		<clipPath id="SVGID_00000119837278318989675390000005458076335264261524_">
			<use xlink:href="#SVGID_00000122685440886455341380000015834211686521093264_"  style="overflow:visible;"/>
		</clipPath>
		
			<clipPath id="SVGID_00000167387611369374021040000010466862991163255729_" style="clip-path:url(#SVGID_00000119837278318989675390000005458076335264261524_);">
			<use xlink:href="#SVGID_00000170261059236320690710000008738895547661197700_"  style="overflow:visible;"/>
		</clipPath>
		<g style="clip-path:url(#SVGID_00000167387611369374021040000010466862991163255729_);">
			<path marker-end="url(#arrowhead-line-University-of-Florida-facet-)" class="st3" d="M441.7,374.9H547"/>
		</g>
	</g>
	<g>
		<defs>
			<polygon id="SVGID_00000096758887856067218260000001710721139605372347_" points="13.5,43.5 14.5,43.5 13.5,44.5 			"/>
		</defs>
		<defs>
			<polygon id="SVGID_00000124133702880822310710000006110595379202500008_" points="11.5,41.5 10.5,41.5 11.5,40.5 			"/>
		</defs>
		<clipPath id="SVGID_00000113313069349991296250000010376564163178650768_">
			<use xlink:href="#SVGID_00000096758887856067218260000001710721139605372347_"  style="overflow:visible;"/>
		</clipPath>
		
			<clipPath id="SVGID_00000017498171680158901560000017277081727163973762_" style="clip-path:url(#SVGID_00000113313069349991296250000010376564163178650768_);">
			<use xlink:href="#SVGID_00000124133702880822310710000006110595379202500008_"  style="overflow:visible;"/>
		</clipPath>
		<g style="clip-path:url(#SVGID_00000017498171680158901560000017277081727163973762_);">
			<path marker-end="url(#arrowhead-line-University-of-Nebraska-Lincoln-facet-)" class="st3" d="M294.3,411.5h105.3"/>
		</g>
	</g>
	<g>
		<defs>
			<polygon id="SVGID_00000057120058849588267000000003922215905370302895_" points="13.5,43.5 14.5,43.5 13.5,44.5 			"/>
		</defs>
		<defs>
			<polygon id="SVGID_00000085210883022088096260000005738486680179170455_" points="11.5,41.5 10.5,41.5 11.5,40.5 			"/>
		</defs>
		<clipPath id="SVGID_00000026845534116162876250000013929564321893555846_">
			<use xlink:href="#SVGID_00000057120058849588267000000003922215905370302895_"  style="overflow:visible;"/>
		</clipPath>
		
			<clipPath id="SVGID_00000057108713906644622770000011283668323995114126_" style="clip-path:url(#SVGID_00000026845534116162876250000013929564321893555846_);">
			<use xlink:href="#SVGID_00000085210883022088096260000005738486680179170455_"  style="overflow:visible;"/>
		</clipPath>
		<g style="clip-path:url(#SVGID_00000057108713906644622770000011283668323995114126_);">
			<path marker-end="url(#arrowhead-line-University-of-Massachusetts-Amherst-facet-)" class="st3" d="M304.8,448.2h105.3"/>
		</g>
	</g>
	<g>
		<defs>
			<polygon id="SVGID_00000183968029409616010690000002693252975861561221_" points="13.5,43.5 14.5,43.5 13.5,44.5 			"/>
		</defs>
		<defs>
			<polygon id="SVGID_00000137104742288322096600000003217154868390796723_" points="11.5,41.5 10.5,41.5 11.5,40.5 			"/>
		</defs>
		<clipPath id="SVGID_00000135691558054795739240000005975560609515318157_">
			<use xlink:href="#SVGID_00000183968029409616010690000002693252975861561221_"  style="overflow:visible;"/>
		</clipPath>
		
			<clipPath id="SVGID_00000146458615126655815120000009343087197245737344_" style="clip-path:url(#SVGID_00000135691558054795739240000005975560609515318157_);">
			<use xlink:href="#SVGID_00000137104742288322096600000003217154868390796723_"  style="overflow:visible;"/>
		</clipPath>
		<g style="clip-path:url(#SVGID_00000146458615126655815120000009343087197245737344_);">
			<path marker-end="url(#arrowhead-line-University-of-Kansas-facet-)" class="st3" d="M294.3,484.9h115.8"/>
		</g>
	</g>
</g>
<line class="st26" x1="243" y1="495" x2="243" y2="68.3"/>
<line class="st0" x1="243" y1="477.2" x2="236.2" y2="477.2"/>
<text transform="matrix(1 0 0 1 111.74 481.24)" class="st27 st28">University of Kansas</text>
<line class="st0" x1="243" y1="441.6" x2="236.2" y2="441.6"/>
<text transform="matrix(1 0 0 1 21.42 445.68)" class="st27 st28">University of Massachusetts-Amherst</text>
<line class="st0" x1="243" y1="406.1" x2="236.2" y2="406.1"/>
<text transform="matrix(1 0 0 1 57.4 410.12)" class="st27 st28">University of Nebraska-Lincoln</text>
<line class="st0" x1="243" y1="370.5" x2="236.2" y2="370.5"/>
<text transform="matrix(1 0 0 1 115.14 374.56)" class="st27 st28">University of Florida</text>
<line class="st0" x1="243" y1="335" x2="236.2" y2="335"/>
<text transform="matrix(1 0 0 1 35.7 339)" class="st27 st28">Rutgers University-New Brunswick</text>
<line class="st0" x1="243" y1="299.4" x2="236.2" y2="299.4"/>
<text transform="matrix(1 0 0 1 80.48 303.44)" class="st27 st28">University of Rhode Island</text>
<line class="st0" x1="243" y1="263.9" x2="236.2" y2="263.9"/>
<text transform="matrix(1 0 0 1 114.67 267.88)" class="st27 st28">University at Bu</text>
<text transform="matrix(1 0 0 1 203.63 267.88)" class="st27 st28">f</text>
<text transform="matrix(1 0 0 1 207.14 267.88)" class="st27 st28">falo</text>
<line class="st0" x1="243" y1="228.3" x2="236.2" y2="228.3"/>
<text transform="matrix(1 0 0 1 77.09 232.33)" class="st27 st28">University of Nevada-Reno</text>
<line class="st0" x1="243" y1="192.7" x2="236.2" y2="192.7"/>
<text transform="matrix(1 0 0 1 111.74 196.77)" class="st27 st28">University of Arizona</text>
<line class="st0" x1="243" y1="157.2" x2="236.2" y2="157.2"/>
<text transform="matrix(1 0 0 1 57.39 161.21)" class="st27 st28">University of Colorado Boulder</text>
<line class="st0" x1="243" y1="121.6" x2="236.2" y2="121.6"/>
<text transform="matrix(1 0 0 1 71.9684 125.65)" class="st27 st28">University of Texas at Austin </text>
<line class="st0" x1="243" y1="86.1" x2="236.2" y2="86.1"/>
<text transform="matrix(1 0 0 1 49.26 90.09)" class="st27 st28">University of Califo</text>
<text transform="matrix(1 0 0 1 155.25 90.09)" class="st27 st28">r</text>
<text transform="matrix(1 0 0 1 159.67 90.09)" class="st27 st28">nia-Berkeley</text>
<line class="st29" x1="396.2" y1="86.2" x2="743.7" y2="86.2"/>
<line class="st29" x1="486.4" y1="121.6" x2="723.1" y2="121.6"/>
<line class="st29" x1="334.9" y1="157.2" x2="540.3" y2="157.2"/>
<line class="st29" x1="477.9" y1="192.7" x2="651.6" y2="192.7"/>
<line class="st29" x1="447.5" y1="228.3" x2="620.9" y2="228.3"/>
<line class="st29" x1="294.3" y1="264" x2="458.9" y2="264"/>
<line class="st29" x1="303.4" y1="299.7" x2="467.7" y2="299.7"/>
<line class="st29" x1="334.9" y1="335" x2="477.9" y2="335"/>
<line class="st29" x1="425.4" y1="370.5" x2="530.5" y2="370.5"/>
<line class="st29" x1="282.9" y1="406.1" x2="386" y2="406.1"/>
<line class="st29" x1="293.7" y1="441.4" x2="396.2" y2="441.4"/>
<line class="st29" x1="283.6" y1="477.2" x2="396.2" y2="477.2"/>
<line class="st0" x1="743.5" y1="83.5" x2="743.5" y2="68.5"/>
<path id="dot-0" vector-effect="non-scaling-stroke" class="st30" d="M402.1,86.1c0,3.2-2.6,5.8-5.8,5.8s-5.8-2.6-5.8-5.8
	s2.6-5.8,5.8-5.8S402.1,82.8,402.1,86.1"/>
<path id="dot-1" vector-effect="non-scaling-stroke" class="st31" d="M749.3,86.1c0,3.2-2.6,5.8-5.8,5.8s-5.8-2.6-5.8-5.8
	s2.6-5.8,5.8-5.8S749.3,82.8,749.3,86.1"/>
<path id="dot-2" vector-effect="non-scaling-stroke" class="st30" d="M494,121.6c0,3.2-2.6,5.8-5.8,5.8s-5.8-2.6-5.8-5.8
	s2.6-5.8,5.8-5.8S494,118.4,494,121.6"/>
<path id="dot-3" vector-effect="non-scaling-stroke" class="st31" d="M728.9,121.6c0,3.2-2.6,5.8-5.8,5.8s-5.8-2.6-5.8-5.8
	s2.6-5.8,5.8-5.8S728.9,118.4,728.9,121.6"/>
<path id="dot-4" vector-effect="non-scaling-stroke" class="st30" d="M340.8,157.2c0,3.2-2.6,5.8-5.8,5.8s-5.8-2.6-5.8-5.8
	s2.6-5.8,5.8-5.8S340.8,154,340.8,157.2"/>
<path id="dot-5" vector-effect="non-scaling-stroke" class="st31" d="M545.1,157.2c0,3.2-2.6,5.8-5.8,5.8s-5.8-2.6-5.8-5.8
	s2.6-5.8,5.8-5.8S545.1,154,545.1,157.2"/>
<path id="dot-6" vector-effect="non-scaling-stroke" class="st30" d="M483.8,192.7c0,3.2-2.6,5.8-5.8,5.8s-5.8-2.6-5.8-5.8
	s2.6-5.8,5.8-5.8S483.8,189.5,483.8,192.7"/>
<path id="dot-7" vector-effect="non-scaling-stroke" class="st31" d="M657.4,192.7c0,3.2-2.6,5.8-5.8,5.8s-5.8-2.6-5.8-5.8
	s2.6-5.8,5.8-5.8S657.4,189.5,657.4,192.7"/>
<path id="dot-8" vector-effect="non-scaling-stroke" class="st30" d="M453.1,228.3c0,3.2-2.6,5.8-5.8,5.8s-5.8-2.6-5.8-5.8
	s2.6-5.8,5.8-5.8S453.1,225.1,453.1,228.3"/>
<path id="dot-9" vector-effect="non-scaling-stroke" class="st31" d="M626.8,228.3c0,3.2-2.6,5.8-5.8,5.8s-5.8-2.6-5.8-5.8
	s2.6-5.8,5.8-5.8S626.8,225.1,626.8,228.3"/>
<path id="dot-10" vector-effect="non-scaling-stroke" class="st30" d="M299.9,263.9c0,3.2-2.6,5.8-5.8,5.8s-5.8-2.6-5.8-5.8
	s2.6-5.8,5.8-5.8S299.9,260.6,299.9,263.9"/>
<path id="dot-11" vector-effect="non-scaling-stroke" class="st31" d="M463.4,263.9c0,3.2-2.6,5.8-5.8,5.8s-5.8-2.6-5.8-5.8
	s2.6-5.8,5.8-5.8S463.4,260.6,463.4,263.9"/>
<path id="dot-12" vector-effect="non-scaling-stroke" class="st30" d="M310.1,299.4c0,3.2-2.6,5.8-5.8,5.8s-5.8-2.6-5.8-5.8
	s2.6-5.8,5.8-5.8S310.1,296.2,310.1,299.4"/>
<path id="dot-13" vector-effect="non-scaling-stroke" class="st31" d="M473.6,299.4c0,3.2-2.6,5.8-5.8,5.8s-5.8-2.6-5.8-5.8
	s2.6-5.8,5.8-5.8S473.6,296.2,473.6,299.4"/>
<path id="dot-14" vector-effect="non-scaling-stroke" class="st30" d="M340.8,335c0,3.2-2.6,5.8-5.8,5.8s-5.8-2.6-5.8-5.8
	s2.6-5.8,5.8-5.8S340.8,331.8,340.8,335"/>
<path id="dot-15" vector-effect="non-scaling-stroke" class="st31" d="M483.8,335c0,3.2-2.6,5.8-5.8,5.8s-5.8-2.6-5.8-5.8
	s2.6-5.8,5.8-5.8S483.8,331.8,483.8,335"/>
<path id="dot-16" vector-effect="non-scaling-stroke" class="st30" d="M432.7,370.5c0,3.2-2.6,5.8-5.8,5.8s-5.8-2.6-5.8-5.8
	s2.6-5.8,5.8-5.8S432.7,367.3,432.7,370.5"/>
<path id="dot-17" vector-effect="non-scaling-stroke" class="st31" d="M534.8,370.5c0,3.2-2.6,5.8-5.8,5.8s-5.8-2.6-5.8-5.8
	s2.6-5.8,5.8-5.8S534.8,367.3,534.8,370.5"/>
<path id="dot-18" vector-effect="non-scaling-stroke" class="st30" d="M289.7,406.1c0,3.2-2.6,5.8-5.8,5.8s-5.8-2.6-5.8-5.8
	s2.6-5.8,5.8-5.8S289.7,402.9,289.7,406.1"/>
<path id="dot-19" vector-effect="non-scaling-stroke" class="st31" d="M391.9,406.1c0,3.2-2.6,5.8-5.8,5.8s-5.8-2.6-5.8-5.8
	s2.6-5.8,5.8-5.8S391.9,402.9,391.9,406.1"/>
<path id="dot-20" vector-effect="non-scaling-stroke" class="st30" d="M299.9,441.6c0,3.2-2.6,5.8-5.8,5.8s-5.8-2.6-5.8-5.8
	s2.6-5.8,5.8-5.8S299.9,438.4,299.9,441.6"/>
<path id="dot-21" vector-effect="non-scaling-stroke" class="st31" d="M402.1,441.6c0,3.2-2.6,5.8-5.8,5.8s-5.8-2.6-5.8-5.8
	s2.6-5.8,5.8-5.8S402.1,438.4,402.1,441.6"/>
<path id="dot-22" vector-effect="non-scaling-stroke" class="st30" d="M289.7,477.2c0,3.2-2.6,5.8-5.8,5.8s-5.8-2.6-5.8-5.8
	s2.6-5.8,5.8-5.8S289.7,474,289.7,477.2"/>
<path id="dot-23" vector-effect="non-scaling-stroke" class="st31" d="M402.1,477.2c0,3.2-2.6,5.8-5.8,5.8s-5.8-2.6-5.8-5.8
	s2.6-5.8,5.8-5.8S402.1,474,402.1,477.2"/>
<text transform="matrix(1 0 0 1 285.18 45.8101)" class="st30 st27 st32">Pe</text>
<text transform="matrix(1 0 0 1 300.58 45.8101)" class="st30 st27 st32">r</text>
<text transform="matrix(1 0 0 1 304.68 45.8101)" class="st30 st27 st32">cent of f</text>
<text transform="matrix(1 0 0 1 352.35 45.8101)" class="st30 st27 st32">r</text>
<text transform="matrix(1 0 0 1 356.45 45.8101)" class="st30 st27 st32">eshmen</text>
<text transform="matrix(1 0 0 1 302.07 61.41)" class="st30 st27 st32">who a</text>
<text transform="matrix(1 0 0 1 337.21 61.41)" class="st30 st27 st32">r</text>
<text transform="matrix(1 0 0 1 341.3 61.41)" class="st30 st27 st32">e Hispanic</text>
<text transform="matrix(1 0 0 1 645.1699 30.21)" class="st31 st27 st32">Pe</text>
<text transform="matrix(1 0 0 1 660.5701 30.21)" class="st31 st27 st32">r</text>
<text transform="matrix(1 0 0 1 664.6699 30.21)" class="st31 st27 st32">cent of public</text>
<text transform="matrix(1 0 0 1 615.08 45.8101)" class="st31 st27 st32">high school graduates</text>
<text transform="matrix(1 0 0 1 603.3 61.41)" class="st31 st27 st32">who a</text>
<text transform="matrix(1 0 0 1 638.4399 61.41)" class="st31 st27 st32">r</text>
<text transform="matrix(1 0 0 1 642.53 61.41)" class="st31 st27 st32">e Hispanic/Latino</text>
<text transform="matrix(1 0 0 1 361.14 90.57)" class="st30 st27 st33">20%</text>
<text transform="matrix(1 0 0 1 299.86 161.18)" class="st30 st27 st33">14%</text>
<text transform="matrix(1 0 0 1 453.07 125.65)" class="st30 st27 st33">29%</text>
<text transform="matrix(1 0 0 1 442.86 196.77)" class="st30 st27 st33">28%</text>
<text transform="matrix(1 0 0 1 412.22 232.33)" class="st30 st27 st33">25%</text>
<text transform="matrix(1 0 0 1 259 267.89)" class="st30 st27 st33">10%</text>
<text transform="matrix(1 0 0 1 269.22 303.44)" class="st30 st27 st33">11%</text>
<text transform="matrix(1 0 0 1 299.86 338.81)" class="st30 st27 st33">14%</text>
<text transform="matrix(1 0 0 1 391.79 374.53)" class="st30 st27 st33">23%</text>
<text transform="matrix(1 0 0 1 254.9 409.93)" class="st30 st27 st33">9%</text>
<text transform="matrix(1 0 0 1 259 444.88)" class="st30 st27 st33">10%</text>
<text transform="matrix(1 0 0 1 254.9 481.04)" class="st30 st27 st33">9%</text>
<text transform="matrix(1 0 0 1 755.35 90.57)" class="st31 st27 st33">54%</text>
<text transform="matrix(1 0 0 1 551.0601 161.13)" class="st31 st27 st33">34%</text>
<text transform="matrix(1 0 0 1 734.9199 125.65)" class="st31 st27 st33">52%</text>
<text transform="matrix(1 0 0 1 663.4199 196.72)" class="st31 st27 st33">45%</text>
<text transform="matrix(1 0 0 1 632.77 232.28)" class="st31 st27 st33">42%</text>
<text transform="matrix(1 0 0 1 469.35 267.85)" class="st31 st27 st33">26%</text>
<text transform="matrix(1 0 0 1 479.5601 303.4)" class="st31 st27 st33">27%</text>
<text transform="matrix(1 0 0 1 489.77 338.77)" class="st31 st27 st33">28%</text>
<text transform="matrix(1 0 0 1 540.85 374.48)" class="st31 st27 st33">33%</text>
<text transform="matrix(1 0 0 1 397.85 409.88)" class="st31 st27 st33">19%</text>
<text transform="matrix(1 0 0 1 408.06 444.84)" class="st31 st27 st33">20%</text>
<text transform="matrix(1 0 0 1 408.06 481)" class="st31 st27 st33">20%</text>
<rect x="10.5" y="139.9" class="st34" width="774.4" height="352.1"/>
</svg>
