<?xml version="1.0" encoding="utf-8"?>
<!-- Generator: Adobe Illustrator 27.0.0, SVG Export Plug-In . SVG Version: 6.00 Build 0)  -->
<svg version="1.1" id="fl-legend-discrete-color-0-svg-screenshot-container"
	 xmlns="http://www.w3.org/2000/svg" xmlns:xlink="http://www.w3.org/1999/xlink" x="0px" y="0px" viewBox="0 0 720 1050.4"
	 style="enable-background:new 0 0 720 1050.4;" xml:space="preserve">
<style type="text/css">
	.st0{clip-path:url(#SVGID_00000145020064523254395430000013274891278886314424_);}
	.st1{clip-path:url(#SVGID_00000061436025337850037790000015485182161207950237_);}
	.st2{opacity:0.7;fill:none;stroke:#DDDDDD;stroke-width:5.6;enable-background:new    ;}
	.st3{clip-path:url(#SVGID_00000062172591451858052730000000620342285279366273_);}
	.st4{clip-path:url(#SVGID_00000148621044501969305050000013814572008499497888_);}
	.st5{clip-path:url(#SVGID_00000139980721882374963150000017119079045420671380_);}
	.st6{clip-path:url(#SVGID_00000067958457242660756930000004090941705881372302_);}
	.st7{clip-path:url(#SVGID_00000180339738282949206200000014529190168005712556_);}
	.st8{clip-path:url(#SVGID_00000120530852400907790000000015782384594996967301_);}
	.st9{clip-path:url(#SVGID_00000124148303086736277610000004713588945634397840_);}
	.st10{clip-path:url(#SVGID_00000063594817309787843300000017058202235066307491_);}
	.st11{clip-path:url(#SVGID_00000072988651867529608370000006206762063790449587_);}
	.st12{clip-path:url(#SVGID_00000031907425308593232350000010243519627702174602_);}
	.st13{clip-path:url(#SVGID_00000114776292658794060460000008017683779873510842_);}
	.st14{clip-path:url(#SVGID_00000018210471027913221250000004097000277510709417_);}
	.st15{clip-path:url(#SVGID_00000070818508550587792420000003997504372457374632_);}
	.st16{clip-path:url(#SVGID_00000180332444228072997340000013934433218878267830_);}
	.st17{clip-path:url(#SVGID_00000063607012991820561330000001851873373024325530_);}
	.st18{clip-path:url(#SVGID_00000070828091617315776280000005675648830846913408_);}
	.st19{clip-path:url(#SVGID_00000142145079170786753520000006603801275718481559_);}
	.st20{clip-path:url(#SVGID_00000153685704889227234780000001746675005245009069_);}
	.st21{clip-path:url(#SVGID_00000045612089353036587620000014716608437857843349_);}
	.st22{clip-path:url(#SVGID_00000057131872991612957840000012912648686552013206_);}
	.st23{clip-path:url(#SVGID_00000039849824508974864210000018030604340736770748_);}
	.st24{clip-path:url(#SVGID_00000022529981784207393290000004736314455964080311_);}
	.st25{fill:none;stroke:#DDDDDD;}
	.st26{font-family:'HelveticaNeue';}
	.st27{font-size:19.36px;}
	.st28{fill:#FFDB78;}
	.st29{font-size:19.96px;}
	.st30{fill:#D1A347;}
	.st31{fill:none;stroke:#DDDDDD;stroke-width:5;stroke-miterlimit:10;}
	.st32{font-size:16.89px;}
</style>
<g>
	<g>
		<defs>
			<polygon id="SVGID_1_" points="-26.5,43.5 -25.5,43.5 -26.5,44.5 			"/>
		</defs>
		<defs>
			<polygon id="SVGID_00000121970697743762286020000013993529961311621299_" points="-28.5,41.5 -29.5,41.5 -28.5,40.5 			"/>
		</defs>
		<clipPath id="SVGID_00000042722172029702309820000014260551394236025505_">
			<use xlink:href="#SVGID_1_"  style="overflow:visible;"/>
		</clipPath>
		
			<clipPath id="SVGID_00000099632299447550824730000007891940834872653759_" style="clip-path:url(#SVGID_00000042722172029702309820000014260551394236025505_);">
			<use xlink:href="#SVGID_00000121970697743762286020000013993529961311621299_"  style="overflow:visible;"/>
		</clipPath>
		<g style="clip-path:url(#SVGID_00000099632299447550824730000007891940834872653759_);">
			<path marker-end="url(#arrowhead-line-University-of-California-Berkeley-facet-)" class="st2" d="M370.1,81.6h358.1"/>
		</g>
	</g>
	<g>
		<defs>
			<polygon id="SVGID_00000089574662243858907610000016635200827464533929_" points="-26.5,43.5 -25.5,43.5 -26.5,44.5 			"/>
		</defs>
		<defs>
			<polygon id="SVGID_00000039119498696493479810000005875740066981429919_" points="-28.5,41.5 -29.5,41.5 -28.5,40.5 			"/>
		</defs>
		<clipPath id="SVGID_00000181074628407085632010000007250702433830416046_">
			<use xlink:href="#SVGID_00000089574662243858907610000016635200827464533929_"  style="overflow:visible;"/>
		</clipPath>
		
			<clipPath id="SVGID_00000003099364257161446750000011389872085659540653_" style="clip-path:url(#SVGID_00000181074628407085632010000007250702433830416046_);">
			<use xlink:href="#SVGID_00000039119498696493479810000005875740066981429919_"  style="overflow:visible;"/>
		</clipPath>
		<g style="clip-path:url(#SVGID_00000003099364257161446750000011389872085659540653_);">
			<path marker-end="url(#arrowhead-line-The-University-of-Texas-at-Austin-facet-)" class="st2" d="M464.9,118.2h242.2"/>
		</g>
	</g>
	<g>
		<defs>
			<polygon id="SVGID_00000045620871328411802150000010331084942687008662_" points="-26.5,43.5 -25.5,43.5 -26.5,44.5 			"/>
		</defs>
		<defs>
			<polygon id="SVGID_00000036251945014204764100000010276666651615538602_" points="-28.5,41.5 -29.5,41.5 -28.5,40.5 			"/>
		</defs>
		<clipPath id="SVGID_00000120555097642799367780000003707091177595878547_">
			<use xlink:href="#SVGID_00000045620871328411802150000010331084942687008662_"  style="overflow:visible;"/>
		</clipPath>
		
			<clipPath id="SVGID_00000176004539383058293800000005684901447447057544_" style="clip-path:url(#SVGID_00000120555097642799367780000003707091177595878547_);">
			<use xlink:href="#SVGID_00000036251945014204764100000010276666651615538602_"  style="overflow:visible;"/>
		</clipPath>
		<g style="clip-path:url(#SVGID_00000176004539383058293800000005684901447447057544_);">
			<path marker-end="url(#arrowhead-line-University-of-Colorado-Boulder-facet-)" class="st2" d="M306.9,154.9h210.6"/>
		</g>
	</g>
	<g>
		<defs>
			<polygon id="SVGID_00000114794546221826437000000010481090979585942716_" points="-26.5,43.5 -25.5,43.5 -26.5,44.5 			"/>
		</defs>
		<defs>
			<polygon id="SVGID_00000179634681579526215830000016811923905094420364_" points="-28.5,41.5 -29.5,41.5 -28.5,40.5 			"/>
		</defs>
		<clipPath id="SVGID_00000107552316718138139940000003704176792264697770_">
			<use xlink:href="#SVGID_00000114794546221826437000000010481090979585942716_"  style="overflow:visible;"/>
		</clipPath>
		
			<clipPath id="SVGID_00000098198359862374171350000007803230283872821146_" style="clip-path:url(#SVGID_00000107552316718138139940000003704176792264697770_);">
			<use xlink:href="#SVGID_00000179634681579526215830000016811923905094420364_"  style="overflow:visible;"/>
		</clipPath>
		<g style="clip-path:url(#SVGID_00000098198359862374171350000007803230283872821146_);">
			<path marker-end="url(#arrowhead-line-University-of-Arizona-facet-)" class="st2" d="M454.4,191.6h179"/>
		</g>
	</g>
	<g>
		<defs>
			<polygon id="SVGID_00000097482468175691115850000011123689052886629278_" points="-26.5,43.5 -25.5,43.5 -26.5,44.5 			"/>
		</defs>
		<defs>
			<polygon id="SVGID_00000045610213176353884400000003131807807391784107_" points="-28.5,41.5 -29.5,41.5 -28.5,40.5 			"/>
		</defs>
		<clipPath id="SVGID_00000098189014695466026530000010804417241288283525_">
			<use xlink:href="#SVGID_00000097482468175691115850000011123689052886629278_"  style="overflow:visible;"/>
		</clipPath>
		
			<clipPath id="SVGID_00000023999925600019610740000006744532676833949629_" style="clip-path:url(#SVGID_00000098189014695466026530000010804417241288283525_);">
			<use xlink:href="#SVGID_00000045610213176353884400000003131807807391784107_"  style="overflow:visible;"/>
		</clipPath>
		<g style="clip-path:url(#SVGID_00000023999925600019610740000006744532676833949629_);">
			<path marker-end="url(#arrowhead-line-University-of-Nevada-Reno-facet-)" class="st2" d="M422.8,228.2h179"/>
		</g>
	</g>
	<g>
		<defs>
			<polygon id="SVGID_00000005267200473232248540000004829257648530376113_" points="-26.5,43.5 -25.5,43.5 -26.5,44.5 			"/>
		</defs>
		<defs>
			<polygon id="SVGID_00000173121494343851868090000008159682948073476245_" points="-28.5,41.5 -29.5,41.5 -28.5,40.5 			"/>
		</defs>
		<clipPath id="SVGID_00000107554239856507959030000000822292067421229493_">
			<use xlink:href="#SVGID_00000005267200473232248540000004829257648530376113_"  style="overflow:visible;"/>
		</clipPath>
		
			<clipPath id="SVGID_00000085933343934158051770000008407605522303810477_" style="clip-path:url(#SVGID_00000107554239856507959030000000822292067421229493_);">
			<use xlink:href="#SVGID_00000173121494343851868090000008159682948073476245_"  style="overflow:visible;"/>
		</clipPath>
		<g style="clip-path:url(#SVGID_00000085933343934158051770000008407605522303810477_);">
			<path marker-end="url(#arrowhead-line-University-at-Buffalo-facet-)" class="st2" d="M264.8,264.9h168.5"/>
		</g>
	</g>
	<g>
		<defs>
			<polygon id="SVGID_00000093154654998744554450000003914558961050969787_" points="-26.5,43.5 -25.5,43.5 -26.5,44.5 			"/>
		</defs>
		<defs>
			<polygon id="SVGID_00000101792623406774952440000012854670990943913610_" points="-28.5,41.5 -29.5,41.5 -28.5,40.5 			"/>
		</defs>
		<clipPath id="SVGID_00000083075133213408288770000006773938628343457982_">
			<use xlink:href="#SVGID_00000093154654998744554450000003914558961050969787_"  style="overflow:visible;"/>
		</clipPath>
		
			<clipPath id="SVGID_00000171707051969151405660000017098063871241771949_" style="clip-path:url(#SVGID_00000083075133213408288770000006773938628343457982_);">
			<use xlink:href="#SVGID_00000101792623406774952440000012854670990943913610_"  style="overflow:visible;"/>
		</clipPath>
		<g style="clip-path:url(#SVGID_00000171707051969151405660000017098063871241771949_);">
			<path marker-end="url(#arrowhead-line-University-of-Rhode-Island-facet-)" class="st2" d="M275.3,301.6h168.5"/>
		</g>
	</g>
	<g>
		<defs>
			<polygon id="SVGID_00000087389614748870241730000009870363036036690576_" points="-26.5,43.5 -25.5,43.5 -26.5,44.5 			"/>
		</defs>
		<defs>
			<polygon id="SVGID_00000119815805695237395920000008719010361167168933_" points="-28.5,41.5 -29.5,41.5 -28.5,40.5 			"/>
		</defs>
		<clipPath id="SVGID_00000051344388530265417040000006320908005606040724_">
			<use xlink:href="#SVGID_00000087389614748870241730000009870363036036690576_"  style="overflow:visible;"/>
		</clipPath>
		
			<clipPath id="SVGID_00000004513077273972413830000010697832954356880271_" style="clip-path:url(#SVGID_00000051344388530265417040000006320908005606040724_);">
			<use xlink:href="#SVGID_00000119815805695237395920000008719010361167168933_"  style="overflow:visible;"/>
		</clipPath>
		<g style="clip-path:url(#SVGID_00000004513077273972413830000010697832954356880271_);">
			<path marker-end="url(#arrowhead-line-Rutgers-University-New-Brunswick-facet-)" class="st2" d="M306.9,338.2h147.4"/>
		</g>
	</g>
	<g>
		<defs>
			<polygon id="SVGID_00000080898147042936171940000015347075401259719585_" points="-26.5,43.5 -25.5,43.5 -26.5,44.5 			"/>
		</defs>
		<defs>
			<polygon id="SVGID_00000053545539561054379040000014429845957113181594_" points="-28.5,41.5 -29.5,41.5 -28.5,40.5 			"/>
		</defs>
		<clipPath id="SVGID_00000091734504508277560360000015069424536065224119_">
			<use xlink:href="#SVGID_00000080898147042936171940000015347075401259719585_"  style="overflow:visible;"/>
		</clipPath>
		
			<clipPath id="SVGID_00000051379984418583008630000008652653539820164285_" style="clip-path:url(#SVGID_00000091734504508277560360000015069424536065224119_);">
			<use xlink:href="#SVGID_00000053545539561054379040000014429845957113181594_"  style="overflow:visible;"/>
		</clipPath>
		<g style="clip-path:url(#SVGID_00000051379984418583008630000008652653539820164285_);">
			<path marker-end="url(#arrowhead-line-University-of-Florida-facet-)" class="st2" d="M401.7,374.9H507"/>
		</g>
	</g>
	<g>
		<defs>
			<polygon id="SVGID_00000062881542993104752130000018065496228062594234_" points="-26.5,43.5 -25.5,43.5 -26.5,44.5 			"/>
		</defs>
		<defs>
			<polygon id="SVGID_00000070811574017586185610000004754387038844805264_" points="-28.5,41.5 -29.5,41.5 -28.5,40.5 			"/>
		</defs>
		<clipPath id="SVGID_00000010280353177159196930000007210554843210002580_">
			<use xlink:href="#SVGID_00000062881542993104752130000018065496228062594234_"  style="overflow:visible;"/>
		</clipPath>
		
			<clipPath id="SVGID_00000155104507635243645970000013126997956443164842_" style="clip-path:url(#SVGID_00000010280353177159196930000007210554843210002580_);">
			<use xlink:href="#SVGID_00000070811574017586185610000004754387038844805264_"  style="overflow:visible;"/>
		</clipPath>
		<g style="clip-path:url(#SVGID_00000155104507635243645970000013126997956443164842_);">
			<path marker-end="url(#arrowhead-line-University-of-Nebraska-Lincoln-facet-)" class="st2" d="M254.3,411.5h105.3"/>
		</g>
	</g>
	<g>
		<defs>
			<polygon id="SVGID_00000047753206044671724370000009948828895084502163_" points="-26.5,43.5 -25.5,43.5 -26.5,44.5 			"/>
		</defs>
		<defs>
			<polygon id="SVGID_00000098207912313226094600000005088195636945321911_" points="-28.5,41.5 -29.5,41.5 -28.5,40.5 			"/>
		</defs>
		<clipPath id="SVGID_00000145768992125871331710000010141500788922054821_">
			<use xlink:href="#SVGID_00000047753206044671724370000009948828895084502163_"  style="overflow:visible;"/>
		</clipPath>
		
			<clipPath id="SVGID_00000060032330506821834970000003017741911329100713_" style="clip-path:url(#SVGID_00000145768992125871331710000010141500788922054821_);">
			<use xlink:href="#SVGID_00000098207912313226094600000005088195636945321911_"  style="overflow:visible;"/>
		</clipPath>
		<g style="clip-path:url(#SVGID_00000060032330506821834970000003017741911329100713_);">
			<path marker-end="url(#arrowhead-line-University-of-Massachusetts-Amherst-facet-)" class="st2" d="M264.8,448.2h105.3"/>
		</g>
	</g>
	<g>
		<defs>
			<polygon id="SVGID_00000005969176777696282370000008049564235161249445_" points="-26.5,43.5 -25.5,43.5 -26.5,44.5 			"/>
		</defs>
		<defs>
			<polygon id="SVGID_00000152262253605652130360000003322202931995658682_" points="-28.5,41.5 -29.5,41.5 -28.5,40.5 			"/>
		</defs>
		<clipPath id="SVGID_00000133491422701926644070000003904569464623483535_">
			<use xlink:href="#SVGID_00000005969176777696282370000008049564235161249445_"  style="overflow:visible;"/>
		</clipPath>
		
			<clipPath id="SVGID_00000019644276820268976410000011587635541365812353_" style="clip-path:url(#SVGID_00000133491422701926644070000003904569464623483535_);">
			<use xlink:href="#SVGID_00000152262253605652130360000003322202931995658682_"  style="overflow:visible;"/>
		</clipPath>
		<g style="clip-path:url(#SVGID_00000019644276820268976410000011587635541365812353_);">
			<path marker-end="url(#arrowhead-line-University-of-Kansas-facet-)" class="st2" d="M254.3,484.9h115.8"/>
		</g>
	</g>
</g>
<line class="st25" x1="96.3" y1="165" x2="96.3" y2="142"/>
<text transform="matrix(1 0 0 1 40.86 62.37)" class="st26 st27">University of Califo</text>
<text transform="matrix(1 0 0 1 203.61 62.37)" class="st26 st27">r</text>
<text transform="matrix(1 0 0 1 210.41 62.37)" class="st26 st27">nia-Berkeley</text>
<line class="st25" x1="629.4" y1="165" x2="629.4" y2="142"/>
<g>
	<text transform="matrix(1 0 0 1 96.27 113.59)" class="st28 st26 st29">Pe</text>
	<text transform="matrix(1 0 0 1 119.93 113.59)" class="st28 st26 st29">r</text>
	<text transform="matrix(1 0 0 1 126.21 113.59)" class="st28 st26 st29">cent of f</text>
	<text transform="matrix(1 0 0 1 199.42 113.59)" class="st28 st26 st29">r</text>
	<text transform="matrix(1 0 0 1 205.71 113.59)" class="st28 st26 st29">eshmen</text>
</g>
<g>
	<text transform="matrix(1 0 0 1 96.27 137.55)" class="st28 st26 st29">who a</text>
	<text transform="matrix(1 0 0 1 150.23 137.55)" class="st28 st26 st29">r</text>
	<text transform="matrix(1 0 0 1 156.52 137.55)" class="st28 st26 st29">e Hispanic/Latino</text>
</g>
<text transform="matrix(1 0 0 1 477.54 89.64)" class="st30 st26 st29">Pe</text>
<text transform="matrix(1 0 0 1 501.2 89.64)" class="st30 st26 st29">r</text>
<text transform="matrix(1 0 0 1 507.48 89.64)" class="st30 st26 st29">cent of public</text>
<text transform="matrix(1 0 0 1 431.63 113.59)" class="st30 st26 st29">high school graduates</text>
<text transform="matrix(1 0 0 1 413.2 137.55)" class="st30 st26 st29">who a</text>
<text transform="matrix(1 0 0 1 467.16 137.55)" class="st30 st26 st29">r</text>
<text transform="matrix(1 0 0 1 473.45 137.55)" class="st30 st26 st29">e Hispanic/Latino</text>
<line class="st31" x1="96.1" y1="166.2" x2="629.7" y2="166.2"/>
<path id="dot-0" vector-effect="non-scaling-stroke" class="st28" d="M105.2,166.2c0,4.9-4,8.9-8.9,8.9s-8.9-4-8.9-8.9
	s4-8.9,8.9-8.9C101,157.2,105.2,161.2,105.2,166.2"/>
<path id="dot-1" vector-effect="non-scaling-stroke" class="st30" d="M638.3,166.2c0,4.9-4,8.9-8.9,8.9s-8.9-4-8.9-8.9
	s4-8.9,8.9-8.9S638.3,161.2,638.3,166.2"/>
<text transform="matrix(1 0 0 1 42.29 173.12)" class="st28 st26 st32">20%</text>
<text transform="matrix(1 0 0 1 647.63 173.12)" class="st30 st26 st32">54%</text>
<text transform="matrix(1 0 0 1 42.29 213.65)" class="st26 st27">University of Texas at Austin </text>
<g>
	<line class="st31" x1="93.5" y1="241.9" x2="457" y2="241.9"/>
	<path id="dot-2" vector-effect="non-scaling-stroke" class="st28" d="M105.2,241.9c0,4.9-4,8.9-8.9,8.9s-8.9-4-8.9-8.9
		s4-8.9,8.9-8.9C101.2,233,105.2,237,105.2,241.9"/>
	<path id="dot-3" vector-effect="non-scaling-stroke" class="st30" d="M465.9,241.9c0,4.9-4,8.9-8.9,8.9s-8.9-4-8.9-8.9
		s4-8.9,8.9-8.9S465.9,237,465.9,241.9"/>
	<text transform="matrix(1 0 0 1 42.33 248.14)" class="st28 st26 st32">29%</text>
	<text transform="matrix(1 0 0 1 475.13 248.14)" class="st30 st26 st32">52%</text>
</g>
<g>
	<text transform="matrix(1 0 0 1 433.17 323.16)" class="st30 st26 st32">34%</text>
	<g>
		<text transform="matrix(1 0 0 1 42.37 962.38)" class="st26 st27">University of Kansas</text>
		<text transform="matrix(1 0 0 1 42.37 887.94)" class="st26 st27">University of Massachusetts-Amherst</text>
		<text transform="matrix(1 0 0 1 42.37 813.26)" class="st26 st27">University of Nebraska-Lincoln</text>
		<text transform="matrix(1 0 0 1 42.37 738.27)" class="st26 st27">University of Florida</text>
		<text transform="matrix(1 0 0 1 42.29 663.57)" class="st26 st27">Rutgers University-New Brunswick</text>
		<text transform="matrix(1 0 0 1 42.37 588.72)" class="st26 st27">University of Rhode Island</text>
		<text transform="matrix(1 0 0 1 42.37 513.79)" class="st26 st27">University at Bu</text>
		<text transform="matrix(1 0 0 1 178.98 513.79)" class="st26 st27">f</text>
		<text transform="matrix(1 0 0 1 184.37 513.79)" class="st26 st27">falo</text>
		<text transform="matrix(1 0 0 1 42.36 438.8)" class="st26 st27">University of Nevada-Reno</text>
		<text transform="matrix(1 0 0 1 42.36 363.76)" class="st26 st27">University of Arizona</text>
		<text transform="matrix(1 0 0 1 42.36 288.84)" class="st26 st27">University of Colorado Boulder</text>
		<line class="st31" x1="97.6" y1="317.1" x2="413" y2="317.1"/>
		<path id="dot-4" vector-effect="non-scaling-stroke" class="st28" d="M106.7,317.1c0,4.9-4,8.9-8.9,8.9s-8.9-4-8.9-8.9
			s4-8.9,8.9-8.9C102.7,308.1,106.7,312,106.7,317.1"/>
		<text transform="matrix(1 0 0 1 43.8 323.22)" class="st28 st26 st32">14%</text>
		<line class="st31" x1="97.6" y1="392" x2="364.3" y2="392"/>
		<path id="dot-6" vector-effect="non-scaling-stroke" class="st28" d="M106.7,392c0,4.9-4,8.9-8.9,8.9s-8.9-4-8.9-8.9
			s4-8.9,8.9-8.9S106.7,387.1,106.7,392"/>
		<path id="dot-7" vector-effect="non-scaling-stroke" class="st30" d="M373.2,392c0,4.9-4,8.9-8.9,8.9s-8.9-4-8.9-8.9
			s4-8.9,8.9-8.9S373.2,387.1,373.2,392"/>
		<text transform="matrix(1 0 0 1 43.8 398.27)" class="st28 st26 st32">28%</text>
		<text transform="matrix(1 0 0 1 382.49 398.2)" class="st30 st26 st32">45%</text>
		<line class="st31" x1="98" y1="467.1" x2="364.3" y2="467.1"/>
		<path id="dot-8" vector-effect="non-scaling-stroke" class="st28" d="M106.6,467.1c0,4.9-4,8.9-8.9,8.9s-8.9-4-8.9-8.9
			s4-8.9,8.9-8.9S106.6,462.1,106.6,467.1"/>
		<path id="dot-9" vector-effect="non-scaling-stroke" class="st30" d="M373.3,467.1c0,4.9-4,8.9-8.9,8.9s-8.9-4-8.9-8.9
			s4-8.9,8.9-8.9S373.3,462.1,373.3,467.1"/>
		<text transform="matrix(1 0 0 1 43.8 473.26)" class="st28 st26 st32">25%</text>
		<text transform="matrix(1 0 0 1 382.49 473.19)" class="st30 st26 st32">42%</text>
		<line class="st31" x1="98" y1="542.2" x2="350.8" y2="542.2"/>
		<path id="dot-10" vector-effect="non-scaling-stroke" class="st28" d="M106.6,542.1c0,4.9-4,8.9-8.9,8.9s-8.9-4-8.9-8.9
			s4-8.9,8.9-8.9C102.6,533,106.6,537,106.6,542.1"/>
		<path id="dot-11" vector-effect="non-scaling-stroke" class="st30" d="M357.5,542.1c0,4.9-4,8.9-8.9,8.9s-8.9-4-8.9-8.9
			s4-8.9,8.9-8.9C353.5,533,357.5,537,357.5,542.1"/>
		<text transform="matrix(1 0 0 1 43.8 548.19)" class="st28 st26 st32">10%</text>
		<text transform="matrix(1 0 0 1 366.8 548.12)" class="st30 st26 st32">26%</text>
		<line class="st31" x1="96.3" y1="617.5" x2="348.6" y2="617.5"/>
		<path id="dot-12" vector-effect="non-scaling-stroke" class="st28" d="M106.6,617c0,4.9-4,8.9-8.9,8.9s-8.9-4-8.9-8.9
			s4-8.9,8.9-8.9S106.6,612.1,106.6,617"/>
		<path id="dot-13" vector-effect="non-scaling-stroke" class="st30" d="M357.6,617c0,4.9-4,8.9-8.9,8.9s-8.9-4-8.9-8.9
			s4-8.9,8.9-8.9S357.6,612.1,357.6,617"/>
		<text transform="matrix(1 0 0 1 43.8 623.2)" class="st28 st26 st32">11%</text>
		<text transform="matrix(1 0 0 1 366.8 623.13)" class="st30 st26 st32">27%</text>
		<line class="st31" x1="97.6" y1="691.9" x2="317.2" y2="691.9"/>
		<g>
			<path id="dot-14" vector-effect="non-scaling-stroke" class="st28" d="M106.7,691.9c0,4.9-4,8.9-8.9,8.9s-8.9-4-8.9-8.9
				s4-8.9,8.9-8.9C102.7,682.8,106.7,686.8,106.7,691.9"/>
			<path id="dot-15" vector-effect="non-scaling-stroke" class="st30" d="M326.3,691.9c0,4.9-4,8.9-8.9,8.9s-8.9-4-8.9-8.9
				s4-8.9,8.9-8.9C322.3,682.8,326.3,686.8,326.3,691.9"/>
			<text transform="matrix(1 0 0 1 43.8 697.74)" class="st28 st26 st32">14%</text>
			<text transform="matrix(1 0 0 1 335.43 697.67)" class="st30 st26 st32">28%</text>
		</g>
		<line class="st31" x1="95.4" y1="766.5" x2="256.8" y2="766.5"/>
		<path id="dot-16" vector-effect="non-scaling-stroke" class="st28" d="M106.6,766.5c0,4.9-4,8.9-8.9,8.9s-8.9-4-8.9-8.9
			s4-8.9,8.9-8.9S106.6,761.6,106.6,766.5"/>
		<path id="dot-17" vector-effect="non-scaling-stroke" class="st30" d="M263.4,766.5c0,4.9-4,8.9-8.9,8.9s-8.9-4-8.9-8.9
			s4-8.9,8.9-8.9C259.4,757.6,263.4,761.6,263.4,766.5"/>
		<text transform="matrix(1 0 0 1 43.8 772.72)" class="st28 st26 st32">23%</text>
		<text transform="matrix(1 0 0 1 272.69 772.66)" class="st30 st26 st32">33%</text>
		<line class="st31" x1="86.8" y1="841.5" x2="245.1" y2="841.5"/>
		<path id="dot-18" vector-effect="non-scaling-stroke" class="st28" d="M97.2,841.5c0,4.9-4,8.9-8.9,8.9s-8.9-4-8.9-8.9
			s4-8.9,8.9-8.9C93.2,832.5,97.2,836.6,97.2,841.5"/>
		<path id="dot-19" vector-effect="non-scaling-stroke" class="st30" d="M254,841.5c0,4.9-4,8.9-8.9,8.9s-8.9-4-8.9-8.9
			s4-8.9,8.9-8.9C250,832.5,254,836.6,254,841.5"/>
		<text transform="matrix(1 0 0 1 43.8 847.41)" class="st28 st26 st32">9%</text>
		<text transform="matrix(1 0 0 1 263.3 847.34)" class="st30 st26 st32">19%</text>
		<line class="st31" x1="97.1" y1="916.5" x2="254.5" y2="916.5"/>
		<g>
			<path id="dot-20" vector-effect="non-scaling-stroke" class="st28" d="M106.6,916.8c0,4.9-4,8.9-8.9,8.9s-8.9-4-8.9-8.9
				s4-8.9,8.9-8.9C102.6,907.9,106.6,911.9,106.6,916.8"/>
			<path id="dot-21" vector-effect="non-scaling-stroke" class="st30" d="M263.5,916.8c0,4.9-4,8.9-8.9,8.9s-8.9-4-8.9-8.9
				s4-8.9,8.9-8.9C259.4,907.9,263.5,911.9,263.5,916.8"/>
			<text transform="matrix(1 0 0 1 43.8 921.85)" class="st28 st26 st32">10%</text>
			<text transform="matrix(1 0 0 1 272.69 921.78)" class="st30 st26 st32">20%</text>
		</g>
		<line class="st31" x1="87.9" y1="990.7" x2="260.8" y2="990.7"/>
		<g>
			<path id="dot-22" vector-effect="non-scaling-stroke" class="st28" d="M97.2,990.7c0,4.9-4,8.9-8.9,8.9s-8.9-4-8.9-8.9
				s4-8.9,8.9-8.9C93.2,981.7,97.2,985.7,97.2,990.7"/>
			<path id="dot-23" vector-effect="non-scaling-stroke" class="st30" d="M269.8,990.7c0,4.9-4,8.9-8.9,8.9s-8.9-4-8.9-8.9
				s4-8.9,8.9-8.9C265.7,981.7,269.8,985.7,269.8,990.7"/>
			<text transform="matrix(1 0 0 1 43.8 996.55)" class="st28 st26 st32">9%</text>
			<text transform="matrix(1 0 0 1 278.99 996.48)" class="st30 st26 st32">20%</text>
		</g>
	</g>
	<path id="dot-5" vector-effect="non-scaling-stroke" class="st30" d="M424,317.1c0,4.9-4,8.9-8.9,8.9s-8.9-4-8.9-8.9s4-8.9,8.9-8.9
		C419.9,308.1,424,312,424,317.1"/>
</g>
</svg>
